<?xml version="1.0" encoding="UTF-8" standalone="no"?>
<!-- Created with Inkscape (http://www.inkscape.org/) -->

<svg
   width="225mm"
   height="174mm"
   viewBox="0 0 225 174"
   version="1.1"
   id="svg5"
   inkscape:version="1.1 (c4e8f9e, 2021-05-24)"
   sodipodi:docname="break.svg"
   xmlns:inkscape="http://www.inkscape.org/namespaces/inkscape"
   xmlns:sodipodi="http://sodipodi.sourceforge.net/DTD/sodipodi-0.dtd"
   xmlns:xlink="http://www.w3.org/1999/xlink"
   xmlns="http://www.w3.org/2000/svg"
   xmlns:svg="http://www.w3.org/2000/svg"
   xmlns:ns2="http://www.iki.fi/pav/software/textext/">
  <sodipodi:namedview
     id="namedview7"
     pagecolor="#ffffff"
     bordercolor="#666666"
     borderopacity="1.0"
     inkscape:pageshadow="2"
     inkscape:pageopacity="0.0"
     inkscape:pagecheckerboard="0"
     inkscape:document-units="mm"
     showgrid="false"
     inkscape:zoom="0.86667681"
     inkscape:cx="358.26504"
     inkscape:cy="274.61217"
     inkscape:window-width="1312"
     inkscape:window-height="762"
     inkscape:window-x="43"
     inkscape:window-y="25"
     inkscape:window-maximized="0"
     inkscape:current-layer="layer1"
     height="184mm"
     width="201mm" />
  <defs
     id="defs2">
    <inkscape:perspective
       sodipodi:type="inkscape:persp3d"
       inkscape:vp_x="0 : 69 : 1"
       inkscape:vp_y="0 : 1000 : 0"
       inkscape:vp_z="296.99996 : 69 : 1"
       inkscape:persp3d-origin="148.49999 : 34.000003 : 1"
       id="perspective1043" />
    <linearGradient
       inkscape:collect="always"
       xlink:href="#linearGradient3192"
       id="linearGradient3194"
       x1="78.311867"
       y1="29.362341"
       x2="121.60235"
       y2="29.362341"
       gradientUnits="userSpaceOnUse"
       gradientTransform="translate(-16.38854,83.480971)" />
    <linearGradient
       inkscape:collect="always"
       id="linearGradient3192">
      <stop
         style="stop-color:#0000ff;stop-opacity:0.44999999"
         offset="0"
         id="stop3188" />
      <stop
         style="stop-color:#ff0000;stop-opacity:0.44999999"
         offset="1"
         id="stop3190" />
    </linearGradient>
    <linearGradient
       inkscape:collect="always"
       xlink:href="#linearGradient3192"
       id="linearGradient3194-9"
       x1="78.311867"
       y1="29.362341"
       x2="121.60235"
       y2="29.362341"
       gradientUnits="userSpaceOnUse"
       gradientTransform="translate(-60.336566,83.235505)" />
    <g
       id="id-0201e8ab-4dc1-444a-96e0-6a4320f3c049">
      <symbol
         overflow="visible"
         id="id-47ff57c4-ee0f-4d64-b2fa-5a3e43030049">
        <path
           style="stroke:none;stroke-width:0"
           d=""
           id="id-cf789cdd-c2d1-4945-8b10-21c313a49be3" />
      </symbol>
      <symbol
         overflow="visible"
         id="id-3ab5157a-ccde-494c-8457-38ee1adb14c6">
        <path
           style="stroke:none;stroke-width:0"
           d="M 2.625,-4.359375 C 1.390625,-4.0625 0.421875,-2.765625 0.421875,-1.5625 0.421875,-0.59375 1.0625,0.125 2,0.125 c 1.15625,0 1.984375,-1.578125 1.984375,-2.953125 0,-0.90625 -0.390625,-1.40625 -0.734375,-1.84375 C 2.890625,-5.125 2.296875,-5.875 2.296875,-6.3125 c 0,-0.21875 0.203125,-0.453125 0.546875,-0.453125 0.3125,0 0.5,0.125 0.71875,0.265625 0.203125,0.125 0.390625,0.25 0.546875,0.25 C 4.359375,-6.25 4.5,-6.484375 4.5,-6.65625 4.5,-6.875 4.34375,-6.890625 3.984375,-6.984375 3.46875,-7.09375 3.328125,-7.09375 3.171875,-7.09375 c -0.78125,0 -1.140625,0.4375 -1.140625,1.03125 0,0.546875 0.296875,1.09375 0.59375,1.703125 z m 0.125,0.21875 c 0.25,0.46875 0.546875,1 0.546875,1.71875 0,0.65625 -0.375,2.328125 -1.296875,2.328125 -0.546875,0 -0.96875,-0.421875 -0.96875,-1.1875 0,-0.625 0.375,-2.5 1.71875,-2.859375 z m 0,0"
           id="id-37813a42-deec-42dd-ab18-3c31968ecd3a" />
      </symbol>
      <symbol
         overflow="visible"
         id="id-e74c7ff2-07c1-4b1b-a79e-22e45df48ec1">
        <path
           style="stroke:none;stroke-width:0"
           d=""
           id="id-88a59a9b-920e-400e-b824-a8827187059d" />
      </symbol>
      <symbol
         overflow="visible"
         id="id-b7d8e64e-2551-46ae-8d7f-a597193dfcff">
        <path
           style="stroke:none;stroke-width:0"
           d="m 4.078125,-2.296875 h 2.78125 C 7,-2.296875 7.1875,-2.296875 7.1875,-2.5 7.1875,-2.6875 7,-2.6875 6.859375,-2.6875 h -2.78125 v -2.796875 c 0,-0.140625 0,-0.328125 -0.203125,-0.328125 -0.203125,0 -0.203125,0.1875 -0.203125,0.328125 V -2.6875 h -2.78125 c -0.140625,0 -0.328125,0 -0.328125,0.1875 0,0.203125 0.1875,0.203125 0.328125,0.203125 h 2.78125 V 0.5 c 0,0.140625 0,0.328125 0.203125,0.328125 0.203125,0 0.203125,-0.1875 0.203125,-0.328125 z m 0,0"
           id="id-ba86c309-6cc1-4415-8eb6-d27d940d1659" />
      </symbol>
    </g>
    <g
       id="g4099">
      <symbol
         overflow="visible"
         id="symbol4085">
        <path
           style="stroke:none;stroke-width:0"
           d=""
           id="path4083" />
      </symbol>
      <symbol
         overflow="visible"
         id="symbol4089">
        <path
           style="stroke:none;stroke-width:0"
           d="M 2.625,-4.359375 C 1.390625,-4.0625 0.421875,-2.765625 0.421875,-1.5625 0.421875,-0.59375 1.0625,0.125 2,0.125 c 1.15625,0 1.984375,-1.578125 1.984375,-2.953125 0,-0.90625 -0.390625,-1.40625 -0.734375,-1.84375 C 2.890625,-5.125 2.296875,-5.875 2.296875,-6.3125 c 0,-0.21875 0.203125,-0.453125 0.546875,-0.453125 0.3125,0 0.5,0.125 0.71875,0.265625 0.203125,0.125 0.390625,0.25 0.546875,0.25 C 4.359375,-6.25 4.5,-6.484375 4.5,-6.65625 4.5,-6.875 4.34375,-6.890625 3.984375,-6.984375 3.46875,-7.09375 3.328125,-7.09375 3.171875,-7.09375 c -0.78125,0 -1.140625,0.4375 -1.140625,1.03125 0,0.546875 0.296875,1.09375 0.59375,1.703125 z m 0.125,0.21875 c 0.25,0.46875 0.546875,1 0.546875,1.71875 0,0.65625 -0.375,2.328125 -1.296875,2.328125 -0.546875,0 -0.96875,-0.421875 -0.96875,-1.1875 0,-0.625 0.375,-2.5 1.71875,-2.859375 z m 0,0"
           id="path4087" />
      </symbol>
      <symbol
         overflow="visible"
         id="symbol4093">
        <path
           style="stroke:none;stroke-width:0"
           d=""
           id="path4091" />
      </symbol>
      <symbol
         overflow="visible"
         id="symbol4097">
        <path
           style="stroke:none;stroke-width:0"
           d="m 6.5625,-2.296875 c 0.171875,0 0.359375,0 0.359375,-0.203125 0,-0.1875 -0.1875,-0.1875 -0.359375,-0.1875 H 1.171875 c -0.171875,0 -0.34375,0 -0.34375,0.1875 0,0.203125 0.171875,0.203125 0.34375,0.203125 z m 0,0"
           id="path4095" />
      </symbol>
    </g>
    <linearGradient
       inkscape:collect="always"
       xlink:href="#linearGradient3192"
       id="linearGradient5983"
       gradientUnits="userSpaceOnUse"
       gradientTransform="matrix(0.44955774,0,0,0.70039132,63.518534,-143.89073)"
       x1="78.311867"
       y1="29.362341"
       x2="121.60235"
       y2="29.362341" />
    <linearGradient
       inkscape:collect="always"
       xlink:href="#linearGradient3192"
       id="linearGradient5985"
       gradientUnits="userSpaceOnUse"
       gradientTransform="matrix(0.44955777,0,0,0.70039136,38.229454,-123.65027)"
       x1="78.311867"
       y1="29.362341"
       x2="121.60235"
       y2="29.362341" />
  </defs>
  <g
     inkscape:label="Layer 1"
     inkscape:groupmode="layer"
     id="layer1">
    <path
       style="fill:none;stroke:none;stroke-width:0.307116px;stroke-linecap:butt;stroke-linejoin:miter;stroke-opacity:1"
       d="M 7.071284,61.855728 H 199.79874"
       id="path4508" />
    <path
       style="fill:none;stroke:none;stroke-width:0.264583px;stroke-linecap:butt;stroke-linejoin:miter;stroke-opacity:1"
       d="M 28.655006,-9.798933 V 128.30259"
       id="path4658" />
    <path
       style="fill:none;stroke:none;stroke-width:0.264583px;stroke-linecap:butt;stroke-linejoin:miter;stroke-opacity:1"
       d="M 178.22265,-10.053733 V 128.04779"
       id="path4740" />
    <g
       transform="matrix(1.05987,0,0,1.05987,29.053776,132.79312)"
       ns2:version="1.5.0"
       ns2:texconverter="pdflatex"
       ns2:pdfconverter="inkscape"
       ns2:text="$t_0$\n"
       ns2:preamble="default_packages.tex"
       ns2:scale="3.0043524111480138"
       ns2:alignment="middle center"
       ns2:stroke-to-path="0"
       ns2:inkscapeversion="1.1"
       ns2:jacobian_sqrt="1.05987"
       id="g7459">
      <defs
         id="id-07ae6a02-d8cd-49f0-b16c-1889824825cf">
        <g
           id="id-2db4d4e3-ed55-4e19-807f-3fdfcfab8601">
          <symbol
             overflow="visible"
             id="id-1a73209b-3293-4976-a781-58f3d797803c">
            <path
               style="stroke:none;stroke-width:0"
               d=""
               id="id-6e20a677-54cf-43d6-b24f-41ab3005bc4d" />
          </symbol>
          <symbol
             overflow="visible"
             id="id-747ad1da-fb30-4a58-9b56-d53ad460d035">
            <path
               style="stroke:none;stroke-width:0"
               d="m 2.046875,-3.984375 h 0.9375 c 0.203125,0 0.3125,0 0.3125,-0.203125 0,-0.109375 -0.109375,-0.109375 -0.28125,-0.109375 h -0.875 C 2.5,-5.71875 2.546875,-5.90625 2.546875,-5.96875 c 0,-0.171875 -0.125,-0.265625 -0.296875,-0.265625 -0.03125,0 -0.3125,0 -0.390625,0.359375 L 1.46875,-4.296875 h -0.9375 c -0.203125,0 -0.296875,0 -0.296875,0.1875 0,0.125 0.078125,0.125 0.28125,0.125 h 0.875 C 0.671875,-1.15625 0.625,-0.984375 0.625,-0.8125 0.625,-0.265625 1,0.109375 1.546875,0.109375 2.5625,0.109375 3.125,-1.34375 3.125,-1.421875 3.125,-1.53125 3.046875,-1.53125 3.015625,-1.53125 2.921875,-1.53125 2.90625,-1.5 2.859375,-1.390625 2.4375,-0.34375 1.90625,-0.109375 1.5625,-0.109375 c -0.203125,0 -0.3125,-0.125 -0.3125,-0.453125 0,-0.25 0.03125,-0.3125 0.0625,-0.484375 z m 0,0"
               id="id-7ed33c7b-f3d8-491b-a55a-f7d68bf5d44f" />
          </symbol>
          <symbol
             overflow="visible"
             id="id-2d68650c-a58a-4dcb-bf49-9d41c9d2e921">
            <path
               style="stroke:none;stroke-width:0"
               d=""
               id="id-1806dc11-7241-4e96-bdc2-9bf3522a30e9" />
          </symbol>
          <symbol
             overflow="visible"
             id="id-47de4d48-b3c0-4968-a8fc-78004e236e4c">
            <path
               style="stroke:none;stroke-width:0"
               d="M 3.59375,-2.21875 C 3.59375,-2.984375 3.5,-3.546875 3.1875,-4.03125 2.96875,-4.34375 2.53125,-4.625 1.984375,-4.625 c -1.625,0 -1.625,1.90625 -1.625,2.40625 0,0.5 0,2.359375 1.625,2.359375 1.609375,0 1.609375,-1.859375 1.609375,-2.359375 z M 1.984375,-0.0625 c -0.328125,0 -0.75,-0.1875 -0.890625,-0.75 C 1,-1.21875 1,-1.796875 1,-2.3125 1,-2.828125 1,-3.359375 1.09375,-3.734375 1.25,-4.28125 1.6875,-4.4375 1.984375,-4.4375 c 0.375,0 0.734375,0.234375 0.859375,0.640625 0.109375,0.375 0.125,0.875 0.125,1.484375 0,0.515625 0,1.03125 -0.09375,1.46875 -0.140625,0.640625 -0.609375,0.78125 -0.890625,0.78125 z m 0,0"
               id="id-c1e03f5b-a21d-4368-8b9a-34dd286ba3fc" />
          </symbol>
        </g>
      </defs>
      <g
         id="id-7bc2d111-53f5-4717-9a71-20076a4faa67"
         transform="translate(-148.946,-128.531)">
        <g
           style="fill:#000000;fill-opacity:1"
           id="id-3400195c-721b-4c5a-b05e-2161d25b1118">
          <g
             transform="translate(148.712,134.765)"
             id="g7451">
            <path
               style="stroke:none;stroke-width:0"
               d="m 2.046875,-3.984375 h 0.9375 c 0.203125,0 0.3125,0 0.3125,-0.203125 0,-0.109375 -0.109375,-0.109375 -0.28125,-0.109375 h -0.875 C 2.5,-5.71875 2.546875,-5.90625 2.546875,-5.96875 c 0,-0.171875 -0.125,-0.265625 -0.296875,-0.265625 -0.03125,0 -0.3125,0 -0.390625,0.359375 L 1.46875,-4.296875 h -0.9375 c -0.203125,0 -0.296875,0 -0.296875,0.1875 0,0.125 0.078125,0.125 0.28125,0.125 h 0.875 C 0.671875,-1.15625 0.625,-0.984375 0.625,-0.8125 0.625,-0.265625 1,0.109375 1.546875,0.109375 2.5625,0.109375 3.125,-1.34375 3.125,-1.421875 3.125,-1.53125 3.046875,-1.53125 3.015625,-1.53125 2.921875,-1.53125 2.90625,-1.5 2.859375,-1.390625 2.4375,-0.34375 1.90625,-0.109375 1.5625,-0.109375 c -0.203125,0 -0.3125,-0.125 -0.3125,-0.453125 0,-0.25 0.03125,-0.3125 0.0625,-0.484375 z m 0,0"
               id="id-81c9d88f-dc59-4474-8b2c-517a1cf7169d" />
          </g>
        </g>
        <g
           style="fill:#000000;fill-opacity:1"
           id="id-4ae9a9a9-ae34-4371-9c4e-d7eeae513f79">
          <g
             transform="translate(152.31,136.259)"
             id="g7455">
            <path
               style="stroke:none;stroke-width:0"
               d="M 3.59375,-2.21875 C 3.59375,-2.984375 3.5,-3.546875 3.1875,-4.03125 2.96875,-4.34375 2.53125,-4.625 1.984375,-4.625 c -1.625,0 -1.625,1.90625 -1.625,2.40625 0,0.5 0,2.359375 1.625,2.359375 1.609375,0 1.609375,-1.859375 1.609375,-2.359375 z M 1.984375,-0.0625 c -0.328125,0 -0.75,-0.1875 -0.890625,-0.75 C 1,-1.21875 1,-1.796875 1,-2.3125 1,-2.828125 1,-3.359375 1.09375,-3.734375 1.25,-4.28125 1.6875,-4.4375 1.984375,-4.4375 c 0.375,0 0.734375,0.234375 0.859375,0.640625 0.109375,0.375 0.125,0.875 0.125,1.484375 0,0.515625 0,1.03125 -0.09375,1.46875 -0.140625,0.640625 -0.609375,0.78125 -0.890625,0.78125 z m 0,0"
               id="id-65b62196-6678-4a11-8ce5-e8d8cb54aaf8" />
          </g>
        </g>
      </g>
    </g>
    <g
       transform="matrix(1.05987,0,0,1.05987,107.30297,132.79312)"
       ns2:version="1.5.0"
       ns2:texconverter="pdflatex"
       ns2:pdfconverter="inkscape"
       ns2:text="$t_1$\n"
       ns2:preamble="default_packages.tex"
       ns2:scale="3.0043524111480138"
       ns2:alignment="middle center"
       ns2:stroke-to-path="0"
       ns2:inkscapeversion="1.1"
       ns2:jacobian_sqrt="1.05987"
       id="g7788">
      <defs
         id="id-44047515-605d-4758-b30b-119a7ec9b25c">
        <g
           id="id-e2a7e563-212e-4949-9df5-b37581d5e47a">
          <symbol
             overflow="visible"
             id="id-8fb234aa-dbce-45b5-9b58-2213f20db2f2">
            <path
               style="stroke:none;stroke-width:0"
               d=""
               id="id-fde53063-37ff-4ec2-992a-c062683d7d1d" />
          </symbol>
          <symbol
             overflow="visible"
             id="id-12462435-19be-4121-9faf-93218eeb4cec">
            <path
               style="stroke:none;stroke-width:0"
               d="m 2.046875,-3.984375 h 0.9375 c 0.203125,0 0.3125,0 0.3125,-0.203125 0,-0.109375 -0.109375,-0.109375 -0.28125,-0.109375 h -0.875 C 2.5,-5.71875 2.546875,-5.90625 2.546875,-5.96875 c 0,-0.171875 -0.125,-0.265625 -0.296875,-0.265625 -0.03125,0 -0.3125,0 -0.390625,0.359375 L 1.46875,-4.296875 h -0.9375 c -0.203125,0 -0.296875,0 -0.296875,0.1875 0,0.125 0.078125,0.125 0.28125,0.125 h 0.875 C 0.671875,-1.15625 0.625,-0.984375 0.625,-0.8125 0.625,-0.265625 1,0.109375 1.546875,0.109375 2.5625,0.109375 3.125,-1.34375 3.125,-1.421875 3.125,-1.53125 3.046875,-1.53125 3.015625,-1.53125 2.921875,-1.53125 2.90625,-1.5 2.859375,-1.390625 2.4375,-0.34375 1.90625,-0.109375 1.5625,-0.109375 c -0.203125,0 -0.3125,-0.125 -0.3125,-0.453125 0,-0.25 0.03125,-0.3125 0.0625,-0.484375 z m 0,0"
               id="id-5a7b8559-2c1f-4713-aa2f-423d83cba78c" />
          </symbol>
          <symbol
             overflow="visible"
             id="id-a5f9068d-515e-4827-a780-1516cd785236">
            <path
               style="stroke:none;stroke-width:0"
               d=""
               id="id-70e50df7-07cb-401c-9e5d-49846f97e6de" />
          </symbol>
          <symbol
             overflow="visible"
             id="id-c809dc61-ee25-4e31-98a7-0190644de1f0">
            <path
               style="stroke:none;stroke-width:0"
               d="m 2.328125,-4.4375 c 0,-0.1875 0,-0.1875 -0.203125,-0.1875 -0.453125,0.4375 -1.078125,0.4375 -1.359375,0.4375 v 0.25 c 0.15625,0 0.625,0 1,-0.1875 v 3.546875 c 0,0.234375 0,0.328125 -0.6875,0.328125 H 0.8125 V 0 c 0.125,0 0.984375,-0.03125 1.234375,-0.03125 0.21875,0 1.09375,0.03125 1.25,0.03125 V -0.25 H 3.03125 c -0.703125,0 -0.703125,-0.09375 -0.703125,-0.328125 z m 0,0"
               id="id-93e885b1-1ff8-48b0-b723-c7aadf700063" />
          </symbol>
        </g>
      </defs>
      <g
         id="id-eeb08c3f-6d16-4278-8c3e-54eacb687135"
         transform="translate(-148.946,-128.531)">
        <g
           style="fill:#000000;fill-opacity:1"
           id="id-897bb85d-c746-4716-9070-4c52a3ec30e0">
          <g
             transform="translate(148.712,134.765)"
             id="g7780">
            <path
               style="stroke:none;stroke-width:0"
               d="m 2.046875,-3.984375 h 0.9375 c 0.203125,0 0.3125,0 0.3125,-0.203125 0,-0.109375 -0.109375,-0.109375 -0.28125,-0.109375 h -0.875 C 2.5,-5.71875 2.546875,-5.90625 2.546875,-5.96875 c 0,-0.171875 -0.125,-0.265625 -0.296875,-0.265625 -0.03125,0 -0.3125,0 -0.390625,0.359375 L 1.46875,-4.296875 h -0.9375 c -0.203125,0 -0.296875,0 -0.296875,0.1875 0,0.125 0.078125,0.125 0.28125,0.125 h 0.875 C 0.671875,-1.15625 0.625,-0.984375 0.625,-0.8125 0.625,-0.265625 1,0.109375 1.546875,0.109375 2.5625,0.109375 3.125,-1.34375 3.125,-1.421875 3.125,-1.53125 3.046875,-1.53125 3.015625,-1.53125 2.921875,-1.53125 2.90625,-1.5 2.859375,-1.390625 2.4375,-0.34375 1.90625,-0.109375 1.5625,-0.109375 c -0.203125,0 -0.3125,-0.125 -0.3125,-0.453125 0,-0.25 0.03125,-0.3125 0.0625,-0.484375 z m 0,0"
               id="id-b1561c72-f5a8-4332-ae8f-a5562a68bcf1" />
          </g>
        </g>
        <g
           style="fill:#000000;fill-opacity:1"
           id="id-df0d98ec-8fb1-4ba9-a5bc-ebeef08766cc">
          <g
             transform="translate(152.31,136.259)"
             id="g7784">
            <path
               style="stroke:none;stroke-width:0"
               d="m 2.328125,-4.4375 c 0,-0.1875 0,-0.1875 -0.203125,-0.1875 -0.453125,0.4375 -1.078125,0.4375 -1.359375,0.4375 v 0.25 c 0.15625,0 0.625,0 1,-0.1875 v 3.546875 c 0,0.234375 0,0.328125 -0.6875,0.328125 H 0.8125 V 0 c 0.125,0 0.984375,-0.03125 1.234375,-0.03125 0.21875,0 1.09375,0.03125 1.25,0.03125 V -0.25 H 3.03125 c -0.703125,0 -0.703125,-0.09375 -0.703125,-0.328125 z m 0,0"
               id="id-c44612d9-4980-4a9e-8bce-80633f30480f" />
          </g>
        </g>
      </g>
    </g>
    <g
       transform="matrix(1.05987,0,0,1.05987,185.80849,132.79312)"
       ns2:version="1.5.0"
       ns2:texconverter="pdflatex"
       ns2:pdfconverter="inkscape"
       ns2:text="$t_2$\n"
       ns2:preamble="default_packages.tex"
       ns2:scale="3.0043524111480138"
       ns2:alignment="middle center"
       ns2:stroke-to-path="0"
       ns2:inkscapeversion="1.1"
       ns2:jacobian_sqrt="1.05987"
       id="g8307">
      <defs
         id="id-6a83503c-1dfd-45d3-86b8-79b9a9653e48">
        <g
           id="id-3541de23-8df1-46f1-8f6d-bd49fbf22fc6">
          <symbol
             overflow="visible"
             id="id-b7b2cfcf-5428-4f56-8123-653851d23033">
            <path
               style="stroke:none;stroke-width:0"
               d=""
               id="id-915a31e4-7c44-44bd-9a9c-b6130d683b5e" />
          </symbol>
          <symbol
             overflow="visible"
             id="id-0ccc9f91-e1f8-4e92-882d-0d07486e6194">
            <path
               style="stroke:none;stroke-width:0"
               d="m 2.046875,-3.984375 h 0.9375 c 0.203125,0 0.3125,0 0.3125,-0.203125 0,-0.109375 -0.109375,-0.109375 -0.28125,-0.109375 h -0.875 C 2.5,-5.71875 2.546875,-5.90625 2.546875,-5.96875 c 0,-0.171875 -0.125,-0.265625 -0.296875,-0.265625 -0.03125,0 -0.3125,0 -0.390625,0.359375 L 1.46875,-4.296875 h -0.9375 c -0.203125,0 -0.296875,0 -0.296875,0.1875 0,0.125 0.078125,0.125 0.28125,0.125 h 0.875 C 0.671875,-1.15625 0.625,-0.984375 0.625,-0.8125 0.625,-0.265625 1,0.109375 1.546875,0.109375 2.5625,0.109375 3.125,-1.34375 3.125,-1.421875 3.125,-1.53125 3.046875,-1.53125 3.015625,-1.53125 2.921875,-1.53125 2.90625,-1.5 2.859375,-1.390625 2.4375,-0.34375 1.90625,-0.109375 1.5625,-0.109375 c -0.203125,0 -0.3125,-0.125 -0.3125,-0.453125 0,-0.25 0.03125,-0.3125 0.0625,-0.484375 z m 0,0"
               id="id-2ea4fbd7-3666-4b61-8883-bf613b7731d2" />
          </symbol>
          <symbol
             overflow="visible"
             id="id-e0e8a322-d52f-4b18-be6d-5095885c2625">
            <path
               style="stroke:none;stroke-width:0"
               d=""
               id="id-26383236-c563-48ba-bba5-c80b1d7b2fd6" />
          </symbol>
          <symbol
             overflow="visible"
             id="id-83ec6057-4d3c-458d-8dfd-98738568c382">
            <path
               style="stroke:none;stroke-width:0"
               d="M 3.515625,-1.265625 H 3.28125 c -0.015625,0.15625 -0.09375,0.5625 -0.1875,0.625 C 3.046875,-0.59375 2.515625,-0.59375 2.40625,-0.59375 H 1.125 c 0.734375,-0.640625 0.984375,-0.84375 1.390625,-1.171875 0.515625,-0.40625 1,-0.84375 1,-1.5 0,-0.84375 -0.734375,-1.359375 -1.625,-1.359375 -0.859375,0 -1.453125,0.609375 -1.453125,1.25 0,0.34375 0.296875,0.390625 0.375,0.390625 0.15625,0 0.359375,-0.125 0.359375,-0.375 0,-0.125 -0.046875,-0.375 -0.40625,-0.375 C 0.984375,-4.21875 1.453125,-4.375 1.78125,-4.375 c 0.703125,0 1.0625,0.546875 1.0625,1.109375 0,0.609375 -0.4375,1.078125 -0.65625,1.328125 L 0.515625,-0.265625 C 0.4375,-0.203125 0.4375,-0.1875 0.4375,0 h 2.875 z m 0,0"
               id="id-333f1853-2e3b-4299-b47d-e8567b381b52" />
          </symbol>
        </g>
      </defs>
      <g
         id="id-e230383e-5bf0-4695-abb7-ac74d23dfd2c"
         transform="translate(-148.946,-128.531)">
        <g
           style="fill:#000000;fill-opacity:1"
           id="id-b13715fb-337b-4e8d-af50-2968ed810d37">
          <g
             transform="translate(148.712,134.765)"
             id="g8299">
            <path
               style="stroke:none;stroke-width:0"
               d="m 2.046875,-3.984375 h 0.9375 c 0.203125,0 0.3125,0 0.3125,-0.203125 0,-0.109375 -0.109375,-0.109375 -0.28125,-0.109375 h -0.875 C 2.5,-5.71875 2.546875,-5.90625 2.546875,-5.96875 c 0,-0.171875 -0.125,-0.265625 -0.296875,-0.265625 -0.03125,0 -0.3125,0 -0.390625,0.359375 L 1.46875,-4.296875 h -0.9375 c -0.203125,0 -0.296875,0 -0.296875,0.1875 0,0.125 0.078125,0.125 0.28125,0.125 h 0.875 C 0.671875,-1.15625 0.625,-0.984375 0.625,-0.8125 0.625,-0.265625 1,0.109375 1.546875,0.109375 2.5625,0.109375 3.125,-1.34375 3.125,-1.421875 3.125,-1.53125 3.046875,-1.53125 3.015625,-1.53125 2.921875,-1.53125 2.90625,-1.5 2.859375,-1.390625 2.4375,-0.34375 1.90625,-0.109375 1.5625,-0.109375 c -0.203125,0 -0.3125,-0.125 -0.3125,-0.453125 0,-0.25 0.03125,-0.3125 0.0625,-0.484375 z m 0,0"
               id="id-e817b896-326e-4c14-8f11-01e718c48480" />
          </g>
        </g>
        <g
           style="fill:#000000;fill-opacity:1"
           id="id-7575cbd6-3b82-4911-8595-d88134193dd6">
          <g
             transform="translate(152.31,136.259)"
             id="g8303">
            <path
               style="stroke:none;stroke-width:0"
               d="M 3.515625,-1.265625 H 3.28125 c -0.015625,0.15625 -0.09375,0.5625 -0.1875,0.625 C 3.046875,-0.59375 2.515625,-0.59375 2.40625,-0.59375 H 1.125 c 0.734375,-0.640625 0.984375,-0.84375 1.390625,-1.171875 0.515625,-0.40625 1,-0.84375 1,-1.5 0,-0.84375 -0.734375,-1.359375 -1.625,-1.359375 -0.859375,0 -1.453125,0.609375 -1.453125,1.25 0,0.34375 0.296875,0.390625 0.375,0.390625 0.15625,0 0.359375,-0.125 0.359375,-0.375 0,-0.125 -0.046875,-0.375 -0.40625,-0.375 C 0.984375,-4.21875 1.453125,-4.375 1.78125,-4.375 c 0.703125,0 1.0625,0.546875 1.0625,1.109375 0,0.609375 -0.4375,1.078125 -0.65625,1.328125 L 0.515625,-0.265625 C 0.4375,-0.203125 0.4375,-0.1875 0.4375,0 h 2.875 z m 0,0"
               id="id-d097f7b9-31ac-4613-bdb9-4bed81a21420" />
          </g>
        </g>
      </g>
    </g>
    <g
       id="g7030"
       transform="matrix(1.2740587,0,0,1.2740587,1.3712365,-58.43664)">
      <g
         id="g10645"
         transform="translate(0,-8.3728647)">
        <rect
           style="fill:#ff6600;fill-opacity:1;stroke:none;stroke-width:0.564999;stroke-linecap:round;stroke-opacity:1"
           id="rect6236"
           width="4.2746506"
           height="9.2293596"
           x="19.127542"
           y="168.17152" />
        <rect
           style="fill:#0000ff;fill-opacity:1;stroke:none;stroke-width:0.114124;stroke-linecap:round;stroke-opacity:1"
           id="rect6562"
           width="4.2746506"
           height="0.37655875"
           x="26.608181"
           y="177.12149" />
      </g>
      <g
         id="g11533"
         transform="translate(0,0.22169429)">
        <g
           transform="matrix(0.55107744,0,0,0.55107744,26.545863,170.47294)"
           ns2:version="1.5.0"
           ns2:texconverter="pdflatex"
           ns2:pdfconverter="inkscape"
           ns2:text="$P$\n"
           ns2:preamble="default_packages.tex"
           ns2:scale="3.0043524111480138"
           ns2:alignment="middle center"
           ns2:stroke-to-path="0"
           ns2:inkscapeversion="1.1"
           ns2:jacobian_sqrt="1.05987"
           id="g9610">
          <defs
             id="id-874a5bf4-c811-48ef-b910-30f9bd95a49a">
            <g
               id="id-e4730041-49da-4d3d-8338-a99cc9a52e52">
              <symbol
                 overflow="visible"
                 id="id-93b71ea3-5d89-4e4c-a51d-ae7daf057823">
                <path
                   style="stroke:none;stroke-width:0"
                   d=""
                   id="id-c5a783ab-2207-4431-bb0a-3190cf7dcd26" />
              </symbol>
              <symbol
                 overflow="visible"
                 id="id-18d76ba5-5266-4abc-9d38-6da45dede77d">
                <path
                   style="stroke:none;stroke-width:0"
                   d="M 3.015625,-3.15625 H 4.71875 c 1.40625,0 2.796875,-1.03125 2.796875,-2.140625 0,-0.78125 -0.65625,-1.515625 -1.96875,-1.515625 h -3.21875 c -0.1875,0 -0.296875,0 -0.296875,0.1875 0,0.125 0.078125,0.125 0.28125,0.125 0.125,0 0.3125,0.015625 0.421875,0.015625 0.171875,0.03125 0.21875,0.046875 0.21875,0.171875 0,0.03125 0,0.0625 -0.03125,0.1875 l -1.34375,5.34375 c -0.09375,0.390625 -0.109375,0.46875 -0.90625,0.46875 -0.15625,0 -0.265625,0 -0.265625,0.1875 C 0.40625,0 0.515625,0 0.546875,0 0.828125,0 1.53125,-0.03125 1.8125,-0.03125 c 0.21875,0 0.4375,0.015625 0.640625,0.015625 0.21875,0 0.4375,0.015625 0.640625,0.015625 0.078125,0 0.203125,0 0.203125,-0.203125 0,-0.109375 -0.09375,-0.109375 -0.28125,-0.109375 -0.359375,0 -0.640625,0 -0.640625,-0.171875 0,-0.0625 0.015625,-0.109375 0.03125,-0.171875 z M 3.734375,-6.125 C 3.828125,-6.46875 3.84375,-6.5 4.28125,-6.5 h 0.953125 c 0.828125,0 1.359375,0.265625 1.359375,0.953125 0,0.390625 -0.203125,1.25 -0.59375,1.609375 -0.5,0.453125 -1.09375,0.53125 -1.53125,0.53125 H 3.0625 Z m 0,0"
                   id="id-e63674e0-aada-4760-bb48-7ec4e3ef966f" />
              </symbol>
            </g>
          </defs>
          <g
             id="id-045380d3-206a-4e79-8d5f-d50c37521380"
             transform="translate(-149.118,-127.953)">
            <g
               style="fill:#000000;fill-opacity:1"
               id="id-1827de67-82dc-496e-9584-72693e83cd0b">
              <g
                 transform="translate(148.712,134.765)"
                 id="g9606">
                <path
                   style="stroke:none;stroke-width:0"
                   d="M 3.015625,-3.15625 H 4.71875 c 1.40625,0 2.796875,-1.03125 2.796875,-2.140625 0,-0.78125 -0.65625,-1.515625 -1.96875,-1.515625 h -3.21875 c -0.1875,0 -0.296875,0 -0.296875,0.1875 0,0.125 0.078125,0.125 0.28125,0.125 0.125,0 0.3125,0.015625 0.421875,0.015625 0.171875,0.03125 0.21875,0.046875 0.21875,0.171875 0,0.03125 0,0.0625 -0.03125,0.1875 l -1.34375,5.34375 c -0.09375,0.390625 -0.109375,0.46875 -0.90625,0.46875 -0.15625,0 -0.265625,0 -0.265625,0.1875 C 0.40625,0 0.515625,0 0.546875,0 0.828125,0 1.53125,-0.03125 1.8125,-0.03125 c 0.21875,0 0.4375,0.015625 0.640625,0.015625 0.21875,0 0.4375,0.015625 0.640625,0.015625 0.078125,0 0.203125,0 0.203125,-0.203125 0,-0.109375 -0.09375,-0.109375 -0.28125,-0.109375 -0.359375,0 -0.640625,0 -0.640625,-0.171875 0,-0.0625 0.015625,-0.109375 0.03125,-0.171875 z M 3.734375,-6.125 C 3.828125,-6.46875 3.84375,-6.5 4.28125,-6.5 h 0.953125 c 0.828125,0 1.359375,0.265625 1.359375,0.953125 0,0.390625 -0.203125,1.25 -0.59375,1.609375 -0.5,0.453125 -1.09375,0.53125 -1.53125,0.53125 H 3.0625 Z m 0,0"
                   id="id-27a32e8d-53ed-4d43-acd0-16cc8d01294b" />
              </g>
            </g>
          </g>
        </g>
        <g
           transform="matrix(0.57315234,0,0,0.57315234,18.361196,170.47295)"
           ns2:version="1.5.0"
           ns2:texconverter="pdflatex"
           ns2:pdfconverter="inkscape"
           ns2:text="$K$\n"
           ns2:preamble="default_packages.tex"
           ns2:scale="3.0043524111480138"
           ns2:alignment="middle center"
           ns2:stroke-to-path="0"
           ns2:inkscapeversion="1.1"
           ns2:jacobian_sqrt="1.05987"
           id="g10090">
          <defs
             id="id-9975496d-1e9f-4c84-b5a0-aa2a4f6aedbe">
            <g
               id="id-d5ed3412-c4d5-429a-a503-7f2f56762ba7">
              <symbol
                 overflow="visible"
                 id="id-f513fb98-4c46-4220-a892-cdc5979ca5e5">
                <path
                   style="stroke:none;stroke-width:0"
                   d=""
                   id="id-921c58d5-c309-42e5-ab1e-2448f703113a" />
              </symbol>
              <symbol
                 overflow="visible"
                 id="id-1943b84f-09ff-4a18-a53a-bd11c8c5882e">
                <path
                   style="stroke:none;stroke-width:0"
                   d="M 5.078125,-4.03125 C 5.0625,-4.0625 5.03125,-4.140625 5.03125,-4.171875 c 0,0 0.171875,-0.140625 0.28125,-0.21875 l 1.75,-1.34375 C 8,-6.4375 8.390625,-6.46875 8.6875,-6.5 8.765625,-6.515625 8.859375,-6.515625 8.859375,-6.703125 8.859375,-6.734375 8.828125,-6.8125 8.75,-6.8125 c -0.21875,0 -0.46875,0.03125 -0.703125,0.03125 -0.359375,0 -0.75,-0.03125 -1.109375,-0.03125 -0.0625,0 -0.1875,0 -0.1875,0.203125 0,0.0625 0.046875,0.09375 0.125,0.109375 0.21875,0.015625 0.296875,0.0625 0.296875,0.203125 0,0.1875 -0.296875,0.421875 -0.359375,0.46875 L 2.9375,-2.84375 3.734375,-6.046875 C 3.8125,-6.40625 3.84375,-6.5 4.5625,-6.5 c 0.25,0 0.34375,0 0.34375,-0.203125 0,-0.078125 -0.078125,-0.109375 -0.140625,-0.109375 -0.28125,0 -1,0.03125 -1.28125,0.03125 C 3.203125,-6.78125 2.5,-6.8125 2.203125,-6.8125 2.140625,-6.8125 2,-6.8125 2,-6.625 2,-6.5 2.09375,-6.5 2.296875,-6.5 c 0.125,0 0.3125,0.015625 0.421875,0.015625 0.15625,0.03125 0.21875,0.046875 0.21875,0.171875 0,0.03125 0,0.0625 -0.03125,0.1875 L 1.5625,-0.78125 c -0.09375,0.390625 -0.109375,0.46875 -0.90625,0.46875 -0.171875,0 -0.28125,0 -0.28125,0.1875 C 0.375,0 0.5,0 0.53125,0 0.8125,0 1.515625,-0.03125 1.796875,-0.03125 2,-0.03125 2.21875,-0.015625 2.4375,-0.015625 2.65625,-0.015625 2.875,0 3.078125,0 3.15625,0 3.28125,0 3.28125,-0.203125 3.28125,-0.3125 3.1875,-0.3125 3,-0.3125 c -0.375,0 -0.640625,0 -0.640625,-0.171875 0,-0.078125 0.046875,-0.296875 0.078125,-0.4375 C 2.578125,-1.453125 2.71875,-1.96875 2.84375,-2.5 l 1.484375,-1.15625 1.15625,2.6875 c 0.125,0.265625 0.125,0.296875 0.125,0.34375 0,0.3125 -0.4375,0.3125 -0.53125,0.3125 -0.109375,0 -0.21875,0 -0.21875,0.203125 C 4.859375,0 4.984375,0 5,0 5.40625,0 5.828125,-0.03125 6.21875,-0.03125 6.4375,-0.03125 6.984375,0 7.203125,0 7.25,0 7.375,0 7.375,-0.203125 7.375,-0.3125 7.265625,-0.3125 7.171875,-0.3125 c -0.40625,0 -0.53125,-0.09375 -0.6875,-0.4375 z m 0,0"
                   id="id-73e9ab1e-326a-464e-9ae6-55a25c3757b3" />
              </symbol>
            </g>
          </defs>
          <g
             id="id-78353822-5175-4b66-9bcd-79b941ee7d9b"
             transform="translate(-149.087,-127.953)">
            <g
               style="fill:#000000;fill-opacity:1"
               id="id-86cb3217-bcbb-48c7-995f-3c03afa4a828">
              <g
                 transform="translate(148.712,134.765)"
                 id="g10086">
                <path
                   style="stroke:none;stroke-width:0"
                   d="M 5.078125,-4.03125 C 5.0625,-4.0625 5.03125,-4.140625 5.03125,-4.171875 c 0,0 0.171875,-0.140625 0.28125,-0.21875 l 1.75,-1.34375 C 8,-6.4375 8.390625,-6.46875 8.6875,-6.5 8.765625,-6.515625 8.859375,-6.515625 8.859375,-6.703125 8.859375,-6.734375 8.828125,-6.8125 8.75,-6.8125 c -0.21875,0 -0.46875,0.03125 -0.703125,0.03125 -0.359375,0 -0.75,-0.03125 -1.109375,-0.03125 -0.0625,0 -0.1875,0 -0.1875,0.203125 0,0.0625 0.046875,0.09375 0.125,0.109375 0.21875,0.015625 0.296875,0.0625 0.296875,0.203125 0,0.1875 -0.296875,0.421875 -0.359375,0.46875 L 2.9375,-2.84375 3.734375,-6.046875 C 3.8125,-6.40625 3.84375,-6.5 4.5625,-6.5 c 0.25,0 0.34375,0 0.34375,-0.203125 0,-0.078125 -0.078125,-0.109375 -0.140625,-0.109375 -0.28125,0 -1,0.03125 -1.28125,0.03125 C 3.203125,-6.78125 2.5,-6.8125 2.203125,-6.8125 2.140625,-6.8125 2,-6.8125 2,-6.625 2,-6.5 2.09375,-6.5 2.296875,-6.5 c 0.125,0 0.3125,0.015625 0.421875,0.015625 0.15625,0.03125 0.21875,0.046875 0.21875,0.171875 0,0.03125 0,0.0625 -0.03125,0.1875 L 1.5625,-0.78125 c -0.09375,0.390625 -0.109375,0.46875 -0.90625,0.46875 -0.171875,0 -0.28125,0 -0.28125,0.1875 C 0.375,0 0.5,0 0.53125,0 0.8125,0 1.515625,-0.03125 1.796875,-0.03125 2,-0.03125 2.21875,-0.015625 2.4375,-0.015625 2.65625,-0.015625 2.875,0 3.078125,0 3.15625,0 3.28125,0 3.28125,-0.203125 3.28125,-0.3125 3.1875,-0.3125 3,-0.3125 c -0.375,0 -0.640625,0 -0.640625,-0.171875 0,-0.078125 0.046875,-0.296875 0.078125,-0.4375 C 2.578125,-1.453125 2.71875,-1.96875 2.84375,-2.5 l 1.484375,-1.15625 1.15625,2.6875 c 0.125,0.265625 0.125,0.296875 0.125,0.34375 0,0.3125 -0.4375,0.3125 -0.53125,0.3125 -0.109375,0 -0.21875,0 -0.21875,0.203125 C 4.859375,0 4.984375,0 5,0 5.40625,0 5.828125,-0.03125 6.21875,-0.03125 6.4375,-0.03125 6.984375,0 7.203125,0 7.25,0 7.375,0 7.375,-0.203125 7.375,-0.3125 7.265625,-0.3125 7.171875,-0.3125 c -0.40625,0 -0.53125,-0.09375 -0.6875,-0.4375 z m 0,0"
                   id="id-6f959f71-163d-40a5-8755-035cb55e72c1" />
              </g>
            </g>
          </g>
        </g>
      </g>
    </g>
    <g
       id="g7058"
       transform="matrix(1.2740587,0,0,1.2740587,-23.336351,-58.43664)">
      <g
         id="g7002">
        <rect
           style="fill:#ff6600;fill-opacity:1;stroke:none;stroke-width:0.137158;stroke-linecap:round;stroke-opacity:1"
           id="rect6604"
           width="4.2746506"
           height="0.54389966"
           x="99.774155"
           y="168.48415" />
        <rect
           style="fill:#0000ff;fill-opacity:1;stroke:none;stroke-width:0.555883;stroke-linecap:round;stroke-opacity:1"
           id="rect6606"
           width="4.2746506"
           height="8.9340296"
           x="107.25478"
           y="160.19116" />
      </g>
      <g
         id="g11899"
         transform="translate(80.726575,0.22169429)">
        <g
           transform="matrix(0.55107744,0,0,0.55107744,26.545863,170.47294)"
           ns2:version="1.5.0"
           ns2:texconverter="pdflatex"
           ns2:pdfconverter="inkscape"
           ns2:text="$P$\n"
           ns2:preamble="default_packages.tex"
           ns2:scale="3.0043524111480138"
           ns2:alignment="middle center"
           ns2:stroke-to-path="0"
           ns2:inkscapeversion="1.1"
           ns2:jacobian_sqrt="1.05987"
           id="g11875">
          <defs
             id="defs11865">
            <g
               id="g11863">
              <symbol
                 overflow="visible"
                 id="symbol11857">
                <path
                   style="stroke:none;stroke-width:0"
                   d=""
                   id="path11855" />
              </symbol>
              <symbol
                 overflow="visible"
                 id="symbol11861">
                <path
                   style="stroke:none;stroke-width:0"
                   d="M 3.015625,-3.15625 H 4.71875 c 1.40625,0 2.796875,-1.03125 2.796875,-2.140625 0,-0.78125 -0.65625,-1.515625 -1.96875,-1.515625 h -3.21875 c -0.1875,0 -0.296875,0 -0.296875,0.1875 0,0.125 0.078125,0.125 0.28125,0.125 0.125,0 0.3125,0.015625 0.421875,0.015625 0.171875,0.03125 0.21875,0.046875 0.21875,0.171875 0,0.03125 0,0.0625 -0.03125,0.1875 l -1.34375,5.34375 c -0.09375,0.390625 -0.109375,0.46875 -0.90625,0.46875 -0.15625,0 -0.265625,0 -0.265625,0.1875 C 0.40625,0 0.515625,0 0.546875,0 0.828125,0 1.53125,-0.03125 1.8125,-0.03125 c 0.21875,0 0.4375,0.015625 0.640625,0.015625 0.21875,0 0.4375,0.015625 0.640625,0.015625 0.078125,0 0.203125,0 0.203125,-0.203125 0,-0.109375 -0.09375,-0.109375 -0.28125,-0.109375 -0.359375,0 -0.640625,0 -0.640625,-0.171875 0,-0.0625 0.015625,-0.109375 0.03125,-0.171875 z M 3.734375,-6.125 C 3.828125,-6.46875 3.84375,-6.5 4.28125,-6.5 h 0.953125 c 0.828125,0 1.359375,0.265625 1.359375,0.953125 0,0.390625 -0.203125,1.25 -0.59375,1.609375 -0.5,0.453125 -1.09375,0.53125 -1.53125,0.53125 H 3.0625 Z m 0,0"
                   id="path11859" />
              </symbol>
            </g>
          </defs>
          <g
             id="g11873"
             transform="translate(-149.118,-127.953)">
            <g
               style="fill:#000000;fill-opacity:1"
               id="g11871">
              <g
                 transform="translate(148.712,134.765)"
                 id="g11869">
                <path
                   style="stroke:none;stroke-width:0"
                   d="M 3.015625,-3.15625 H 4.71875 c 1.40625,0 2.796875,-1.03125 2.796875,-2.140625 0,-0.78125 -0.65625,-1.515625 -1.96875,-1.515625 h -3.21875 c -0.1875,0 -0.296875,0 -0.296875,0.1875 0,0.125 0.078125,0.125 0.28125,0.125 0.125,0 0.3125,0.015625 0.421875,0.015625 0.171875,0.03125 0.21875,0.046875 0.21875,0.171875 0,0.03125 0,0.0625 -0.03125,0.1875 l -1.34375,5.34375 c -0.09375,0.390625 -0.109375,0.46875 -0.90625,0.46875 -0.15625,0 -0.265625,0 -0.265625,0.1875 C 0.40625,0 0.515625,0 0.546875,0 0.828125,0 1.53125,-0.03125 1.8125,-0.03125 c 0.21875,0 0.4375,0.015625 0.640625,0.015625 0.21875,0 0.4375,0.015625 0.640625,0.015625 0.078125,0 0.203125,0 0.203125,-0.203125 0,-0.109375 -0.09375,-0.109375 -0.28125,-0.109375 -0.359375,0 -0.640625,0 -0.640625,-0.171875 0,-0.0625 0.015625,-0.109375 0.03125,-0.171875 z M 3.734375,-6.125 C 3.828125,-6.46875 3.84375,-6.5 4.28125,-6.5 h 0.953125 c 0.828125,0 1.359375,0.265625 1.359375,0.953125 0,0.390625 -0.203125,1.25 -0.59375,1.609375 -0.5,0.453125 -1.09375,0.53125 -1.53125,0.53125 H 3.0625 Z m 0,0"
                   id="path11867" />
              </g>
            </g>
          </g>
        </g>
        <g
           transform="matrix(0.57315234,0,0,0.57315234,18.361196,170.47295)"
           ns2:version="1.5.0"
           ns2:texconverter="pdflatex"
           ns2:pdfconverter="inkscape"
           ns2:text="$K$\n"
           ns2:preamble="default_packages.tex"
           ns2:scale="3.0043524111480138"
           ns2:alignment="middle center"
           ns2:stroke-to-path="0"
           ns2:inkscapeversion="1.1"
           ns2:jacobian_sqrt="1.05987"
           id="g11897">
          <defs
             id="defs11887">
            <g
               id="g11885">
              <symbol
                 overflow="visible"
                 id="symbol11879">
                <path
                   style="stroke:none;stroke-width:0"
                   d=""
                   id="path11877" />
              </symbol>
              <symbol
                 overflow="visible"
                 id="symbol11883">
                <path
                   style="stroke:none;stroke-width:0"
                   d="M 5.078125,-4.03125 C 5.0625,-4.0625 5.03125,-4.140625 5.03125,-4.171875 c 0,0 0.171875,-0.140625 0.28125,-0.21875 l 1.75,-1.34375 C 8,-6.4375 8.390625,-6.46875 8.6875,-6.5 8.765625,-6.515625 8.859375,-6.515625 8.859375,-6.703125 8.859375,-6.734375 8.828125,-6.8125 8.75,-6.8125 c -0.21875,0 -0.46875,0.03125 -0.703125,0.03125 -0.359375,0 -0.75,-0.03125 -1.109375,-0.03125 -0.0625,0 -0.1875,0 -0.1875,0.203125 0,0.0625 0.046875,0.09375 0.125,0.109375 0.21875,0.015625 0.296875,0.0625 0.296875,0.203125 0,0.1875 -0.296875,0.421875 -0.359375,0.46875 L 2.9375,-2.84375 3.734375,-6.046875 C 3.8125,-6.40625 3.84375,-6.5 4.5625,-6.5 c 0.25,0 0.34375,0 0.34375,-0.203125 0,-0.078125 -0.078125,-0.109375 -0.140625,-0.109375 -0.28125,0 -1,0.03125 -1.28125,0.03125 C 3.203125,-6.78125 2.5,-6.8125 2.203125,-6.8125 2.140625,-6.8125 2,-6.8125 2,-6.625 2,-6.5 2.09375,-6.5 2.296875,-6.5 c 0.125,0 0.3125,0.015625 0.421875,0.015625 0.15625,0.03125 0.21875,0.046875 0.21875,0.171875 0,0.03125 0,0.0625 -0.03125,0.1875 L 1.5625,-0.78125 c -0.09375,0.390625 -0.109375,0.46875 -0.90625,0.46875 -0.171875,0 -0.28125,0 -0.28125,0.1875 C 0.375,0 0.5,0 0.53125,0 0.8125,0 1.515625,-0.03125 1.796875,-0.03125 2,-0.03125 2.21875,-0.015625 2.4375,-0.015625 2.65625,-0.015625 2.875,0 3.078125,0 3.15625,0 3.28125,0 3.28125,-0.203125 3.28125,-0.3125 3.1875,-0.3125 3,-0.3125 c -0.375,0 -0.640625,0 -0.640625,-0.171875 0,-0.078125 0.046875,-0.296875 0.078125,-0.4375 C 2.578125,-1.453125 2.71875,-1.96875 2.84375,-2.5 l 1.484375,-1.15625 1.15625,2.6875 c 0.125,0.265625 0.125,0.296875 0.125,0.34375 0,0.3125 -0.4375,0.3125 -0.53125,0.3125 -0.109375,0 -0.21875,0 -0.21875,0.203125 C 4.859375,0 4.984375,0 5,0 5.40625,0 5.828125,-0.03125 6.21875,-0.03125 6.4375,-0.03125 6.984375,0 7.203125,0 7.25,0 7.375,0 7.375,-0.203125 7.375,-0.3125 7.265625,-0.3125 7.171875,-0.3125 c -0.40625,0 -0.53125,-0.09375 -0.6875,-0.4375 z m 0,0"
                   id="path11881" />
              </symbol>
            </g>
          </defs>
          <g
             id="g11895"
             transform="translate(-149.087,-127.953)">
            <g
               style="fill:#000000;fill-opacity:1"
               id="g11893">
              <g
                 transform="translate(148.712,134.765)"
                 id="g11891">
                <path
                   style="stroke:none;stroke-width:0"
                   d="M 5.078125,-4.03125 C 5.0625,-4.0625 5.03125,-4.140625 5.03125,-4.171875 c 0,0 0.171875,-0.140625 0.28125,-0.21875 l 1.75,-1.34375 C 8,-6.4375 8.390625,-6.46875 8.6875,-6.5 8.765625,-6.515625 8.859375,-6.515625 8.859375,-6.703125 8.859375,-6.734375 8.828125,-6.8125 8.75,-6.8125 c -0.21875,0 -0.46875,0.03125 -0.703125,0.03125 -0.359375,0 -0.75,-0.03125 -1.109375,-0.03125 -0.0625,0 -0.1875,0 -0.1875,0.203125 0,0.0625 0.046875,0.09375 0.125,0.109375 0.21875,0.015625 0.296875,0.0625 0.296875,0.203125 0,0.1875 -0.296875,0.421875 -0.359375,0.46875 L 2.9375,-2.84375 3.734375,-6.046875 C 3.8125,-6.40625 3.84375,-6.5 4.5625,-6.5 c 0.25,0 0.34375,0 0.34375,-0.203125 0,-0.078125 -0.078125,-0.109375 -0.140625,-0.109375 -0.28125,0 -1,0.03125 -1.28125,0.03125 C 3.203125,-6.78125 2.5,-6.8125 2.203125,-6.8125 2.140625,-6.8125 2,-6.8125 2,-6.625 2,-6.5 2.09375,-6.5 2.296875,-6.5 c 0.125,0 0.3125,0.015625 0.421875,0.015625 0.15625,0.03125 0.21875,0.046875 0.21875,0.171875 0,0.03125 0,0.0625 -0.03125,0.1875 L 1.5625,-0.78125 c -0.09375,0.390625 -0.109375,0.46875 -0.90625,0.46875 -0.171875,0 -0.28125,0 -0.28125,0.1875 C 0.375,0 0.5,0 0.53125,0 0.8125,0 1.515625,-0.03125 1.796875,-0.03125 2,-0.03125 2.21875,-0.015625 2.4375,-0.015625 2.65625,-0.015625 2.875,0 3.078125,0 3.15625,0 3.28125,0 3.28125,-0.203125 3.28125,-0.3125 3.1875,-0.3125 3,-0.3125 c -0.375,0 -0.640625,0 -0.640625,-0.171875 0,-0.078125 0.046875,-0.296875 0.078125,-0.4375 C 2.578125,-1.453125 2.71875,-1.96875 2.84375,-2.5 l 1.484375,-1.15625 1.15625,2.6875 c 0.125,0.265625 0.125,0.296875 0.125,0.34375 0,0.3125 -0.4375,0.3125 -0.53125,0.3125 -0.109375,0 -0.21875,0 -0.21875,0.203125 C 4.859375,0 4.984375,0 5,0 5.40625,0 5.828125,-0.03125 6.21875,-0.03125 6.4375,-0.03125 6.984375,0 7.203125,0 7.25,0 7.375,0 7.375,-0.203125 7.375,-0.3125 7.265625,-0.3125 7.171875,-0.3125 c -0.40625,0 -0.53125,-0.09375 -0.6875,-0.4375 z m 0,0"
                   id="path11889" />
              </g>
            </g>
          </g>
        </g>
      </g>
    </g>
    <g
       id="g7086"
       transform="matrix(1.2740587,0,0,1.2740587,-51.559719,-58.43664)">
      <g
         id="g6998">
        <rect
           style="fill:#ff6600;fill-opacity:1;stroke:none;stroke-width:0.46345;stroke-linecap:round;stroke-opacity:1"
           id="rect6608"
           width="4.2746506"
           height="6.2098174"
           x="183.59578"
           y="162.81821" />
        <rect
           style="fill:#0000ff;fill-opacity:1;stroke:none;stroke-width:0.294872;stroke-linecap:round;stroke-opacity:1"
           id="rect6610"
           width="4.2746506"
           height="2.5138857"
           x="191.07642"
           y="166.6113" />
      </g>
      <g
         id="g11945"
         transform="translate(164.62852,0.22169429)">
        <g
           transform="matrix(0.55107744,0,0,0.55107744,26.545863,170.47294)"
           ns2:version="1.5.0"
           ns2:texconverter="pdflatex"
           ns2:pdfconverter="inkscape"
           ns2:text="$P$\n"
           ns2:preamble="default_packages.tex"
           ns2:scale="3.0043524111480138"
           ns2:alignment="middle center"
           ns2:stroke-to-path="0"
           ns2:inkscapeversion="1.1"
           ns2:jacobian_sqrt="1.05987"
           id="g11921">
          <defs
             id="defs11911">
            <g
               id="g11909">
              <symbol
                 overflow="visible"
                 id="symbol11903">
                <path
                   style="stroke:none;stroke-width:0"
                   d=""
                   id="path11901" />
              </symbol>
              <symbol
                 overflow="visible"
                 id="symbol11907">
                <path
                   style="stroke:none;stroke-width:0"
                   d="M 3.015625,-3.15625 H 4.71875 c 1.40625,0 2.796875,-1.03125 2.796875,-2.140625 0,-0.78125 -0.65625,-1.515625 -1.96875,-1.515625 h -3.21875 c -0.1875,0 -0.296875,0 -0.296875,0.1875 0,0.125 0.078125,0.125 0.28125,0.125 0.125,0 0.3125,0.015625 0.421875,0.015625 0.171875,0.03125 0.21875,0.046875 0.21875,0.171875 0,0.03125 0,0.0625 -0.03125,0.1875 l -1.34375,5.34375 c -0.09375,0.390625 -0.109375,0.46875 -0.90625,0.46875 -0.15625,0 -0.265625,0 -0.265625,0.1875 C 0.40625,0 0.515625,0 0.546875,0 0.828125,0 1.53125,-0.03125 1.8125,-0.03125 c 0.21875,0 0.4375,0.015625 0.640625,0.015625 0.21875,0 0.4375,0.015625 0.640625,0.015625 0.078125,0 0.203125,0 0.203125,-0.203125 0,-0.109375 -0.09375,-0.109375 -0.28125,-0.109375 -0.359375,0 -0.640625,0 -0.640625,-0.171875 0,-0.0625 0.015625,-0.109375 0.03125,-0.171875 z M 3.734375,-6.125 C 3.828125,-6.46875 3.84375,-6.5 4.28125,-6.5 h 0.953125 c 0.828125,0 1.359375,0.265625 1.359375,0.953125 0,0.390625 -0.203125,1.25 -0.59375,1.609375 -0.5,0.453125 -1.09375,0.53125 -1.53125,0.53125 H 3.0625 Z m 0,0"
                   id="path11905" />
              </symbol>
            </g>
          </defs>
          <g
             id="g11919"
             transform="translate(-149.118,-127.953)">
            <g
               style="fill:#000000;fill-opacity:1"
               id="g11917">
              <g
                 transform="translate(148.712,134.765)"
                 id="g11915">
                <path
                   style="stroke:none;stroke-width:0"
                   d="M 3.015625,-3.15625 H 4.71875 c 1.40625,0 2.796875,-1.03125 2.796875,-2.140625 0,-0.78125 -0.65625,-1.515625 -1.96875,-1.515625 h -3.21875 c -0.1875,0 -0.296875,0 -0.296875,0.1875 0,0.125 0.078125,0.125 0.28125,0.125 0.125,0 0.3125,0.015625 0.421875,0.015625 0.171875,0.03125 0.21875,0.046875 0.21875,0.171875 0,0.03125 0,0.0625 -0.03125,0.1875 l -1.34375,5.34375 c -0.09375,0.390625 -0.109375,0.46875 -0.90625,0.46875 -0.15625,0 -0.265625,0 -0.265625,0.1875 C 0.40625,0 0.515625,0 0.546875,0 0.828125,0 1.53125,-0.03125 1.8125,-0.03125 c 0.21875,0 0.4375,0.015625 0.640625,0.015625 0.21875,0 0.4375,0.015625 0.640625,0.015625 0.078125,0 0.203125,0 0.203125,-0.203125 0,-0.109375 -0.09375,-0.109375 -0.28125,-0.109375 -0.359375,0 -0.640625,0 -0.640625,-0.171875 0,-0.0625 0.015625,-0.109375 0.03125,-0.171875 z M 3.734375,-6.125 C 3.828125,-6.46875 3.84375,-6.5 4.28125,-6.5 h 0.953125 c 0.828125,0 1.359375,0.265625 1.359375,0.953125 0,0.390625 -0.203125,1.25 -0.59375,1.609375 -0.5,0.453125 -1.09375,0.53125 -1.53125,0.53125 H 3.0625 Z m 0,0"
                   id="path11913" />
              </g>
            </g>
          </g>
        </g>
        <g
           transform="matrix(0.57315234,0,0,0.57315234,18.361196,170.47295)"
           ns2:version="1.5.0"
           ns2:texconverter="pdflatex"
           ns2:pdfconverter="inkscape"
           ns2:text="$K$\n"
           ns2:preamble="default_packages.tex"
           ns2:scale="3.0043524111480138"
           ns2:alignment="middle center"
           ns2:stroke-to-path="0"
           ns2:inkscapeversion="1.1"
           ns2:jacobian_sqrt="1.05987"
           id="g11943">
          <defs
             id="defs11933">
            <g
               id="g11931">
              <symbol
                 overflow="visible"
                 id="symbol11925">
                <path
                   style="stroke:none;stroke-width:0"
                   d=""
                   id="path11923" />
              </symbol>
              <symbol
                 overflow="visible"
                 id="symbol11929">
                <path
                   style="stroke:none;stroke-width:0"
                   d="M 5.078125,-4.03125 C 5.0625,-4.0625 5.03125,-4.140625 5.03125,-4.171875 c 0,0 0.171875,-0.140625 0.28125,-0.21875 l 1.75,-1.34375 C 8,-6.4375 8.390625,-6.46875 8.6875,-6.5 8.765625,-6.515625 8.859375,-6.515625 8.859375,-6.703125 8.859375,-6.734375 8.828125,-6.8125 8.75,-6.8125 c -0.21875,0 -0.46875,0.03125 -0.703125,0.03125 -0.359375,0 -0.75,-0.03125 -1.109375,-0.03125 -0.0625,0 -0.1875,0 -0.1875,0.203125 0,0.0625 0.046875,0.09375 0.125,0.109375 0.21875,0.015625 0.296875,0.0625 0.296875,0.203125 0,0.1875 -0.296875,0.421875 -0.359375,0.46875 L 2.9375,-2.84375 3.734375,-6.046875 C 3.8125,-6.40625 3.84375,-6.5 4.5625,-6.5 c 0.25,0 0.34375,0 0.34375,-0.203125 0,-0.078125 -0.078125,-0.109375 -0.140625,-0.109375 -0.28125,0 -1,0.03125 -1.28125,0.03125 C 3.203125,-6.78125 2.5,-6.8125 2.203125,-6.8125 2.140625,-6.8125 2,-6.8125 2,-6.625 2,-6.5 2.09375,-6.5 2.296875,-6.5 c 0.125,0 0.3125,0.015625 0.421875,0.015625 0.15625,0.03125 0.21875,0.046875 0.21875,0.171875 0,0.03125 0,0.0625 -0.03125,0.1875 L 1.5625,-0.78125 c -0.09375,0.390625 -0.109375,0.46875 -0.90625,0.46875 -0.171875,0 -0.28125,0 -0.28125,0.1875 C 0.375,0 0.5,0 0.53125,0 0.8125,0 1.515625,-0.03125 1.796875,-0.03125 2,-0.03125 2.21875,-0.015625 2.4375,-0.015625 2.65625,-0.015625 2.875,0 3.078125,0 3.15625,0 3.28125,0 3.28125,-0.203125 3.28125,-0.3125 3.1875,-0.3125 3,-0.3125 c -0.375,0 -0.640625,0 -0.640625,-0.171875 0,-0.078125 0.046875,-0.296875 0.078125,-0.4375 C 2.578125,-1.453125 2.71875,-1.96875 2.84375,-2.5 l 1.484375,-1.15625 1.15625,2.6875 c 0.125,0.265625 0.125,0.296875 0.125,0.34375 0,0.3125 -0.4375,0.3125 -0.53125,0.3125 -0.109375,0 -0.21875,0 -0.21875,0.203125 C 4.859375,0 4.984375,0 5,0 5.40625,0 5.828125,-0.03125 6.21875,-0.03125 6.4375,-0.03125 6.984375,0 7.203125,0 7.25,0 7.375,0 7.375,-0.203125 7.375,-0.3125 7.265625,-0.3125 7.171875,-0.3125 c -0.40625,0 -0.53125,-0.09375 -0.6875,-0.4375 z m 0,0"
                   id="path11927" />
              </symbol>
            </g>
          </defs>
          <g
             id="g11941"
             transform="translate(-149.087,-127.953)">
            <g
               style="fill:#000000;fill-opacity:1"
               id="g11939">
              <g
                 transform="translate(148.712,134.765)"
                 id="g11937">
                <path
                   style="stroke:none;stroke-width:0"
                   d="M 5.078125,-4.03125 C 5.0625,-4.0625 5.03125,-4.140625 5.03125,-4.171875 c 0,0 0.171875,-0.140625 0.28125,-0.21875 l 1.75,-1.34375 C 8,-6.4375 8.390625,-6.46875 8.6875,-6.5 8.765625,-6.515625 8.859375,-6.515625 8.859375,-6.703125 8.859375,-6.734375 8.828125,-6.8125 8.75,-6.8125 c -0.21875,0 -0.46875,0.03125 -0.703125,0.03125 -0.359375,0 -0.75,-0.03125 -1.109375,-0.03125 -0.0625,0 -0.1875,0 -0.1875,0.203125 0,0.0625 0.046875,0.09375 0.125,0.109375 0.21875,0.015625 0.296875,0.0625 0.296875,0.203125 0,0.1875 -0.296875,0.421875 -0.359375,0.46875 L 2.9375,-2.84375 3.734375,-6.046875 C 3.8125,-6.40625 3.84375,-6.5 4.5625,-6.5 c 0.25,0 0.34375,0 0.34375,-0.203125 0,-0.078125 -0.078125,-0.109375 -0.140625,-0.109375 -0.28125,0 -1,0.03125 -1.28125,0.03125 C 3.203125,-6.78125 2.5,-6.8125 2.203125,-6.8125 2.140625,-6.8125 2,-6.8125 2,-6.625 2,-6.5 2.09375,-6.5 2.296875,-6.5 c 0.125,0 0.3125,0.015625 0.421875,0.015625 0.15625,0.03125 0.21875,0.046875 0.21875,0.171875 0,0.03125 0,0.0625 -0.03125,0.1875 L 1.5625,-0.78125 c -0.09375,0.390625 -0.109375,0.46875 -0.90625,0.46875 -0.171875,0 -0.28125,0 -0.28125,0.1875 C 0.375,0 0.5,0 0.53125,0 0.8125,0 1.515625,-0.03125 1.796875,-0.03125 2,-0.03125 2.21875,-0.015625 2.4375,-0.015625 2.65625,-0.015625 2.875,0 3.078125,0 3.15625,0 3.28125,0 3.28125,-0.203125 3.28125,-0.3125 3.1875,-0.3125 3,-0.3125 c -0.375,0 -0.640625,0 -0.640625,-0.171875 0,-0.078125 0.046875,-0.296875 0.078125,-0.4375 C 2.578125,-1.453125 2.71875,-1.96875 2.84375,-2.5 l 1.484375,-1.15625 1.15625,2.6875 c 0.125,0.265625 0.125,0.296875 0.125,0.34375 0,0.3125 -0.4375,0.3125 -0.53125,0.3125 -0.109375,0 -0.21875,0 -0.21875,0.203125 C 4.859375,0 4.984375,0 5,0 5.40625,0 5.828125,-0.03125 6.21875,-0.03125 6.4375,-0.03125 6.984375,0 7.203125,0 7.25,0 7.375,0 7.375,-0.203125 7.375,-0.3125 7.265625,-0.3125 7.171875,-0.3125 c -0.40625,0 -0.53125,-0.09375 -0.6875,-0.4375 z m 0,0"
                   id="path11935" />
              </g>
            </g>
          </g>
        </g>
      </g>
    </g>
    <g
       id="g5438"
       transform="rotate(60.043439,61.666288,55.048988)">
      <g
         id="g5422"
         transform="matrix(0.69757253,0,0,0.69757253,-10.86114,-6.2281777)">
        <circle
           style="fill:url(#linearGradient3194);fill-opacity:1;stroke:#000cff;stroke-width:0.876533;stroke-linecap:round;stroke-opacity:1"
           id="path1952-7"
           cx="83.568573"
           cy="112.84332"
           r="21.206974" />
        <circle
           style="fill:#000000;fill-opacity:1;stroke:none;stroke-width:0.351675;stroke-linecap:round;stroke-opacity:1"
           id="path2293-6"
           cx="-113.67793"
           cy="84.404198"
           r="1.1172729"
           transform="rotate(-90)" />
        <circle
           style="fill:#000000;fill-opacity:1;stroke:none;stroke-width:0.351675;stroke-linecap:round;stroke-opacity:1"
           id="circle2375-86"
           cx="-112.16007"
           cy="81.785355"
           r="1.1172729"
           transform="rotate(-90)" />
        <circle
           style="fill:#ff0000;fill-opacity:1;stroke:none;stroke-width:0.351675;stroke-linecap:round;stroke-opacity:1"
           id="circle2377-7"
           cx="-112.02486"
           cy="83.585663"
           r="1.1172729"
           transform="rotate(-90)" />
        <circle
           style="fill:#ff0000;fill-opacity:1;stroke:none;stroke-width:0.351675;stroke-linecap:round;stroke-opacity:1"
           id="circle2397-1"
           cx="-114.14861"
           cy="81.806381"
           r="1.1172729"
           transform="rotate(-90)" />
        <circle
           style="fill:#0000ff;fill-opacity:1;stroke:none;stroke-width:0.351675;stroke-linecap:round;stroke-opacity:1"
           id="circle2479-8"
           cx="-110.85004"
           cy="62.485268"
           r="1.1172729"
           transform="rotate(-90)" />
      </g>
      <g
         id="g5414"
         transform="matrix(0.69757253,0,0,0.69757253,-10.397241,-5.9322208)">
        <circle
           style="fill:url(#linearGradient3194-9);fill-opacity:1;stroke:#000cff;stroke-width:0.876533;stroke-linecap:round;stroke-opacity:1"
           id="path1952-3"
           cx="39.620529"
           cy="112.59785"
           r="21.206974" />
        <circle
           style="fill:#000000;fill-opacity:1;stroke:none;stroke-width:0.351675;stroke-linecap:round;stroke-opacity:1"
           id="path2293-3"
           cx="-113.43246"
           cy="40.456177"
           r="1.1172729"
           transform="rotate(-90)" />
        <circle
           style="fill:#000000;fill-opacity:1;stroke:none;stroke-width:0.351675;stroke-linecap:round;stroke-opacity:1"
           id="circle2375-8"
           cx="-110.82956"
           cy="38.588493"
           r="1.1172729"
           transform="rotate(-90)" />
        <circle
           style="fill:#ff0000;fill-opacity:1;stroke:none;stroke-width:0.351675;stroke-linecap:round;stroke-opacity:1"
           id="circle2377-5-4"
           cx="-111.86287"
           cy="40.806145"
           r="1.1172729"
           transform="rotate(-90)" />
        <circle
           style="fill:#ff0000;fill-opacity:1;stroke:none;stroke-width:0.351675;stroke-linecap:round;stroke-opacity:1"
           id="circle2397-8"
           cx="-113.73622"
           cy="38.275665"
           r="1.1172729"
           transform="rotate(-90)" />
        <circle
           style="fill:#0000ff;fill-opacity:1;stroke:none;stroke-width:0.351675;stroke-linecap:round;stroke-opacity:1"
           id="circle2479-9"
           cx="-110.60458"
           cy="18.537241"
           r="1.1172729"
           transform="rotate(-90)" />
      </g>
    </g>
    <g
       id="g6231"
       transform="translate(13.229169,-14.287503)">
      <g
         id="g6335"
         transform="rotate(-36.176743,122.83319,136.13474)">
        <g
           id="g6319">
          <ellipse
             style="fill:url(#linearGradient5983);fill-opacity:1;stroke:#000cff;stroke-width:0.491848;stroke-linecap:round;stroke-opacity:1"
             id="circle5953"
             cx="108.45502"
             cy="-123.32558"
             transform="matrix(-0.00337158,0.99999432,-0.99999904,-0.00138906,0,0)"
             rx="9.5337601"
             ry="14.853181" />
          <circle
             style="fill:#000000;fill-opacity:1;stroke:none;stroke-width:0.245319;stroke-linecap:round;stroke-opacity:1"
             id="circle5955"
             cx="122.76015"
             cy="108.94196"
             r="0.77937883"
             transform="rotate(0.12399416)" />
          <circle
             style="fill:#000000;fill-opacity:1;stroke:none;stroke-width:0.245319;stroke-linecap:round;stroke-opacity:1"
             id="circle5957"
             cx="123.81897"
             cy="107.11512"
             r="0.77937883"
             transform="rotate(0.12399416)" />
          <circle
             style="fill:#ff0000;fill-opacity:1;stroke:none;stroke-width:0.245319;stroke-linecap:round;stroke-opacity:1"
             id="circle5959"
             cx="123.91329"
             cy="108.37096"
             r="0.77937883"
             transform="rotate(0.12399416)" />
          <circle
             style="fill:#ff0000;fill-opacity:1;stroke:none;stroke-width:0.245319;stroke-linecap:round;stroke-opacity:1"
             id="circle5961"
             cx="122.43182"
             cy="107.12979"
             r="0.77937883"
             transform="rotate(0.12399416)" />
          <circle
             style="fill:#0000ff;fill-opacity:1;stroke:none;stroke-width:0.245319;stroke-linecap:round;stroke-opacity:1"
             id="circle5963"
             cx="125.33538"
             cy="98.970093"
             r="0.77937883"
             transform="rotate(0.12399416)" />
        </g>
        <g
           id="g6311"
           transform="translate(19.504737,5.9105263)">
          <ellipse
             style="fill:url(#linearGradient5985);fill-opacity:1;stroke:#000cff;stroke-width:0.491848;stroke-linecap:round;stroke-opacity:1"
             id="circle5967"
             cx="83.165947"
             cy="-103.08514"
             transform="matrix(-0.00337158,0.99999432,-0.99999904,-0.00138906,0,0)"
             rx="9.5337601"
             ry="14.853181" />
          <circle
             style="fill:#000000;fill-opacity:1;stroke:none;stroke-width:0.245319;stroke-linecap:round;stroke-opacity:1"
             id="circle5969"
             cx="102.40121"
             cy="83.077858"
             r="0.77937883"
             transform="rotate(0.12399416)" />
          <circle
             style="fill:#000000;fill-opacity:1;stroke:none;stroke-width:0.245319;stroke-linecap:round;stroke-opacity:1"
             id="circle5971"
             cx="104.21692"
             cy="81.775009"
             r="0.77937883"
             transform="rotate(0.12399416)" />
          <circle
             style="fill:#ff0000;fill-opacity:1;stroke:none;stroke-width:0.245319;stroke-linecap:round;stroke-opacity:1"
             id="circle5973"
             cx="103.49611"
             cy="83.321983"
             r="0.77937883"
             transform="rotate(0.12399416)" />
          <circle
             style="fill:#ff0000;fill-opacity:1;stroke:none;stroke-width:0.245319;stroke-linecap:round;stroke-opacity:1"
             id="circle5975"
             cx="102.18931"
             cy="81.556793"
             r="0.77937883"
             transform="rotate(0.12399416)" />
          <circle
             style="fill:#0000ff;fill-opacity:1;stroke:none;stroke-width:0.245319;stroke-linecap:round;stroke-opacity:1"
             id="circle5977"
             cx="102.31734"
             cy="73.407272"
             r="0.77937883"
             transform="rotate(0.12399416)" />
        </g>
      </g>
    </g>
    <rect
       style="fill:#b3b3b3;fill-opacity:0.987903;stroke:#000000;stroke-width:1.1;stroke-linecap:round"
       id="rect6075"
       width="55.534317"
       height="7.1401267"
       x="5.7968569"
       y="111.82738" />
    <rect
       style="fill:#b3b3b3;fill-opacity:0.987903;stroke:#000000;stroke-width:1.1;stroke-linecap:round"
       id="rect6199"
       width="55.534317"
       height="7.1401267"
       x="84.40387"
       y="111.82738" />
    <rect
       style="fill:#b3b3b3;fill-opacity:0.987903;stroke:#000000;stroke-width:1.1;stroke-linecap:round"
       id="rect6201"
       width="55.534317"
       height="7.1401267"
       x="162.37314"
       y="111.54926" />
    <g
       id="g6982"
       transform="translate(18.41856,-19.368692)">
      <circle
         style="fill:#0000ff;fill-opacity:0.25;stroke:#000cff;stroke-width:0.611445;stroke-linecap:round;stroke-opacity:1"
         id="circle6497"
         cx="178.19057"
         cy="-114.09587"
         r="14.793403"
         transform="rotate(60.043439)" />
      <circle
         style="fill:#000000;fill-opacity:1;stroke:none;stroke-width:0.245319;stroke-linecap:round;stroke-opacity:1"
         id="circle6499"
         cx="113.51367"
         cy="178.77348"
         r="0.77937883"
         transform="rotate(-29.956561)" />
      <circle
         style="fill:#000000;fill-opacity:1;stroke:none;stroke-width:0.245319;stroke-linecap:round;stroke-opacity:1"
         id="circle6501"
         cx="114.57249"
         cy="176.94666"
         r="0.77937883"
         transform="rotate(-29.956561)" />
      <circle
         style="fill:#ff0000;fill-opacity:1;stroke:none;stroke-width:0.245319;stroke-linecap:round;stroke-opacity:1"
         id="circle6503"
         cx="114.66682"
         cy="178.2025"
         r="0.77937883"
         transform="rotate(-29.956561)" />
      <circle
         style="fill:#ff0000;fill-opacity:1;stroke:none;stroke-width:0.245319;stroke-linecap:round;stroke-opacity:1"
         id="circle6505"
         cx="113.18534"
         cy="176.96132"
         r="0.77937883"
         transform="rotate(-29.956561)" />
      <circle
         style="fill:#0000ff;fill-opacity:1;stroke:none;stroke-width:0.245319;stroke-linecap:round;stroke-opacity:1"
         id="circle6507"
         cx="115.48634"
         cy="163.48344"
         r="0.77937883"
         transform="rotate(-29.956561)" />
    </g>
    <g
       id="g6990"
       transform="translate(2.2913155,-9.4272357)">
      <circle
         style="fill:#0000ff;fill-opacity:0.25;stroke:#000cff;stroke-width:0.611445;stroke-linecap:round;stroke-opacity:1"
         id="circle6511"
         cx="128.13814"
         cy="-120.28656"
         r="14.793403"
         transform="rotate(60.043439)" />
      <circle
         style="fill:#000000;fill-opacity:1;stroke:none;stroke-width:0.245319;stroke-linecap:round;stroke-opacity:1"
         id="circle6513"
         cx="119.70436"
         cy="128.72107"
         r="0.77937883"
         transform="rotate(-29.956561)" />
      <circle
         style="fill:#000000;fill-opacity:1;stroke:none;stroke-width:0.245319;stroke-linecap:round;stroke-opacity:1"
         id="circle6515"
         cx="121.52007"
         cy="127.41822"
         r="0.77937883"
         transform="rotate(-29.956561)" />
      <circle
         style="fill:#ff0000;fill-opacity:1;stroke:none;stroke-width:0.245319;stroke-linecap:round;stroke-opacity:1"
         id="circle6517"
         cx="120.79926"
         cy="128.96519"
         r="0.77937883"
         transform="rotate(-29.956561)" />
      <circle
         style="fill:#ff0000;fill-opacity:1;stroke:none;stroke-width:0.245319;stroke-linecap:round;stroke-opacity:1"
         id="circle6519"
         cx="119.49246"
         cy="127.2"
         r="0.77937883"
         transform="rotate(-29.956561)" />
      <circle
         style="fill:#0000ff;fill-opacity:1;stroke:none;stroke-width:0.245319;stroke-linecap:round;stroke-opacity:1"
         id="circle6521"
         cx="121.677"
         cy="113.43102"
         r="0.77937883"
         transform="rotate(-29.956561)" />
    </g>
    <g
       id="g3442"
       transform="matrix(0,1,1,0,-6.4427535,-6.5899045)"
       style="stroke:#ff6600;stroke-width:0.9;stroke-miterlimit:4;stroke-dasharray:none;stroke-opacity:1">
      <path
         style="fill:none;stroke:#ff6600;stroke-width:0.9;stroke-linecap:round;stroke-linejoin:miter;stroke-miterlimit:4;stroke-dasharray:none;stroke-opacity:1"
         d="M 57.670509,45.641077 H 85.090533"
         id="path3436" />
      <path
         style="fill:none;stroke:#ff6600;stroke-width:0.9;stroke-linecap:round;stroke-linejoin:miter;stroke-miterlimit:4;stroke-dasharray:none;stroke-opacity:1"
         d="m 85.090531,45.641077 -2.862617,2.822157"
         id="path3438" />
      <path
         style="fill:none;stroke:#ff6600;stroke-width:0.9;stroke-linecap:round;stroke-linejoin:miter;stroke-miterlimit:4;stroke-dasharray:none;stroke-opacity:1"
         d="m 82.227914,42.81892 2.862617,2.822157"
         id="path3440" />
    </g>
    <g
       id="g676"
       transform="matrix(0,1,1,0,-21.344596,-31.858245)"
       style="stroke:#ff6600;stroke-width:0.9;stroke-miterlimit:4;stroke-dasharray:none;stroke-opacity:1">
      <path
         style="fill:none;stroke:#ff6600;stroke-width:0.9;stroke-linecap:round;stroke-linejoin:miter;stroke-miterlimit:4;stroke-dasharray:none;stroke-opacity:1"
         d="M 57.670509,45.641077 H 85.090533"
         id="path670" />
      <path
         style="fill:none;stroke:#ff6600;stroke-width:0.9;stroke-linecap:round;stroke-linejoin:miter;stroke-miterlimit:4;stroke-dasharray:none;stroke-opacity:1"
         d="m 85.090531,45.641077 -2.862617,2.822157"
         id="path672" />
      <path
         style="fill:none;stroke:#ff6600;stroke-width:0.9;stroke-linecap:round;stroke-linejoin:miter;stroke-miterlimit:4;stroke-dasharray:none;stroke-opacity:1"
         d="m 82.227914,42.81892 2.862617,2.822157"
         id="path674" />
    </g>
    <g
       id="g692"
       transform="matrix(0.97779122,-0.20958132,-0.20958132,-0.97779122,46.081637,98.947181)">
      <path
         style="fill:none;stroke:#ff6600;stroke-width:0.798733;stroke-linecap:round;stroke-linejoin:miter;stroke-miterlimit:4;stroke-dasharray:none;stroke-opacity:1"
         d="M 133.46867,30.436762 V 52.033396"
         id="path678" />
      <path
         style="fill:none;stroke:#ff6600;stroke-width:0.9;stroke-linecap:round;stroke-linejoin:miter;stroke-miterlimit:4;stroke-dasharray:none;stroke-opacity:1"
         d="m 133.46867,51.936473 2.82216,-2.862617"
         id="path680" />
      <path
         style="fill:none;stroke:#ff6600;stroke-width:0.9;stroke-linecap:round;stroke-linejoin:miter;stroke-miterlimit:4;stroke-dasharray:none;stroke-opacity:1"
         d="m 130.64651,49.073856 2.82216,2.862617"
         id="path682" />
    </g>
    <g
       id="g700"
       transform="rotate(-167.90218,172.40724,50.113124)">
      <path
         style="fill:none;stroke:#ff6600;stroke-width:0.798733;stroke-linecap:round;stroke-linejoin:miter;stroke-miterlimit:4;stroke-dasharray:none;stroke-opacity:1"
         d="M 133.46867,30.436762 V 52.033396"
         id="path694" />
      <path
         style="fill:none;stroke:#ff6600;stroke-width:0.9;stroke-linecap:round;stroke-linejoin:miter;stroke-miterlimit:4;stroke-dasharray:none;stroke-opacity:1"
         d="m 133.46867,51.936473 2.82216,-2.862617"
         id="path696" />
      <path
         style="fill:none;stroke:#ff6600;stroke-width:0.9;stroke-linecap:round;stroke-linejoin:miter;stroke-miterlimit:4;stroke-dasharray:none;stroke-opacity:1"
         d="m 130.64651,49.073856 2.82216,2.862617"
         id="path698" />
    </g>
  </g>
</svg>
