<?xml version="1.0" encoding="UTF-8" standalone="no"?>
<!-- Created with Inkscape (http://www.inkscape.org/) -->

<svg
   width="200mm"
   height="58mm"
   viewBox="0 0 200 58"
   version="1.1"
   id="svg5"
   inkscape:version="1.1 (c4e8f9e, 2021-05-24)"
   sodipodi:docname="partial_charge.svg"
   xmlns:inkscape="http://www.inkscape.org/namespaces/inkscape"
   xmlns:sodipodi="http://sodipodi.sourceforge.net/DTD/sodipodi-0.dtd"
   xmlns:xlink="http://www.w3.org/1999/xlink"
   xmlns="http://www.w3.org/2000/svg"
   xmlns:svg="http://www.w3.org/2000/svg"
   xmlns:ns2="http://www.iki.fi/pav/software/textext/">
  <sodipodi:namedview
     id="namedview7"
     pagecolor="#ffffff"
     bordercolor="#666666"
     borderopacity="1.0"
     inkscape:pageshadow="2"
     inkscape:pageopacity="0.0"
     inkscape:pagecheckerboard="0"
     inkscape:document-units="mm"
     showgrid="false"
     inkscape:zoom="1.6815926"
     inkscape:cx="391.29572"
     inkscape:cy="120.71889"
     inkscape:window-width="1269"
     inkscape:window-height="760"
     inkscape:window-x="28"
     inkscape:window-y="35"
     inkscape:window-maximized="0"
     inkscape:current-layer="layer1"
     height="55mm"
     width="296mm" />
  <defs
     id="defs2">
    <linearGradient
       inkscape:collect="always"
       id="linearGradient3192">
      <stop
         style="stop-color:#0000ff;stop-opacity:0.44999999"
         offset="0"
         id="stop3188" />
      <stop
         style="stop-color:#ff0000;stop-opacity:0.44999999"
         offset="1"
         id="stop3190" />
    </linearGradient>
    <inkscape:perspective
       sodipodi:type="inkscape:persp3d"
       inkscape:vp_x="0 : -46.999998 : 1"
       inkscape:vp_y="0 : 1000.0001 : 0"
       inkscape:vp_z="296.99999 : -46.999998 : 1"
       inkscape:persp3d-origin="148.5 : -81.999997 : 1"
       id="perspective1043" />
    <linearGradient
       inkscape:collect="always"
       xlink:href="#linearGradient3192"
       id="linearGradient3194"
       x1="78.311867"
       y1="29.362341"
       x2="121.60235"
       y2="29.362341"
       gradientUnits="userSpaceOnUse" />
  </defs>
  <g
     inkscape:label="Layer 1"
     inkscape:groupmode="layer"
     id="layer1">
    <circle
       style="fill:url(#linearGradient3194);fill-opacity:1;stroke:#000cff;stroke-width:0.876533;stroke-linecap:round;stroke-opacity:1"
       id="path1952"
       cx="99.957108"
       cy="29.362341"
       r="21.206974" />
    <circle
       style="fill:#000000;fill-opacity:1;stroke:none;stroke-width:0.351675;stroke-linecap:round;stroke-opacity:1"
       id="path2293"
       cx="-30.196957"
       cy="100.79275"
       r="1.1172729"
       transform="rotate(-90)" />
    <circle
       style="fill:#000000;fill-opacity:1;stroke:none;stroke-width:0.351675;stroke-linecap:round;stroke-opacity:1"
       id="circle2375"
       cx="-28.6791"
       cy="98.173889"
       r="1.1172729"
       transform="rotate(-90)" />
    <circle
       style="fill:#ff0000;fill-opacity:1;stroke:none;stroke-width:0.351675;stroke-linecap:round;stroke-opacity:1"
       id="circle2377"
       cx="-28.543896"
       cy="99.974205"
       r="1.1172729"
       transform="rotate(-90)" />
    <circle
       style="fill:#ff0000;fill-opacity:1;stroke:none;stroke-width:0.351675;stroke-linecap:round;stroke-opacity:1"
       id="circle2397"
       cx="-30.667645"
       cy="98.194916"
       r="1.1172729"
       transform="rotate(-90)" />
    <circle
       style="fill:#0000ff;fill-opacity:1;stroke:none;stroke-width:0.351675;stroke-linecap:round;stroke-opacity:1"
       id="circle2479"
       cx="-27.369074"
       cy="78.87381"
       r="1.1172729"
       transform="rotate(-90)" />
    <g
       transform="matrix(1.05987,0,0,1.05987,123.68048,23.383502)"
       ns2:version="1.5.0"
       ns2:texconverter="pdflatex"
       ns2:pdfconverter="inkscape"
       ns2:text="$\\delta+$\n"
       ns2:preamble="default_packages.tex"
       ns2:scale="3.0043524111480138"
       ns2:alignment="middle center"
       ns2:stroke-to-path="0"
       ns2:inkscapeversion="1.1"
       ns2:jacobian_sqrt="1.05987"
       id="g1231">
      <defs
         id="id-c2a98494-6e9f-48b2-a71f-c8c7f4c00781">
        <g
           id="id-0201e8ab-4dc1-444a-96e0-6a4320f3c049">
          <symbol
             overflow="visible"
             id="id-47ff57c4-ee0f-4d64-b2fa-5a3e43030049">
            <path
               style="stroke:none;stroke-width:0"
               d=""
               id="id-cf789cdd-c2d1-4945-8b10-21c313a49be3" />
          </symbol>
          <symbol
             overflow="visible"
             id="id-3ab5157a-ccde-494c-8457-38ee1adb14c6">
            <path
               style="stroke:none;stroke-width:0"
               d="M 2.625,-4.359375 C 1.390625,-4.0625 0.421875,-2.765625 0.421875,-1.5625 0.421875,-0.59375 1.0625,0.125 2,0.125 c 1.15625,0 1.984375,-1.578125 1.984375,-2.953125 0,-0.90625 -0.390625,-1.40625 -0.734375,-1.84375 C 2.890625,-5.125 2.296875,-5.875 2.296875,-6.3125 c 0,-0.21875 0.203125,-0.453125 0.546875,-0.453125 0.3125,0 0.5,0.125 0.71875,0.265625 0.203125,0.125 0.390625,0.25 0.546875,0.25 C 4.359375,-6.25 4.5,-6.484375 4.5,-6.65625 4.5,-6.875 4.34375,-6.890625 3.984375,-6.984375 3.46875,-7.09375 3.328125,-7.09375 3.171875,-7.09375 c -0.78125,0 -1.140625,0.4375 -1.140625,1.03125 0,0.546875 0.296875,1.09375 0.59375,1.703125 z m 0.125,0.21875 c 0.25,0.46875 0.546875,1 0.546875,1.71875 0,0.65625 -0.375,2.328125 -1.296875,2.328125 -0.546875,0 -0.96875,-0.421875 -0.96875,-1.1875 0,-0.625 0.375,-2.5 1.71875,-2.859375 z m 0,0"
               id="id-37813a42-deec-42dd-ab18-3c31968ecd3a" />
          </symbol>
          <symbol
             overflow="visible"
             id="id-e74c7ff2-07c1-4b1b-a79e-22e45df48ec1">
            <path
               style="stroke:none;stroke-width:0"
               d=""
               id="id-88a59a9b-920e-400e-b824-a8827187059d" />
          </symbol>
          <symbol
             overflow="visible"
             id="id-b7d8e64e-2551-46ae-8d7f-a597193dfcff">
            <path
               style="stroke:none;stroke-width:0"
               d="m 4.078125,-2.296875 h 2.78125 C 7,-2.296875 7.1875,-2.296875 7.1875,-2.5 7.1875,-2.6875 7,-2.6875 6.859375,-2.6875 h -2.78125 v -2.796875 c 0,-0.140625 0,-0.328125 -0.203125,-0.328125 -0.203125,0 -0.203125,0.1875 -0.203125,0.328125 V -2.6875 h -2.78125 c -0.140625,0 -0.328125,0 -0.328125,0.1875 0,0.203125 0.1875,0.203125 0.328125,0.203125 h 2.78125 V 0.5 c 0,0.140625 0,0.328125 0.203125,0.328125 0.203125,0 0.203125,-0.1875 0.203125,-0.328125 z m 0,0"
               id="id-ba86c309-6cc1-4415-8eb6-d27d940d1659" />
          </symbol>
        </g>
      </defs>
      <g
         id="id-c2871356-2f1f-4cca-966f-b5acfac49ea8"
         transform="translate(-149.134,-127.671)">
        <g
           style="fill:#000000;fill-opacity:1"
           id="id-62f57cf5-f0a1-4ffd-bfc1-a59509ef55ed">
          <g
             transform="translate(148.712,134.765)"
             id="g1223">
            <path
               style="stroke:none;stroke-width:0"
               d="M 2.625,-4.359375 C 1.390625,-4.0625 0.421875,-2.765625 0.421875,-1.5625 0.421875,-0.59375 1.0625,0.125 2,0.125 c 1.15625,0 1.984375,-1.578125 1.984375,-2.953125 0,-0.90625 -0.390625,-1.40625 -0.734375,-1.84375 C 2.890625,-5.125 2.296875,-5.875 2.296875,-6.3125 c 0,-0.21875 0.203125,-0.453125 0.546875,-0.453125 0.3125,0 0.5,0.125 0.71875,0.265625 0.203125,0.125 0.390625,0.25 0.546875,0.25 C 4.359375,-6.25 4.5,-6.484375 4.5,-6.65625 4.5,-6.875 4.34375,-6.890625 3.984375,-6.984375 3.46875,-7.09375 3.328125,-7.09375 3.171875,-7.09375 c -0.78125,0 -1.140625,0.4375 -1.140625,1.03125 0,0.546875 0.296875,1.09375 0.59375,1.703125 z m 0.125,0.21875 c 0.25,0.46875 0.546875,1 0.546875,1.71875 0,0.65625 -0.375,2.328125 -1.296875,2.328125 -0.546875,0 -0.96875,-0.421875 -0.96875,-1.1875 0,-0.625 0.375,-2.5 1.71875,-2.859375 z m 0,0"
               id="id-9b1798e0-4310-4f56-8591-8327323fd4f7" />
          </g>
        </g>
        <g
           style="fill:#000000;fill-opacity:1"
           id="id-791223f2-117d-4080-8b7b-88019cbc9f3e">
          <g
             transform="translate(153.517,134.765)"
             id="g1227">
            <path
               style="stroke:none;stroke-width:0"
               d="m 4.078125,-2.296875 h 2.78125 C 7,-2.296875 7.1875,-2.296875 7.1875,-2.5 7.1875,-2.6875 7,-2.6875 6.859375,-2.6875 h -2.78125 v -2.796875 c 0,-0.140625 0,-0.328125 -0.203125,-0.328125 -0.203125,0 -0.203125,0.1875 -0.203125,0.328125 V -2.6875 h -2.78125 c -0.140625,0 -0.328125,0 -0.328125,0.1875 0,0.203125 0.1875,0.203125 0.328125,0.203125 h 2.78125 V 0.5 c 0,0.140625 0,0.328125 0.203125,0.328125 0.203125,0 0.203125,-0.1875 0.203125,-0.328125 z m 0,0"
               id="id-e356d16f-7332-4e1c-8448-614b6cf21678" />
          </g>
        </g>
      </g>
    </g>
    <g
       transform="matrix(1.05987,0,0,1.05987,64.474923,23.383502)"
       ns2:version="1.5.0"
       ns2:texconverter="pdflatex"
       ns2:pdfconverter="inkscape"
       ns2:text="$\\delta-$\n"
       ns2:preamble="default_packages.tex"
       ns2:scale="3.0043524111480138"
       ns2:alignment="middle center"
       ns2:stroke-to-path="0"
       ns2:inkscapeversion="1.1"
       ns2:jacobian_sqrt="1.05987"
       id="g1372">
      <defs
         id="id-3c6f087f-e26d-43b7-bd87-7431f91ce024">
        <g
           id="id-3db15526-e22f-4e7f-b7b8-0cb4cc7a6066">
          <symbol
             overflow="visible"
             id="id-2f287730-f312-469c-b429-c597af95375c">
            <path
               style="stroke:none;stroke-width:0"
               d=""
               id="id-3922ab4a-84d4-4097-9087-62b27b3b3e46" />
          </symbol>
          <symbol
             overflow="visible"
             id="id-61de3277-60bf-4d65-b2a6-6a0609ecbf77">
            <path
               style="stroke:none;stroke-width:0"
               d="M 2.625,-4.359375 C 1.390625,-4.0625 0.421875,-2.765625 0.421875,-1.5625 0.421875,-0.59375 1.0625,0.125 2,0.125 c 1.15625,0 1.984375,-1.578125 1.984375,-2.953125 0,-0.90625 -0.390625,-1.40625 -0.734375,-1.84375 C 2.890625,-5.125 2.296875,-5.875 2.296875,-6.3125 c 0,-0.21875 0.203125,-0.453125 0.546875,-0.453125 0.3125,0 0.5,0.125 0.71875,0.265625 0.203125,0.125 0.390625,0.25 0.546875,0.25 C 4.359375,-6.25 4.5,-6.484375 4.5,-6.65625 4.5,-6.875 4.34375,-6.890625 3.984375,-6.984375 3.46875,-7.09375 3.328125,-7.09375 3.171875,-7.09375 c -0.78125,0 -1.140625,0.4375 -1.140625,1.03125 0,0.546875 0.296875,1.09375 0.59375,1.703125 z m 0.125,0.21875 c 0.25,0.46875 0.546875,1 0.546875,1.71875 0,0.65625 -0.375,2.328125 -1.296875,2.328125 -0.546875,0 -0.96875,-0.421875 -0.96875,-1.1875 0,-0.625 0.375,-2.5 1.71875,-2.859375 z m 0,0"
               id="id-6baeba80-83b6-41b7-a141-9bfc150de6ff" />
          </symbol>
          <symbol
             overflow="visible"
             id="id-24392f98-958a-4b5f-94aa-16a1cc888974">
            <path
               style="stroke:none;stroke-width:0"
               d=""
               id="id-4dfb1a0f-6bb6-4615-b616-760fecde88d5" />
          </symbol>
          <symbol
             overflow="visible"
             id="id-c551ef5e-e6d4-4a44-b624-3043f8bce3d4">
            <path
               style="stroke:none;stroke-width:0"
               d="m 6.5625,-2.296875 c 0.171875,0 0.359375,0 0.359375,-0.203125 0,-0.1875 -0.1875,-0.1875 -0.359375,-0.1875 H 1.171875 c -0.171875,0 -0.34375,0 -0.34375,0.1875 0,0.203125 0.171875,0.203125 0.34375,0.203125 z m 0,0"
               id="id-f49282b1-b9be-42a0-8af8-96d3f734748b" />
          </symbol>
        </g>
      </defs>
      <g
         id="id-94554770-fe3d-48a4-81e9-e68f97673aa4"
         transform="translate(-149.134,-127.671)">
        <g
           style="fill:#000000;fill-opacity:1"
           id="id-a2a26ab4-b669-4a9f-8a66-3c47e6f162e8">
          <g
             transform="translate(148.712,134.765)"
             id="g1364">
            <path
               style="stroke:none;stroke-width:0"
               d="M 2.625,-4.359375 C 1.390625,-4.0625 0.421875,-2.765625 0.421875,-1.5625 0.421875,-0.59375 1.0625,0.125 2,0.125 c 1.15625,0 1.984375,-1.578125 1.984375,-2.953125 0,-0.90625 -0.390625,-1.40625 -0.734375,-1.84375 C 2.890625,-5.125 2.296875,-5.875 2.296875,-6.3125 c 0,-0.21875 0.203125,-0.453125 0.546875,-0.453125 0.3125,0 0.5,0.125 0.71875,0.265625 0.203125,0.125 0.390625,0.25 0.546875,0.25 C 4.359375,-6.25 4.5,-6.484375 4.5,-6.65625 4.5,-6.875 4.34375,-6.890625 3.984375,-6.984375 3.46875,-7.09375 3.328125,-7.09375 3.171875,-7.09375 c -0.78125,0 -1.140625,0.4375 -1.140625,1.03125 0,0.546875 0.296875,1.09375 0.59375,1.703125 z m 0.125,0.21875 c 0.25,0.46875 0.546875,1 0.546875,1.71875 0,0.65625 -0.375,2.328125 -1.296875,2.328125 -0.546875,0 -0.96875,-0.421875 -0.96875,-1.1875 0,-0.625 0.375,-2.5 1.71875,-2.859375 z m 0,0"
               id="id-0f168b09-d623-4554-9bfe-9c9d1132a29a" />
          </g>
        </g>
        <g
           style="fill:#000000;fill-opacity:1"
           id="id-35d32369-5e78-462d-b592-f30035bcca3d">
          <g
             transform="translate(153.517,134.765)"
             id="g1368">
            <path
               style="stroke:none;stroke-width:0"
               d="m 6.5625,-2.296875 c 0.171875,0 0.359375,0 0.359375,-0.203125 0,-0.1875 -0.1875,-0.1875 -0.359375,-0.1875 H 1.171875 c -0.171875,0 -0.34375,0 -0.34375,0.1875 0,0.203125 0.171875,0.203125 0.34375,0.203125 z m 0,0"
               id="id-ce4bd3a7-e196-497c-b306-b7fb75f18b99" />
          </g>
        </g>
      </g>
    </g>
  </g>
</svg>
