<?xml version="1.0" encoding="UTF-8" standalone="no"?>
<!-- Created with Inkscape (http://www.inkscape.org/) -->

<svg
   width="265mm"
   height="100mm"
   viewBox="0 0 265 100"
   version="1.1"
   id="svg5"
   inkscape:version="1.1 (c4e8f9e, 2021-05-24)"
   sodipodi:docname="work2.svg"
   xmlns:inkscape="http://www.inkscape.org/namespaces/inkscape"
   xmlns:sodipodi="http://sodipodi.sourceforge.net/DTD/sodipodi-0.dtd"
   xmlns="http://www.w3.org/2000/svg"
   xmlns:svg="http://www.w3.org/2000/svg"
   xmlns:ns2="http://www.iki.fi/pav/software/textext/">
  <sodipodi:namedview
     id="namedview7"
     pagecolor="#ffffff"
     bordercolor="#666666"
     borderopacity="1.0"
     inkscape:pageshadow="2"
     inkscape:pageopacity="0.0"
     inkscape:pagecheckerboard="0"
     inkscape:document-units="mm"
     showgrid="false"
     inkscape:zoom="1.970973"
     inkscape:cx="542.11802"
     inkscape:cy="162.86372"
     inkscape:window-width="1312"
     inkscape:window-height="762"
     inkscape:window-x="0"
     inkscape:window-y="25"
     inkscape:window-maximized="0"
     inkscape:current-layer="layer1"
     height="110mm" />
  <defs
     id="defs2">
    <inkscape:perspective
       sodipodi:type="inkscape:persp3d"
       inkscape:vp_x="0 : -4.9999974 : 1"
       inkscape:vp_y="0 : 1000.0001 : 0"
       inkscape:vp_z="296.99998 : -4.9999974 : 1"
       inkscape:persp3d-origin="148.49999 : -39.999997 : 1"
       id="perspective1043" />
    <g
       id="id-902a010b-65ce-43e9-9eac-6250579094fa">
      <symbol
         overflow="visible"
         id="id-f19a0c93-e794-4fb9-9ca3-ea2ba8ac9fe3">
        <path
           style="stroke:none;stroke-width:0"
           d=""
           id="id-bb533ee5-388e-426f-980d-88656a9d4946" />
      </symbol>
      <symbol
         overflow="visible"
         id="id-1fc4b6bf-9fb4-4cc2-a2ba-bc3c7dfac2a9">
        <path
           style="stroke:none;stroke-width:0"
           d="m 3.015625,-3.234375 h 0.96875 c 0.75,0 0.828125,0.15625 0.828125,0.4375 0,0.078125 0,0.1875 -0.0625,0.5 C 4.71875,-2.25 4.71875,-2.21875 4.71875,-2.1875 c 0,0.078125 0.0625,0.109375 0.109375,0.109375 0.109375,0 0.109375,-0.03125 0.15625,-0.203125 L 5.53125,-4.453125 C 5.5625,-4.5625 5.5625,-4.578125 5.5625,-4.609375 5.5625,-4.625 5.546875,-4.71875 5.4375,-4.71875 5.34375,-4.71875 5.328125,-4.671875 5.296875,-4.5 5.078125,-3.734375 4.859375,-3.546875 4,-3.546875 H 3.09375 l 0.640625,-2.53125 C 3.828125,-6.4375 3.84375,-6.46875 4.28125,-6.46875 h 1.3125 c 1.21875,0 1.453125,0.328125 1.453125,1.09375 0,0.234375 0,0.265625 -0.03125,0.546875 C 7,-4.703125 7,-4.6875 7,-4.65625 c 0,0.046875 0.03125,0.125 0.125,0.125 0.109375,0 0.109375,-0.0625 0.125,-0.25 L 7.453125,-6.515625 C 7.484375,-6.78125 7.4375,-6.78125 7.1875,-6.78125 H 2.296875 c -0.1875,0 -0.296875,0 -0.296875,0.203125 0,0.109375 0.09375,0.109375 0.28125,0.109375 0.375,0 0.65625,0 0.65625,0.171875 0,0.046875 0,0.0625 -0.0625,0.25 L 1.5625,-0.78125 c -0.09375,0.390625 -0.109375,0.46875 -0.90625,0.46875 -0.171875,0 -0.28125,0 -0.28125,0.1875 C 0.375,0 0.5,0 0.53125,0 0.8125,0 1.5625,-0.03125 1.84375,-0.03125 2.171875,-0.03125 3,0 3.328125,0 3.421875,0 3.53125,0 3.53125,-0.1875 3.53125,-0.265625 3.484375,-0.296875 3.484375,-0.296875 3.453125,-0.3125 3.421875,-0.3125 3.203125,-0.3125 c -0.21875,0 -0.265625,0 -0.515625,-0.015625 -0.296875,-0.03125 -0.328125,-0.078125 -0.328125,-0.203125 0,-0.015625 0,-0.078125 0.046875,-0.21875 z m 0,0"
           id="id-73976f9d-a4b4-4a3e-a991-2dea126aa5d6" />
      </symbol>
    </g>
  </defs>
  <g
     inkscape:label="Layer 1"
     inkscape:groupmode="layer"
     id="layer1">
    <circle
       style="fill:#000080;fill-rule:evenodd;stroke-width:0.264583"
       id="circle727"
       cx="14.331081"
       cy="21.749609"
       r="0.8658458" />
    <ellipse
       style="fill:#ffffff;fill-opacity:0;fill-rule:evenodd;stroke:#000000;stroke-width:0.264583;stroke-opacity:1"
       id="path1128"
       cx="12.351516"
       cy="44.467896"
       rx="5.7379107"
       ry="25.038157" />
    <ellipse
       style="fill:#ff00ff;fill-opacity:1;fill-rule:evenodd;stroke:#000000;stroke-width:0.264583;stroke-opacity:1"
       id="ellipse1311-5"
       cx="169.30179"
       cy="44.467896"
       rx="5.7379107"
       ry="25.038157" />
    <ellipse
       style="fill:#ff00ff;fill-opacity:0.221774;fill-rule:evenodd;stroke:#000000;stroke-width:0.264583;stroke-opacity:1"
       id="ellipse1311-5-9"
       cx="129.5744"
       cy="44.498817"
       rx="5.7379107"
       ry="25.038157" />
    <ellipse
       style="fill:#ffffff;fill-rule:evenodd;stroke:#000000;stroke-width:0.264583;stroke-opacity:1"
       id="ellipse1344"
       cx="246.65799"
       cy="44.467896"
       rx="5.7379107"
       ry="25.038157" />
    <path
       style="fill:none;stroke:#000000;stroke-width:0.264583px;stroke-linecap:butt;stroke-linejoin:miter;stroke-opacity:1"
       d="M 129.53915,19.433024 12.326968,19.421966"
       id="path1654"
       sodipodi:nodetypes="cc" />
    <path
       style="fill:none;stroke:#000000;stroke-width:0.264583px;stroke-linecap:butt;stroke-linejoin:miter;stroke-opacity:1"
       d="M 129.56708,69.509006 12.354903,69.497948"
       id="path1654-9"
       sodipodi:nodetypes="cc" />
    <path
       style="fill:none;stroke:#000000;stroke-width:0.264583px;stroke-linecap:butt;stroke-linejoin:miter;stroke-opacity:1"
       d="M 246.77923,69.520064 129.56708,69.509006"
       id="path1654-9-1"
       sodipodi:nodetypes="cc" />
    <path
       style="fill:none;stroke:#000000;stroke-width:0.264583px;stroke-linecap:butt;stroke-linejoin:miter;stroke-opacity:1"
       d="M 246.7513,19.444082 129.53915,19.433024"
       id="path1654-9-1-5"
       sodipodi:nodetypes="cc" />
    <circle
       style="fill:#000080;fill-rule:evenodd;stroke-width:0.264583"
       id="path417"
       cx="116.1442"
       cy="39.356487"
       r="0.8658458" />
    <circle
       style="fill:#000080;fill-rule:evenodd;stroke-width:0.264583"
       id="circle575"
       cx="53.124245"
       cy="38.547497"
       r="0.8658458" />
    <circle
       style="fill:#000080;fill-rule:evenodd;stroke-width:0.264583"
       id="circle577"
       cx="45.385223"
       cy="48.507908"
       r="0.8658458" />
    <circle
       style="fill:#000080;fill-rule:evenodd;stroke-width:0.264583"
       id="circle579"
       cx="64.159523"
       cy="49.224483"
       r="0.8658458" />
    <circle
       style="fill:#000080;fill-rule:evenodd;stroke-width:0.264583"
       id="circle581"
       cx="112.07137"
       cy="57.373764"
       r="0.8658458" />
    <circle
       style="fill:#000080;fill-rule:evenodd;stroke-width:0.264583"
       id="circle583"
       cx="57.423706"
       cy="45.498287"
       r="0.8658458" />
    <circle
       style="fill:#000080;fill-rule:evenodd;stroke-width:0.264583"
       id="circle585"
       cx="32.988457"
       cy="42.345352"
       r="0.8658458" />
    <circle
       style="fill:#000080;fill-rule:evenodd;stroke-width:0.264583"
       id="circle587"
       cx="34.06332"
       cy="30.736818"
       r="0.8658458" />
    <circle
       style="fill:#000080;fill-rule:evenodd;stroke-width:0.264583"
       id="circle589"
       cx="48.968109"
       cy="30.163557"
       r="0.8658458" />
    <circle
       style="fill:#000080;fill-rule:evenodd;stroke-width:0.264583"
       id="circle591"
       cx="59.071831"
       cy="30.378531"
       r="0.8658458" />
    <circle
       style="fill:#000080;fill-rule:evenodd;stroke-width:0.264583"
       id="circle593"
       cx="65.950966"
       cy="41.628777"
       r="0.8658458" />
    <circle
       style="fill:#000080;fill-rule:evenodd;stroke-width:0.264583"
       id="circle595"
       cx="71.755234"
       cy="34.104725"
       r="0.8658458" />
    <circle
       style="fill:#000080;fill-rule:evenodd;stroke-width:0.264583"
       id="circle597"
       cx="69.032242"
       cy="26.222387"
       r="0.8658458" />
    <circle
       style="fill:#000080;fill-rule:evenodd;stroke-width:0.264583"
       id="circle599"
       cx="43.665443"
       cy="40.768883"
       r="0.8658458" />
    <circle
       style="fill:#000080;fill-rule:evenodd;stroke-width:0.264583"
       id="circle601"
       cx="31.34033"
       cy="54.885437"
       r="0.8658458" />
    <circle
       style="fill:#000080;fill-rule:evenodd;stroke-width:0.264583"
       id="circle603"
       cx="111.03999"
       cy="45.347847"
       r="0.8658458" />
    <circle
       style="fill:#000080;fill-rule:evenodd;stroke-width:0.264583"
       id="circle605"
       cx="25.321091"
       cy="49.439453"
       r="0.8658458" />
    <circle
       style="fill:#000080;fill-rule:evenodd;stroke-width:0.264583"
       id="circle607"
       cx="23.099705"
       cy="37.47263"
       r="0.8658458" />
    <circle
       style="fill:#000080;fill-rule:evenodd;stroke-width:0.264583"
       id="circle609"
       cx="26.969215"
       cy="28.2288"
       r="0.8658458" />
    <circle
       style="fill:#000080;fill-rule:evenodd;stroke-width:0.264583"
       id="circle611"
       cx="21.953182"
       cy="26.365702"
       r="0.8658458" />
    <circle
       style="fill:#000080;fill-rule:evenodd;stroke-width:0.264583"
       id="circle613"
       cx="40.512508"
       cy="27.36891"
       r="0.8658458" />
    <circle
       style="fill:#000080;fill-rule:evenodd;stroke-width:0.264583"
       id="circle615"
       cx="54.34243"
       cy="21.134695"
       r="0.8658458" />
    <circle
       style="fill:#000080;fill-rule:evenodd;stroke-width:0.264583"
       id="circle617"
       cx="32.415195"
       cy="21.492983"
       r="0.8658458" />
    <circle
       style="fill:#000080;fill-rule:evenodd;stroke-width:0.264583"
       id="circle619"
       cx="32.415195"
       cy="21.492983"
       r="0.8658458" />
    <circle
       style="fill:#000080;fill-rule:evenodd;stroke-width:0.264583"
       id="circle621"
       cx="63.084667"
       cy="23.212767"
       r="0.8658458" />
    <circle
       style="fill:#000080;fill-rule:evenodd;stroke-width:0.264583"
       id="circle623"
       cx="75.266457"
       cy="21.707956"
       r="0.8658458" />
    <circle
       style="fill:#000080;fill-rule:evenodd;stroke-width:0.264583"
       id="circle625"
       cx="81.357353"
       cy="27.225592"
       r="0.8658458" />
    <circle
       style="fill:#000080;fill-rule:evenodd;stroke-width:0.264583"
       id="circle627"
       cx="90.31456"
       cy="21.492983"
       r="0.8658458" />
    <circle
       style="fill:#000080;fill-rule:evenodd;stroke-width:0.264583"
       id="circle629"
       cx="89.311356"
       cy="35.466217"
       r="0.8658458" />
    <circle
       style="fill:#000080;fill-rule:evenodd;stroke-width:0.264583"
       id="circle631"
       cx="131.88237"
       cy="53.668324"
       r="0.8658458" />
    <circle
       style="fill:#000080;fill-rule:evenodd;stroke-width:0.264583"
       id="circle633"
       cx="78.634369"
       cy="36.827713"
       r="0.8658458" />
    <circle
       style="fill:#000080;fill-rule:evenodd;stroke-width:0.264583"
       id="circle635"
       cx="24.962811"
       cy="36.684399"
       r="0.8658458" />
    <circle
       style="fill:#000080;fill-rule:evenodd;stroke-width:0.264583"
       id="circle637"
       cx="23.781673"
       cy="44.296165"
       r="0.8658458" />
    <circle
       style="fill:#000080;fill-rule:evenodd;stroke-width:0.264583"
       id="circle639"
       cx="19.188366"
       cy="53.745255"
       r="0.8658458" />
    <circle
       style="fill:#000080;fill-rule:evenodd;stroke-width:0.264583"
       id="circle641"
       cx="145.04947"
       cy="33.014122"
       r="0.8658458" />
    <circle
       style="fill:#000080;fill-rule:evenodd;stroke-width:0.264583"
       id="circle643"
       cx="17.08857"
       cy="67.262711"
       r="0.8658458" />
    <circle
       style="fill:#000080;fill-rule:evenodd;stroke-width:0.264583"
       id="circle645"
       cx="47.535637"
       cy="64.637962"
       r="0.8658458" />
    <circle
       style="fill:#000080;fill-rule:evenodd;stroke-width:0.264583"
       id="circle647"
       cx="34.280663"
       cy="64.900436"
       r="0.8658458" />
    <circle
       style="fill:#000080;fill-rule:evenodd;stroke-width:0.264583"
       id="circle649"
       cx="27.062607"
       cy="63.456825"
       r="0.8658458" />
    <circle
       style="fill:#000080;fill-rule:evenodd;stroke-width:0.264583"
       id="circle651"
       cx="24.175385"
       cy="61.75074"
       r="0.8658458" />
    <circle
       style="fill:#000080;fill-rule:evenodd;stroke-width:0.264583"
       id="circle653"
       cx="35.986748"
       cy="59.257233"
       r="0.8658458" />
    <circle
       style="fill:#000080;fill-rule:evenodd;stroke-width:0.264583"
       id="circle655"
       cx="56.328537"
       cy="66.475288"
       r="0.8658458" />
    <circle
       style="fill:#000080;fill-rule:evenodd;stroke-width:0.264583"
       id="circle657"
       cx="64.990204"
       cy="58.207336"
       r="0.8658458" />
    <circle
       style="fill:#000080;fill-rule:evenodd;stroke-width:0.264583"
       id="circle659"
       cx="72.864449"
       cy="48.233295"
       r="0.8658458" />
    <circle
       style="fill:#000080;fill-rule:evenodd;stroke-width:0.264583"
       id="circle661"
       cx="87.694275"
       cy="45.083599"
       r="0.8658458" />
    <circle
       style="fill:#000080;fill-rule:evenodd;stroke-width:0.264583"
       id="circle663"
       cx="144.57202"
       cy="64.524055"
       r="0.8658458" />
    <circle
       style="fill:#000080;fill-rule:evenodd;stroke-width:0.264583"
       id="circle665"
       cx="131.42722"
       cy="64.632141"
       r="0.8658458" />
    <circle
       style="fill:#000080;fill-rule:evenodd;stroke-width:0.264583"
       id="circle667"
       cx="100.42429"
       cy="44.821121"
       r="0.8658458" />
    <circle
       style="fill:#000080;fill-rule:evenodd;stroke-width:0.264583"
       id="circle669"
       cx="159.59465"
       cy="50.383377"
       r="0.8658458" />
    <circle
       style="fill:#000080;fill-rule:evenodd;stroke-width:0.264583"
       id="circle671"
       cx="152.97644"
       cy="23.964806"
       r="0.8658458" />
    <circle
       style="fill:#000080;fill-rule:evenodd;stroke-width:0.264583"
       id="circle673"
       cx="122.2097"
       cy="57.288673"
       r="0.8658458" />
    <circle
       style="fill:#000080;fill-rule:evenodd;stroke-width:0.264583"
       id="circle675"
       cx="131.12863"
       cy="37.494137"
       r="0.8658458" />
    <circle
       style="fill:#000080;fill-rule:evenodd;stroke-width:0.264583"
       id="circle677"
       cx="160.82524"
       cy="64.996414"
       r="0.8658458" />
    <circle
       style="fill:#000080;fill-rule:evenodd;stroke-width:0.264583"
       id="circle679"
       cx="113.28557"
       cy="66.606529"
       r="0.8658458" />
    <circle
       style="fill:#000080;fill-rule:evenodd;stroke-width:0.264583"
       id="circle681"
       cx="159.07953"
       cy="39.734985"
       r="0.8658458" />
    <circle
       style="fill:#000080;fill-rule:evenodd;stroke-width:0.264583"
       id="circle683"
       cx="84.019638"
       cy="64.769203"
       r="0.8658458" />
    <circle
       style="fill:#000080;fill-rule:evenodd;stroke-width:0.264583"
       id="circle685"
       cx="91.631409"
       cy="55.320114"
       r="0.8658458" />
    <circle
       style="fill:#000080;fill-rule:evenodd;stroke-width:0.264583"
       id="circle687"
       cx="83.100983"
       cy="56.238777"
       r="0.8658458" />
    <circle
       style="fill:#000080;fill-rule:evenodd;stroke-width:0.264583"
       id="circle689"
       cx="135.81004"
       cy="24.547329"
       r="0.8658458" />
    <circle
       style="fill:#000080;fill-rule:evenodd;stroke-width:0.264583"
       id="circle691"
       cx="94.912354"
       cy="66.212822"
       r="0.8658458" />
    <circle
       style="fill:#000080;fill-rule:evenodd;stroke-width:0.264583"
       id="circle693"
       cx="53.966293"
       cy="55.84507"
       r="0.8658458" />
    <circle
       style="fill:#000080;fill-rule:evenodd;stroke-width:0.264583"
       id="circle695"
       cx="141.12691"
       cy="31.677149"
       r="0.8658458" />
    <circle
       style="fill:#000080;fill-rule:evenodd;stroke-width:0.264583"
       id="circle697"
       cx="101.34296"
       cy="37.471828"
       r="0.8658458" />
    <circle
       style="fill:#000080;fill-rule:evenodd;stroke-width:0.264583"
       id="circle699"
       cx="108.1673"
       cy="30.516249"
       r="0.8658458" />
    <circle
       style="fill:#000080;fill-rule:evenodd;stroke-width:0.264583"
       id="circle701"
       cx="112.49813"
       cy="22.37953"
       r="0.8658458" />
    <circle
       style="fill:#000080;fill-rule:evenodd;stroke-width:0.264583"
       id="circle703"
       cx="120.29749"
       cy="28.518482"
       r="0.8658458" />
    <circle
       style="fill:#000080;fill-rule:evenodd;stroke-width:0.264583"
       id="circle705"
       cx="131.60789"
       cy="23.641619"
       r="0.8658458" />
    <circle
       style="fill:#000080;fill-rule:evenodd;stroke-width:0.264583"
       id="circle707"
       cx="159.58109"
       cy="33.41328"
       r="0.8658458" />
    <circle
       style="fill:#000080;fill-rule:evenodd;stroke-width:0.264583"
       id="circle709"
       cx="121.15981"
       cy="45.871017"
       r="0.8658458" />
    <circle
       style="fill:#000080;fill-rule:evenodd;stroke-width:0.264583"
       id="circle711"
       cx="152.21155"
       cy="54.099953"
       r="0.8658458" />
    <circle
       style="fill:#000080;fill-rule:evenodd;stroke-width:0.264583"
       id="circle713"
       cx="140.68811"
       cy="49.428604"
       r="0.8658458" />
    <circle
       style="fill:#000080;fill-rule:evenodd;stroke-width:0.264583"
       id="circle715"
       cx="144.53094"
       cy="41.192154"
       r="0.8658458" />
    <circle
       style="fill:#000080;fill-rule:evenodd;stroke-width:0.264583"
       id="circle717"
       cx="75.22673"
       cy="58.338562"
       r="0.8658458" />
    <circle
       style="fill:#000080;fill-rule:evenodd;stroke-width:0.264583"
       id="circle719"
       cx="71.420845"
       cy="68.181366"
       r="0.8658458" />
    <circle
       style="fill:#000080;fill-rule:evenodd;stroke-width:0.264583"
       id="circle721"
       cx="12.495259"
       cy="38.521721"
       r="0.8658458" />
    <circle
       style="fill:#000080;fill-rule:evenodd;stroke-width:0.264583"
       id="circle723"
       cx="14.857533"
       cy="29.203871"
       r="0.8658458" />
    <circle
       style="fill:#000080;fill-rule:evenodd;stroke-width:0.264583"
       id="circle725"
       cx="9.739274"
       cy="28.153971"
       r="0.8658458" />
    <circle
       style="fill:#000080;fill-rule:evenodd;stroke-width:0.264583"
       id="circle729"
       cx="14.595058"
       cy="47.183388"
       r="0.8658458" />
    <circle
       style="fill:#000080;fill-rule:evenodd;stroke-width:0.264583"
       id="circle1582"
       cx="9.2900667"
       cy="59.789345"
       r="0.8658458" />
    <circle
       style="fill:#000080;fill-rule:evenodd;stroke-width:0.264583"
       id="circle1584"
       cx="16.560497"
       cy="62.154427"
       r="0.8658458" />
    <circle
       style="fill:#000080;fill-rule:evenodd;stroke-width:0.264583"
       id="circle1586"
       cx="118.0584"
       cy="50.65345"
       r="0.8658458" />
    <circle
       style="fill:#000080;fill-rule:evenodd;stroke-width:0.264583"
       id="circle1588"
       cx="150.9738"
       cy="56.492123"
       r="0.8658458" />
    <circle
       style="fill:#000080;fill-rule:evenodd;stroke-width:0.264583"
       id="circle1590"
       cx="94.680168"
       cy="28.893721"
       r="0.8658458" />
    <circle
       style="fill:#000080;fill-rule:evenodd;stroke-width:0.264583"
       id="circle1592"
       cx="102.05329"
       cy="57.666916"
       r="0.8658458" />
    <g
       id="g20773"
       transform="translate(20.086333,2.3208823)">
      <path
         style="fill:none;stroke:#000000;stroke-width:0.264583px;stroke-linecap:butt;stroke-linejoin:miter;stroke-opacity:1"
         d="M 149.95216,38.385546 H 288.30582"
         id="path20129" />
      <path
         style="fill:none;stroke:#000000;stroke-width:0.264583px;stroke-linecap:butt;stroke-linejoin:miter;stroke-opacity:1"
         d="M 149.94252,45.057066 H 288.29618"
         id="path20129-7" />
      <ellipse
         style="fill:none;fill-rule:evenodd;stroke:#000000;stroke-width:0.236877;stroke-opacity:1"
         id="path20359"
         cx="149.95541"
         cy="41.722012"
         rx="1.5005803"
         ry="3.3316908" />
      <ellipse
         style="fill:none;fill-rule:evenodd;stroke:#000000;stroke-width:0.236877;stroke-opacity:1"
         id="path20359-9"
         cx="288.29916"
         cy="41.719738"
         rx="1.5005803"
         ry="3.3316908" />
    </g>
    <g
       id="g30183"
       transform="matrix(0.99996999,0,0,-1.0646121,-19.377393,92.78579)">
      <path
         style="fill:none;stroke:#000000;stroke-width:0.267798px;stroke-linecap:butt;stroke-linejoin:miter;stroke-opacity:1"
         d="m 148.98526,70.423783 c -0.11062,6.424684 19.68348,0.276698 19.82202,6.404056"
         id="path29208"
         sodipodi:nodetypes="cc" />
      <path
         style="fill:none;stroke:#000000;stroke-width:0.269032px;stroke-linecap:butt;stroke-linejoin:miter;stroke-opacity:1"
         d="m 188.81913,70.424119 c 0.11161,6.42401 -19.86749,0.276669 -20.00733,6.403384"
         id="path29541-5"
         sodipodi:nodetypes="cc" />
    </g>
    <g
       transform="matrix(1.05987,0,0,1.05987,146.06164,2.8146709)"
       ns2:version="1.5.0"
       ns2:texconverter="pdflatex"
       ns2:pdfconverter="inkscape"
       ns2:text="$L$\n"
       ns2:preamble="default_packages.tex"
       ns2:scale="3.0043524111480138"
       ns2:alignment="middle center"
       ns2:stroke-to-path="0"
       ns2:inkscapeversion="1.1"
       ns2:jacobian_sqrt="1.05987"
       id="g30148">
      <defs
         id="id-dd41d1d9-a692-4a47-a905-ad7549d14fce">
        <g
           id="id-f9a46500-211a-4d42-bd0e-4b940a61826d">
          <symbol
             overflow="visible"
             id="id-9edbad70-645f-488f-aa36-55f8e480c0b5">
            <path
               style="stroke:none;stroke-width:0"
               d=""
               id="id-f322d1b7-c86f-4bf0-b453-a4b0aec6c260" />
          </symbol>
          <symbol
             overflow="visible"
             id="id-d61bb0f9-01ca-49d0-b31b-5ca4bca66e48">
            <path
               style="stroke:none;stroke-width:0"
               d="M 3.734375,-6.03125 C 3.8125,-6.390625 3.84375,-6.5 4.78125,-6.5 c 0.296875,0 0.375,0 0.375,-0.1875 0,-0.125 -0.109375,-0.125 -0.15625,-0.125 -0.328125,0 -1.140625,0.03125 -1.46875,0.03125 -0.296875,0 -1.03125,-0.03125 -1.328125,-0.03125 -0.0625,0 -0.1875,0 -0.1875,0.203125 0,0.109375 0.09375,0.109375 0.28125,0.109375 0.015625,0 0.203125,0 0.375,0.015625 0.171875,0.03125 0.265625,0.03125 0.265625,0.171875 0,0.03125 0,0.0625 -0.03125,0.1875 L 1.5625,-0.78125 c -0.09375,0.390625 -0.109375,0.46875 -0.90625,0.46875 -0.171875,0 -0.265625,0 -0.265625,0.203125 C 0.390625,0 0.484375,0 0.65625,0 h 4.625 C 5.515625,0 5.515625,0 5.578125,-0.171875 L 6.375,-2.328125 c 0.03125,-0.109375 0.03125,-0.125 0.03125,-0.140625 0,-0.03125 -0.03125,-0.109375 -0.109375,-0.109375 -0.09375,0 -0.109375,0.0625 -0.171875,0.21875 -0.34375,0.90625 -0.78125,2.046875 -2.5,2.046875 H 2.6875 c -0.140625,0 -0.171875,0 -0.21875,0 -0.109375,-0.015625 -0.140625,-0.03125 -0.140625,-0.109375 0,-0.03125 0,-0.046875 0.046875,-0.21875 z m 0,0"
               id="id-59bd01bf-f99c-4e1e-b20f-7d2d378509ea" />
          </symbol>
        </g>
      </defs>
      <g
         id="id-65c30c76-56db-4405-9e3a-58ea4ff50591"
         transform="translate(-149.103,-127.953)">
        <g
           style="fill:#000000;fill-opacity:1"
           id="id-a290846c-020c-481d-801b-9d940cb4c3c9">
          <g
             transform="translate(148.712,134.765)"
             id="g30144">
            <path
               style="stroke:none;stroke-width:0"
               d="M 3.734375,-6.03125 C 3.8125,-6.390625 3.84375,-6.5 4.78125,-6.5 c 0.296875,0 0.375,0 0.375,-0.1875 0,-0.125 -0.109375,-0.125 -0.15625,-0.125 -0.328125,0 -1.140625,0.03125 -1.46875,0.03125 -0.296875,0 -1.03125,-0.03125 -1.328125,-0.03125 -0.0625,0 -0.1875,0 -0.1875,0.203125 0,0.109375 0.09375,0.109375 0.28125,0.109375 0.015625,0 0.203125,0 0.375,0.015625 0.171875,0.03125 0.265625,0.03125 0.265625,0.171875 0,0.03125 0,0.0625 -0.03125,0.1875 L 1.5625,-0.78125 c -0.09375,0.390625 -0.109375,0.46875 -0.90625,0.46875 -0.171875,0 -0.265625,0 -0.265625,0.203125 C 0.390625,0 0.484375,0 0.65625,0 h 4.625 C 5.515625,0 5.515625,0 5.578125,-0.171875 L 6.375,-2.328125 c 0.03125,-0.109375 0.03125,-0.125 0.03125,-0.140625 0,-0.03125 -0.03125,-0.109375 -0.109375,-0.109375 -0.09375,0 -0.109375,0.0625 -0.171875,0.21875 -0.34375,0.90625 -0.78125,2.046875 -2.5,2.046875 H 2.6875 c -0.140625,0 -0.171875,0 -0.21875,0 -0.109375,-0.015625 -0.140625,-0.03125 -0.140625,-0.109375 0,-0.03125 0,-0.046875 0.046875,-0.21875 z m 0,0"
               id="id-5e395345-a8b7-49d0-961d-6e7642f3e745" />
          </g>
        </g>
      </g>
    </g>
    <g
       id="g27688"
       style="stroke:#000000;stroke-width:0.7;stroke-miterlimit:4;stroke-dasharray:none;stroke-opacity:1"
       transform="translate(95.559826,1.7048027)">
      <g
         id="g27686"
         transform="translate(-19.19945,17.120034)"
         style="stroke:#000000;stroke-width:0.7;stroke-miterlimit:4;stroke-dasharray:none;stroke-opacity:1">
        <path
           style="fill:none;stroke:#000000;stroke-width:0.7;stroke-linecap:round;stroke-linejoin:miter;stroke-miterlimit:4;stroke-dasharray:none;stroke-opacity:1"
           d="m 135.76479,25.051434 6.89986,0.02255"
           id="path27680" />
        <path
           style="fill:none;stroke:#000000;stroke-width:0.7;stroke-linecap:round;stroke-linejoin:miter;stroke-miterlimit:4;stroke-dasharray:none;stroke-opacity:1"
           d="m 142.66465,25.073984 -1.93918,-1.73624"
           id="path27682" />
        <path
           style="fill:none;stroke:#000000;stroke-width:0.7;stroke-linecap:round;stroke-linejoin:miter;stroke-miterlimit:4;stroke-dasharray:none;stroke-opacity:1"
           d="m 142.66465,25.073984 -1.84899,1.871526"
           id="path27684" />
      </g>
    </g>
    <g
       transform="matrix(1.05987,0,0,1.05987,210.79997,49.060366)"
       ns2:version="1.5.0"
       ns2:texconverter="pdflatex"
       ns2:pdfconverter="inkscape"
       ns2:text="$F$\n"
       ns2:preamble="default_packages.tex"
       ns2:scale="3.0043524111480138"
       ns2:alignment="middle center"
       ns2:stroke-to-path="0"
       ns2:inkscapeversion="1.1"
       ns2:jacobian_sqrt="1.05987"
       id="g27607">
      <defs
         id="id-ed8df0c2-37bc-486a-8516-05e46fc9d7fa">
        <g
           id="g31268">
          <symbol
             overflow="visible"
             id="symbol31262">
            <path
               style="stroke:none;stroke-width:0"
               d=""
               id="path31260" />
          </symbol>
          <symbol
             overflow="visible"
             id="symbol31266">
            <path
               style="stroke:none;stroke-width:0"
               d="m 3.015625,-3.234375 h 0.96875 c 0.75,0 0.828125,0.15625 0.828125,0.4375 0,0.078125 0,0.1875 -0.0625,0.5 C 4.71875,-2.25 4.71875,-2.21875 4.71875,-2.1875 c 0,0.078125 0.0625,0.109375 0.109375,0.109375 0.109375,0 0.109375,-0.03125 0.15625,-0.203125 L 5.53125,-4.453125 C 5.5625,-4.5625 5.5625,-4.578125 5.5625,-4.609375 5.5625,-4.625 5.546875,-4.71875 5.4375,-4.71875 5.34375,-4.71875 5.328125,-4.671875 5.296875,-4.5 5.078125,-3.734375 4.859375,-3.546875 4,-3.546875 H 3.09375 l 0.640625,-2.53125 C 3.828125,-6.4375 3.84375,-6.46875 4.28125,-6.46875 h 1.3125 c 1.21875,0 1.453125,0.328125 1.453125,1.09375 0,0.234375 0,0.265625 -0.03125,0.546875 C 7,-4.703125 7,-4.6875 7,-4.65625 c 0,0.046875 0.03125,0.125 0.125,0.125 0.109375,0 0.109375,-0.0625 0.125,-0.25 L 7.453125,-6.515625 C 7.484375,-6.78125 7.4375,-6.78125 7.1875,-6.78125 H 2.296875 c -0.1875,0 -0.296875,0 -0.296875,0.203125 0,0.109375 0.09375,0.109375 0.28125,0.109375 0.375,0 0.65625,0 0.65625,0.171875 0,0.046875 0,0.0625 -0.0625,0.25 L 1.5625,-0.78125 c -0.09375,0.390625 -0.109375,0.46875 -0.90625,0.46875 -0.171875,0 -0.28125,0 -0.28125,0.1875 C 0.375,0 0.5,0 0.53125,0 0.8125,0 1.5625,-0.03125 1.84375,-0.03125 2.171875,-0.03125 3,0 3.328125,0 3.421875,0 3.53125,0 3.53125,-0.1875 3.53125,-0.265625 3.484375,-0.296875 3.484375,-0.296875 3.453125,-0.3125 3.421875,-0.3125 3.203125,-0.3125 c -0.21875,0 -0.265625,0 -0.515625,-0.015625 -0.296875,-0.03125 -0.328125,-0.078125 -0.328125,-0.203125 0,-0.015625 0,-0.078125 0.046875,-0.21875 z m 0,0"
               id="path31264" />
          </symbol>
        </g>
      </defs>
      <g
         id="id-1372d8bb-985c-4d5d-9ff1-6e975d204499"
         transform="translate(-149.087,-127.984)">
        <g
           style="fill:#000000;fill-opacity:1"
           id="id-fb8f47c7-2bb8-4891-bb4f-061e6c6395fc">
          <g
             transform="translate(148.712,134.765)"
             id="g27603">
            <path
               style="stroke:none;stroke-width:0"
               d="m 3.015625,-3.234375 h 0.96875 c 0.75,0 0.828125,0.15625 0.828125,0.4375 0,0.078125 0,0.1875 -0.0625,0.5 C 4.71875,-2.25 4.71875,-2.21875 4.71875,-2.1875 c 0,0.078125 0.0625,0.109375 0.109375,0.109375 0.109375,0 0.109375,-0.03125 0.15625,-0.203125 L 5.53125,-4.453125 C 5.5625,-4.5625 5.5625,-4.578125 5.5625,-4.609375 5.5625,-4.625 5.546875,-4.71875 5.4375,-4.71875 5.34375,-4.71875 5.328125,-4.671875 5.296875,-4.5 5.078125,-3.734375 4.859375,-3.546875 4,-3.546875 H 3.09375 l 0.640625,-2.53125 C 3.828125,-6.4375 3.84375,-6.46875 4.28125,-6.46875 h 1.3125 c 1.21875,0 1.453125,0.328125 1.453125,1.09375 0,0.234375 0,0.265625 -0.03125,0.546875 C 7,-4.703125 7,-4.6875 7,-4.65625 c 0,0.046875 0.03125,0.125 0.125,0.125 0.109375,0 0.109375,-0.0625 0.125,-0.25 L 7.453125,-6.515625 C 7.484375,-6.78125 7.4375,-6.78125 7.1875,-6.78125 H 2.296875 c -0.1875,0 -0.296875,0 -0.296875,0.203125 0,0.109375 0.09375,0.109375 0.28125,0.109375 0.375,0 0.65625,0 0.65625,0.171875 0,0.046875 0,0.0625 -0.0625,0.25 L 1.5625,-0.78125 c -0.09375,0.390625 -0.109375,0.46875 -0.90625,0.46875 -0.171875,0 -0.28125,0 -0.28125,0.1875 C 0.375,0 0.5,0 0.53125,0 0.8125,0 1.5625,-0.03125 1.84375,-0.03125 2.171875,-0.03125 3,0 3.328125,0 3.421875,0 3.53125,0 3.53125,-0.1875 3.53125,-0.265625 3.484375,-0.296875 3.484375,-0.296875 3.453125,-0.3125 3.421875,-0.3125 3.203125,-0.3125 c -0.21875,0 -0.265625,0 -0.515625,-0.015625 -0.296875,-0.03125 -0.328125,-0.078125 -0.328125,-0.203125 0,-0.015625 0,-0.078125 0.046875,-0.21875 z m 0,0"
               id="id-b2b3c9ca-3de6-4b94-8eb7-dab4a9b0bf1f" />
          </g>
        </g>
      </g>
    </g>
    <g
       transform="matrix(1.05987,0,0,1.05987,119.84776,74.456215)"
       ns2:version="1.5.0"
       ns2:texconverter="pdflatex"
       ns2:pdfconverter="inkscape"
       ns2:text="$$\nW = \\int F \\, dL\n$$\n"
       ns2:preamble="default_packages.tex"
       ns2:scale="3.0043524111480138"
       ns2:alignment="middle center"
       ns2:stroke-to-path="0"
       ns2:inkscapeversion="1.1"
       ns2:jacobian_sqrt="1.05987"
       id="g32617">
      <defs
         id="id-ccad08c6-507a-4815-80ec-6494b9eb8f90">
        <g
           id="id-c5c7a8b9-9a70-41c4-aa86-444dd32a633c">
          <symbol
             overflow="visible"
             id="id-f2e31991-9821-4333-8da0-22401bc7e36b">
            <path
               style="stroke:none;stroke-width:0"
               d=""
               id="id-d5592dff-9aeb-4982-9268-9ba9cabcb989" />
          </symbol>
          <symbol
             overflow="visible"
             id="id-b45f856c-9464-4584-8a22-fcd70ec551e3">
            <path
               style="stroke:none;stroke-width:0"
               d="m 9.140625,-5.65625 c 0.25,-0.4375 0.484375,-0.796875 1.125,-0.84375 0.07813,-0.015625 0.1875,-0.015625 0.1875,-0.203125 0,-0.03125 -0.04687,-0.109375 -0.125,-0.109375 -0.234375,0 -0.515625,0.03125 -0.765625,0.03125 -0.34375,0 -0.703125,-0.03125 -1.046875,-0.03125 -0.046875,0 -0.1875,0 -0.1875,0.1875 0,0.109375 0.09375,0.125 0.15625,0.125 0.234375,0.015625 0.59375,0.09375 0.59375,0.390625 0,0.109375 -0.0625,0.1875 -0.140625,0.328125 L 6.25,-1.09375 5.875,-6.03125 c 0,-0.203125 -0.015625,-0.453125 0.703125,-0.46875 0.171875,0 0.265625,0 0.265625,-0.203125 0,-0.09375 -0.109375,-0.109375 -0.140625,-0.109375 -0.40625,0 -0.828125,0.03125 -1.21875,0.03125 -0.234375,0 -0.8125,-0.03125 -1.046875,-0.03125 -0.0625,0 -0.1875,0 -0.1875,0.203125 C 4.25,-6.5 4.34375,-6.5 4.484375,-6.5 4.921875,-6.5 5,-6.4375 5.015625,-6.25 l 0.0625,0.765625 -2.53125,4.390625 -0.375,-5.046875 c 0,-0.125 0,-0.34375 0.765625,-0.359375 0.09375,0 0.203125,0 0.203125,-0.203125 C 3.140625,-6.8125 3.015625,-6.8125 3,-6.8125 c -0.390625,0 -0.8125,0.03125 -1.21875,0.03125 -0.359375,0 -0.71875,-0.03125 -1.046875,-0.03125 -0.0625,0 -0.1875,0 -0.1875,0.1875 0,0.125 0.09375,0.125 0.25,0.125 0.5,0 0.515625,0.09375 0.53125,0.375 l 0.453125,6.078125 c 0,0.1875 0.015625,0.265625 0.15625,0.265625 0.109375,0 0.140625,-0.0625 0.234375,-0.203125 l 2.9375,-5.09375 0.359375,5.03125 C 5.5,0.171875 5.515625,0.21875 5.625,0.21875 c 0.140625,0 0.203125,-0.09375 0.25,-0.1875 z m 0,0"
               id="id-5cee1196-622c-4b23-a0c8-b582fb24c9bb" />
          </symbol>
          <symbol
             overflow="visible"
             id="id-c01660ca-4d5e-464c-a5b9-bc513a7585d9">
            <path
               style="stroke:none;stroke-width:0"
               d="m 3.015625,-3.234375 h 0.96875 c 0.75,0 0.828125,0.15625 0.828125,0.4375 0,0.078125 0,0.1875 -0.0625,0.5 C 4.71875,-2.25 4.71875,-2.21875 4.71875,-2.1875 c 0,0.078125 0.0625,0.109375 0.109375,0.109375 0.109375,0 0.109375,-0.03125 0.15625,-0.203125 L 5.53125,-4.453125 C 5.5625,-4.5625 5.5625,-4.578125 5.5625,-4.609375 5.5625,-4.625 5.546875,-4.71875 5.4375,-4.71875 5.34375,-4.71875 5.328125,-4.671875 5.296875,-4.5 5.078125,-3.734375 4.859375,-3.546875 4,-3.546875 H 3.09375 l 0.640625,-2.53125 C 3.828125,-6.4375 3.84375,-6.46875 4.28125,-6.46875 h 1.3125 c 1.21875,0 1.453125,0.328125 1.453125,1.09375 0,0.234375 0,0.265625 -0.03125,0.546875 C 7,-4.703125 7,-4.6875 7,-4.65625 c 0,0.046875 0.03125,0.125 0.125,0.125 0.109375,0 0.109375,-0.0625 0.125,-0.25 L 7.453125,-6.515625 C 7.484375,-6.78125 7.4375,-6.78125 7.1875,-6.78125 H 2.296875 c -0.1875,0 -0.296875,0 -0.296875,0.203125 0,0.109375 0.09375,0.109375 0.28125,0.109375 0.375,0 0.65625,0 0.65625,0.171875 0,0.046875 0,0.0625 -0.0625,0.25 L 1.5625,-0.78125 c -0.09375,0.390625 -0.109375,0.46875 -0.90625,0.46875 -0.171875,0 -0.28125,0 -0.28125,0.1875 C 0.375,0 0.5,0 0.53125,0 0.8125,0 1.5625,-0.03125 1.84375,-0.03125 2.171875,-0.03125 3,0 3.328125,0 3.421875,0 3.53125,0 3.53125,-0.1875 3.53125,-0.265625 3.484375,-0.296875 3.484375,-0.296875 3.453125,-0.3125 3.421875,-0.3125 3.203125,-0.3125 c -0.21875,0 -0.265625,0 -0.515625,-0.015625 -0.296875,-0.03125 -0.328125,-0.078125 -0.328125,-0.203125 0,-0.015625 0,-0.078125 0.046875,-0.21875 z m 0,0"
               id="id-85e215e4-0b60-495f-81ab-1165218a5231" />
          </symbol>
          <symbol
             overflow="visible"
             id="id-1c222f02-06e6-49e9-b38d-04b31175da4b">
            <path
               style="stroke:none;stroke-width:0"
               d="m 5.140625,-6.8125 c 0,0 0,-0.109375 -0.125,-0.109375 -0.15625,0 -1.09375,0.09375 -1.265625,0.109375 -0.078125,0.015625 -0.140625,0.0625 -0.140625,0.1875 0,0.125 0.09375,0.125 0.234375,0.125 0.484375,0 0.5,0.0625 0.5,0.171875 L 4.3125,-6.125 3.71875,-3.765625 C 3.53125,-4.140625 3.25,-4.40625 2.796875,-4.40625 c -1.15625,0 -2.390625,1.46875 -2.390625,2.921875 0,0.9375 0.546875,1.59375 1.3125,1.59375 0.203125,0 0.703125,-0.046875 1.296875,-0.75 0.078125,0.421875 0.4375,0.75 0.90625,0.75 0.359375,0 0.578125,-0.234375 0.75,-0.546875 0.15625,-0.359375 0.296875,-0.96875 0.296875,-0.984375 0,-0.109375 -0.09375,-0.109375 -0.125,-0.109375 -0.09375,0 -0.109375,0.046875 -0.140625,0.1875 -0.171875,0.640625 -0.34375,1.234375 -0.75,1.234375 -0.28125,0 -0.296875,-0.265625 -0.296875,-0.453125 0,-0.25 0.015625,-0.3125 0.046875,-0.484375 z m -2.0625,5.625 C 3.015625,-1 3.015625,-0.984375 2.875,-0.8125 2.4375,-0.265625 2.03125,-0.109375 1.75,-0.109375 c -0.5,0 -0.640625,-0.546875 -0.640625,-0.9375 0,-0.5 0.3125,-1.71875 0.546875,-2.1875 0.3125,-0.578125 0.75,-0.953125 1.15625,-0.953125 0.640625,0 0.78125,0.8125 0.78125,0.875 0,0.0625 -0.015625,0.125 -0.03125,0.171875 z m 0,0"
               id="id-dc4d9afe-a5eb-41af-8f9b-e2b32a1a1f4c" />
          </symbol>
          <symbol
             overflow="visible"
             id="id-0f59ac0f-53db-45b9-a16b-8538b837bc51">
            <path
               style="stroke:none;stroke-width:0"
               d="M 3.734375,-6.03125 C 3.8125,-6.390625 3.84375,-6.5 4.78125,-6.5 c 0.296875,0 0.375,0 0.375,-0.1875 0,-0.125 -0.109375,-0.125 -0.15625,-0.125 -0.328125,0 -1.140625,0.03125 -1.46875,0.03125 -0.296875,0 -1.03125,-0.03125 -1.328125,-0.03125 -0.0625,0 -0.1875,0 -0.1875,0.203125 0,0.109375 0.09375,0.109375 0.28125,0.109375 0.015625,0 0.203125,0 0.375,0.015625 0.171875,0.03125 0.265625,0.03125 0.265625,0.171875 0,0.03125 0,0.0625 -0.03125,0.1875 L 1.5625,-0.78125 c -0.09375,0.390625 -0.109375,0.46875 -0.90625,0.46875 -0.171875,0 -0.265625,0 -0.265625,0.203125 C 0.390625,0 0.484375,0 0.65625,0 h 4.625 C 5.515625,0 5.515625,0 5.578125,-0.171875 L 6.375,-2.328125 c 0.03125,-0.109375 0.03125,-0.125 0.03125,-0.140625 0,-0.03125 -0.03125,-0.109375 -0.109375,-0.109375 -0.09375,0 -0.109375,0.0625 -0.171875,0.21875 -0.34375,0.90625 -0.78125,2.046875 -2.5,2.046875 H 2.6875 c -0.140625,0 -0.171875,0 -0.21875,0 -0.109375,-0.015625 -0.140625,-0.03125 -0.140625,-0.109375 0,-0.03125 0,-0.046875 0.046875,-0.21875 z m 0,0"
               id="id-e2d969b3-718a-44de-ba16-86f602f1805a" />
          </symbol>
          <symbol
             overflow="visible"
             id="id-5979225b-80cf-4f32-a791-111faa5cc41e">
            <path
               style="stroke:none;stroke-width:0"
               d=""
               id="id-21dcb801-765c-4991-bf55-60fdd9e7c368" />
          </symbol>
          <symbol
             overflow="visible"
             id="id-b4930055-dacc-4a82-b64f-a544f3ffc709">
            <path
               style="stroke:none;stroke-width:0"
               d="m 6.84375,-3.265625 c 0.15625,0 0.34375,0 0.34375,-0.1875 C 7.1875,-3.65625 7,-3.65625 6.859375,-3.65625 h -5.96875 c -0.140625,0 -0.328125,0 -0.328125,0.203125 0,0.1875 0.1875,0.1875 0.328125,0.1875 z m 0.015625,1.9375 c 0.140625,0 0.328125,0 0.328125,-0.203125 0,-0.1875 -0.1875,-0.1875 -0.34375,-0.1875 H 0.890625 c -0.140625,0 -0.328125,0 -0.328125,0.1875 0,0.203125 0.1875,0.203125 0.328125,0.203125 z m 0,0"
               id="id-a15eb633-64cf-47c8-b764-6332675b8268" />
          </symbol>
          <symbol
             overflow="visible"
             id="id-2ceb7322-73f6-4646-82d7-f4c4aa884372">
            <path
               style="stroke:none;stroke-width:0"
               d=""
               id="id-5672e95d-0240-4d89-b18c-1665aa3afd0d" />
          </symbol>
          <symbol
             overflow="visible"
             id="id-039c4c97-f7aa-4644-a8b8-f9886d2dca47">
            <path
               style="stroke:none;stroke-width:0"
               d="m 1.03125,21.703125 c 0.328125,-0.01563 0.5,-0.234375 0.5,-0.484375 0,-0.328125 -0.25,-0.5 -0.484375,-0.5 -0.234375,0 -0.484375,0.15625 -0.484375,0.5 0,0.515625 0.5,0.9375 1.109375,0.9375 1.515625,0 2.078125,-2.34375 2.78125,-5.234375 C 5.21875,13.78125 5.875,10.59375 6.40625,7.390625 6.78125,5.28125 7.140625,3.28125 7.484375,2 7.609375,1.5 7.9375,0.21875 8.328125,0.21875 c 0.3125,0 0.5625,0.1875 0.609375,0.234375 -0.328125,0.015625 -0.5,0.234375 -0.5,0.484375 0,0.328125 0.25,0.484375 0.46875,0.484375 0.25,0 0.5,-0.140625 0.5,-0.5 C 9.40625,0.390625 8.859375,0 8.3125,0 7.5625,0 7,1.09375 6.453125,3.125 6.421875,3.234375 5.0625,8.234375 3.96875,14.75 3.703125,16.28125 3.421875,17.9375 3.09375,19.328125 2.90625,20.0625 2.453125,21.9375 1.640625,21.9375 c -0.359375,0 -0.59375,-0.234375 -0.609375,-0.234375 z m 0,0"
               id="id-ede58631-3fae-43af-883b-4dc4d9c0f407" />
          </symbol>
        </g>
      </defs>
      <g
         id="id-ce1d7a4e-c1fa-418a-a50a-92491ad7a74e"
         transform="translate(-277.613,-135.761)">
        <g
           style="fill:#000000;fill-opacity:1"
           id="id-cb3e7f53-7030-466d-bb6c-e8a1466fb400">
          <g
             transform="translate(277.066,149.321)"
             id="g32594">
            <path
               style="stroke:none;stroke-width:0"
               d="m 9.140625,-5.65625 c 0.25,-0.4375 0.484375,-0.796875 1.125,-0.84375 0.07813,-0.015625 0.1875,-0.015625 0.1875,-0.203125 0,-0.03125 -0.04687,-0.109375 -0.125,-0.109375 -0.234375,0 -0.515625,0.03125 -0.765625,0.03125 -0.34375,0 -0.703125,-0.03125 -1.046875,-0.03125 -0.046875,0 -0.1875,0 -0.1875,0.1875 0,0.109375 0.09375,0.125 0.15625,0.125 0.234375,0.015625 0.59375,0.09375 0.59375,0.390625 0,0.109375 -0.0625,0.1875 -0.140625,0.328125 L 6.25,-1.09375 5.875,-6.03125 c 0,-0.203125 -0.015625,-0.453125 0.703125,-0.46875 0.171875,0 0.265625,0 0.265625,-0.203125 0,-0.09375 -0.109375,-0.109375 -0.140625,-0.109375 -0.40625,0 -0.828125,0.03125 -1.21875,0.03125 -0.234375,0 -0.8125,-0.03125 -1.046875,-0.03125 -0.0625,0 -0.1875,0 -0.1875,0.203125 C 4.25,-6.5 4.34375,-6.5 4.484375,-6.5 4.921875,-6.5 5,-6.4375 5.015625,-6.25 l 0.0625,0.765625 -2.53125,4.390625 -0.375,-5.046875 c 0,-0.125 0,-0.34375 0.765625,-0.359375 0.09375,0 0.203125,0 0.203125,-0.203125 C 3.140625,-6.8125 3.015625,-6.8125 3,-6.8125 c -0.390625,0 -0.8125,0.03125 -1.21875,0.03125 -0.359375,0 -0.71875,-0.03125 -1.046875,-0.03125 -0.0625,0 -0.1875,0 -0.1875,0.1875 0,0.125 0.09375,0.125 0.25,0.125 0.5,0 0.515625,0.09375 0.53125,0.375 l 0.453125,6.078125 c 0,0.1875 0.015625,0.265625 0.15625,0.265625 0.109375,0 0.140625,-0.0625 0.234375,-0.203125 l 2.9375,-5.09375 0.359375,5.03125 C 5.5,0.171875 5.515625,0.21875 5.625,0.21875 c 0.140625,0 0.203125,-0.09375 0.25,-0.1875 z m 0,0"
               id="id-830abea6-aeb7-49ca-94c0-079f07a747c6" />
          </g>
        </g>
        <g
           style="fill:#000000;fill-opacity:1"
           id="id-b68d6a56-334a-4a7f-8abd-05a0e5686e6d">
          <g
             transform="translate(290.626,149.321)"
             id="g32598">
            <path
               style="stroke:none;stroke-width:0"
               d="m 6.84375,-3.265625 c 0.15625,0 0.34375,0 0.34375,-0.1875 C 7.1875,-3.65625 7,-3.65625 6.859375,-3.65625 h -5.96875 c -0.140625,0 -0.328125,0 -0.328125,0.203125 0,0.1875 0.1875,0.1875 0.328125,0.1875 z m 0.015625,1.9375 c 0.140625,0 0.328125,0 0.328125,-0.203125 0,-0.1875 -0.1875,-0.1875 -0.34375,-0.1875 H 0.890625 c -0.140625,0 -0.328125,0 -0.328125,0.1875 0,0.203125 0.1875,0.203125 0.328125,0.203125 z m 0,0"
               id="id-728c93e7-2819-474e-a3af-e6b9a1dd5767" />
          </g>
        </g>
        <g
           style="fill:#000000;fill-opacity:1"
           id="id-7bdaa6ec-aad6-434e-90ef-b0acbce29ad8">
          <g
             transform="translate(301.142,135.761)"
             id="g32602">
            <path
               style="stroke:none;stroke-width:0"
               d="m 1.03125,21.703125 c 0.328125,-0.01563 0.5,-0.234375 0.5,-0.484375 0,-0.328125 -0.25,-0.5 -0.484375,-0.5 -0.234375,0 -0.484375,0.15625 -0.484375,0.5 0,0.515625 0.5,0.9375 1.109375,0.9375 1.515625,0 2.078125,-2.34375 2.78125,-5.234375 C 5.21875,13.78125 5.875,10.59375 6.40625,7.390625 6.78125,5.28125 7.140625,3.28125 7.484375,2 7.609375,1.5 7.9375,0.21875 8.328125,0.21875 c 0.3125,0 0.5625,0.1875 0.609375,0.234375 -0.328125,0.015625 -0.5,0.234375 -0.5,0.484375 0,0.328125 0.25,0.484375 0.46875,0.484375 0.25,0 0.5,-0.140625 0.5,-0.5 C 9.40625,0.390625 8.859375,0 8.3125,0 7.5625,0 7,1.09375 6.453125,3.125 6.421875,3.234375 5.0625,8.234375 3.96875,14.75 3.703125,16.28125 3.421875,17.9375 3.09375,19.328125 2.90625,20.0625 2.453125,21.9375 1.640625,21.9375 c -0.359375,0 -0.59375,-0.234375 -0.609375,-0.234375 z m 0,0"
               id="id-eff41643-2611-42bb-9362-079f33688516" />
          </g>
        </g>
        <g
           style="fill:#000000;fill-opacity:1"
           id="id-5d5a6727-c485-4a86-8b8c-66da8599b49d">
          <g
             transform="translate(312.765,149.321)"
             id="g32606">
            <path
               style="stroke:none;stroke-width:0"
               d="m 3.015625,-3.234375 h 0.96875 c 0.75,0 0.828125,0.15625 0.828125,0.4375 0,0.078125 0,0.1875 -0.0625,0.5 C 4.71875,-2.25 4.71875,-2.21875 4.71875,-2.1875 c 0,0.078125 0.0625,0.109375 0.109375,0.109375 0.109375,0 0.109375,-0.03125 0.15625,-0.203125 L 5.53125,-4.453125 C 5.5625,-4.5625 5.5625,-4.578125 5.5625,-4.609375 5.5625,-4.625 5.546875,-4.71875 5.4375,-4.71875 5.34375,-4.71875 5.328125,-4.671875 5.296875,-4.5 5.078125,-3.734375 4.859375,-3.546875 4,-3.546875 H 3.09375 l 0.640625,-2.53125 C 3.828125,-6.4375 3.84375,-6.46875 4.28125,-6.46875 h 1.3125 c 1.21875,0 1.453125,0.328125 1.453125,1.09375 0,0.234375 0,0.265625 -0.03125,0.546875 C 7,-4.703125 7,-4.6875 7,-4.65625 c 0,0.046875 0.03125,0.125 0.125,0.125 0.109375,0 0.109375,-0.0625 0.125,-0.25 L 7.453125,-6.515625 C 7.484375,-6.78125 7.4375,-6.78125 7.1875,-6.78125 H 2.296875 c -0.1875,0 -0.296875,0 -0.296875,0.203125 0,0.109375 0.09375,0.109375 0.28125,0.109375 0.375,0 0.65625,0 0.65625,0.171875 0,0.046875 0,0.0625 -0.0625,0.25 L 1.5625,-0.78125 c -0.09375,0.390625 -0.109375,0.46875 -0.90625,0.46875 -0.171875,0 -0.28125,0 -0.28125,0.1875 C 0.375,0 0.5,0 0.53125,0 0.8125,0 1.5625,-0.03125 1.84375,-0.03125 2.171875,-0.03125 3,0 3.328125,0 3.421875,0 3.53125,0 3.53125,-0.1875 3.53125,-0.265625 3.484375,-0.296875 3.484375,-0.296875 3.453125,-0.3125 3.421875,-0.3125 3.203125,-0.3125 c -0.21875,0 -0.265625,0 -0.515625,-0.015625 -0.296875,-0.03125 -0.328125,-0.078125 -0.328125,-0.203125 0,-0.015625 0,-0.078125 0.046875,-0.21875 z m 0,0"
               id="id-60b90c7f-ff7f-4121-adfb-ba18fdb8e736" />
          </g>
        </g>
        <g
           style="fill:#000000;fill-opacity:1"
           id="id-2ecea228-dc49-4691-bfc2-adcbf67fd4df">
          <g
             transform="translate(322.22,149.321)"
             id="g32610">
            <path
               style="stroke:none;stroke-width:0"
               d="m 5.140625,-6.8125 c 0,0 0,-0.109375 -0.125,-0.109375 -0.15625,0 -1.09375,0.09375 -1.265625,0.109375 -0.078125,0.015625 -0.140625,0.0625 -0.140625,0.1875 0,0.125 0.09375,0.125 0.234375,0.125 0.484375,0 0.5,0.0625 0.5,0.171875 L 4.3125,-6.125 3.71875,-3.765625 C 3.53125,-4.140625 3.25,-4.40625 2.796875,-4.40625 c -1.15625,0 -2.390625,1.46875 -2.390625,2.921875 0,0.9375 0.546875,1.59375 1.3125,1.59375 0.203125,0 0.703125,-0.046875 1.296875,-0.75 0.078125,0.421875 0.4375,0.75 0.90625,0.75 0.359375,0 0.578125,-0.234375 0.75,-0.546875 0.15625,-0.359375 0.296875,-0.96875 0.296875,-0.984375 0,-0.109375 -0.09375,-0.109375 -0.125,-0.109375 -0.09375,0 -0.109375,0.046875 -0.140625,0.1875 -0.171875,0.640625 -0.34375,1.234375 -0.75,1.234375 -0.28125,0 -0.296875,-0.265625 -0.296875,-0.453125 0,-0.25 0.015625,-0.3125 0.046875,-0.484375 z m -2.0625,5.625 C 3.015625,-1 3.015625,-0.984375 2.875,-0.8125 2.4375,-0.265625 2.03125,-0.109375 1.75,-0.109375 c -0.5,0 -0.640625,-0.546875 -0.640625,-0.9375 0,-0.5 0.3125,-1.71875 0.546875,-2.1875 0.3125,-0.578125 0.75,-0.953125 1.15625,-0.953125 0.640625,0 0.78125,0.8125 0.78125,0.875 0,0.0625 -0.015625,0.125 -0.03125,0.171875 z m 0,0"
               id="id-11305e1b-8e7b-4ec0-be93-b737988c2ff3" />
          </g>
          <g
             transform="translate(327.406,149.321)"
             id="g32613">
            <path
               style="stroke:none;stroke-width:0"
               d="M 3.734375,-6.03125 C 3.8125,-6.390625 3.84375,-6.5 4.78125,-6.5 c 0.296875,0 0.375,0 0.375,-0.1875 0,-0.125 -0.109375,-0.125 -0.15625,-0.125 -0.328125,0 -1.140625,0.03125 -1.46875,0.03125 -0.296875,0 -1.03125,-0.03125 -1.328125,-0.03125 -0.0625,0 -0.1875,0 -0.1875,0.203125 0,0.109375 0.09375,0.109375 0.28125,0.109375 0.015625,0 0.203125,0 0.375,0.015625 0.171875,0.03125 0.265625,0.03125 0.265625,0.171875 0,0.03125 0,0.0625 -0.03125,0.1875 L 1.5625,-0.78125 c -0.09375,0.390625 -0.109375,0.46875 -0.90625,0.46875 -0.171875,0 -0.265625,0 -0.265625,0.203125 C 0.390625,0 0.484375,0 0.65625,0 h 4.625 C 5.515625,0 5.515625,0 5.578125,-0.171875 L 6.375,-2.328125 c 0.03125,-0.109375 0.03125,-0.125 0.03125,-0.140625 0,-0.03125 -0.03125,-0.109375 -0.109375,-0.109375 -0.09375,0 -0.109375,0.0625 -0.171875,0.21875 -0.34375,0.90625 -0.78125,2.046875 -2.5,2.046875 H 2.6875 c -0.140625,0 -0.171875,0 -0.21875,0 -0.109375,-0.015625 -0.140625,-0.03125 -0.140625,-0.109375 0,-0.03125 0,-0.046875 0.046875,-0.21875 z m 0,0"
               id="id-ea1c7831-c528-49d4-a826-c0ba0795d616" />
          </g>
        </g>
      </g>
    </g>
  </g>
</svg>
