<?xml version="1.0" encoding="UTF-8" standalone="no"?>
<!-- Created with Inkscape (http://www.inkscape.org/) -->

<svg
   width="297mm"
   height="110mm"
   viewBox="0 0 297 110"
   version="1.1"
   id="svg5"
   inkscape:version="1.1 (c4e8f9e, 2021-05-24)"
   sodipodi:docname="work1.svg"
   xmlns:inkscape="http://www.inkscape.org/namespaces/inkscape"
   xmlns:sodipodi="http://sodipodi.sourceforge.net/DTD/sodipodi-0.dtd"
   xmlns="http://www.w3.org/2000/svg"
   xmlns:svg="http://www.w3.org/2000/svg"
   xmlns:ns7="http://www.iki.fi/pav/software/textext/">
  <sodipodi:namedview
     id="namedview7"
     pagecolor="#ffffff"
     bordercolor="#666666"
     borderopacity="1.0"
     inkscape:pageshadow="2"
     inkscape:pageopacity="0.0"
     inkscape:pagecheckerboard="0"
     inkscape:document-units="mm"
     showgrid="false"
     inkscape:zoom="1.6282522"
     inkscape:cx="645.17032"
     inkscape:cy="150.16101"
     inkscape:window-width="1312"
     inkscape:window-height="763"
     inkscape:window-x="0"
     inkscape:window-y="25"
     inkscape:window-maximized="0"
     inkscape:current-layer="layer1"
     height="110mm" />
  <defs
     id="defs2">
    <inkscape:perspective
       sodipodi:type="inkscape:persp3d"
       inkscape:vp_x="0 : 5.0000026 : 1"
       inkscape:vp_y="0 : 1000.0001 : 0"
       inkscape:vp_z="297 : 5.0000026 : 1"
       inkscape:persp3d-origin="148.5 : -29.999999 : 1"
       id="perspective1043" />
  </defs>
  <g
     inkscape:label="Layer 1"
     inkscape:groupmode="layer"
     id="layer1">
    <circle
       style="fill:#000080;fill-rule:evenodd;stroke-width:0.264583"
       id="circle727"
       cx="33.651455"
       cy="20.276325"
       r="0.8658458" />
    <ellipse
       style="fill:#ffffff;fill-opacity:0;fill-rule:evenodd;stroke:#000000;stroke-width:0.264583;stroke-opacity:1"
       id="path1128"
       cx="31.67189"
       cy="42.994614"
       rx="5.7379107"
       ry="25.038157" />
    <ellipse
       style="fill:#ff0000;fill-opacity:1;fill-rule:evenodd;stroke:#000000;stroke-width:0.264583;stroke-opacity:1"
       id="ellipse1311-5"
       cx="148.82503"
       cy="42.994614"
       rx="5.7379107"
       ry="25.038157" />
    <ellipse
       style="fill:#ffffff;fill-rule:evenodd;stroke:#000000;stroke-width:0.264583;stroke-opacity:1"
       id="ellipse1344"
       cx="265.97836"
       cy="42.994614"
       rx="5.7379107"
       ry="25.038157" />
    <path
       style="fill:none;stroke:#000000;stroke-width:0.264583px;stroke-linecap:butt;stroke-linejoin:miter;stroke-opacity:1"
       d="M 148.85952,17.959742 31.647342,17.948684"
       id="path1654"
       sodipodi:nodetypes="cc" />
    <path
       style="fill:none;stroke:#000000;stroke-width:0.264583px;stroke-linecap:butt;stroke-linejoin:miter;stroke-opacity:1"
       d="M 148.88745,68.035724 31.675277,68.024666"
       id="path1654-9"
       sodipodi:nodetypes="cc" />
    <path
       style="fill:none;stroke:#000000;stroke-width:0.264583px;stroke-linecap:butt;stroke-linejoin:miter;stroke-opacity:1"
       d="M 266.0996,68.046782 148.88745,68.035724"
       id="path1654-9-1"
       sodipodi:nodetypes="cc" />
    <path
       style="fill:none;stroke:#000000;stroke-width:0.264583px;stroke-linecap:butt;stroke-linejoin:miter;stroke-opacity:1"
       d="M 266.07167,17.9708 148.85952,17.959742"
       id="path1654-9-1-5"
       sodipodi:nodetypes="cc" />
    <circle
       style="fill:#000080;fill-rule:evenodd;stroke-width:0.264583"
       id="path417"
       cx="62.340897"
       cy="35.354431"
       r="0.8658458" />
    <circle
       style="fill:#000080;fill-rule:evenodd;stroke-width:0.264583"
       id="circle575"
       cx="72.444618"
       cy="37.074215"
       r="0.8658458" />
    <circle
       style="fill:#000080;fill-rule:evenodd;stroke-width:0.264583"
       id="circle577"
       cx="64.705597"
       cy="47.034626"
       r="0.8658458" />
    <circle
       style="fill:#000080;fill-rule:evenodd;stroke-width:0.264583"
       id="circle579"
       cx="83.479897"
       cy="47.751202"
       r="0.8658458" />
    <circle
       style="fill:#000080;fill-rule:evenodd;stroke-width:0.264583"
       id="circle581"
       cx="83.766525"
       cy="33.562992"
       r="0.8658458" />
    <circle
       style="fill:#000080;fill-rule:evenodd;stroke-width:0.264583"
       id="circle583"
       cx="76.74408"
       cy="44.025005"
       r="0.8658458" />
    <circle
       style="fill:#000080;fill-rule:evenodd;stroke-width:0.264583"
       id="circle585"
       cx="52.30883"
       cy="40.87207"
       r="0.8658458" />
    <circle
       style="fill:#000080;fill-rule:evenodd;stroke-width:0.264583"
       id="circle587"
       cx="53.383694"
       cy="29.263535"
       r="0.8658458" />
    <circle
       style="fill:#000080;fill-rule:evenodd;stroke-width:0.264583"
       id="circle589"
       cx="68.288483"
       cy="28.690273"
       r="0.8658458" />
    <circle
       style="fill:#000080;fill-rule:evenodd;stroke-width:0.264583"
       id="circle591"
       cx="78.392204"
       cy="28.905247"
       r="0.8658458" />
    <circle
       style="fill:#000080;fill-rule:evenodd;stroke-width:0.264583"
       id="circle593"
       cx="85.271339"
       cy="40.155495"
       r="0.8658458" />
    <circle
       style="fill:#000080;fill-rule:evenodd;stroke-width:0.264583"
       id="circle595"
       cx="91.075607"
       cy="32.631443"
       r="0.8658458" />
    <circle
       style="fill:#000080;fill-rule:evenodd;stroke-width:0.264583"
       id="circle597"
       cx="88.352615"
       cy="24.749104"
       r="0.8658458" />
    <circle
       style="fill:#000080;fill-rule:evenodd;stroke-width:0.264583"
       id="circle599"
       cx="62.985817"
       cy="39.295601"
       r="0.8658458" />
    <circle
       style="fill:#000080;fill-rule:evenodd;stroke-width:0.264583"
       id="circle601"
       cx="50.660706"
       cy="53.412155"
       r="0.8658458" />
    <circle
       style="fill:#000080;fill-rule:evenodd;stroke-width:0.264583"
       id="circle603"
       cx="59.976196"
       cy="54.200386"
       r="0.8658458" />
    <circle
       style="fill:#000080;fill-rule:evenodd;stroke-width:0.264583"
       id="circle605"
       cx="44.641464"
       cy="47.966171"
       r="0.8658458" />
    <circle
       style="fill:#000080;fill-rule:evenodd;stroke-width:0.264583"
       id="circle607"
       cx="42.420078"
       cy="35.999348"
       r="0.8658458" />
    <circle
       style="fill:#000080;fill-rule:evenodd;stroke-width:0.264583"
       id="circle609"
       cx="46.289589"
       cy="26.755516"
       r="0.8658458" />
    <circle
       style="fill:#000080;fill-rule:evenodd;stroke-width:0.264583"
       id="circle611"
       cx="41.273556"
       cy="24.892418"
       r="0.8658458" />
    <circle
       style="fill:#000080;fill-rule:evenodd;stroke-width:0.264583"
       id="circle613"
       cx="59.832882"
       cy="25.895626"
       r="0.8658458" />
    <circle
       style="fill:#000080;fill-rule:evenodd;stroke-width:0.264583"
       id="circle615"
       cx="73.662804"
       cy="19.661411"
       r="0.8658458" />
    <circle
       style="fill:#000080;fill-rule:evenodd;stroke-width:0.264583"
       id="circle617"
       cx="51.735569"
       cy="20.019699"
       r="0.8658458" />
    <circle
       style="fill:#000080;fill-rule:evenodd;stroke-width:0.264583"
       id="circle619"
       cx="51.735569"
       cy="20.019699"
       r="0.8658458" />
    <circle
       style="fill:#000080;fill-rule:evenodd;stroke-width:0.264583"
       id="circle621"
       cx="82.405037"
       cy="21.739483"
       r="0.8658458" />
    <circle
       style="fill:#000080;fill-rule:evenodd;stroke-width:0.264583"
       id="circle623"
       cx="94.58683"
       cy="20.234673"
       r="0.8658458" />
    <circle
       style="fill:#000080;fill-rule:evenodd;stroke-width:0.264583"
       id="circle625"
       cx="100.67773"
       cy="25.752308"
       r="0.8658458" />
    <circle
       style="fill:#000080;fill-rule:evenodd;stroke-width:0.264583"
       id="circle627"
       cx="109.63493"
       cy="20.019699"
       r="0.8658458" />
    <circle
       style="fill:#000080;fill-rule:evenodd;stroke-width:0.264583"
       id="circle629"
       cx="108.63173"
       cy="33.992935"
       r="0.8658458" />
    <circle
       style="fill:#000080;fill-rule:evenodd;stroke-width:0.264583"
       id="circle631"
       cx="101.68094"
       cy="27.328777"
       r="0.8658458" />
    <circle
       style="fill:#000080;fill-rule:evenodd;stroke-width:0.264583"
       id="circle633"
       cx="97.954742"
       cy="35.354431"
       r="0.8658458" />
    <circle
       style="fill:#000080;fill-rule:evenodd;stroke-width:0.264583"
       id="circle635"
       cx="44.283184"
       cy="35.211117"
       r="0.8658458" />
    <circle
       style="fill:#000080;fill-rule:evenodd;stroke-width:0.264583"
       id="circle637"
       cx="43.102047"
       cy="42.822884"
       r="0.8658458" />
    <circle
       style="fill:#000080;fill-rule:evenodd;stroke-width:0.264583"
       id="circle639"
       cx="38.508739"
       cy="52.271973"
       r="0.8658458" />
    <circle
       style="fill:#000080;fill-rule:evenodd;stroke-width:0.264583"
       id="circle641"
       cx="52.682377"
       cy="52.403214"
       r="0.8658458" />
    <circle
       style="fill:#000080;fill-rule:evenodd;stroke-width:0.264583"
       id="circle643"
       cx="36.408943"
       cy="65.789429"
       r="0.8658458" />
    <circle
       style="fill:#000080;fill-rule:evenodd;stroke-width:0.264583"
       id="circle645"
       cx="66.85601"
       cy="63.16468"
       r="0.8658458" />
    <circle
       style="fill:#000080;fill-rule:evenodd;stroke-width:0.264583"
       id="circle647"
       cx="53.601036"
       cy="63.427155"
       r="0.8658458" />
    <circle
       style="fill:#000080;fill-rule:evenodd;stroke-width:0.264583"
       id="circle649"
       cx="46.38298"
       cy="61.983543"
       r="0.8658458" />
    <circle
       style="fill:#000080;fill-rule:evenodd;stroke-width:0.264583"
       id="circle651"
       cx="43.495758"
       cy="60.277458"
       r="0.8658458" />
    <circle
       style="fill:#000080;fill-rule:evenodd;stroke-width:0.264583"
       id="circle653"
       cx="55.307121"
       cy="57.783951"
       r="0.8658458" />
    <circle
       style="fill:#000080;fill-rule:evenodd;stroke-width:0.264583"
       id="circle655"
       cx="75.648911"
       cy="65.002007"
       r="0.8658458" />
    <circle
       style="fill:#000080;fill-rule:evenodd;stroke-width:0.264583"
       id="circle657"
       cx="84.310577"
       cy="56.734055"
       r="0.8658458" />
    <circle
       style="fill:#000080;fill-rule:evenodd;stroke-width:0.264583"
       id="circle659"
       cx="92.184822"
       cy="46.760014"
       r="0.8658458" />
    <circle
       style="fill:#000080;fill-rule:evenodd;stroke-width:0.264583"
       id="circle661"
       cx="107.01465"
       cy="43.610317"
       r="0.8658458" />
    <circle
       style="fill:#000080;fill-rule:evenodd;stroke-width:0.264583"
       id="circle663"
       cx="127.2252"
       cy="50.828373"
       r="0.8658458" />
    <circle
       style="fill:#000080;fill-rule:evenodd;stroke-width:0.264583"
       id="circle665"
       cx="127.35644"
       cy="35.342361"
       r="0.8658458" />
    <circle
       style="fill:#000080;fill-rule:evenodd;stroke-width:0.264583"
       id="circle667"
       cx="119.74467"
       cy="43.347839"
       r="0.8658458" />
    <circle
       style="fill:#000080;fill-rule:evenodd;stroke-width:0.264583"
       id="circle669"
       cx="132.34346"
       cy="42.166702"
       r="0.8658458" />
    <circle
       style="fill:#000080;fill-rule:evenodd;stroke-width:0.264583"
       id="circle671"
       cx="141.53008"
       cy="34.292461"
       r="0.8658458" />
    <circle
       style="fill:#000080;fill-rule:evenodd;stroke-width:0.264583"
       id="circle673"
       cx="141.53008"
       cy="55.815392"
       r="0.8658458" />
    <circle
       style="fill:#000080;fill-rule:evenodd;stroke-width:0.264583"
       id="circle675"
       cx="144.54854"
       cy="66.576859"
       r="0.8658458" />
    <circle
       style="fill:#000080;fill-rule:evenodd;stroke-width:0.264583"
       id="circle677"
       cx="141.79256"
       cy="66.05191"
       r="0.8658458" />
    <circle
       style="fill:#000080;fill-rule:evenodd;stroke-width:0.264583"
       id="circle679"
       cx="132.60594"
       cy="65.133247"
       r="0.8658458" />
    <circle
       style="fill:#000080;fill-rule:evenodd;stroke-width:0.264583"
       id="circle681"
       cx="121.71324"
       cy="58.702614"
       r="0.8658458" />
    <circle
       style="fill:#000080;fill-rule:evenodd;stroke-width:0.264583"
       id="circle683"
       cx="103.34001"
       cy="63.295921"
       r="0.8658458" />
    <circle
       style="fill:#000080;fill-rule:evenodd;stroke-width:0.264583"
       id="circle685"
       cx="110.95178"
       cy="53.846832"
       r="0.8658458" />
    <circle
       style="fill:#000080;fill-rule:evenodd;stroke-width:0.264583"
       id="circle687"
       cx="102.42136"
       cy="54.765495"
       r="0.8658458" />
    <circle
       style="fill:#000080;fill-rule:evenodd;stroke-width:0.264583"
       id="circle689"
       cx="95.072067"
       cy="62.902214"
       r="0.8658458" />
    <circle
       style="fill:#000080;fill-rule:evenodd;stroke-width:0.264583"
       id="circle691"
       cx="114.23273"
       cy="64.73954"
       r="0.8658458" />
    <circle
       style="fill:#000080;fill-rule:evenodd;stroke-width:0.264583"
       id="circle693"
       cx="73.286667"
       cy="54.371788"
       r="0.8658458" />
    <circle
       style="fill:#000080;fill-rule:evenodd;stroke-width:0.264583"
       id="circle695"
       cx="118.30106"
       cy="28.518017"
       r="0.8658458" />
    <circle
       style="fill:#000080;fill-rule:evenodd;stroke-width:0.264583"
       id="circle697"
       cx="120.66334"
       cy="35.998547"
       r="0.8658458" />
    <circle
       style="fill:#000080;fill-rule:evenodd;stroke-width:0.264583"
       id="circle699"
       cx="127.48768"
       cy="29.042965"
       r="0.8658458" />
    <circle
       style="fill:#000080;fill-rule:evenodd;stroke-width:0.264583"
       id="circle701"
       cx="131.81851"
       cy="20.906246"
       r="0.8658458" />
    <circle
       style="fill:#000080;fill-rule:evenodd;stroke-width:0.264583"
       id="circle703"
       cx="123.81303"
       cy="20.512535"
       r="0.8658458" />
    <circle
       style="fill:#000080;fill-rule:evenodd;stroke-width:0.264583"
       id="circle705"
       cx="135.75563"
       cy="28.911728"
       r="0.8658458" />
    <circle
       style="fill:#000080;fill-rule:evenodd;stroke-width:0.264583"
       id="circle707"
       cx="143.49864"
       cy="21.824909"
       r="0.8658458" />
    <circle
       style="fill:#000080;fill-rule:evenodd;stroke-width:0.264583"
       id="circle709"
       cx="140.48018"
       cy="44.397736"
       r="0.8658458" />
    <circle
       style="fill:#000080;fill-rule:evenodd;stroke-width:0.264583"
       id="circle711"
       cx="134.44325"
       cy="56.209099"
       r="0.8658458" />
    <circle
       style="fill:#000080;fill-rule:evenodd;stroke-width:0.264583"
       id="circle713"
       cx="130.50613"
       cy="58.702606"
       r="0.8658458" />
    <circle
       style="fill:#000080;fill-rule:evenodd;stroke-width:0.264583"
       id="circle715"
       cx="101.89639"
       cy="48.991039"
       r="0.8658458" />
    <circle
       style="fill:#000080;fill-rule:evenodd;stroke-width:0.264583"
       id="circle717"
       cx="94.547104"
       cy="56.86528"
       r="0.8658458" />
    <circle
       style="fill:#000080;fill-rule:evenodd;stroke-width:0.264583"
       id="circle719"
       cx="90.741219"
       cy="66.708084"
       r="0.8658458" />
    <circle
       style="fill:#000080;fill-rule:evenodd;stroke-width:0.264583"
       id="circle721"
       cx="31.815634"
       cy="37.048439"
       r="0.8658458" />
    <circle
       style="fill:#000080;fill-rule:evenodd;stroke-width:0.264583"
       id="circle723"
       cx="34.177906"
       cy="27.730587"
       r="0.8658458" />
    <circle
       style="fill:#000080;fill-rule:evenodd;stroke-width:0.264583"
       id="circle725"
       cx="29.059649"
       cy="26.680687"
       r="0.8658458" />
    <circle
       style="fill:#000080;fill-rule:evenodd;stroke-width:0.264583"
       id="circle729"
       cx="33.915432"
       cy="45.710106"
       r="0.8658458" />
    <circle
       style="fill:#000080;fill-rule:evenodd;stroke-width:0.264583"
       id="circle1582"
       cx="28.610441"
       cy="58.316063"
       r="0.8658458" />
    <circle
       style="fill:#000080;fill-rule:evenodd;stroke-width:0.264583"
       id="circle1584"
       cx="35.880871"
       cy="60.681145"
       r="0.8658458" />
    <circle
       style="fill:#000080;fill-rule:evenodd;stroke-width:0.264583"
       id="circle1586"
       cx="137.37877"
       cy="49.180168"
       r="0.8658458" />
    <circle
       style="fill:#000080;fill-rule:evenodd;stroke-width:0.264583"
       id="circle1588"
       cx="121.19384"
       cy="49.539833"
       r="0.8658458" />
    <circle
       style="fill:#000080;fill-rule:evenodd;stroke-width:0.264583"
       id="circle1590"
       cx="114.00054"
       cy="27.420437"
       r="0.8658458" />
    <circle
       style="fill:#000080;fill-rule:evenodd;stroke-width:0.264583"
       id="circle1592"
       cx="121.37367"
       cy="56.193634"
       r="0.8658458" />
    <g
       id="g20773"
       transform="translate(0,1.0583333)">
      <path
         style="fill:none;stroke:#000000;stroke-width:0.264583px;stroke-linecap:butt;stroke-linejoin:miter;stroke-opacity:1"
         d="M 149.95216,38.385546 H 288.30582"
         id="path20129" />
      <path
         style="fill:none;stroke:#000000;stroke-width:0.264583px;stroke-linecap:butt;stroke-linejoin:miter;stroke-opacity:1"
         d="M 149.94252,45.057066 H 288.29618"
         id="path20129-7" />
      <ellipse
         style="fill:none;fill-rule:evenodd;stroke:#000000;stroke-width:0.236877;stroke-opacity:1"
         id="path20359"
         cx="149.95541"
         cy="41.722012"
         rx="1.5005803"
         ry="3.3316908" />
      <ellipse
         style="fill:none;fill-rule:evenodd;stroke:#000000;stroke-width:0.236877;stroke-opacity:1"
         id="path20359-9"
         cx="288.29916"
         cy="41.719738"
         rx="1.5005803"
         ry="3.3316908" />
    </g>
    <g
       transform="matrix(1.05987,0,0,1.05987,97.827815,77.170953)"
       ns7:version="1.5.0"
       ns7:texconverter="pdflatex"
       ns7:pdfconverter="inkscape"
       ns7:text="$$\nF = \\int P \\, dA = P \\cdot A\n$$\n\n"
       ns7:preamble="default_packages.tex"
       ns7:scale="3.0043524111480138"
       ns7:alignment="middle center"
       ns7:stroke-to-path="0"
       ns7:inkscapeversion="1.1"
       ns7:jacobian_sqrt="1.05987"
       id="g21807">
      <defs
         id="id-b846bc3f-55c6-4dee-93c2-2a6fe6761c35">
        <g
           id="id-6c982371-5f20-4d46-9446-084a074e90c7">
          <symbol
             overflow="visible"
             id="id-99843a87-b5a2-4337-86b5-906dacfdde54">
            <path
               style="stroke:none"
               d=""
               id="id-9dca9984-0789-4ff6-93ba-a57dbae4aaf1" />
          </symbol>
          <symbol
             overflow="visible"
             id="id-f4b8ada5-7b5a-43b6-9cf1-e17a6cfc01b1">
            <path
               style="stroke:none"
               d="m 3.015625,-3.234375 h 0.96875 c 0.75,0 0.828125,0.15625 0.828125,0.4375 0,0.078125 0,0.1875 -0.0625,0.5 C 4.71875,-2.25 4.71875,-2.21875 4.71875,-2.1875 c 0,0.078125 0.0625,0.109375 0.109375,0.109375 0.109375,0 0.109375,-0.03125 0.15625,-0.203125 L 5.53125,-4.453125 C 5.5625,-4.5625 5.5625,-4.578125 5.5625,-4.609375 5.5625,-4.625 5.546875,-4.71875 5.4375,-4.71875 5.34375,-4.71875 5.328125,-4.671875 5.296875,-4.5 5.078125,-3.734375 4.859375,-3.546875 4,-3.546875 H 3.09375 l 0.640625,-2.53125 C 3.828125,-6.4375 3.84375,-6.46875 4.28125,-6.46875 h 1.3125 c 1.21875,0 1.453125,0.328125 1.453125,1.09375 0,0.234375 0,0.265625 -0.03125,0.546875 C 7,-4.703125 7,-4.6875 7,-4.65625 c 0,0.046875 0.03125,0.125 0.125,0.125 0.109375,0 0.109375,-0.0625 0.125,-0.25 L 7.453125,-6.515625 C 7.484375,-6.78125 7.4375,-6.78125 7.1875,-6.78125 H 2.296875 c -0.1875,0 -0.296875,0 -0.296875,0.203125 0,0.109375 0.09375,0.109375 0.28125,0.109375 0.375,0 0.65625,0 0.65625,0.171875 0,0.046875 0,0.0625 -0.0625,0.25 L 1.5625,-0.78125 c -0.09375,0.390625 -0.109375,0.46875 -0.90625,0.46875 -0.171875,0 -0.28125,0 -0.28125,0.1875 C 0.375,0 0.5,0 0.53125,0 0.8125,0 1.5625,-0.03125 1.84375,-0.03125 2.171875,-0.03125 3,0 3.328125,0 3.421875,0 3.53125,0 3.53125,-0.1875 3.53125,-0.265625 3.484375,-0.296875 3.484375,-0.296875 3.453125,-0.3125 3.421875,-0.3125 3.203125,-0.3125 c -0.21875,0 -0.265625,0 -0.515625,-0.015625 -0.296875,-0.03125 -0.328125,-0.078125 -0.328125,-0.203125 0,-0.015625 0,-0.078125 0.046875,-0.21875 z m 0,0"
               id="id-35668894-69bb-4c2d-a04b-5e1320f02389" />
          </symbol>
          <symbol
             overflow="visible"
             id="id-c0a84d68-6f40-40f4-b072-640919d57dd1">
            <path
               style="stroke:none"
               d="M 3.015625,-3.15625 H 4.71875 c 1.40625,0 2.796875,-1.03125 2.796875,-2.140625 0,-0.78125 -0.65625,-1.515625 -1.96875,-1.515625 h -3.21875 c -0.1875,0 -0.296875,0 -0.296875,0.1875 0,0.125 0.078125,0.125 0.28125,0.125 0.125,0 0.3125,0.015625 0.421875,0.015625 0.171875,0.03125 0.21875,0.046875 0.21875,0.171875 0,0.03125 0,0.0625 -0.03125,0.1875 l -1.34375,5.34375 c -0.09375,0.390625 -0.109375,0.46875 -0.90625,0.46875 -0.15625,0 -0.265625,0 -0.265625,0.1875 C 0.40625,0 0.515625,0 0.546875,0 0.828125,0 1.53125,-0.03125 1.8125,-0.03125 c 0.21875,0 0.4375,0.015625 0.640625,0.015625 0.21875,0 0.4375,0.015625 0.640625,0.015625 0.078125,0 0.203125,0 0.203125,-0.203125 0,-0.109375 -0.09375,-0.109375 -0.28125,-0.109375 -0.359375,0 -0.640625,0 -0.640625,-0.171875 0,-0.0625 0.015625,-0.109375 0.03125,-0.171875 z M 3.734375,-6.125 C 3.828125,-6.46875 3.84375,-6.5 4.28125,-6.5 h 0.953125 c 0.828125,0 1.359375,0.265625 1.359375,0.953125 0,0.390625 -0.203125,1.25 -0.59375,1.609375 -0.5,0.453125 -1.09375,0.53125 -1.53125,0.53125 H 3.0625 Z m 0,0"
               id="id-600fba38-9b0c-4e7f-afb6-9600210d22d1" />
          </symbol>
          <symbol
             overflow="visible"
             id="id-7c15b5c0-2616-48dc-9011-04df42f484cd">
            <path
               style="stroke:none"
               d="m 5.140625,-6.8125 c 0,0 0,-0.109375 -0.125,-0.109375 -0.15625,0 -1.09375,0.09375 -1.265625,0.109375 -0.078125,0.015625 -0.140625,0.0625 -0.140625,0.1875 0,0.125 0.09375,0.125 0.234375,0.125 0.484375,0 0.5,0.0625 0.5,0.171875 L 4.3125,-6.125 3.71875,-3.765625 C 3.53125,-4.140625 3.25,-4.40625 2.796875,-4.40625 c -1.15625,0 -2.390625,1.46875 -2.390625,2.921875 0,0.9375 0.546875,1.59375 1.3125,1.59375 0.203125,0 0.703125,-0.046875 1.296875,-0.75 0.078125,0.421875 0.4375,0.75 0.90625,0.75 0.359375,0 0.578125,-0.234375 0.75,-0.546875 0.15625,-0.359375 0.296875,-0.96875 0.296875,-0.984375 0,-0.109375 -0.09375,-0.109375 -0.125,-0.109375 -0.09375,0 -0.109375,0.046875 -0.140625,0.1875 -0.171875,0.640625 -0.34375,1.234375 -0.75,1.234375 -0.28125,0 -0.296875,-0.265625 -0.296875,-0.453125 0,-0.25 0.015625,-0.3125 0.046875,-0.484375 z m -2.0625,5.625 C 3.015625,-1 3.015625,-0.984375 2.875,-0.8125 2.4375,-0.265625 2.03125,-0.109375 1.75,-0.109375 c -0.5,0 -0.640625,-0.546875 -0.640625,-0.9375 0,-0.5 0.3125,-1.71875 0.546875,-2.1875 0.3125,-0.578125 0.75,-0.953125 1.15625,-0.953125 0.640625,0 0.78125,0.8125 0.78125,0.875 0,0.0625 -0.015625,0.125 -0.03125,0.171875 z m 0,0"
               id="id-095ffab9-674d-447b-83b5-e53e5b0f3273" />
          </symbol>
          <symbol
             overflow="visible"
             id="id-c73b1596-2f16-466f-8578-bef381ba06d5">
            <path
               style="stroke:none"
               d="M 1.78125,-1.140625 C 1.390625,-0.484375 1,-0.34375 0.5625,-0.3125 0.4375,-0.296875 0.34375,-0.296875 0.34375,-0.109375 0.34375,-0.046875 0.40625,0 0.484375,0 0.75,0 1.0625,-0.03125 1.328125,-0.03125 c 0.34375,0 0.6875,0.03125 1,0.03125 0.0625,0 0.1875,0 0.1875,-0.1875 0,-0.109375 -0.078125,-0.125 -0.15625,-0.125 -0.21875,-0.015625 -0.46875,-0.09375 -0.46875,-0.34375 0,-0.125 0.0625,-0.234375 0.140625,-0.375 l 0.765625,-1.265625 h 2.5 c 0.015625,0.203125 0.15625,1.5625 0.15625,1.65625 0,0.296875 -0.515625,0.328125 -0.71875,0.328125 C 4.59375,-0.3125 4.5,-0.3125 4.5,-0.109375 4.5,0 4.609375,0 4.640625,0 5.046875,0 5.46875,-0.03125 5.875,-0.03125 6.125,-0.03125 6.765625,0 7.015625,0 7.0625,0 7.1875,0 7.1875,-0.203125 7.1875,-0.3125 7.09375,-0.3125 6.953125,-0.3125 6.34375,-0.3125 6.34375,-0.375 6.3125,-0.671875 l -0.609375,-6.21875 c -0.015625,-0.203125 -0.015625,-0.25 -0.1875,-0.25 -0.15625,0 -0.203125,0.078125 -0.265625,0.171875 z M 2.984375,-2.609375 4.9375,-5.90625 5.265625,-2.609375 Z m 0,0"
               id="id-cce5e8fa-b91d-43e3-b009-07979592ce54" />
          </symbol>
          <symbol
             overflow="visible"
             id="id-02ed11a4-e196-4198-9202-5cd491eeb3bc">
            <path
               style="stroke:none"
               d=""
               id="id-3cc1446e-237c-4f1e-a60a-c714589b9692" />
          </symbol>
          <symbol
             overflow="visible"
             id="id-ed864450-f9e5-467b-b759-8c2820f3b7fd">
            <path
               style="stroke:none"
               d="m 6.84375,-3.265625 c 0.15625,0 0.34375,0 0.34375,-0.1875 C 7.1875,-3.65625 7,-3.65625 6.859375,-3.65625 h -5.96875 c -0.140625,0 -0.328125,0 -0.328125,0.203125 0,0.1875 0.1875,0.1875 0.328125,0.1875 z m 0.015625,1.9375 c 0.140625,0 0.328125,0 0.328125,-0.203125 0,-0.1875 -0.1875,-0.1875 -0.34375,-0.1875 H 0.890625 c -0.140625,0 -0.328125,0 -0.328125,0.1875 0,0.203125 0.1875,0.203125 0.328125,0.203125 z m 0,0"
               id="id-cc7d796d-d877-48c9-9259-45645d2971c1" />
          </symbol>
          <symbol
             overflow="visible"
             id="id-e30dbaee-11dd-4adc-a271-ab2950182335">
            <path
               style="stroke:none"
               d=""
               id="id-c68668c1-7b1a-47a3-a221-3286737dd00b" />
          </symbol>
          <symbol
             overflow="visible"
             id="id-cff6a258-2073-43ba-8801-97a2f07e15ec">
            <path
               style="stroke:none"
               d="m 1.03125,21.703125 c 0.328125,-0.01563 0.5,-0.234375 0.5,-0.484375 0,-0.328125 -0.25,-0.5 -0.484375,-0.5 -0.234375,0 -0.484375,0.15625 -0.484375,0.5 0,0.515625 0.5,0.9375 1.109375,0.9375 1.515625,0 2.078125,-2.34375 2.78125,-5.234375 C 5.21875,13.78125 5.875,10.59375 6.40625,7.390625 6.78125,5.28125 7.140625,3.28125 7.484375,2 7.609375,1.5 7.9375,0.21875 8.328125,0.21875 c 0.3125,0 0.5625,0.1875 0.609375,0.234375 -0.328125,0.015625 -0.5,0.234375 -0.5,0.484375 0,0.328125 0.25,0.484375 0.46875,0.484375 0.25,0 0.5,-0.140625 0.5,-0.5 C 9.40625,0.390625 8.859375,0 8.3125,0 7.5625,0 7,1.09375 6.453125,3.125 6.421875,3.234375 5.0625,8.234375 3.96875,14.75 3.703125,16.28125 3.421875,17.9375 3.09375,19.328125 2.90625,20.0625 2.453125,21.9375 1.640625,21.9375 c -0.359375,0 -0.59375,-0.234375 -0.609375,-0.234375 z m 0,0"
               id="id-66037661-63de-4cd6-8b4b-5db912229740" />
          </symbol>
          <symbol
             overflow="visible"
             id="id-5a723daa-129b-4551-8210-a93d61ce1b4b">
            <path
               style="stroke:none"
               d=""
               id="id-567dd31d-6f93-4fb2-bf1c-b96340a20c16" />
          </symbol>
          <symbol
             overflow="visible"
             id="id-95534f34-57b7-4bfe-99f7-7a784791ebdb">
            <path
               style="stroke:none"
               d="m 1.90625,-2.5 c 0,-0.28125 -0.234375,-0.515625 -0.515625,-0.515625 -0.296875,0 -0.53125,0.234375 -0.53125,0.515625 0,0.296875 0.234375,0.53125 0.53125,0.53125 0.28125,0 0.515625,-0.234375 0.515625,-0.53125 z m 0,0"
               id="id-24eb0b82-99cf-4cac-925e-991915f1e290" />
          </symbol>
        </g>
      </defs>
      <g
         id="id-7fd7318e-e76d-40bb-af93-0b78a284fbff"
         transform="translate(-260.737,-135.761)">
        <g
           style="fill:#000000;fill-opacity:1"
           id="id-062f7280-e81b-4759-a695-a89b564fb4ec">
          <g
             transform="translate(260.362,149.321)"
             id="g23459">
            <path
               style="stroke:none"
               d="m 3.015625,-3.234375 h 0.96875 c 0.75,0 0.828125,0.15625 0.828125,0.4375 0,0.078125 0,0.1875 -0.0625,0.5 C 4.71875,-2.25 4.71875,-2.21875 4.71875,-2.1875 c 0,0.078125 0.0625,0.109375 0.109375,0.109375 0.109375,0 0.109375,-0.03125 0.15625,-0.203125 L 5.53125,-4.453125 C 5.5625,-4.5625 5.5625,-4.578125 5.5625,-4.609375 5.5625,-4.625 5.546875,-4.71875 5.4375,-4.71875 5.34375,-4.71875 5.328125,-4.671875 5.296875,-4.5 5.078125,-3.734375 4.859375,-3.546875 4,-3.546875 H 3.09375 l 0.640625,-2.53125 C 3.828125,-6.4375 3.84375,-6.46875 4.28125,-6.46875 h 1.3125 c 1.21875,0 1.453125,0.328125 1.453125,1.09375 0,0.234375 0,0.265625 -0.03125,0.546875 C 7,-4.703125 7,-4.6875 7,-4.65625 c 0,0.046875 0.03125,0.125 0.125,0.125 0.109375,0 0.109375,-0.0625 0.125,-0.25 L 7.453125,-6.515625 C 7.484375,-6.78125 7.4375,-6.78125 7.1875,-6.78125 H 2.296875 c -0.1875,0 -0.296875,0 -0.296875,0.203125 0,0.109375 0.09375,0.109375 0.28125,0.109375 0.375,0 0.65625,0 0.65625,0.171875 0,0.046875 0,0.0625 -0.0625,0.25 L 1.5625,-0.78125 c -0.09375,0.390625 -0.109375,0.46875 -0.90625,0.46875 -0.171875,0 -0.28125,0 -0.28125,0.1875 C 0.375,0 0.5,0 0.53125,0 0.8125,0 1.5625,-0.03125 1.84375,-0.03125 2.171875,-0.03125 3,0 3.328125,0 3.421875,0 3.53125,0 3.53125,-0.1875 3.53125,-0.265625 3.484375,-0.296875 3.484375,-0.296875 3.453125,-0.3125 3.421875,-0.3125 3.203125,-0.3125 c -0.21875,0 -0.265625,0 -0.515625,-0.015625 -0.296875,-0.03125 -0.328125,-0.078125 -0.328125,-0.203125 0,-0.015625 0,-0.078125 0.046875,-0.21875 z m 0,0"
               id="id-510331d7-a783-4f8d-b8ea-f0bcfee34e9e" />
          </g>
        </g>
        <g
           style="fill:#000000;fill-opacity:1"
           id="id-5e8c93ed-e646-44f8-95ee-384f559282f0">
          <g
             transform="translate(270.919,149.321)"
             id="g23463">
            <path
               style="stroke:none"
               d="m 6.84375,-3.265625 c 0.15625,0 0.34375,0 0.34375,-0.1875 C 7.1875,-3.65625 7,-3.65625 6.859375,-3.65625 h -5.96875 c -0.140625,0 -0.328125,0 -0.328125,0.203125 0,0.1875 0.1875,0.1875 0.328125,0.1875 z m 0.015625,1.9375 c 0.140625,0 0.328125,0 0.328125,-0.203125 0,-0.1875 -0.1875,-0.1875 -0.34375,-0.1875 H 0.890625 c -0.140625,0 -0.328125,0 -0.328125,0.1875 0,0.203125 0.1875,0.203125 0.328125,0.203125 z m 0,0"
               id="id-9d94cc3d-7661-49e0-9ff9-c77c19a313f8" />
          </g>
        </g>
        <g
           style="fill:#000000;fill-opacity:1"
           id="id-1a8dc733-45fc-4be5-bb4a-61bccef5d613">
          <g
             transform="translate(281.435,135.761)"
             id="g23467">
            <path
               style="stroke:none"
               d="m 1.03125,21.703125 c 0.328125,-0.01563 0.5,-0.234375 0.5,-0.484375 0,-0.328125 -0.25,-0.5 -0.484375,-0.5 -0.234375,0 -0.484375,0.15625 -0.484375,0.5 0,0.515625 0.5,0.9375 1.109375,0.9375 1.515625,0 2.078125,-2.34375 2.78125,-5.234375 C 5.21875,13.78125 5.875,10.59375 6.40625,7.390625 6.78125,5.28125 7.140625,3.28125 7.484375,2 7.609375,1.5 7.9375,0.21875 8.328125,0.21875 c 0.3125,0 0.5625,0.1875 0.609375,0.234375 -0.328125,0.015625 -0.5,0.234375 -0.5,0.484375 0,0.328125 0.25,0.484375 0.46875,0.484375 0.25,0 0.5,-0.140625 0.5,-0.5 C 9.40625,0.390625 8.859375,0 8.3125,0 7.5625,0 7,1.09375 6.453125,3.125 6.421875,3.234375 5.0625,8.234375 3.96875,14.75 3.703125,16.28125 3.421875,17.9375 3.09375,19.328125 2.90625,20.0625 2.453125,21.9375 1.640625,21.9375 c -0.359375,0 -0.59375,-0.234375 -0.609375,-0.234375 z m 0,0"
               id="id-08f43ffa-9cbc-4fd7-871b-796d0fa3a19e" />
          </g>
        </g>
        <g
           style="fill:#000000;fill-opacity:1"
           id="id-4aeb7a5b-6bf7-4e5c-90e8-2735203d7f36">
          <g
             transform="translate(293.058,149.321)"
             id="g23471">
            <path
               style="stroke:none"
               d="M 3.015625,-3.15625 H 4.71875 c 1.40625,0 2.796875,-1.03125 2.796875,-2.140625 0,-0.78125 -0.65625,-1.515625 -1.96875,-1.515625 h -3.21875 c -0.1875,0 -0.296875,0 -0.296875,0.1875 0,0.125 0.078125,0.125 0.28125,0.125 0.125,0 0.3125,0.015625 0.421875,0.015625 0.171875,0.03125 0.21875,0.046875 0.21875,0.171875 0,0.03125 0,0.0625 -0.03125,0.1875 l -1.34375,5.34375 c -0.09375,0.390625 -0.109375,0.46875 -0.90625,0.46875 -0.15625,0 -0.265625,0 -0.265625,0.1875 C 0.40625,0 0.515625,0 0.546875,0 0.828125,0 1.53125,-0.03125 1.8125,-0.03125 c 0.21875,0 0.4375,0.015625 0.640625,0.015625 0.21875,0 0.4375,0.015625 0.640625,0.015625 0.078125,0 0.203125,0 0.203125,-0.203125 0,-0.109375 -0.09375,-0.109375 -0.28125,-0.109375 -0.359375,0 -0.640625,0 -0.640625,-0.171875 0,-0.0625 0.015625,-0.109375 0.03125,-0.171875 z M 3.734375,-6.125 C 3.828125,-6.46875 3.84375,-6.5 4.28125,-6.5 h 0.953125 c 0.828125,0 1.359375,0.265625 1.359375,0.953125 0,0.390625 -0.203125,1.25 -0.59375,1.609375 -0.5,0.453125 -1.09375,0.53125 -1.53125,0.53125 H 3.0625 Z m 0,0"
               id="id-c92b0c0a-e940-4944-9672-77fb58441fee" />
          </g>
        </g>
        <g
           style="fill:#000000;fill-opacity:1"
           id="id-ffe7801f-9f73-4045-bb0c-e5d2d5a5cb5a">
          <g
             transform="translate(302.503,149.321)"
             id="g23475">
            <path
               style="stroke:none"
               d="m 5.140625,-6.8125 c 0,0 0,-0.109375 -0.125,-0.109375 -0.15625,0 -1.09375,0.09375 -1.265625,0.109375 -0.078125,0.015625 -0.140625,0.0625 -0.140625,0.1875 0,0.125 0.09375,0.125 0.234375,0.125 0.484375,0 0.5,0.0625 0.5,0.171875 L 4.3125,-6.125 3.71875,-3.765625 C 3.53125,-4.140625 3.25,-4.40625 2.796875,-4.40625 c -1.15625,0 -2.390625,1.46875 -2.390625,2.921875 0,0.9375 0.546875,1.59375 1.3125,1.59375 0.203125,0 0.703125,-0.046875 1.296875,-0.75 0.078125,0.421875 0.4375,0.75 0.90625,0.75 0.359375,0 0.578125,-0.234375 0.75,-0.546875 0.15625,-0.359375 0.296875,-0.96875 0.296875,-0.984375 0,-0.109375 -0.09375,-0.109375 -0.125,-0.109375 -0.09375,0 -0.109375,0.046875 -0.140625,0.1875 -0.171875,0.640625 -0.34375,1.234375 -0.75,1.234375 -0.28125,0 -0.296875,-0.265625 -0.296875,-0.453125 0,-0.25 0.015625,-0.3125 0.046875,-0.484375 z m -2.0625,5.625 C 3.015625,-1 3.015625,-0.984375 2.875,-0.8125 2.4375,-0.265625 2.03125,-0.109375 1.75,-0.109375 c -0.5,0 -0.640625,-0.546875 -0.640625,-0.9375 0,-0.5 0.3125,-1.71875 0.546875,-2.1875 0.3125,-0.578125 0.75,-0.953125 1.15625,-0.953125 0.640625,0 0.78125,0.8125 0.78125,0.875 0,0.0625 -0.015625,0.125 -0.03125,0.171875 z m 0,0"
               id="id-2cb411db-5421-49f0-b4cb-0f1160685f15" />
          </g>
          <g
             transform="translate(307.688,149.321)"
             id="g23478">
            <path
               style="stroke:none"
               d="M 1.78125,-1.140625 C 1.390625,-0.484375 1,-0.34375 0.5625,-0.3125 0.4375,-0.296875 0.34375,-0.296875 0.34375,-0.109375 0.34375,-0.046875 0.40625,0 0.484375,0 0.75,0 1.0625,-0.03125 1.328125,-0.03125 c 0.34375,0 0.6875,0.03125 1,0.03125 0.0625,0 0.1875,0 0.1875,-0.1875 0,-0.109375 -0.078125,-0.125 -0.15625,-0.125 -0.21875,-0.015625 -0.46875,-0.09375 -0.46875,-0.34375 0,-0.125 0.0625,-0.234375 0.140625,-0.375 l 0.765625,-1.265625 h 2.5 c 0.015625,0.203125 0.15625,1.5625 0.15625,1.65625 0,0.296875 -0.515625,0.328125 -0.71875,0.328125 C 4.59375,-0.3125 4.5,-0.3125 4.5,-0.109375 4.5,0 4.609375,0 4.640625,0 5.046875,0 5.46875,-0.03125 5.875,-0.03125 6.125,-0.03125 6.765625,0 7.015625,0 7.0625,0 7.1875,0 7.1875,-0.203125 7.1875,-0.3125 7.09375,-0.3125 6.953125,-0.3125 6.34375,-0.3125 6.34375,-0.375 6.3125,-0.671875 l -0.609375,-6.21875 c -0.015625,-0.203125 -0.015625,-0.25 -0.1875,-0.25 -0.15625,0 -0.203125,0.078125 -0.265625,0.171875 z M 2.984375,-2.609375 4.9375,-5.90625 5.265625,-2.609375 Z m 0,0"
               id="id-601e2cc8-81be-49e0-b386-7d6d8ddc65f3" />
          </g>
        </g>
        <g
           style="fill:#000000;fill-opacity:1"
           id="id-d36c8e78-e96a-4cd9-b52a-2526d82269fe">
          <g
             transform="translate(317.923,149.321)"
             id="g23482">
            <path
               style="stroke:none"
               d="m 6.84375,-3.265625 c 0.15625,0 0.34375,0 0.34375,-0.1875 C 7.1875,-3.65625 7,-3.65625 6.859375,-3.65625 h -5.96875 c -0.140625,0 -0.328125,0 -0.328125,0.203125 0,0.1875 0.1875,0.1875 0.328125,0.1875 z m 0.015625,1.9375 c 0.140625,0 0.328125,0 0.328125,-0.203125 0,-0.1875 -0.1875,-0.1875 -0.34375,-0.1875 H 0.890625 c -0.140625,0 -0.328125,0 -0.328125,0.1875 0,0.203125 0.1875,0.203125 0.328125,0.203125 z m 0,0"
               id="id-666b908b-40ee-4e10-911c-e97d3d60d29d" />
          </g>
        </g>
        <g
           style="fill:#000000;fill-opacity:1"
           id="id-294bb2a5-80be-4e91-8775-72e178df6f44">
          <g
             transform="translate(328.439,149.321)"
             id="g23486">
            <path
               style="stroke:none"
               d="M 3.015625,-3.15625 H 4.71875 c 1.40625,0 2.796875,-1.03125 2.796875,-2.140625 0,-0.78125 -0.65625,-1.515625 -1.96875,-1.515625 h -3.21875 c -0.1875,0 -0.296875,0 -0.296875,0.1875 0,0.125 0.078125,0.125 0.28125,0.125 0.125,0 0.3125,0.015625 0.421875,0.015625 0.171875,0.03125 0.21875,0.046875 0.21875,0.171875 0,0.03125 0,0.0625 -0.03125,0.1875 l -1.34375,5.34375 c -0.09375,0.390625 -0.109375,0.46875 -0.90625,0.46875 -0.15625,0 -0.265625,0 -0.265625,0.1875 C 0.40625,0 0.515625,0 0.546875,0 0.828125,0 1.53125,-0.03125 1.8125,-0.03125 c 0.21875,0 0.4375,0.015625 0.640625,0.015625 0.21875,0 0.4375,0.015625 0.640625,0.015625 0.078125,0 0.203125,0 0.203125,-0.203125 0,-0.109375 -0.09375,-0.109375 -0.28125,-0.109375 -0.359375,0 -0.640625,0 -0.640625,-0.171875 0,-0.0625 0.015625,-0.109375 0.03125,-0.171875 z M 3.734375,-6.125 C 3.828125,-6.46875 3.84375,-6.5 4.28125,-6.5 h 0.953125 c 0.828125,0 1.359375,0.265625 1.359375,0.953125 0,0.390625 -0.203125,1.25 -0.59375,1.609375 -0.5,0.453125 -1.09375,0.53125 -1.53125,0.53125 H 3.0625 Z m 0,0"
               id="id-b2871b5c-94ea-4aa0-b870-57787ffb9cd1" />
          </g>
        </g>
        <g
           style="fill:#000000;fill-opacity:1"
           id="id-9f44c610-b7d4-4a24-8aa8-a45be494e9e1">
          <g
             transform="translate(338.433,149.321)"
             id="g23490">
            <path
               style="stroke:none"
               d="m 1.90625,-2.5 c 0,-0.28125 -0.234375,-0.515625 -0.515625,-0.515625 -0.296875,0 -0.53125,0.234375 -0.53125,0.515625 0,0.296875 0.234375,0.53125 0.53125,0.53125 0.28125,0 0.515625,-0.234375 0.515625,-0.53125 z m 0,0"
               id="id-a09d2a99-bf93-4ae2-a146-7a62e7aed96c" />
          </g>
        </g>
        <g
           style="fill:#000000;fill-opacity:1"
           id="id-1e2be043-3990-4030-b27c-7ab7ea942411">
          <g
             transform="translate(343.414,149.321)"
             id="g23494">
            <path
               style="stroke:none"
               d="M 1.78125,-1.140625 C 1.390625,-0.484375 1,-0.34375 0.5625,-0.3125 0.4375,-0.296875 0.34375,-0.296875 0.34375,-0.109375 0.34375,-0.046875 0.40625,0 0.484375,0 0.75,0 1.0625,-0.03125 1.328125,-0.03125 c 0.34375,0 0.6875,0.03125 1,0.03125 0.0625,0 0.1875,0 0.1875,-0.1875 0,-0.109375 -0.078125,-0.125 -0.15625,-0.125 -0.21875,-0.015625 -0.46875,-0.09375 -0.46875,-0.34375 0,-0.125 0.0625,-0.234375 0.140625,-0.375 l 0.765625,-1.265625 h 2.5 c 0.015625,0.203125 0.15625,1.5625 0.15625,1.65625 0,0.296875 -0.515625,0.328125 -0.71875,0.328125 C 4.59375,-0.3125 4.5,-0.3125 4.5,-0.109375 4.5,0 4.609375,0 4.640625,0 5.046875,0 5.46875,-0.03125 5.875,-0.03125 6.125,-0.03125 6.765625,0 7.015625,0 7.0625,0 7.1875,0 7.1875,-0.203125 7.1875,-0.3125 7.09375,-0.3125 6.953125,-0.3125 6.34375,-0.3125 6.34375,-0.375 6.3125,-0.671875 l -0.609375,-6.21875 c -0.015625,-0.203125 -0.015625,-0.25 -0.1875,-0.25 -0.15625,0 -0.203125,0.078125 -0.265625,0.171875 z M 2.984375,-2.609375 4.9375,-5.90625 5.265625,-2.609375 Z m 0,0"
               id="id-f37a9b9c-3135-4e04-86e1-6b3522805669" />
          </g>
        </g>
      </g>
    </g>
    <rect
       style="fill:none;stroke:#000000;stroke-width:0.565;stroke-miterlimit:4;stroke-dasharray:none;stroke-dashoffset:0;stroke-opacity:1"
       id="rect24710"
       width="3.0586054"
       height="3.7382956"
       x="147.29799"
       y="32.531727" />
    <g
       id="g26047"
       style="stroke:#000000;stroke-opacity:1;stroke-width:0.7;stroke-miterlimit:4;stroke-dasharray:none">
      <g
         id="g25799"
         transform="translate(-1.1624717,-0.84543394)"
         style="stroke:#000000;stroke-opacity:1;stroke-width:0.7;stroke-miterlimit:4;stroke-dasharray:none">
        <path
           style="fill:none;stroke:#000000;stroke-width:0.7;stroke-linecap:round;stroke-linejoin:miter;stroke-opacity:1;stroke-miterlimit:4;stroke-dasharray:none"
           d="m 135.76479,25.051434 6.89986,0.02255"
           id="path25469" />
        <path
           style="fill:none;stroke:#000000;stroke-width:0.7;stroke-linecap:round;stroke-linejoin:miter;stroke-opacity:1;stroke-miterlimit:4;stroke-dasharray:none"
           d="m 142.66465,25.073984 -1.93918,-1.73624"
           id="path25504" />
        <path
           style="fill:none;stroke:#000000;stroke-width:0.7;stroke-linecap:round;stroke-linejoin:miter;stroke-opacity:1;stroke-miterlimit:4;stroke-dasharray:none"
           d="m 142.66465,25.073984 -1.84899,1.871526"
           id="path25539" />
      </g>
      <g
         id="g25807"
         transform="translate(-1.1624717,6.8100436)"
         style="stroke:#000000;stroke-opacity:1;stroke-width:0.7;stroke-miterlimit:4;stroke-dasharray:none">
        <path
           style="fill:none;stroke:#000000;stroke-width:0.7;stroke-linecap:round;stroke-linejoin:miter;stroke-opacity:1;stroke-miterlimit:4;stroke-dasharray:none"
           d="m 135.76479,25.051434 6.89986,0.02255"
           id="path25801" />
        <path
           style="fill:none;stroke:#000000;stroke-width:0.7;stroke-linecap:round;stroke-linejoin:miter;stroke-opacity:1;stroke-miterlimit:4;stroke-dasharray:none"
           d="m 142.66465,25.073984 -1.93918,-1.73624"
           id="path25803" />
        <path
           style="fill:none;stroke:#000000;stroke-width:0.7;stroke-linecap:round;stroke-linejoin:miter;stroke-opacity:1;stroke-miterlimit:4;stroke-dasharray:none"
           d="m 142.66465,25.073984 -1.84899,1.871526"
           id="path25805" />
      </g>
      <g
         id="g25815"
         transform="translate(-1.1624717,14.465519)"
         style="stroke:#000000;stroke-opacity:1;stroke-width:0.7;stroke-miterlimit:4;stroke-dasharray:none">
        <path
           style="fill:none;stroke:#000000;stroke-width:0.7;stroke-linecap:round;stroke-linejoin:miter;stroke-opacity:1;stroke-miterlimit:4;stroke-dasharray:none"
           d="m 135.76479,25.051434 6.89986,0.02255"
           id="path25809" />
        <path
           style="fill:none;stroke:#000000;stroke-width:0.7;stroke-linecap:round;stroke-linejoin:miter;stroke-opacity:1;stroke-miterlimit:4;stroke-dasharray:none"
           d="m 142.66465,25.073984 -1.93918,-1.73624"
           id="path25811" />
        <path
           style="fill:none;stroke:#000000;stroke-width:0.7;stroke-linecap:round;stroke-linejoin:miter;stroke-opacity:1;stroke-miterlimit:4;stroke-dasharray:none"
           d="m 142.66465,25.073984 -1.84899,1.871526"
           id="path25813" />
      </g>
      <g
         id="g25823"
         transform="translate(-1.1624717,22.120997)"
         style="stroke:#000000;stroke-opacity:1;stroke-width:0.7;stroke-miterlimit:4;stroke-dasharray:none">
        <path
           style="fill:none;stroke:#000000;stroke-width:0.7;stroke-linecap:round;stroke-linejoin:miter;stroke-opacity:1;stroke-miterlimit:4;stroke-dasharray:none"
           d="m 135.76479,25.051434 6.89986,0.02255"
           id="path25817" />
        <path
           style="fill:none;stroke:#000000;stroke-width:0.7;stroke-linecap:round;stroke-linejoin:miter;stroke-opacity:1;stroke-miterlimit:4;stroke-dasharray:none"
           d="m 142.66465,25.073984 -1.93918,-1.73624"
           id="path25819" />
        <path
           style="fill:none;stroke:#000000;stroke-width:0.7;stroke-linecap:round;stroke-linejoin:miter;stroke-opacity:1;stroke-miterlimit:4;stroke-dasharray:none"
           d="m 142.66465,25.073984 -1.84899,1.871526"
           id="path25821" />
      </g>
      <g
         id="g25831"
         transform="translate(-1.1624717,29.776473)"
         style="stroke:#000000;stroke-opacity:1;stroke-width:0.7;stroke-miterlimit:4;stroke-dasharray:none">
        <path
           style="fill:none;stroke:#000000;stroke-width:0.7;stroke-linecap:round;stroke-linejoin:miter;stroke-opacity:1;stroke-miterlimit:4;stroke-dasharray:none"
           d="m 135.76479,25.051434 6.89986,0.02255"
           id="path25825" />
        <path
           style="fill:none;stroke:#000000;stroke-width:0.7;stroke-linecap:round;stroke-linejoin:miter;stroke-opacity:1;stroke-miterlimit:4;stroke-dasharray:none"
           d="m 142.66465,25.073984 -1.93918,-1.73624"
           id="path25827" />
        <path
           style="fill:none;stroke:#000000;stroke-width:0.7;stroke-linecap:round;stroke-linejoin:miter;stroke-opacity:1;stroke-miterlimit:4;stroke-dasharray:none"
           d="m 142.66465,25.073984 -1.84899,1.871526"
           id="path25829" />
      </g>
      <g
         id="g25839"
         transform="translate(-1.1624717,37.431947)"
         style="stroke:#000000;stroke-opacity:1;stroke-width:0.7;stroke-miterlimit:4;stroke-dasharray:none">
        <path
           style="fill:none;stroke:#000000;stroke-width:0.7;stroke-linecap:round;stroke-linejoin:miter;stroke-opacity:1;stroke-miterlimit:4;stroke-dasharray:none"
           d="m 135.76479,25.051434 6.89986,0.02255"
           id="path25833" />
        <path
           style="fill:none;stroke:#000000;stroke-width:0.7;stroke-linecap:round;stroke-linejoin:miter;stroke-opacity:1;stroke-miterlimit:4;stroke-dasharray:none"
           d="m 142.66465,25.073984 -1.93918,-1.73624"
           id="path25835" />
        <path
           style="fill:none;stroke:#000000;stroke-width:0.7;stroke-linecap:round;stroke-linejoin:miter;stroke-opacity:1;stroke-miterlimit:4;stroke-dasharray:none"
           d="m 142.66465,25.073984 -1.84899,1.871526"
           id="path25837" />
      </g>
    </g>
    <g
       transform="matrix(1.05987,0,0,1.05987,125.89512,35.22761)"
       ns7:version="1.5.0"
       ns7:texconverter="pdflatex"
       ns7:pdfconverter="inkscape"
       ns7:text="$P$\n"
       ns7:preamble="default_packages.tex"
       ns7:scale="3.0043524111480138"
       ns7:alignment="middle center"
       ns7:stroke-to-path="0"
       ns7:inkscapeversion="1.1"
       ns7:jacobian_sqrt="1.05987"
       id="g26499">
      <defs
         id="id-17b7a1f5-2198-41de-8232-7197b6152d9c">
        <g
           id="id-2b6040c0-e0bb-4513-b6d9-749691f6dddc">
          <symbol
             overflow="visible"
             id="id-7c121457-2763-401e-a229-6c1a09e82136">
            <path
               style="stroke:none;stroke-width:0"
               d=""
               id="id-62c3b3f3-18ca-42b6-964d-0ff49b0fab83" />
          </symbol>
          <symbol
             overflow="visible"
             id="id-4e7681f0-82a8-4aa0-90d5-606a219ca166">
            <path
               style="stroke:none;stroke-width:0"
               d="M 3.015625,-3.15625 H 4.71875 c 1.40625,0 2.796875,-1.03125 2.796875,-2.140625 0,-0.78125 -0.65625,-1.515625 -1.96875,-1.515625 h -3.21875 c -0.1875,0 -0.296875,0 -0.296875,0.1875 0,0.125 0.078125,0.125 0.28125,0.125 0.125,0 0.3125,0.015625 0.421875,0.015625 0.171875,0.03125 0.21875,0.046875 0.21875,0.171875 0,0.03125 0,0.0625 -0.03125,0.1875 l -1.34375,5.34375 c -0.09375,0.390625 -0.109375,0.46875 -0.90625,0.46875 -0.15625,0 -0.265625,0 -0.265625,0.1875 C 0.40625,0 0.515625,0 0.546875,0 0.828125,0 1.53125,-0.03125 1.8125,-0.03125 c 0.21875,0 0.4375,0.015625 0.640625,0.015625 0.21875,0 0.4375,0.015625 0.640625,0.015625 0.078125,0 0.203125,0 0.203125,-0.203125 0,-0.109375 -0.09375,-0.109375 -0.28125,-0.109375 -0.359375,0 -0.640625,0 -0.640625,-0.171875 0,-0.0625 0.015625,-0.109375 0.03125,-0.171875 z M 3.734375,-6.125 C 3.828125,-6.46875 3.84375,-6.5 4.28125,-6.5 h 0.953125 c 0.828125,0 1.359375,0.265625 1.359375,0.953125 0,0.390625 -0.203125,1.25 -0.59375,1.609375 -0.5,0.453125 -1.09375,0.53125 -1.53125,0.53125 H 3.0625 Z m 0,0"
               id="id-de981299-b66b-4003-a324-fe668149cfac" />
          </symbol>
        </g>
      </defs>
      <g
         id="id-bdef4fb5-161e-4a10-b9ef-ddaf0a2d14e8"
         transform="translate(-149.118,-127.953)">
        <g
           style="fill:#000000;fill-opacity:1"
           id="id-04c6b21c-d177-4d4e-aa6c-f7f005ff6cc0">
          <g
             transform="translate(148.712,134.765)"
             id="g26495">
            <path
               style="stroke:none;stroke-width:0"
               d="M 3.015625,-3.15625 H 4.71875 c 1.40625,0 2.796875,-1.03125 2.796875,-2.140625 0,-0.78125 -0.65625,-1.515625 -1.96875,-1.515625 h -3.21875 c -0.1875,0 -0.296875,0 -0.296875,0.1875 0,0.125 0.078125,0.125 0.28125,0.125 0.125,0 0.3125,0.015625 0.421875,0.015625 0.171875,0.03125 0.21875,0.046875 0.21875,0.171875 0,0.03125 0,0.0625 -0.03125,0.1875 l -1.34375,5.34375 c -0.09375,0.390625 -0.109375,0.46875 -0.90625,0.46875 -0.15625,0 -0.265625,0 -0.265625,0.1875 C 0.40625,0 0.515625,0 0.546875,0 0.828125,0 1.53125,-0.03125 1.8125,-0.03125 c 0.21875,0 0.4375,0.015625 0.640625,0.015625 0.21875,0 0.4375,0.015625 0.640625,0.015625 0.078125,0 0.203125,0 0.203125,-0.203125 0,-0.109375 -0.09375,-0.109375 -0.28125,-0.109375 -0.359375,0 -0.640625,0 -0.640625,-0.171875 0,-0.0625 0.015625,-0.109375 0.03125,-0.171875 z M 3.734375,-6.125 C 3.828125,-6.46875 3.84375,-6.5 4.28125,-6.5 h 0.953125 c 0.828125,0 1.359375,0.265625 1.359375,0.953125 0,0.390625 -0.203125,1.25 -0.59375,1.609375 -0.5,0.453125 -1.09375,0.53125 -1.53125,0.53125 H 3.0625 Z m 0,0"
               id="id-d0a43051-7b5d-4ca4-8b1c-67ae6b2c7e46" />
          </g>
        </g>
      </g>
    </g>
    <g
       transform="matrix(0.61809653,0,0,0.64851758,145.45254,26.428878)"
       ns7:version="1.5.0"
       ns7:texconverter="pdflatex"
       ns7:pdfconverter="inkscape"
       ns7:text="$dA$\n"
       ns7:preamble="default_packages.tex"
       ns7:scale="3.0043524111480138"
       ns7:alignment="middle center"
       ns7:stroke-to-path="0"
       ns7:inkscapeversion="1.1"
       ns7:jacobian_sqrt="1.05987"
       id="g26934">
      <defs
         id="id-74528f5e-22cb-449b-86f2-0fa1f8edc27f">
        <g
           id="id-1dc1923c-6196-435a-8f6b-76da716caebb">
          <symbol
             overflow="visible"
             id="id-13a98e39-53d0-4882-9037-abf5a76c96ac">
            <path
               style="stroke:none;stroke-width:0"
               d=""
               id="id-88eaf8a2-68a7-4bd3-9404-c86e787a537d" />
          </symbol>
          <symbol
             overflow="visible"
             id="id-c98e8fe6-fd7e-4adf-a741-a327a53544d4">
            <path
               style="stroke:none;stroke-width:0"
               d="m 5.140625,-6.8125 c 0,0 0,-0.109375 -0.125,-0.109375 -0.15625,0 -1.09375,0.09375 -1.265625,0.109375 -0.078125,0.015625 -0.140625,0.0625 -0.140625,0.1875 0,0.125 0.09375,0.125 0.234375,0.125 0.484375,0 0.5,0.0625 0.5,0.171875 L 4.3125,-6.125 3.71875,-3.765625 C 3.53125,-4.140625 3.25,-4.40625 2.796875,-4.40625 c -1.15625,0 -2.390625,1.46875 -2.390625,2.921875 0,0.9375 0.546875,1.59375 1.3125,1.59375 0.203125,0 0.703125,-0.046875 1.296875,-0.75 0.078125,0.421875 0.4375,0.75 0.90625,0.75 0.359375,0 0.578125,-0.234375 0.75,-0.546875 0.15625,-0.359375 0.296875,-0.96875 0.296875,-0.984375 0,-0.109375 -0.09375,-0.109375 -0.125,-0.109375 -0.09375,0 -0.109375,0.046875 -0.140625,0.1875 -0.171875,0.640625 -0.34375,1.234375 -0.75,1.234375 -0.28125,0 -0.296875,-0.265625 -0.296875,-0.453125 0,-0.25 0.015625,-0.3125 0.046875,-0.484375 z m -2.0625,5.625 C 3.015625,-1 3.015625,-0.984375 2.875,-0.8125 2.4375,-0.265625 2.03125,-0.109375 1.75,-0.109375 c -0.5,0 -0.640625,-0.546875 -0.640625,-0.9375 0,-0.5 0.3125,-1.71875 0.546875,-2.1875 0.3125,-0.578125 0.75,-0.953125 1.15625,-0.953125 0.640625,0 0.78125,0.8125 0.78125,0.875 0,0.0625 -0.015625,0.125 -0.03125,0.171875 z m 0,0"
               id="id-1e9237b5-5149-46f2-a82d-980743b61e12" />
          </symbol>
          <symbol
             overflow="visible"
             id="id-b11ad61f-cef3-488b-a087-1bf5595349ad">
            <path
               style="stroke:none;stroke-width:0"
               d="M 1.78125,-1.140625 C 1.390625,-0.484375 1,-0.34375 0.5625,-0.3125 0.4375,-0.296875 0.34375,-0.296875 0.34375,-0.109375 0.34375,-0.046875 0.40625,0 0.484375,0 0.75,0 1.0625,-0.03125 1.328125,-0.03125 c 0.34375,0 0.6875,0.03125 1,0.03125 0.0625,0 0.1875,0 0.1875,-0.1875 0,-0.109375 -0.078125,-0.125 -0.15625,-0.125 -0.21875,-0.015625 -0.46875,-0.09375 -0.46875,-0.34375 0,-0.125 0.0625,-0.234375 0.140625,-0.375 l 0.765625,-1.265625 h 2.5 c 0.015625,0.203125 0.15625,1.5625 0.15625,1.65625 0,0.296875 -0.515625,0.328125 -0.71875,0.328125 C 4.59375,-0.3125 4.5,-0.3125 4.5,-0.109375 4.5,0 4.609375,0 4.640625,0 5.046875,0 5.46875,-0.03125 5.875,-0.03125 6.125,-0.03125 6.765625,0 7.015625,0 7.0625,0 7.1875,0 7.1875,-0.203125 7.1875,-0.3125 7.09375,-0.3125 6.953125,-0.3125 6.34375,-0.3125 6.34375,-0.375 6.3125,-0.671875 l -0.609375,-6.21875 c -0.015625,-0.203125 -0.015625,-0.25 -0.1875,-0.25 -0.15625,0 -0.203125,0.078125 -0.265625,0.171875 z M 2.984375,-2.609375 4.9375,-5.90625 5.265625,-2.609375 Z m 0,0"
               id="id-8f764f03-ab2b-432b-9048-7aa20e86c6d1" />
          </symbol>
        </g>
      </defs>
      <g
         id="id-02894dce-1428-4ace-b8de-f050b3a9bf25"
         transform="translate(-149.118,-127.624)">
        <g
           style="fill:#000000;fill-opacity:1"
           id="id-51d98317-8a37-47c6-8421-5cd843df8f7d">
          <g
             transform="translate(148.712,134.765)"
             id="g26927">
            <path
               style="stroke:none;stroke-width:0"
               d="m 5.140625,-6.8125 c 0,0 0,-0.109375 -0.125,-0.109375 -0.15625,0 -1.09375,0.09375 -1.265625,0.109375 -0.078125,0.015625 -0.140625,0.0625 -0.140625,0.1875 0,0.125 0.09375,0.125 0.234375,0.125 0.484375,0 0.5,0.0625 0.5,0.171875 L 4.3125,-6.125 3.71875,-3.765625 C 3.53125,-4.140625 3.25,-4.40625 2.796875,-4.40625 c -1.15625,0 -2.390625,1.46875 -2.390625,2.921875 0,0.9375 0.546875,1.59375 1.3125,1.59375 0.203125,0 0.703125,-0.046875 1.296875,-0.75 0.078125,0.421875 0.4375,0.75 0.90625,0.75 0.359375,0 0.578125,-0.234375 0.75,-0.546875 0.15625,-0.359375 0.296875,-0.96875 0.296875,-0.984375 0,-0.109375 -0.09375,-0.109375 -0.125,-0.109375 -0.09375,0 -0.109375,0.046875 -0.140625,0.1875 -0.171875,0.640625 -0.34375,1.234375 -0.75,1.234375 -0.28125,0 -0.296875,-0.265625 -0.296875,-0.453125 0,-0.25 0.015625,-0.3125 0.046875,-0.484375 z m -2.0625,5.625 C 3.015625,-1 3.015625,-0.984375 2.875,-0.8125 2.4375,-0.265625 2.03125,-0.109375 1.75,-0.109375 c -0.5,0 -0.640625,-0.546875 -0.640625,-0.9375 0,-0.5 0.3125,-1.71875 0.546875,-2.1875 0.3125,-0.578125 0.75,-0.953125 1.15625,-0.953125 0.640625,0 0.78125,0.8125 0.78125,0.875 0,0.0625 -0.015625,0.125 -0.03125,0.171875 z m 0,0"
               id="id-53db5c73-f1a7-44df-996d-7b683393b49a" />
          </g>
          <g
             transform="translate(153.898,134.765)"
             id="g26930">
            <path
               style="stroke:none;stroke-width:0"
               d="M 1.78125,-1.140625 C 1.390625,-0.484375 1,-0.34375 0.5625,-0.3125 0.4375,-0.296875 0.34375,-0.296875 0.34375,-0.109375 0.34375,-0.046875 0.40625,0 0.484375,0 0.75,0 1.0625,-0.03125 1.328125,-0.03125 c 0.34375,0 0.6875,0.03125 1,0.03125 0.0625,0 0.1875,0 0.1875,-0.1875 0,-0.109375 -0.078125,-0.125 -0.15625,-0.125 -0.21875,-0.015625 -0.46875,-0.09375 -0.46875,-0.34375 0,-0.125 0.0625,-0.234375 0.140625,-0.375 l 0.765625,-1.265625 h 2.5 c 0.015625,0.203125 0.15625,1.5625 0.15625,1.65625 0,0.296875 -0.515625,0.328125 -0.71875,0.328125 C 4.59375,-0.3125 4.5,-0.3125 4.5,-0.109375 4.5,0 4.609375,0 4.640625,0 5.046875,0 5.46875,-0.03125 5.875,-0.03125 6.125,-0.03125 6.765625,0 7.015625,0 7.0625,0 7.1875,0 7.1875,-0.203125 7.1875,-0.3125 7.09375,-0.3125 6.953125,-0.3125 6.34375,-0.3125 6.34375,-0.375 6.3125,-0.671875 l -0.609375,-6.21875 c -0.015625,-0.203125 -0.015625,-0.25 -0.1875,-0.25 -0.15625,0 -0.203125,0.078125 -0.265625,0.171875 z M 2.984375,-2.609375 4.9375,-5.90625 5.265625,-2.609375 Z m 0,0"
               id="id-9e496f7a-41e9-4a17-b69b-e77a9c72ef75" />
          </g>
        </g>
      </g>
    </g>
    <g
       transform="matrix(1.05987,0,0,1.05987,204.44321,48.647703)"
       ns7:version="1.5.0"
       ns7:texconverter="pdflatex"
       ns7:pdfconverter="inkscape"
       ns7:text="$F$\n"
       ns7:preamble="default_packages.tex"
       ns7:scale="3.0043524111480138"
       ns7:alignment="middle center"
       ns7:stroke-to-path="0"
       ns7:inkscapeversion="1.1"
       ns7:jacobian_sqrt="1.05987"
       id="g27607">
      <defs
         id="id-ed8df0c2-37bc-486a-8516-05e46fc9d7fa">
        <g
           id="id-902a010b-65ce-43e9-9eac-6250579094fa">
          <symbol
             overflow="visible"
             id="id-f19a0c93-e794-4fb9-9ca3-ea2ba8ac9fe3">
            <path
               style="stroke:none;stroke-width:0"
               d=""
               id="id-bb533ee5-388e-426f-980d-88656a9d4946" />
          </symbol>
          <symbol
             overflow="visible"
             id="id-1fc4b6bf-9fb4-4cc2-a2ba-bc3c7dfac2a9">
            <path
               style="stroke:none;stroke-width:0"
               d="m 3.015625,-3.234375 h 0.96875 c 0.75,0 0.828125,0.15625 0.828125,0.4375 0,0.078125 0,0.1875 -0.0625,0.5 C 4.71875,-2.25 4.71875,-2.21875 4.71875,-2.1875 c 0,0.078125 0.0625,0.109375 0.109375,0.109375 0.109375,0 0.109375,-0.03125 0.15625,-0.203125 L 5.53125,-4.453125 C 5.5625,-4.5625 5.5625,-4.578125 5.5625,-4.609375 5.5625,-4.625 5.546875,-4.71875 5.4375,-4.71875 5.34375,-4.71875 5.328125,-4.671875 5.296875,-4.5 5.078125,-3.734375 4.859375,-3.546875 4,-3.546875 H 3.09375 l 0.640625,-2.53125 C 3.828125,-6.4375 3.84375,-6.46875 4.28125,-6.46875 h 1.3125 c 1.21875,0 1.453125,0.328125 1.453125,1.09375 0,0.234375 0,0.265625 -0.03125,0.546875 C 7,-4.703125 7,-4.6875 7,-4.65625 c 0,0.046875 0.03125,0.125 0.125,0.125 0.109375,0 0.109375,-0.0625 0.125,-0.25 L 7.453125,-6.515625 C 7.484375,-6.78125 7.4375,-6.78125 7.1875,-6.78125 H 2.296875 c -0.1875,0 -0.296875,0 -0.296875,0.203125 0,0.109375 0.09375,0.109375 0.28125,0.109375 0.375,0 0.65625,0 0.65625,0.171875 0,0.046875 0,0.0625 -0.0625,0.25 L 1.5625,-0.78125 c -0.09375,0.390625 -0.109375,0.46875 -0.90625,0.46875 -0.171875,0 -0.28125,0 -0.28125,0.1875 C 0.375,0 0.5,0 0.53125,0 0.8125,0 1.5625,-0.03125 1.84375,-0.03125 2.171875,-0.03125 3,0 3.328125,0 3.421875,0 3.53125,0 3.53125,-0.1875 3.53125,-0.265625 3.484375,-0.296875 3.484375,-0.296875 3.453125,-0.3125 3.421875,-0.3125 3.203125,-0.3125 c -0.21875,0 -0.265625,0 -0.515625,-0.015625 -0.296875,-0.03125 -0.328125,-0.078125 -0.328125,-0.203125 0,-0.015625 0,-0.078125 0.046875,-0.21875 z m 0,0"
               id="id-73976f9d-a4b4-4a3e-a991-2dea126aa5d6" />
          </symbol>
        </g>
      </defs>
      <g
         id="id-1372d8bb-985c-4d5d-9ff1-6e975d204499"
         transform="translate(-149.087,-127.984)">
        <g
           style="fill:#000000;fill-opacity:1"
           id="id-fb8f47c7-2bb8-4891-bb4f-061e6c6395fc">
          <g
             transform="translate(148.712,134.765)"
             id="g27603">
            <path
               style="stroke:none;stroke-width:0"
               d="m 3.015625,-3.234375 h 0.96875 c 0.75,0 0.828125,0.15625 0.828125,0.4375 0,0.078125 0,0.1875 -0.0625,0.5 C 4.71875,-2.25 4.71875,-2.21875 4.71875,-2.1875 c 0,0.078125 0.0625,0.109375 0.109375,0.109375 0.109375,0 0.109375,-0.03125 0.15625,-0.203125 L 5.53125,-4.453125 C 5.5625,-4.5625 5.5625,-4.578125 5.5625,-4.609375 5.5625,-4.625 5.546875,-4.71875 5.4375,-4.71875 5.34375,-4.71875 5.328125,-4.671875 5.296875,-4.5 5.078125,-3.734375 4.859375,-3.546875 4,-3.546875 H 3.09375 l 0.640625,-2.53125 C 3.828125,-6.4375 3.84375,-6.46875 4.28125,-6.46875 h 1.3125 c 1.21875,0 1.453125,0.328125 1.453125,1.09375 0,0.234375 0,0.265625 -0.03125,0.546875 C 7,-4.703125 7,-4.6875 7,-4.65625 c 0,0.046875 0.03125,0.125 0.125,0.125 0.109375,0 0.109375,-0.0625 0.125,-0.25 L 7.453125,-6.515625 C 7.484375,-6.78125 7.4375,-6.78125 7.1875,-6.78125 H 2.296875 c -0.1875,0 -0.296875,0 -0.296875,0.203125 0,0.109375 0.09375,0.109375 0.28125,0.109375 0.375,0 0.65625,0 0.65625,0.171875 0,0.046875 0,0.0625 -0.0625,0.25 L 1.5625,-0.78125 c -0.09375,0.390625 -0.109375,0.46875 -0.90625,0.46875 -0.171875,0 -0.28125,0 -0.28125,0.1875 C 0.375,0 0.5,0 0.53125,0 0.8125,0 1.5625,-0.03125 1.84375,-0.03125 2.171875,-0.03125 3,0 3.328125,0 3.421875,0 3.53125,0 3.53125,-0.1875 3.53125,-0.265625 3.484375,-0.296875 3.484375,-0.296875 3.453125,-0.3125 3.421875,-0.3125 3.203125,-0.3125 c -0.21875,0 -0.265625,0 -0.515625,-0.015625 -0.296875,-0.03125 -0.328125,-0.078125 -0.328125,-0.203125 0,-0.015625 0,-0.078125 0.046875,-0.21875 z m 0,0"
               id="id-b2b3c9ca-3de6-4b94-8eb7-dab4a9b0bf1f" />
          </g>
        </g>
      </g>
    </g>
    <g
       id="g27688"
       style="stroke:#000000;stroke-width:0.7;stroke-miterlimit:4;stroke-dasharray:none;stroke-opacity:1"
       transform="translate(89.012596,0.30071823)">
      <g
         id="g27686"
         transform="translate(-19.19945,17.120034)"
         style="stroke:#000000;stroke-width:0.7;stroke-miterlimit:4;stroke-dasharray:none;stroke-opacity:1">
        <path
           style="fill:none;stroke:#000000;stroke-width:0.7;stroke-linecap:round;stroke-linejoin:miter;stroke-miterlimit:4;stroke-dasharray:none;stroke-opacity:1"
           d="m 135.76479,25.051434 6.89986,0.02255"
           id="path27680" />
        <path
           style="fill:none;stroke:#000000;stroke-width:0.7;stroke-linecap:round;stroke-linejoin:miter;stroke-miterlimit:4;stroke-dasharray:none;stroke-opacity:1"
           d="m 142.66465,25.073984 -1.93918,-1.73624"
           id="path27682" />
        <path
           style="fill:none;stroke:#000000;stroke-width:0.7;stroke-linecap:round;stroke-linejoin:miter;stroke-miterlimit:4;stroke-dasharray:none;stroke-opacity:1"
           d="m 142.66465,25.073984 -1.84899,1.871526"
           id="path27684" />
      </g>
    </g>
  </g>
</svg>
