<?xml version="1.0" encoding="UTF-8" standalone="no"?>
<!-- Created with Inkscape (http://www.inkscape.org/) -->

<svg
   width="297mm"
   height="110mm"
   viewBox="0 0 297 110"
   version="1.1"
   id="svg5"
   inkscape:version="1.1 (c4e8f9e, 2021-05-24)"
   sodipodi:docname="work2.svg"
   xmlns:inkscape="http://www.inkscape.org/namespaces/inkscape"
   xmlns:sodipodi="http://sodipodi.sourceforge.net/DTD/sodipodi-0.dtd"
   xmlns="http://www.w3.org/2000/svg"
   xmlns:svg="http://www.w3.org/2000/svg"
   xmlns:ns7="http://www.iki.fi/pav/software/textext/">
  <sodipodi:namedview
     id="namedview7"
     pagecolor="#ffffff"
     bordercolor="#666666"
     borderopacity="1.0"
     inkscape:pageshadow="2"
     inkscape:pageopacity="0.0"
     inkscape:pagecheckerboard="0"
     inkscape:document-units="mm"
     showgrid="false"
     inkscape:zoom="0.9591998"
     inkscape:cx="607.27703"
     inkscape:cy="220.49629"
     inkscape:window-width="1312"
     inkscape:window-height="763"
     inkscape:window-x="0"
     inkscape:window-y="25"
     inkscape:window-maximized="0"
     inkscape:current-layer="layer1"
     height="110mm" />
  <defs
     id="defs2">
    <inkscape:perspective
       sodipodi:type="inkscape:persp3d"
       inkscape:vp_x="0 : 5.0000026 : 1"
       inkscape:vp_y="0 : 1000.0001 : 0"
       inkscape:vp_z="297 : 5.0000026 : 1"
       inkscape:persp3d-origin="148.5 : -29.999999 : 1"
       id="perspective1043" />
    <g
       id="id-902a010b-65ce-43e9-9eac-6250579094fa">
      <symbol
         overflow="visible"
         id="id-f19a0c93-e794-4fb9-9ca3-ea2ba8ac9fe3">
        <path
           style="stroke:none;stroke-width:0"
           d=""
           id="id-bb533ee5-388e-426f-980d-88656a9d4946" />
      </symbol>
      <symbol
         overflow="visible"
         id="id-1fc4b6bf-9fb4-4cc2-a2ba-bc3c7dfac2a9">
        <path
           style="stroke:none;stroke-width:0"
           d="m 3.015625,-3.234375 h 0.96875 c 0.75,0 0.828125,0.15625 0.828125,0.4375 0,0.078125 0,0.1875 -0.0625,0.5 C 4.71875,-2.25 4.71875,-2.21875 4.71875,-2.1875 c 0,0.078125 0.0625,0.109375 0.109375,0.109375 0.109375,0 0.109375,-0.03125 0.15625,-0.203125 L 5.53125,-4.453125 C 5.5625,-4.5625 5.5625,-4.578125 5.5625,-4.609375 5.5625,-4.625 5.546875,-4.71875 5.4375,-4.71875 5.34375,-4.71875 5.328125,-4.671875 5.296875,-4.5 5.078125,-3.734375 4.859375,-3.546875 4,-3.546875 H 3.09375 l 0.640625,-2.53125 C 3.828125,-6.4375 3.84375,-6.46875 4.28125,-6.46875 h 1.3125 c 1.21875,0 1.453125,0.328125 1.453125,1.09375 0,0.234375 0,0.265625 -0.03125,0.546875 C 7,-4.703125 7,-4.6875 7,-4.65625 c 0,0.046875 0.03125,0.125 0.125,0.125 0.109375,0 0.109375,-0.0625 0.125,-0.25 L 7.453125,-6.515625 C 7.484375,-6.78125 7.4375,-6.78125 7.1875,-6.78125 H 2.296875 c -0.1875,0 -0.296875,0 -0.296875,0.203125 0,0.109375 0.09375,0.109375 0.28125,0.109375 0.375,0 0.65625,0 0.65625,0.171875 0,0.046875 0,0.0625 -0.0625,0.25 L 1.5625,-0.78125 c -0.09375,0.390625 -0.109375,0.46875 -0.90625,0.46875 -0.171875,0 -0.28125,0 -0.28125,0.1875 C 0.375,0 0.5,0 0.53125,0 0.8125,0 1.5625,-0.03125 1.84375,-0.03125 2.171875,-0.03125 3,0 3.328125,0 3.421875,0 3.53125,0 3.53125,-0.1875 3.53125,-0.265625 3.484375,-0.296875 3.484375,-0.296875 3.453125,-0.3125 3.421875,-0.3125 3.203125,-0.3125 c -0.21875,0 -0.265625,0 -0.515625,-0.015625 -0.296875,-0.03125 -0.328125,-0.078125 -0.328125,-0.203125 0,-0.015625 0,-0.078125 0.046875,-0.21875 z m 0,0"
           id="id-73976f9d-a4b4-4a3e-a991-2dea126aa5d6" />
      </symbol>
    </g>
  </defs>
  <g
     inkscape:label="Layer 1"
     inkscape:groupmode="layer"
     id="layer1">
    <circle
       style="fill:#000080;fill-rule:evenodd;stroke-width:0.264583"
       id="circle727"
       cx="33.651455"
       cy="24.509663"
       r="0.8658458" />
    <ellipse
       style="fill:#ffffff;fill-opacity:0;fill-rule:evenodd;stroke:#000000;stroke-width:0.264583;stroke-opacity:1"
       id="path1128"
       cx="31.67189"
       cy="47.227951"
       rx="5.7379107"
       ry="25.038157" />
    <ellipse
       style="fill:#ff0000;fill-opacity:1;fill-rule:evenodd;stroke:#000000;stroke-width:0.264583;stroke-opacity:1"
       id="ellipse1311-5"
       cx="188.62216"
       cy="47.227951"
       rx="5.7379107"
       ry="25.038157" />
    <ellipse
       style="fill:#ff0000;fill-opacity:0.221774;fill-rule:evenodd;stroke:#000000;stroke-width:0.264583;stroke-opacity:1"
       id="ellipse1311-5-9"
       cx="148.89478"
       cy="47.258873"
       rx="5.7379107"
       ry="25.038157" />
    <ellipse
       style="fill:#ffffff;fill-rule:evenodd;stroke:#000000;stroke-width:0.264583;stroke-opacity:1"
       id="ellipse1344"
       cx="265.97836"
       cy="47.227951"
       rx="5.7379107"
       ry="25.038157" />
    <path
       style="fill:none;stroke:#000000;stroke-width:0.264583px;stroke-linecap:butt;stroke-linejoin:miter;stroke-opacity:1"
       d="M 148.85952,22.193078 31.647342,22.18202"
       id="path1654"
       sodipodi:nodetypes="cc" />
    <path
       style="fill:none;stroke:#000000;stroke-width:0.264583px;stroke-linecap:butt;stroke-linejoin:miter;stroke-opacity:1"
       d="M 148.88745,72.26906 31.675277,72.258002"
       id="path1654-9"
       sodipodi:nodetypes="cc" />
    <path
       style="fill:none;stroke:#000000;stroke-width:0.264583px;stroke-linecap:butt;stroke-linejoin:miter;stroke-opacity:1"
       d="M 266.0996,72.280118 148.88745,72.26906"
       id="path1654-9-1"
       sodipodi:nodetypes="cc" />
    <path
       style="fill:none;stroke:#000000;stroke-width:0.264583px;stroke-linecap:butt;stroke-linejoin:miter;stroke-opacity:1"
       d="M 266.07167,22.204136 148.85952,22.193078"
       id="path1654-9-1-5"
       sodipodi:nodetypes="cc" />
    <circle
       style="fill:#000080;fill-rule:evenodd;stroke-width:0.264583"
       id="path417"
       cx="135.46457"
       cy="42.116543"
       r="0.8658458" />
    <circle
       style="fill:#000080;fill-rule:evenodd;stroke-width:0.264583"
       id="circle575"
       cx="72.444618"
       cy="41.307552"
       r="0.8658458" />
    <circle
       style="fill:#000080;fill-rule:evenodd;stroke-width:0.264583"
       id="circle577"
       cx="64.705597"
       cy="51.267963"
       r="0.8658458" />
    <circle
       style="fill:#000080;fill-rule:evenodd;stroke-width:0.264583"
       id="circle579"
       cx="83.479897"
       cy="51.984539"
       r="0.8658458" />
    <circle
       style="fill:#000080;fill-rule:evenodd;stroke-width:0.264583"
       id="circle581"
       cx="131.39174"
       cy="60.13382"
       r="0.8658458" />
    <circle
       style="fill:#000080;fill-rule:evenodd;stroke-width:0.264583"
       id="circle583"
       cx="76.74408"
       cy="48.258343"
       r="0.8658458" />
    <circle
       style="fill:#000080;fill-rule:evenodd;stroke-width:0.264583"
       id="circle585"
       cx="52.30883"
       cy="45.105408"
       r="0.8658458" />
    <circle
       style="fill:#000080;fill-rule:evenodd;stroke-width:0.264583"
       id="circle587"
       cx="53.383694"
       cy="33.496872"
       r="0.8658458" />
    <circle
       style="fill:#000080;fill-rule:evenodd;stroke-width:0.264583"
       id="circle589"
       cx="68.288483"
       cy="32.923611"
       r="0.8658458" />
    <circle
       style="fill:#000080;fill-rule:evenodd;stroke-width:0.264583"
       id="circle591"
       cx="78.392204"
       cy="33.138584"
       r="0.8658458" />
    <circle
       style="fill:#000080;fill-rule:evenodd;stroke-width:0.264583"
       id="circle593"
       cx="85.271339"
       cy="44.388832"
       r="0.8658458" />
    <circle
       style="fill:#000080;fill-rule:evenodd;stroke-width:0.264583"
       id="circle595"
       cx="91.075607"
       cy="36.86478"
       r="0.8658458" />
    <circle
       style="fill:#000080;fill-rule:evenodd;stroke-width:0.264583"
       id="circle597"
       cx="88.352615"
       cy="28.982441"
       r="0.8658458" />
    <circle
       style="fill:#000080;fill-rule:evenodd;stroke-width:0.264583"
       id="circle599"
       cx="62.985817"
       cy="43.528938"
       r="0.8658458" />
    <circle
       style="fill:#000080;fill-rule:evenodd;stroke-width:0.264583"
       id="circle601"
       cx="50.660706"
       cy="57.645493"
       r="0.8658458" />
    <circle
       style="fill:#000080;fill-rule:evenodd;stroke-width:0.264583"
       id="circle603"
       cx="130.36037"
       cy="48.107903"
       r="0.8658458" />
    <circle
       style="fill:#000080;fill-rule:evenodd;stroke-width:0.264583"
       id="circle605"
       cx="44.641464"
       cy="52.199509"
       r="0.8658458" />
    <circle
       style="fill:#000080;fill-rule:evenodd;stroke-width:0.264583"
       id="circle607"
       cx="42.420078"
       cy="40.232685"
       r="0.8658458" />
    <circle
       style="fill:#000080;fill-rule:evenodd;stroke-width:0.264583"
       id="circle609"
       cx="46.289589"
       cy="30.988853"
       r="0.8658458" />
    <circle
       style="fill:#000080;fill-rule:evenodd;stroke-width:0.264583"
       id="circle611"
       cx="41.273556"
       cy="29.125755"
       r="0.8658458" />
    <circle
       style="fill:#000080;fill-rule:evenodd;stroke-width:0.264583"
       id="circle613"
       cx="59.832882"
       cy="30.128963"
       r="0.8658458" />
    <circle
       style="fill:#000080;fill-rule:evenodd;stroke-width:0.264583"
       id="circle615"
       cx="73.662804"
       cy="23.894749"
       r="0.8658458" />
    <circle
       style="fill:#000080;fill-rule:evenodd;stroke-width:0.264583"
       id="circle617"
       cx="51.735569"
       cy="24.253036"
       r="0.8658458" />
    <circle
       style="fill:#000080;fill-rule:evenodd;stroke-width:0.264583"
       id="circle619"
       cx="51.735569"
       cy="24.253036"
       r="0.8658458" />
    <circle
       style="fill:#000080;fill-rule:evenodd;stroke-width:0.264583"
       id="circle621"
       cx="82.405037"
       cy="25.97282"
       r="0.8658458" />
    <circle
       style="fill:#000080;fill-rule:evenodd;stroke-width:0.264583"
       id="circle623"
       cx="94.58683"
       cy="24.46801"
       r="0.8658458" />
    <circle
       style="fill:#000080;fill-rule:evenodd;stroke-width:0.264583"
       id="circle625"
       cx="100.67773"
       cy="29.985645"
       r="0.8658458" />
    <circle
       style="fill:#000080;fill-rule:evenodd;stroke-width:0.264583"
       id="circle627"
       cx="109.63493"
       cy="24.253036"
       r="0.8658458" />
    <circle
       style="fill:#000080;fill-rule:evenodd;stroke-width:0.264583"
       id="circle629"
       cx="108.63173"
       cy="38.226273"
       r="0.8658458" />
    <circle
       style="fill:#000080;fill-rule:evenodd;stroke-width:0.264583"
       id="circle631"
       cx="151.20274"
       cy="56.428379"
       r="0.8658458" />
    <circle
       style="fill:#000080;fill-rule:evenodd;stroke-width:0.264583"
       id="circle633"
       cx="97.954742"
       cy="39.587769"
       r="0.8658458" />
    <circle
       style="fill:#000080;fill-rule:evenodd;stroke-width:0.264583"
       id="circle635"
       cx="44.283184"
       cy="39.444454"
       r="0.8658458" />
    <circle
       style="fill:#000080;fill-rule:evenodd;stroke-width:0.264583"
       id="circle637"
       cx="43.102047"
       cy="47.056221"
       r="0.8658458" />
    <circle
       style="fill:#000080;fill-rule:evenodd;stroke-width:0.264583"
       id="circle639"
       cx="38.508739"
       cy="56.50531"
       r="0.8658458" />
    <circle
       style="fill:#000080;fill-rule:evenodd;stroke-width:0.264583"
       id="circle641"
       cx="164.36984"
       cy="35.774178"
       r="0.8658458" />
    <circle
       style="fill:#000080;fill-rule:evenodd;stroke-width:0.264583"
       id="circle643"
       cx="36.408943"
       cy="70.022766"
       r="0.8658458" />
    <circle
       style="fill:#000080;fill-rule:evenodd;stroke-width:0.264583"
       id="circle645"
       cx="66.85601"
       cy="67.398018"
       r="0.8658458" />
    <circle
       style="fill:#000080;fill-rule:evenodd;stroke-width:0.264583"
       id="circle647"
       cx="53.601036"
       cy="67.660492"
       r="0.8658458" />
    <circle
       style="fill:#000080;fill-rule:evenodd;stroke-width:0.264583"
       id="circle649"
       cx="46.38298"
       cy="66.216881"
       r="0.8658458" />
    <circle
       style="fill:#000080;fill-rule:evenodd;stroke-width:0.264583"
       id="circle651"
       cx="43.495758"
       cy="64.510796"
       r="0.8658458" />
    <circle
       style="fill:#000080;fill-rule:evenodd;stroke-width:0.264583"
       id="circle653"
       cx="55.307121"
       cy="62.017288"
       r="0.8658458" />
    <circle
       style="fill:#000080;fill-rule:evenodd;stroke-width:0.264583"
       id="circle655"
       cx="75.648911"
       cy="69.235344"
       r="0.8658458" />
    <circle
       style="fill:#000080;fill-rule:evenodd;stroke-width:0.264583"
       id="circle657"
       cx="84.310577"
       cy="60.967392"
       r="0.8658458" />
    <circle
       style="fill:#000080;fill-rule:evenodd;stroke-width:0.264583"
       id="circle659"
       cx="92.184822"
       cy="50.993351"
       r="0.8658458" />
    <circle
       style="fill:#000080;fill-rule:evenodd;stroke-width:0.264583"
       id="circle661"
       cx="107.01465"
       cy="47.843655"
       r="0.8658458" />
    <circle
       style="fill:#000080;fill-rule:evenodd;stroke-width:0.264583"
       id="circle663"
       cx="163.8924"
       cy="67.284111"
       r="0.8658458" />
    <circle
       style="fill:#000080;fill-rule:evenodd;stroke-width:0.264583"
       id="circle665"
       cx="150.74759"
       cy="67.392197"
       r="0.8658458" />
    <circle
       style="fill:#000080;fill-rule:evenodd;stroke-width:0.264583"
       id="circle667"
       cx="119.74467"
       cy="47.581177"
       r="0.8658458" />
    <circle
       style="fill:#000080;fill-rule:evenodd;stroke-width:0.264583"
       id="circle669"
       cx="178.91502"
       cy="53.143433"
       r="0.8658458" />
    <circle
       style="fill:#000080;fill-rule:evenodd;stroke-width:0.264583"
       id="circle671"
       cx="172.29681"
       cy="26.724859"
       r="0.8658458" />
    <circle
       style="fill:#000080;fill-rule:evenodd;stroke-width:0.264583"
       id="circle673"
       cx="141.53008"
       cy="60.048729"
       r="0.8658458" />
    <circle
       style="fill:#000080;fill-rule:evenodd;stroke-width:0.264583"
       id="circle675"
       cx="150.44901"
       cy="40.254192"
       r="0.8658458" />
    <circle
       style="fill:#000080;fill-rule:evenodd;stroke-width:0.264583"
       id="circle677"
       cx="180.14561"
       cy="67.75647"
       r="0.8658458" />
    <circle
       style="fill:#000080;fill-rule:evenodd;stroke-width:0.264583"
       id="circle679"
       cx="132.60594"
       cy="69.366585"
       r="0.8658458" />
    <circle
       style="fill:#000080;fill-rule:evenodd;stroke-width:0.264583"
       id="circle681"
       cx="178.3999"
       cy="42.495041"
       r="0.8658458" />
    <circle
       style="fill:#000080;fill-rule:evenodd;stroke-width:0.264583"
       id="circle683"
       cx="103.34001"
       cy="67.529259"
       r="0.8658458" />
    <circle
       style="fill:#000080;fill-rule:evenodd;stroke-width:0.264583"
       id="circle685"
       cx="110.95178"
       cy="58.08017"
       r="0.8658458" />
    <circle
       style="fill:#000080;fill-rule:evenodd;stroke-width:0.264583"
       id="circle687"
       cx="102.42136"
       cy="58.998833"
       r="0.8658458" />
    <circle
       style="fill:#000080;fill-rule:evenodd;stroke-width:0.264583"
       id="circle689"
       cx="155.13042"
       cy="27.307383"
       r="0.8658458" />
    <circle
       style="fill:#000080;fill-rule:evenodd;stroke-width:0.264583"
       id="circle691"
       cx="114.23273"
       cy="68.972878"
       r="0.8658458" />
    <circle
       style="fill:#000080;fill-rule:evenodd;stroke-width:0.264583"
       id="circle693"
       cx="73.286667"
       cy="58.605125"
       r="0.8658458" />
    <circle
       style="fill:#000080;fill-rule:evenodd;stroke-width:0.264583"
       id="circle695"
       cx="160.44728"
       cy="34.437202"
       r="0.8658458" />
    <circle
       style="fill:#000080;fill-rule:evenodd;stroke-width:0.264583"
       id="circle697"
       cx="120.66334"
       cy="40.231884"
       r="0.8658458" />
    <circle
       style="fill:#000080;fill-rule:evenodd;stroke-width:0.264583"
       id="circle699"
       cx="127.48768"
       cy="33.276302"
       r="0.8658458" />
    <circle
       style="fill:#000080;fill-rule:evenodd;stroke-width:0.264583"
       id="circle701"
       cx="131.81851"
       cy="25.139584"
       r="0.8658458" />
    <circle
       style="fill:#000080;fill-rule:evenodd;stroke-width:0.264583"
       id="circle703"
       cx="139.61786"
       cy="31.278536"
       r="0.8658458" />
    <circle
       style="fill:#000080;fill-rule:evenodd;stroke-width:0.264583"
       id="circle705"
       cx="150.92827"
       cy="26.401672"
       r="0.8658458" />
    <circle
       style="fill:#000080;fill-rule:evenodd;stroke-width:0.264583"
       id="circle707"
       cx="178.90146"
       cy="36.173336"
       r="0.8658458" />
    <circle
       style="fill:#000080;fill-rule:evenodd;stroke-width:0.264583"
       id="circle709"
       cx="140.48018"
       cy="48.631073"
       r="0.8658458" />
    <circle
       style="fill:#000080;fill-rule:evenodd;stroke-width:0.264583"
       id="circle711"
       cx="171.53192"
       cy="56.860008"
       r="0.8658458" />
    <circle
       style="fill:#000080;fill-rule:evenodd;stroke-width:0.264583"
       id="circle713"
       cx="160.00848"
       cy="52.18866"
       r="0.8658458" />
    <circle
       style="fill:#000080;fill-rule:evenodd;stroke-width:0.264583"
       id="circle715"
       cx="163.85132"
       cy="43.952209"
       r="0.8658458" />
    <circle
       style="fill:#000080;fill-rule:evenodd;stroke-width:0.264583"
       id="circle717"
       cx="94.547104"
       cy="61.098618"
       r="0.8658458" />
    <circle
       style="fill:#000080;fill-rule:evenodd;stroke-width:0.264583"
       id="circle719"
       cx="90.741219"
       cy="70.941422"
       r="0.8658458" />
    <circle
       style="fill:#000080;fill-rule:evenodd;stroke-width:0.264583"
       id="circle721"
       cx="31.815634"
       cy="41.281776"
       r="0.8658458" />
    <circle
       style="fill:#000080;fill-rule:evenodd;stroke-width:0.264583"
       id="circle723"
       cx="34.177906"
       cy="31.963924"
       r="0.8658458" />
    <circle
       style="fill:#000080;fill-rule:evenodd;stroke-width:0.264583"
       id="circle725"
       cx="29.059649"
       cy="30.914024"
       r="0.8658458" />
    <circle
       style="fill:#000080;fill-rule:evenodd;stroke-width:0.264583"
       id="circle729"
       cx="33.915432"
       cy="49.943443"
       r="0.8658458" />
    <circle
       style="fill:#000080;fill-rule:evenodd;stroke-width:0.264583"
       id="circle1582"
       cx="28.610441"
       cy="62.5494"
       r="0.8658458" />
    <circle
       style="fill:#000080;fill-rule:evenodd;stroke-width:0.264583"
       id="circle1584"
       cx="35.880871"
       cy="64.914482"
       r="0.8658458" />
    <circle
       style="fill:#000080;fill-rule:evenodd;stroke-width:0.264583"
       id="circle1586"
       cx="137.37877"
       cy="53.413506"
       r="0.8658458" />
    <circle
       style="fill:#000080;fill-rule:evenodd;stroke-width:0.264583"
       id="circle1588"
       cx="170.29417"
       cy="59.252178"
       r="0.8658458" />
    <circle
       style="fill:#000080;fill-rule:evenodd;stroke-width:0.264583"
       id="circle1590"
       cx="114.00054"
       cy="31.653774"
       r="0.8658458" />
    <circle
       style="fill:#000080;fill-rule:evenodd;stroke-width:0.264583"
       id="circle1592"
       cx="121.37367"
       cy="60.426971"
       r="0.8658458" />
    <g
       id="g20773"
       transform="translate(39.406707,5.0809358)">
      <path
         style="fill:none;stroke:#000000;stroke-width:0.264583px;stroke-linecap:butt;stroke-linejoin:miter;stroke-opacity:1"
         d="M 149.95216,38.385546 H 288.30582"
         id="path20129" />
      <path
         style="fill:none;stroke:#000000;stroke-width:0.264583px;stroke-linecap:butt;stroke-linejoin:miter;stroke-opacity:1"
         d="M 149.94252,45.057066 H 288.29618"
         id="path20129-7" />
      <ellipse
         style="fill:none;fill-rule:evenodd;stroke:#000000;stroke-width:0.236877;stroke-opacity:1"
         id="path20359"
         cx="149.95541"
         cy="41.722012"
         rx="1.5005803"
         ry="3.3316908" />
      <ellipse
         style="fill:none;fill-rule:evenodd;stroke:#000000;stroke-width:0.236877;stroke-opacity:1"
         id="path20359-9"
         cx="288.29916"
         cy="41.719738"
         rx="1.5005803"
         ry="3.3316908" />
    </g>
    <g
       id="g30183"
       transform="matrix(0.99996999,0,0,-1.0646121,-0.05701947,95.545844)">
      <path
         style="fill:none;stroke:#000000;stroke-width:0.267798px;stroke-linecap:butt;stroke-linejoin:miter;stroke-opacity:1"
         d="m 148.98526,70.423783 c -0.11062,6.424684 19.68348,0.276698 19.82202,6.404056"
         id="path29208"
         sodipodi:nodetypes="cc" />
      <path
         style="fill:none;stroke:#000000;stroke-width:0.269032px;stroke-linecap:butt;stroke-linejoin:miter;stroke-opacity:1"
         d="m 188.81913,70.424119 c 0.11161,6.42401 -19.86749,0.276669 -20.00733,6.403384"
         id="path29541-5"
         sodipodi:nodetypes="cc" />
    </g>
    <g
       transform="matrix(1.05987,0,0,1.05987,165.38201,5.5747244)"
       ns7:version="1.5.0"
       ns7:texconverter="pdflatex"
       ns7:pdfconverter="inkscape"
       ns7:text="$L$\n"
       ns7:preamble="default_packages.tex"
       ns7:scale="3.0043524111480138"
       ns7:alignment="middle center"
       ns7:stroke-to-path="0"
       ns7:inkscapeversion="1.1"
       ns7:jacobian_sqrt="1.05987"
       id="g30148">
      <defs
         id="id-dd41d1d9-a692-4a47-a905-ad7549d14fce">
        <g
           id="id-f9a46500-211a-4d42-bd0e-4b940a61826d">
          <symbol
             overflow="visible"
             id="id-9edbad70-645f-488f-aa36-55f8e480c0b5">
            <path
               style="stroke:none;stroke-width:0"
               d=""
               id="id-f322d1b7-c86f-4bf0-b453-a4b0aec6c260" />
          </symbol>
          <symbol
             overflow="visible"
             id="id-d61bb0f9-01ca-49d0-b31b-5ca4bca66e48">
            <path
               style="stroke:none;stroke-width:0"
               d="M 3.734375,-6.03125 C 3.8125,-6.390625 3.84375,-6.5 4.78125,-6.5 c 0.296875,0 0.375,0 0.375,-0.1875 0,-0.125 -0.109375,-0.125 -0.15625,-0.125 -0.328125,0 -1.140625,0.03125 -1.46875,0.03125 -0.296875,0 -1.03125,-0.03125 -1.328125,-0.03125 -0.0625,0 -0.1875,0 -0.1875,0.203125 0,0.109375 0.09375,0.109375 0.28125,0.109375 0.015625,0 0.203125,0 0.375,0.015625 0.171875,0.03125 0.265625,0.03125 0.265625,0.171875 0,0.03125 0,0.0625 -0.03125,0.1875 L 1.5625,-0.78125 c -0.09375,0.390625 -0.109375,0.46875 -0.90625,0.46875 -0.171875,0 -0.265625,0 -0.265625,0.203125 C 0.390625,0 0.484375,0 0.65625,0 h 4.625 C 5.515625,0 5.515625,0 5.578125,-0.171875 L 6.375,-2.328125 c 0.03125,-0.109375 0.03125,-0.125 0.03125,-0.140625 0,-0.03125 -0.03125,-0.109375 -0.109375,-0.109375 -0.09375,0 -0.109375,0.0625 -0.171875,0.21875 -0.34375,0.90625 -0.78125,2.046875 -2.5,2.046875 H 2.6875 c -0.140625,0 -0.171875,0 -0.21875,0 -0.109375,-0.015625 -0.140625,-0.03125 -0.140625,-0.109375 0,-0.03125 0,-0.046875 0.046875,-0.21875 z m 0,0"
               id="id-59bd01bf-f99c-4e1e-b20f-7d2d378509ea" />
          </symbol>
        </g>
      </defs>
      <g
         id="id-65c30c76-56db-4405-9e3a-58ea4ff50591"
         transform="translate(-149.103,-127.953)">
        <g
           style="fill:#000000;fill-opacity:1"
           id="id-a290846c-020c-481d-801b-9d940cb4c3c9">
          <g
             transform="translate(148.712,134.765)"
             id="g30144">
            <path
               style="stroke:none;stroke-width:0"
               d="M 3.734375,-6.03125 C 3.8125,-6.390625 3.84375,-6.5 4.78125,-6.5 c 0.296875,0 0.375,0 0.375,-0.1875 0,-0.125 -0.109375,-0.125 -0.15625,-0.125 -0.328125,0 -1.140625,0.03125 -1.46875,0.03125 -0.296875,0 -1.03125,-0.03125 -1.328125,-0.03125 -0.0625,0 -0.1875,0 -0.1875,0.203125 0,0.109375 0.09375,0.109375 0.28125,0.109375 0.015625,0 0.203125,0 0.375,0.015625 0.171875,0.03125 0.265625,0.03125 0.265625,0.171875 0,0.03125 0,0.0625 -0.03125,0.1875 L 1.5625,-0.78125 c -0.09375,0.390625 -0.109375,0.46875 -0.90625,0.46875 -0.171875,0 -0.265625,0 -0.265625,0.203125 C 0.390625,0 0.484375,0 0.65625,0 h 4.625 C 5.515625,0 5.515625,0 5.578125,-0.171875 L 6.375,-2.328125 c 0.03125,-0.109375 0.03125,-0.125 0.03125,-0.140625 0,-0.03125 -0.03125,-0.109375 -0.109375,-0.109375 -0.09375,0 -0.109375,0.0625 -0.171875,0.21875 -0.34375,0.90625 -0.78125,2.046875 -2.5,2.046875 H 2.6875 c -0.140625,0 -0.171875,0 -0.21875,0 -0.109375,-0.015625 -0.140625,-0.03125 -0.140625,-0.109375 0,-0.03125 0,-0.046875 0.046875,-0.21875 z m 0,0"
               id="id-5e395345-a8b7-49d0-961d-6e7642f3e745" />
          </g>
        </g>
      </g>
    </g>
    <g
       transform="matrix(1.05987,0,0,1.05987,139.10436,77.578478)"
       ns7:version="1.5.0"
       ns7:texconverter="pdflatex"
       ns7:pdfconverter="inkscape"
       ns7:text="$$\nW = \\int F \\,dl\n$$\n"
       ns7:preamble="default_packages.tex"
       ns7:scale="3.0043524111480138"
       ns7:alignment="middle center"
       ns7:stroke-to-path="0"
       ns7:inkscapeversion="1.1"
       ns7:jacobian_sqrt="1.05987"
       id="g30722">
      <defs
         id="id-7215f393-849e-4553-bedd-3de96949264f">
        <g
           id="id-84135fcb-899b-4fd8-980d-89aa063433eb">
          <symbol
             overflow="visible"
             id="id-fb91dbe6-9d13-4db7-9bfe-da65704eac89">
            <path
               style="stroke:none;stroke-width:0"
               d=""
               id="id-3a10bdde-4190-4998-9c85-8ec349d7af2a" />
          </symbol>
          <symbol
             overflow="visible"
             id="id-5e1eb200-c0a7-477d-805e-13f20fc9e9e2">
            <path
               style="stroke:none;stroke-width:0"
               d="m 9.140625,-5.65625 c 0.25,-0.4375 0.484375,-0.796875 1.125,-0.84375 0.07813,-0.015625 0.1875,-0.015625 0.1875,-0.203125 0,-0.03125 -0.04687,-0.109375 -0.125,-0.109375 -0.234375,0 -0.515625,0.03125 -0.765625,0.03125 -0.34375,0 -0.703125,-0.03125 -1.046875,-0.03125 -0.046875,0 -0.1875,0 -0.1875,0.1875 0,0.109375 0.09375,0.125 0.15625,0.125 0.234375,0.015625 0.59375,0.09375 0.59375,0.390625 0,0.109375 -0.0625,0.1875 -0.140625,0.328125 L 6.25,-1.09375 5.875,-6.03125 c 0,-0.203125 -0.015625,-0.453125 0.703125,-0.46875 0.171875,0 0.265625,0 0.265625,-0.203125 0,-0.09375 -0.109375,-0.109375 -0.140625,-0.109375 -0.40625,0 -0.828125,0.03125 -1.21875,0.03125 -0.234375,0 -0.8125,-0.03125 -1.046875,-0.03125 -0.0625,0 -0.1875,0 -0.1875,0.203125 C 4.25,-6.5 4.34375,-6.5 4.484375,-6.5 4.921875,-6.5 5,-6.4375 5.015625,-6.25 l 0.0625,0.765625 -2.53125,4.390625 -0.375,-5.046875 c 0,-0.125 0,-0.34375 0.765625,-0.359375 0.09375,0 0.203125,0 0.203125,-0.203125 C 3.140625,-6.8125 3.015625,-6.8125 3,-6.8125 c -0.390625,0 -0.8125,0.03125 -1.21875,0.03125 -0.359375,0 -0.71875,-0.03125 -1.046875,-0.03125 -0.0625,0 -0.1875,0 -0.1875,0.1875 0,0.125 0.09375,0.125 0.25,0.125 0.5,0 0.515625,0.09375 0.53125,0.375 l 0.453125,6.078125 c 0,0.1875 0.015625,0.265625 0.15625,0.265625 0.109375,0 0.140625,-0.0625 0.234375,-0.203125 l 2.9375,-5.09375 0.359375,5.03125 C 5.5,0.171875 5.515625,0.21875 5.625,0.21875 c 0.140625,0 0.203125,-0.09375 0.25,-0.1875 z m 0,0"
               id="id-2fa9df60-92e4-4f7d-934a-1fa6b205553c" />
          </symbol>
          <symbol
             overflow="visible"
             id="id-f08e6fb3-39ea-46ad-9743-531e2251a42e">
            <path
               style="stroke:none;stroke-width:0"
               d="m 3.015625,-3.234375 h 0.96875 c 0.75,0 0.828125,0.15625 0.828125,0.4375 0,0.078125 0,0.1875 -0.0625,0.5 C 4.71875,-2.25 4.71875,-2.21875 4.71875,-2.1875 c 0,0.078125 0.0625,0.109375 0.109375,0.109375 0.109375,0 0.109375,-0.03125 0.15625,-0.203125 L 5.53125,-4.453125 C 5.5625,-4.5625 5.5625,-4.578125 5.5625,-4.609375 5.5625,-4.625 5.546875,-4.71875 5.4375,-4.71875 5.34375,-4.71875 5.328125,-4.671875 5.296875,-4.5 5.078125,-3.734375 4.859375,-3.546875 4,-3.546875 H 3.09375 l 0.640625,-2.53125 C 3.828125,-6.4375 3.84375,-6.46875 4.28125,-6.46875 h 1.3125 c 1.21875,0 1.453125,0.328125 1.453125,1.09375 0,0.234375 0,0.265625 -0.03125,0.546875 C 7,-4.703125 7,-4.6875 7,-4.65625 c 0,0.046875 0.03125,0.125 0.125,0.125 0.109375,0 0.109375,-0.0625 0.125,-0.25 L 7.453125,-6.515625 C 7.484375,-6.78125 7.4375,-6.78125 7.1875,-6.78125 H 2.296875 c -0.1875,0 -0.296875,0 -0.296875,0.203125 0,0.109375 0.09375,0.109375 0.28125,0.109375 0.375,0 0.65625,0 0.65625,0.171875 0,0.046875 0,0.0625 -0.0625,0.25 L 1.5625,-0.78125 c -0.09375,0.390625 -0.109375,0.46875 -0.90625,0.46875 -0.171875,0 -0.28125,0 -0.28125,0.1875 C 0.375,0 0.5,0 0.53125,0 0.8125,0 1.5625,-0.03125 1.84375,-0.03125 2.171875,-0.03125 3,0 3.328125,0 3.421875,0 3.53125,0 3.53125,-0.1875 3.53125,-0.265625 3.484375,-0.296875 3.484375,-0.296875 3.453125,-0.3125 3.421875,-0.3125 3.203125,-0.3125 c -0.21875,0 -0.265625,0 -0.515625,-0.015625 -0.296875,-0.03125 -0.328125,-0.078125 -0.328125,-0.203125 0,-0.015625 0,-0.078125 0.046875,-0.21875 z m 0,0"
               id="id-4b401e27-3837-401e-9ed4-2897ab77fc87" />
          </symbol>
          <symbol
             overflow="visible"
             id="id-c4ad9210-9502-448b-8053-c9e424f54c71">
            <path
               style="stroke:none;stroke-width:0"
               d="m 5.140625,-6.8125 c 0,0 0,-0.109375 -0.125,-0.109375 -0.15625,0 -1.09375,0.09375 -1.265625,0.109375 -0.078125,0.015625 -0.140625,0.0625 -0.140625,0.1875 0,0.125 0.09375,0.125 0.234375,0.125 0.484375,0 0.5,0.0625 0.5,0.171875 L 4.3125,-6.125 3.71875,-3.765625 C 3.53125,-4.140625 3.25,-4.40625 2.796875,-4.40625 c -1.15625,0 -2.390625,1.46875 -2.390625,2.921875 0,0.9375 0.546875,1.59375 1.3125,1.59375 0.203125,0 0.703125,-0.046875 1.296875,-0.75 0.078125,0.421875 0.4375,0.75 0.90625,0.75 0.359375,0 0.578125,-0.234375 0.75,-0.546875 0.15625,-0.359375 0.296875,-0.96875 0.296875,-0.984375 0,-0.109375 -0.09375,-0.109375 -0.125,-0.109375 -0.09375,0 -0.109375,0.046875 -0.140625,0.1875 -0.171875,0.640625 -0.34375,1.234375 -0.75,1.234375 -0.28125,0 -0.296875,-0.265625 -0.296875,-0.453125 0,-0.25 0.015625,-0.3125 0.046875,-0.484375 z m -2.0625,5.625 C 3.015625,-1 3.015625,-0.984375 2.875,-0.8125 2.4375,-0.265625 2.03125,-0.109375 1.75,-0.109375 c -0.5,0 -0.640625,-0.546875 -0.640625,-0.9375 0,-0.5 0.3125,-1.71875 0.546875,-2.1875 0.3125,-0.578125 0.75,-0.953125 1.15625,-0.953125 0.640625,0 0.78125,0.8125 0.78125,0.875 0,0.0625 -0.015625,0.125 -0.03125,0.171875 z m 0,0"
               id="id-b83f3550-f2a6-4be0-9a8c-f136d2173073" />
          </symbol>
          <symbol
             overflow="visible"
             id="id-47fc6cb3-5af2-44f2-8d4e-adf9cb517c97">
            <path
               style="stroke:none;stroke-width:0"
               d="m 2.578125,-6.8125 c 0,0 0,-0.109375 -0.140625,-0.109375 -0.21875,0 -0.953125,0.078125 -1.21875,0.109375 -0.078125,0 -0.1875,0.015625 -0.1875,0.203125 0,0.109375 0.109375,0.109375 0.25,0.109375 0.484375,0 0.5,0.09375 0.5,0.171875 L 1.75,-6.125 0.484375,-1.140625 C 0.453125,-1.03125 0.4375,-0.96875 0.4375,-0.8125 c 0,0.578125 0.4375,0.921875 0.90625,0.921875 0.328125,0 0.578125,-0.203125 0.75,-0.5625 0.171875,-0.375 0.296875,-0.953125 0.296875,-0.96875 0,-0.109375 -0.09375,-0.109375 -0.125,-0.109375 -0.09375,0 -0.109375,0.046875 -0.125,0.1875 C 1.96875,-0.703125 1.78125,-0.109375 1.375,-0.109375 c -0.296875,0 -0.296875,-0.3125 -0.296875,-0.453125 0,-0.25 0.015625,-0.296875 0.0625,-0.484375 z m 0,0"
               id="id-e8bcbe9d-a923-420f-a985-1168966fda9a" />
          </symbol>
          <symbol
             overflow="visible"
             id="id-4e821192-dbda-4fc9-b76b-67de2c7b2ad3">
            <path
               style="stroke:none;stroke-width:0"
               d=""
               id="id-3e9f5178-81a9-4eac-a97b-f841f14352a3" />
          </symbol>
          <symbol
             overflow="visible"
             id="id-b533a94d-463e-45c5-b866-4c13f71752ad">
            <path
               style="stroke:none;stroke-width:0"
               d="m 6.84375,-3.265625 c 0.15625,0 0.34375,0 0.34375,-0.1875 C 7.1875,-3.65625 7,-3.65625 6.859375,-3.65625 h -5.96875 c -0.140625,0 -0.328125,0 -0.328125,0.203125 0,0.1875 0.1875,0.1875 0.328125,0.1875 z m 0.015625,1.9375 c 0.140625,0 0.328125,0 0.328125,-0.203125 0,-0.1875 -0.1875,-0.1875 -0.34375,-0.1875 H 0.890625 c -0.140625,0 -0.328125,0 -0.328125,0.1875 0,0.203125 0.1875,0.203125 0.328125,0.203125 z m 0,0"
               id="id-cd778776-db56-45aa-ab2d-95d81df710a0" />
          </symbol>
          <symbol
             overflow="visible"
             id="id-4c88eebb-4a3b-4b19-8865-23cfbc353aaf">
            <path
               style="stroke:none;stroke-width:0"
               d=""
               id="id-78bfa817-e4ca-455d-9e77-fd6777cb6917" />
          </symbol>
          <symbol
             overflow="visible"
             id="id-5d8814cb-e195-47f8-9578-7780a046f2f3">
            <path
               style="stroke:none;stroke-width:0"
               d="m 1.03125,21.703125 c 0.328125,-0.01563 0.5,-0.234375 0.5,-0.484375 0,-0.328125 -0.25,-0.5 -0.484375,-0.5 -0.234375,0 -0.484375,0.15625 -0.484375,0.5 0,0.515625 0.5,0.9375 1.109375,0.9375 1.515625,0 2.078125,-2.34375 2.78125,-5.234375 C 5.21875,13.78125 5.875,10.59375 6.40625,7.390625 6.78125,5.28125 7.140625,3.28125 7.484375,2 7.609375,1.5 7.9375,0.21875 8.328125,0.21875 c 0.3125,0 0.5625,0.1875 0.609375,0.234375 -0.328125,0.015625 -0.5,0.234375 -0.5,0.484375 0,0.328125 0.25,0.484375 0.46875,0.484375 0.25,0 0.5,-0.140625 0.5,-0.5 C 9.40625,0.390625 8.859375,0 8.3125,0 7.5625,0 7,1.09375 6.453125,3.125 6.421875,3.234375 5.0625,8.234375 3.96875,14.75 3.703125,16.28125 3.421875,17.9375 3.09375,19.328125 2.90625,20.0625 2.453125,21.9375 1.640625,21.9375 c -0.359375,0 -0.59375,-0.234375 -0.609375,-0.234375 z m 0,0"
               id="id-50395a6b-4020-4009-8c21-359a063c557b" />
          </symbol>
        </g>
      </defs>
      <g
         transform="matrix(1.05987 0 0 1.05987 178.76 51.5088)"
         ns7:version="1.5.0"
         ns7:texconverter="pdflatex"
         ns7:pdfconverter="inkscape"
         ns7:text="$$\nW = \\int F \\, dL\n$$\n"
         ns7:preamble="default_packages.tex"
         ns7:scale="3.0043524111480138"
         ns7:alignment="middle center"
         ns7:stroke-to-path="0"
         ns7:inkscapeversion="1.1"
         ns7:jacobian_sqrt="1.05987"
         id="g32021">
        <defs
           id="id-6753a773-89da-4bb4-b053-794353a27a57">
          <g
             id="id-824bed25-6061-40bd-ae9e-9c09e9bbf034">
            <symbol
               overflow="visible"
               id="id-b8ba6b32-3b61-4af6-902e-d76dd52601d7">
              <path
                 style="stroke:none;stroke-width:0"
                 d=""
                 id="id-24e14acd-7492-4793-bc97-deb2696bf250" />
            </symbol>
            <symbol
               overflow="visible"
               id="id-3c6d8f68-83bb-49ba-ad9b-07d3c9349f7b">
              <path
                 style="stroke:none;stroke-width:0"
                 d="m 9.140625,-5.65625 c 0.25,-0.4375 0.484375,-0.796875 1.125,-0.84375 0.07813,-0.015625 0.1875,-0.015625 0.1875,-0.203125 0,-0.03125 -0.04687,-0.109375 -0.125,-0.109375 -0.234375,0 -0.515625,0.03125 -0.765625,0.03125 -0.34375,0 -0.703125,-0.03125 -1.046875,-0.03125 -0.046875,0 -0.1875,0 -0.1875,0.1875 0,0.109375 0.09375,0.125 0.15625,0.125 0.234375,0.015625 0.59375,0.09375 0.59375,0.390625 0,0.109375 -0.0625,0.1875 -0.140625,0.328125 L 6.25,-1.09375 5.875,-6.03125 c 0,-0.203125 -0.015625,-0.453125 0.703125,-0.46875 0.171875,0 0.265625,0 0.265625,-0.203125 0,-0.09375 -0.109375,-0.109375 -0.140625,-0.109375 -0.40625,0 -0.828125,0.03125 -1.21875,0.03125 -0.234375,0 -0.8125,-0.03125 -1.046875,-0.03125 -0.0625,0 -0.1875,0 -0.1875,0.203125 C 4.25,-6.5 4.34375,-6.5 4.484375,-6.5 4.921875,-6.5 5,-6.4375 5.015625,-6.25 l 0.0625,0.765625 -2.53125,4.390625 -0.375,-5.046875 c 0,-0.125 0,-0.34375 0.765625,-0.359375 0.09375,0 0.203125,0 0.203125,-0.203125 C 3.140625,-6.8125 3.015625,-6.8125 3,-6.8125 c -0.390625,0 -0.8125,0.03125 -1.21875,0.03125 -0.359375,0 -0.71875,-0.03125 -1.046875,-0.03125 -0.0625,0 -0.1875,0 -0.1875,0.1875 0,0.125 0.09375,0.125 0.25,0.125 0.5,0 0.515625,0.09375 0.53125,0.375 l 0.453125,6.078125 c 0,0.1875 0.015625,0.265625 0.15625,0.265625 0.109375,0 0.140625,-0.0625 0.234375,-0.203125 l 2.9375,-5.09375 0.359375,5.03125 C 5.5,0.171875 5.515625,0.21875 5.625,0.21875 c 0.140625,0 0.203125,-0.09375 0.25,-0.1875 z m 0,0"
                 id="id-f5b3f666-e248-4175-9bbb-f578cf9ed9f9" />
            </symbol>
            <symbol
               overflow="visible"
               id="id-c6a0203c-d385-48c5-8200-e2480a69d8fb">
              <path
                 style="stroke:none;stroke-width:0"
                 d="m 3.015625,-3.234375 h 0.96875 c 0.75,0 0.828125,0.15625 0.828125,0.4375 0,0.078125 0,0.1875 -0.0625,0.5 C 4.71875,-2.25 4.71875,-2.21875 4.71875,-2.1875 c 0,0.078125 0.0625,0.109375 0.109375,0.109375 0.109375,0 0.109375,-0.03125 0.15625,-0.203125 L 5.53125,-4.453125 C 5.5625,-4.5625 5.5625,-4.578125 5.5625,-4.609375 5.5625,-4.625 5.546875,-4.71875 5.4375,-4.71875 5.34375,-4.71875 5.328125,-4.671875 5.296875,-4.5 5.078125,-3.734375 4.859375,-3.546875 4,-3.546875 H 3.09375 l 0.640625,-2.53125 C 3.828125,-6.4375 3.84375,-6.46875 4.28125,-6.46875 h 1.3125 c 1.21875,0 1.453125,0.328125 1.453125,1.09375 0,0.234375 0,0.265625 -0.03125,0.546875 C 7,-4.703125 7,-4.6875 7,-4.65625 c 0,0.046875 0.03125,0.125 0.125,0.125 0.109375,0 0.109375,-0.0625 0.125,-0.25 L 7.453125,-6.515625 C 7.484375,-6.78125 7.4375,-6.78125 7.1875,-6.78125 H 2.296875 c -0.1875,0 -0.296875,0 -0.296875,0.203125 0,0.109375 0.09375,0.109375 0.28125,0.109375 0.375,0 0.65625,0 0.65625,0.171875 0,0.046875 0,0.0625 -0.0625,0.25 L 1.5625,-0.78125 c -0.09375,0.390625 -0.109375,0.46875 -0.90625,0.46875 -0.171875,0 -0.28125,0 -0.28125,0.1875 C 0.375,0 0.5,0 0.53125,0 0.8125,0 1.5625,-0.03125 1.84375,-0.03125 2.171875,-0.03125 3,0 3.328125,0 3.421875,0 3.53125,0 3.53125,-0.1875 3.53125,-0.265625 3.484375,-0.296875 3.484375,-0.296875 3.453125,-0.3125 3.421875,-0.3125 3.203125,-0.3125 c -0.21875,0 -0.265625,0 -0.515625,-0.015625 -0.296875,-0.03125 -0.328125,-0.078125 -0.328125,-0.203125 0,-0.015625 0,-0.078125 0.046875,-0.21875 z m 0,0"
                 id="id-3f034eb0-9958-4b27-a2f4-85878c3f2daa" />
            </symbol>
            <symbol
               overflow="visible"
               id="id-b9102771-90f7-4a3b-becc-5ff64dc4cdd4">
              <path
                 style="stroke:none;stroke-width:0"
                 d="m 5.140625,-6.8125 c 0,0 0,-0.109375 -0.125,-0.109375 -0.15625,0 -1.09375,0.09375 -1.265625,0.109375 -0.078125,0.015625 -0.140625,0.0625 -0.140625,0.1875 0,0.125 0.09375,0.125 0.234375,0.125 0.484375,0 0.5,0.0625 0.5,0.171875 L 4.3125,-6.125 3.71875,-3.765625 C 3.53125,-4.140625 3.25,-4.40625 2.796875,-4.40625 c -1.15625,0 -2.390625,1.46875 -2.390625,2.921875 0,0.9375 0.546875,1.59375 1.3125,1.59375 0.203125,0 0.703125,-0.046875 1.296875,-0.75 0.078125,0.421875 0.4375,0.75 0.90625,0.75 0.359375,0 0.578125,-0.234375 0.75,-0.546875 0.15625,-0.359375 0.296875,-0.96875 0.296875,-0.984375 0,-0.109375 -0.09375,-0.109375 -0.125,-0.109375 -0.09375,0 -0.109375,0.046875 -0.140625,0.1875 -0.171875,0.640625 -0.34375,1.234375 -0.75,1.234375 -0.28125,0 -0.296875,-0.265625 -0.296875,-0.453125 0,-0.25 0.015625,-0.3125 0.046875,-0.484375 z m -2.0625,5.625 C 3.015625,-1 3.015625,-0.984375 2.875,-0.8125 2.4375,-0.265625 2.03125,-0.109375 1.75,-0.109375 c -0.5,0 -0.640625,-0.546875 -0.640625,-0.9375 0,-0.5 0.3125,-1.71875 0.546875,-2.1875 0.3125,-0.578125 0.75,-0.953125 1.15625,-0.953125 0.640625,0 0.78125,0.8125 0.78125,0.875 0,0.0625 -0.015625,0.125 -0.03125,0.171875 z m 0,0"
                 id="id-ff98ec78-62f3-4ef2-839f-ac9ea82b6a8f" />
            </symbol>
            <symbol
               overflow="visible"
               id="id-b1bfe5fd-07e2-4ec5-a30a-211d287bab79">
              <path
                 style="stroke:none;stroke-width:0"
                 d="M 3.734375,-6.03125 C 3.8125,-6.390625 3.84375,-6.5 4.78125,-6.5 c 0.296875,0 0.375,0 0.375,-0.1875 0,-0.125 -0.109375,-0.125 -0.15625,-0.125 -0.328125,0 -1.140625,0.03125 -1.46875,0.03125 -0.296875,0 -1.03125,-0.03125 -1.328125,-0.03125 -0.0625,0 -0.1875,0 -0.1875,0.203125 0,0.109375 0.09375,0.109375 0.28125,0.109375 0.015625,0 0.203125,0 0.375,0.015625 0.171875,0.03125 0.265625,0.03125 0.265625,0.171875 0,0.03125 0,0.0625 -0.03125,0.1875 L 1.5625,-0.78125 c -0.09375,0.390625 -0.109375,0.46875 -0.90625,0.46875 -0.171875,0 -0.265625,0 -0.265625,0.203125 C 0.390625,0 0.484375,0 0.65625,0 h 4.625 C 5.515625,0 5.515625,0 5.578125,-0.171875 L 6.375,-2.328125 c 0.03125,-0.109375 0.03125,-0.125 0.03125,-0.140625 0,-0.03125 -0.03125,-0.109375 -0.109375,-0.109375 -0.09375,0 -0.109375,0.0625 -0.171875,0.21875 -0.34375,0.90625 -0.78125,2.046875 -2.5,2.046875 H 2.6875 c -0.140625,0 -0.171875,0 -0.21875,0 -0.109375,-0.015625 -0.140625,-0.03125 -0.140625,-0.109375 0,-0.03125 0,-0.046875 0.046875,-0.21875 z m 0,0"
                 id="id-6938bc67-6d35-4abc-a3ad-c3422902d7f2" />
            </symbol>
            <symbol
               overflow="visible"
               id="id-86747408-3bf6-4a59-9eed-72cd5300cdbc">
              <path
                 style="stroke:none;stroke-width:0"
                 d=""
                 id="id-b94d4549-0376-4617-8e8a-a80311b70923" />
            </symbol>
            <symbol
               overflow="visible"
               id="id-fe411ecf-c379-4fcb-a25c-51e49d9b041b">
              <path
                 style="stroke:none;stroke-width:0"
                 d="m 6.84375,-3.265625 c 0.15625,0 0.34375,0 0.34375,-0.1875 C 7.1875,-3.65625 7,-3.65625 6.859375,-3.65625 h -5.96875 c -0.140625,0 -0.328125,0 -0.328125,0.203125 0,0.1875 0.1875,0.1875 0.328125,0.1875 z m 0.015625,1.9375 c 0.140625,0 0.328125,0 0.328125,-0.203125 0,-0.1875 -0.1875,-0.1875 -0.34375,-0.1875 H 0.890625 c -0.140625,0 -0.328125,0 -0.328125,0.1875 0,0.203125 0.1875,0.203125 0.328125,0.203125 z m 0,0"
                 id="id-3f5e97ea-ab88-4dc9-8131-9cd321783058" />
            </symbol>
            <symbol
               overflow="visible"
               id="id-b5083c6f-4e73-4ad2-91a1-f12edb251f42">
              <path
                 style="stroke:none;stroke-width:0"
                 d=""
                 id="id-825aba92-5059-48cc-9b17-e6e812a2f7fb" />
            </symbol>
            <symbol
               overflow="visible"
               id="id-f768880d-868a-4a41-813f-fa636161ba6a">
              <path
                 style="stroke:none;stroke-width:0"
                 d="m 1.03125,21.703125 c 0.328125,-0.01563 0.5,-0.234375 0.5,-0.484375 0,-0.328125 -0.25,-0.5 -0.484375,-0.5 -0.234375,0 -0.484375,0.15625 -0.484375,0.5 0,0.515625 0.5,0.9375 1.109375,0.9375 1.515625,0 2.078125,-2.34375 2.78125,-5.234375 C 5.21875,13.78125 5.875,10.59375 6.40625,7.390625 6.78125,5.28125 7.140625,3.28125 7.484375,2 7.609375,1.5 7.9375,0.21875 8.328125,0.21875 c 0.3125,0 0.5625,0.1875 0.609375,0.234375 -0.328125,0.015625 -0.5,0.234375 -0.5,0.484375 0,0.328125 0.25,0.484375 0.46875,0.484375 0.25,0 0.5,-0.140625 0.5,-0.5 C 9.40625,0.390625 8.859375,0 8.3125,0 7.5625,0 7,1.09375 6.453125,3.125 6.421875,3.234375 5.0625,8.234375 3.96875,14.75 3.703125,16.28125 3.421875,17.9375 3.09375,19.328125 2.90625,20.0625 2.453125,21.9375 1.640625,21.9375 c -0.359375,0 -0.59375,-0.234375 -0.609375,-0.234375 z m 0,0"
                 id="id-50c05f69-ebde-4337-9908-c64588e3a9d3" />
            </symbol>
          </g>
        </defs>
        <g
           id="id-1315e44c-8ec6-41a2-919d-c04bc5bc77df"
           transform="translate(-277.613, -135.761)">
          <g
             style="fill:#000000;fill-opacity:1"
             id="id-70a5f46e-9c43-4576-9960-c443ea1e5fe6">
            <g
               transform="translate(277.066, 149.321)"
               id="g31998">
              <path
                 style="stroke:none;stroke-width:0"
                 d="m 9.140625,-5.65625 c 0.25,-0.4375 0.484375,-0.796875 1.125,-0.84375 0.07813,-0.015625 0.1875,-0.015625 0.1875,-0.203125 0,-0.03125 -0.04687,-0.109375 -0.125,-0.109375 -0.234375,0 -0.515625,0.03125 -0.765625,0.03125 -0.34375,0 -0.703125,-0.03125 -1.046875,-0.03125 -0.046875,0 -0.1875,0 -0.1875,0.1875 0,0.109375 0.09375,0.125 0.15625,0.125 0.234375,0.015625 0.59375,0.09375 0.59375,0.390625 0,0.109375 -0.0625,0.1875 -0.140625,0.328125 L 6.25,-1.09375 5.875,-6.03125 c 0,-0.203125 -0.015625,-0.453125 0.703125,-0.46875 0.171875,0 0.265625,0 0.265625,-0.203125 0,-0.09375 -0.109375,-0.109375 -0.140625,-0.109375 -0.40625,0 -0.828125,0.03125 -1.21875,0.03125 -0.234375,0 -0.8125,-0.03125 -1.046875,-0.03125 -0.0625,0 -0.1875,0 -0.1875,0.203125 C 4.25,-6.5 4.34375,-6.5 4.484375,-6.5 4.921875,-6.5 5,-6.4375 5.015625,-6.25 l 0.0625,0.765625 -2.53125,4.390625 -0.375,-5.046875 c 0,-0.125 0,-0.34375 0.765625,-0.359375 0.09375,0 0.203125,0 0.203125,-0.203125 C 3.140625,-6.8125 3.015625,-6.8125 3,-6.8125 c -0.390625,0 -0.8125,0.03125 -1.21875,0.03125 -0.359375,0 -0.71875,-0.03125 -1.046875,-0.03125 -0.0625,0 -0.1875,0 -0.1875,0.1875 0,0.125 0.09375,0.125 0.25,0.125 0.5,0 0.515625,0.09375 0.53125,0.375 l 0.453125,6.078125 c 0,0.1875 0.015625,0.265625 0.15625,0.265625 0.109375,0 0.140625,-0.0625 0.234375,-0.203125 l 2.9375,-5.09375 0.359375,5.03125 C 5.5,0.171875 5.515625,0.21875 5.625,0.21875 c 0.140625,0 0.203125,-0.09375 0.25,-0.1875 z m 0,0"
                 id="id-1080379f-4aaf-4139-b50b-84a34d19fd0a" />
            </g>
          </g>
          <g
             style="fill:#000000;fill-opacity:1"
             id="id-f17c64f4-8938-477a-b991-f4459add8c95">
            <g
               transform="translate(290.626, 149.321)"
               id="g32002">
              <path
                 style="stroke:none;stroke-width:0"
                 d="m 6.84375,-3.265625 c 0.15625,0 0.34375,0 0.34375,-0.1875 C 7.1875,-3.65625 7,-3.65625 6.859375,-3.65625 h -5.96875 c -0.140625,0 -0.328125,0 -0.328125,0.203125 0,0.1875 0.1875,0.1875 0.328125,0.1875 z m 0.015625,1.9375 c 0.140625,0 0.328125,0 0.328125,-0.203125 0,-0.1875 -0.1875,-0.1875 -0.34375,-0.1875 H 0.890625 c -0.140625,0 -0.328125,0 -0.328125,0.1875 0,0.203125 0.1875,0.203125 0.328125,0.203125 z m 0,0"
                 id="id-685ebb5c-7aef-477a-8543-8e90d74ecfaf" />
            </g>
          </g>
          <g
             style="fill:#000000;fill-opacity:1"
             id="id-d047eb11-d4ea-4a33-aa35-decd325423cd">
            <g
               transform="translate(301.142, 135.761)"
               id="g32006">
              <path
                 style="stroke:none;stroke-width:0"
                 d="m 1.03125,21.703125 c 0.328125,-0.01563 0.5,-0.234375 0.5,-0.484375 0,-0.328125 -0.25,-0.5 -0.484375,-0.5 -0.234375,0 -0.484375,0.15625 -0.484375,0.5 0,0.515625 0.5,0.9375 1.109375,0.9375 1.515625,0 2.078125,-2.34375 2.78125,-5.234375 C 5.21875,13.78125 5.875,10.59375 6.40625,7.390625 6.78125,5.28125 7.140625,3.28125 7.484375,2 7.609375,1.5 7.9375,0.21875 8.328125,0.21875 c 0.3125,0 0.5625,0.1875 0.609375,0.234375 -0.328125,0.015625 -0.5,0.234375 -0.5,0.484375 0,0.328125 0.25,0.484375 0.46875,0.484375 0.25,0 0.5,-0.140625 0.5,-0.5 C 9.40625,0.390625 8.859375,0 8.3125,0 7.5625,0 7,1.09375 6.453125,3.125 6.421875,3.234375 5.0625,8.234375 3.96875,14.75 3.703125,16.28125 3.421875,17.9375 3.09375,19.328125 2.90625,20.0625 2.453125,21.9375 1.640625,21.9375 c -0.359375,0 -0.59375,-0.234375 -0.609375,-0.234375 z m 0,0"
                 id="id-953123e7-786d-4786-bee5-66cc36ad4ae0" />
            </g>
          </g>
          <g
             style="fill:#000000;fill-opacity:1"
             id="id-f37dfe04-c80c-47e4-b36e-af9c8a419985">
            <g
               transform="translate(312.765, 149.321)"
               id="g32010">
              <path
                 style="stroke:none;stroke-width:0"
                 d="m 3.015625,-3.234375 h 0.96875 c 0.75,0 0.828125,0.15625 0.828125,0.4375 0,0.078125 0,0.1875 -0.0625,0.5 C 4.71875,-2.25 4.71875,-2.21875 4.71875,-2.1875 c 0,0.078125 0.0625,0.109375 0.109375,0.109375 0.109375,0 0.109375,-0.03125 0.15625,-0.203125 L 5.53125,-4.453125 C 5.5625,-4.5625 5.5625,-4.578125 5.5625,-4.609375 5.5625,-4.625 5.546875,-4.71875 5.4375,-4.71875 5.34375,-4.71875 5.328125,-4.671875 5.296875,-4.5 5.078125,-3.734375 4.859375,-3.546875 4,-3.546875 H 3.09375 l 0.640625,-2.53125 C 3.828125,-6.4375 3.84375,-6.46875 4.28125,-6.46875 h 1.3125 c 1.21875,0 1.453125,0.328125 1.453125,1.09375 0,0.234375 0,0.265625 -0.03125,0.546875 C 7,-4.703125 7,-4.6875 7,-4.65625 c 0,0.046875 0.03125,0.125 0.125,0.125 0.109375,0 0.109375,-0.0625 0.125,-0.25 L 7.453125,-6.515625 C 7.484375,-6.78125 7.4375,-6.78125 7.1875,-6.78125 H 2.296875 c -0.1875,0 -0.296875,0 -0.296875,0.203125 0,0.109375 0.09375,0.109375 0.28125,0.109375 0.375,0 0.65625,0 0.65625,0.171875 0,0.046875 0,0.0625 -0.0625,0.25 L 1.5625,-0.78125 c -0.09375,0.390625 -0.109375,0.46875 -0.90625,0.46875 -0.171875,0 -0.28125,0 -0.28125,0.1875 C 0.375,0 0.5,0 0.53125,0 0.8125,0 1.5625,-0.03125 1.84375,-0.03125 2.171875,-0.03125 3,0 3.328125,0 3.421875,0 3.53125,0 3.53125,-0.1875 3.53125,-0.265625 3.484375,-0.296875 3.484375,-0.296875 3.453125,-0.3125 3.421875,-0.3125 3.203125,-0.3125 c -0.21875,0 -0.265625,0 -0.515625,-0.015625 -0.296875,-0.03125 -0.328125,-0.078125 -0.328125,-0.203125 0,-0.015625 0,-0.078125 0.046875,-0.21875 z m 0,0"
                 id="id-1da3f123-c1b2-4e31-927b-048db0a313e8" />
            </g>
          </g>
          <g
             style="fill:#000000;fill-opacity:1"
             id="id-735868a3-ffed-4928-9406-8b4c34a3aaa2">
            <g
               transform="translate(322.22, 149.321)"
               id="g32014">
              <path
                 style="stroke:none;stroke-width:0"
                 d="m 5.140625,-6.8125 c 0,0 0,-0.109375 -0.125,-0.109375 -0.15625,0 -1.09375,0.09375 -1.265625,0.109375 -0.078125,0.015625 -0.140625,0.0625 -0.140625,0.1875 0,0.125 0.09375,0.125 0.234375,0.125 0.484375,0 0.5,0.0625 0.5,0.171875 L 4.3125,-6.125 3.71875,-3.765625 C 3.53125,-4.140625 3.25,-4.40625 2.796875,-4.40625 c -1.15625,0 -2.390625,1.46875 -2.390625,2.921875 0,0.9375 0.546875,1.59375 1.3125,1.59375 0.203125,0 0.703125,-0.046875 1.296875,-0.75 0.078125,0.421875 0.4375,0.75 0.90625,0.75 0.359375,0 0.578125,-0.234375 0.75,-0.546875 0.15625,-0.359375 0.296875,-0.96875 0.296875,-0.984375 0,-0.109375 -0.09375,-0.109375 -0.125,-0.109375 -0.09375,0 -0.109375,0.046875 -0.140625,0.1875 -0.171875,0.640625 -0.34375,1.234375 -0.75,1.234375 -0.28125,0 -0.296875,-0.265625 -0.296875,-0.453125 0,-0.25 0.015625,-0.3125 0.046875,-0.484375 z m -2.0625,5.625 C 3.015625,-1 3.015625,-0.984375 2.875,-0.8125 2.4375,-0.265625 2.03125,-0.109375 1.75,-0.109375 c -0.5,0 -0.640625,-0.546875 -0.640625,-0.9375 0,-0.5 0.3125,-1.71875 0.546875,-2.1875 0.3125,-0.578125 0.75,-0.953125 1.15625,-0.953125 0.640625,0 0.78125,0.8125 0.78125,0.875 0,0.0625 -0.015625,0.125 -0.03125,0.171875 z m 0,0"
                 id="id-5c0b3080-a37f-4e38-9a74-d01f076bb908" />
            </g>
            <g
               transform="translate(327.406, 149.321)"
               id="g32017">
              <path
                 style="stroke:none;stroke-width:0"
                 d="M 3.734375,-6.03125 C 3.8125,-6.390625 3.84375,-6.5 4.78125,-6.5 c 0.296875,0 0.375,0 0.375,-0.1875 0,-0.125 -0.109375,-0.125 -0.15625,-0.125 -0.328125,0 -1.140625,0.03125 -1.46875,0.03125 -0.296875,0 -1.03125,-0.03125 -1.328125,-0.03125 -0.0625,0 -0.1875,0 -0.1875,0.203125 0,0.109375 0.09375,0.109375 0.28125,0.109375 0.015625,0 0.203125,0 0.375,0.015625 0.171875,0.03125 0.265625,0.03125 0.265625,0.171875 0,0.03125 0,0.0625 -0.03125,0.1875 L 1.5625,-0.78125 c -0.09375,0.390625 -0.109375,0.46875 -0.90625,0.46875 -0.171875,0 -0.265625,0 -0.265625,0.203125 C 0.390625,0 0.484375,0 0.65625,0 h 4.625 C 5.515625,0 5.515625,0 5.578125,-0.171875 L 6.375,-2.328125 c 0.03125,-0.109375 0.03125,-0.125 0.03125,-0.140625 0,-0.03125 -0.03125,-0.109375 -0.109375,-0.109375 -0.09375,0 -0.109375,0.0625 -0.171875,0.21875 -0.34375,0.90625 -0.78125,2.046875 -2.5,2.046875 H 2.6875 c -0.140625,0 -0.171875,0 -0.21875,0 -0.109375,-0.015625 -0.140625,-0.03125 -0.140625,-0.109375 0,-0.03125 0,-0.046875 0.046875,-0.21875 z m 0,0"
                 id="id-8995952f-66c2-450b-94ff-7c6e53e6288b" />
            </g>
          </g>
        </g>
      </g>
    </g>
    <g
       id="g27688"
       style="stroke:#000000;stroke-width:0.7;stroke-miterlimit:4;stroke-dasharray:none;stroke-opacity:1"
       transform="translate(114.8802,4.4648562)">
      <g
         id="g27686"
         transform="translate(-19.19945,17.120034)"
         style="stroke:#000000;stroke-width:0.7;stroke-miterlimit:4;stroke-dasharray:none;stroke-opacity:1">
        <path
           style="fill:none;stroke:#000000;stroke-width:0.7;stroke-linecap:round;stroke-linejoin:miter;stroke-miterlimit:4;stroke-dasharray:none;stroke-opacity:1"
           d="m 135.76479,25.051434 6.89986,0.02255"
           id="path27680" />
        <path
           style="fill:none;stroke:#000000;stroke-width:0.7;stroke-linecap:round;stroke-linejoin:miter;stroke-miterlimit:4;stroke-dasharray:none;stroke-opacity:1"
           d="m 142.66465,25.073984 -1.93918,-1.73624"
           id="path27682" />
        <path
           style="fill:none;stroke:#000000;stroke-width:0.7;stroke-linecap:round;stroke-linejoin:miter;stroke-miterlimit:4;stroke-dasharray:none;stroke-opacity:1"
           d="m 142.66465,25.073984 -1.84899,1.871526"
           id="path27684" />
      </g>
    </g>
    <g
       transform="matrix(1.05987,0,0,1.05987,230.12034,51.82042)"
       ns7:version="1.5.0"
       ns7:texconverter="pdflatex"
       ns7:pdfconverter="inkscape"
       ns7:text="$F$\n"
       ns7:preamble="default_packages.tex"
       ns7:scale="3.0043524111480138"
       ns7:alignment="middle center"
       ns7:stroke-to-path="0"
       ns7:inkscapeversion="1.1"
       ns7:jacobian_sqrt="1.05987"
       id="g27607">
      <defs
         id="id-ed8df0c2-37bc-486a-8516-05e46fc9d7fa">
        <g
           id="g31268">
          <symbol
             overflow="visible"
             id="symbol31262">
            <path
               style="stroke:none;stroke-width:0"
               d=""
               id="path31260" />
          </symbol>
          <symbol
             overflow="visible"
             id="symbol31266">
            <path
               style="stroke:none;stroke-width:0"
               d="m 3.015625,-3.234375 h 0.96875 c 0.75,0 0.828125,0.15625 0.828125,0.4375 0,0.078125 0,0.1875 -0.0625,0.5 C 4.71875,-2.25 4.71875,-2.21875 4.71875,-2.1875 c 0,0.078125 0.0625,0.109375 0.109375,0.109375 0.109375,0 0.109375,-0.03125 0.15625,-0.203125 L 5.53125,-4.453125 C 5.5625,-4.5625 5.5625,-4.578125 5.5625,-4.609375 5.5625,-4.625 5.546875,-4.71875 5.4375,-4.71875 5.34375,-4.71875 5.328125,-4.671875 5.296875,-4.5 5.078125,-3.734375 4.859375,-3.546875 4,-3.546875 H 3.09375 l 0.640625,-2.53125 C 3.828125,-6.4375 3.84375,-6.46875 4.28125,-6.46875 h 1.3125 c 1.21875,0 1.453125,0.328125 1.453125,1.09375 0,0.234375 0,0.265625 -0.03125,0.546875 C 7,-4.703125 7,-4.6875 7,-4.65625 c 0,0.046875 0.03125,0.125 0.125,0.125 0.109375,0 0.109375,-0.0625 0.125,-0.25 L 7.453125,-6.515625 C 7.484375,-6.78125 7.4375,-6.78125 7.1875,-6.78125 H 2.296875 c -0.1875,0 -0.296875,0 -0.296875,0.203125 0,0.109375 0.09375,0.109375 0.28125,0.109375 0.375,0 0.65625,0 0.65625,0.171875 0,0.046875 0,0.0625 -0.0625,0.25 L 1.5625,-0.78125 c -0.09375,0.390625 -0.109375,0.46875 -0.90625,0.46875 -0.171875,0 -0.28125,0 -0.28125,0.1875 C 0.375,0 0.5,0 0.53125,0 0.8125,0 1.5625,-0.03125 1.84375,-0.03125 2.171875,-0.03125 3,0 3.328125,0 3.421875,0 3.53125,0 3.53125,-0.1875 3.53125,-0.265625 3.484375,-0.296875 3.484375,-0.296875 3.453125,-0.3125 3.421875,-0.3125 3.203125,-0.3125 c -0.21875,0 -0.265625,0 -0.515625,-0.015625 -0.296875,-0.03125 -0.328125,-0.078125 -0.328125,-0.203125 0,-0.015625 0,-0.078125 0.046875,-0.21875 z m 0,0"
               id="path31264" />
          </symbol>
        </g>
      </defs>
      <g
         id="id-1372d8bb-985c-4d5d-9ff1-6e975d204499"
         transform="translate(-149.087,-127.984)">
        <g
           style="fill:#000000;fill-opacity:1"
           id="id-fb8f47c7-2bb8-4891-bb4f-061e6c6395fc">
          <g
             transform="translate(148.712,134.765)"
             id="g27603">
            <path
               style="stroke:none;stroke-width:0"
               d="m 3.015625,-3.234375 h 0.96875 c 0.75,0 0.828125,0.15625 0.828125,0.4375 0,0.078125 0,0.1875 -0.0625,0.5 C 4.71875,-2.25 4.71875,-2.21875 4.71875,-2.1875 c 0,0.078125 0.0625,0.109375 0.109375,0.109375 0.109375,0 0.109375,-0.03125 0.15625,-0.203125 L 5.53125,-4.453125 C 5.5625,-4.5625 5.5625,-4.578125 5.5625,-4.609375 5.5625,-4.625 5.546875,-4.71875 5.4375,-4.71875 5.34375,-4.71875 5.328125,-4.671875 5.296875,-4.5 5.078125,-3.734375 4.859375,-3.546875 4,-3.546875 H 3.09375 l 0.640625,-2.53125 C 3.828125,-6.4375 3.84375,-6.46875 4.28125,-6.46875 h 1.3125 c 1.21875,0 1.453125,0.328125 1.453125,1.09375 0,0.234375 0,0.265625 -0.03125,0.546875 C 7,-4.703125 7,-4.6875 7,-4.65625 c 0,0.046875 0.03125,0.125 0.125,0.125 0.109375,0 0.109375,-0.0625 0.125,-0.25 L 7.453125,-6.515625 C 7.484375,-6.78125 7.4375,-6.78125 7.1875,-6.78125 H 2.296875 c -0.1875,0 -0.296875,0 -0.296875,0.203125 0,0.109375 0.09375,0.109375 0.28125,0.109375 0.375,0 0.65625,0 0.65625,0.171875 0,0.046875 0,0.0625 -0.0625,0.25 L 1.5625,-0.78125 c -0.09375,0.390625 -0.109375,0.46875 -0.90625,0.46875 -0.171875,0 -0.28125,0 -0.28125,0.1875 C 0.375,0 0.5,0 0.53125,0 0.8125,0 1.5625,-0.03125 1.84375,-0.03125 2.171875,-0.03125 3,0 3.328125,0 3.421875,0 3.53125,0 3.53125,-0.1875 3.53125,-0.265625 3.484375,-0.296875 3.484375,-0.296875 3.453125,-0.3125 3.421875,-0.3125 3.203125,-0.3125 c -0.21875,0 -0.265625,0 -0.515625,-0.015625 -0.296875,-0.03125 -0.328125,-0.078125 -0.328125,-0.203125 0,-0.015625 0,-0.078125 0.046875,-0.21875 z m 0,0"
               id="id-b2b3c9ca-3de6-4b94-8eb7-dab4a9b0bf1f" />
          </g>
        </g>
      </g>
    </g>
    <g
       transform="matrix(1.05987,0,0,1.05987,139.16813,77.216269)"
       ns7:version="1.5.0"
       ns7:texconverter="pdflatex"
       ns7:pdfconverter="inkscape"
       ns7:text="$$\nW = \\int F \\, dL\n$$\n"
       ns7:preamble="default_packages.tex"
       ns7:scale="3.0043524111480138"
       ns7:alignment="middle center"
       ns7:stroke-to-path="0"
       ns7:inkscapeversion="1.1"
       ns7:jacobian_sqrt="1.05987"
       id="g32617">
      <defs
         id="id-ccad08c6-507a-4815-80ec-6494b9eb8f90">
        <g
           id="id-c5c7a8b9-9a70-41c4-aa86-444dd32a633c">
          <symbol
             overflow="visible"
             id="id-f2e31991-9821-4333-8da0-22401bc7e36b">
            <path
               style="stroke:none;stroke-width:0"
               d=""
               id="id-d5592dff-9aeb-4982-9268-9ba9cabcb989" />
          </symbol>
          <symbol
             overflow="visible"
             id="id-b45f856c-9464-4584-8a22-fcd70ec551e3">
            <path
               style="stroke:none;stroke-width:0"
               d="m 9.140625,-5.65625 c 0.25,-0.4375 0.484375,-0.796875 1.125,-0.84375 0.07813,-0.015625 0.1875,-0.015625 0.1875,-0.203125 0,-0.03125 -0.04687,-0.109375 -0.125,-0.109375 -0.234375,0 -0.515625,0.03125 -0.765625,0.03125 -0.34375,0 -0.703125,-0.03125 -1.046875,-0.03125 -0.046875,0 -0.1875,0 -0.1875,0.1875 0,0.109375 0.09375,0.125 0.15625,0.125 0.234375,0.015625 0.59375,0.09375 0.59375,0.390625 0,0.109375 -0.0625,0.1875 -0.140625,0.328125 L 6.25,-1.09375 5.875,-6.03125 c 0,-0.203125 -0.015625,-0.453125 0.703125,-0.46875 0.171875,0 0.265625,0 0.265625,-0.203125 0,-0.09375 -0.109375,-0.109375 -0.140625,-0.109375 -0.40625,0 -0.828125,0.03125 -1.21875,0.03125 -0.234375,0 -0.8125,-0.03125 -1.046875,-0.03125 -0.0625,0 -0.1875,0 -0.1875,0.203125 C 4.25,-6.5 4.34375,-6.5 4.484375,-6.5 4.921875,-6.5 5,-6.4375 5.015625,-6.25 l 0.0625,0.765625 -2.53125,4.390625 -0.375,-5.046875 c 0,-0.125 0,-0.34375 0.765625,-0.359375 0.09375,0 0.203125,0 0.203125,-0.203125 C 3.140625,-6.8125 3.015625,-6.8125 3,-6.8125 c -0.390625,0 -0.8125,0.03125 -1.21875,0.03125 -0.359375,0 -0.71875,-0.03125 -1.046875,-0.03125 -0.0625,0 -0.1875,0 -0.1875,0.1875 0,0.125 0.09375,0.125 0.25,0.125 0.5,0 0.515625,0.09375 0.53125,0.375 l 0.453125,6.078125 c 0,0.1875 0.015625,0.265625 0.15625,0.265625 0.109375,0 0.140625,-0.0625 0.234375,-0.203125 l 2.9375,-5.09375 0.359375,5.03125 C 5.5,0.171875 5.515625,0.21875 5.625,0.21875 c 0.140625,0 0.203125,-0.09375 0.25,-0.1875 z m 0,0"
               id="id-5cee1196-622c-4b23-a0c8-b582fb24c9bb" />
          </symbol>
          <symbol
             overflow="visible"
             id="id-c01660ca-4d5e-464c-a5b9-bc513a7585d9">
            <path
               style="stroke:none;stroke-width:0"
               d="m 3.015625,-3.234375 h 0.96875 c 0.75,0 0.828125,0.15625 0.828125,0.4375 0,0.078125 0,0.1875 -0.0625,0.5 C 4.71875,-2.25 4.71875,-2.21875 4.71875,-2.1875 c 0,0.078125 0.0625,0.109375 0.109375,0.109375 0.109375,0 0.109375,-0.03125 0.15625,-0.203125 L 5.53125,-4.453125 C 5.5625,-4.5625 5.5625,-4.578125 5.5625,-4.609375 5.5625,-4.625 5.546875,-4.71875 5.4375,-4.71875 5.34375,-4.71875 5.328125,-4.671875 5.296875,-4.5 5.078125,-3.734375 4.859375,-3.546875 4,-3.546875 H 3.09375 l 0.640625,-2.53125 C 3.828125,-6.4375 3.84375,-6.46875 4.28125,-6.46875 h 1.3125 c 1.21875,0 1.453125,0.328125 1.453125,1.09375 0,0.234375 0,0.265625 -0.03125,0.546875 C 7,-4.703125 7,-4.6875 7,-4.65625 c 0,0.046875 0.03125,0.125 0.125,0.125 0.109375,0 0.109375,-0.0625 0.125,-0.25 L 7.453125,-6.515625 C 7.484375,-6.78125 7.4375,-6.78125 7.1875,-6.78125 H 2.296875 c -0.1875,0 -0.296875,0 -0.296875,0.203125 0,0.109375 0.09375,0.109375 0.28125,0.109375 0.375,0 0.65625,0 0.65625,0.171875 0,0.046875 0,0.0625 -0.0625,0.25 L 1.5625,-0.78125 c -0.09375,0.390625 -0.109375,0.46875 -0.90625,0.46875 -0.171875,0 -0.28125,0 -0.28125,0.1875 C 0.375,0 0.5,0 0.53125,0 0.8125,0 1.5625,-0.03125 1.84375,-0.03125 2.171875,-0.03125 3,0 3.328125,0 3.421875,0 3.53125,0 3.53125,-0.1875 3.53125,-0.265625 3.484375,-0.296875 3.484375,-0.296875 3.453125,-0.3125 3.421875,-0.3125 3.203125,-0.3125 c -0.21875,0 -0.265625,0 -0.515625,-0.015625 -0.296875,-0.03125 -0.328125,-0.078125 -0.328125,-0.203125 0,-0.015625 0,-0.078125 0.046875,-0.21875 z m 0,0"
               id="id-85e215e4-0b60-495f-81ab-1165218a5231" />
          </symbol>
          <symbol
             overflow="visible"
             id="id-1c222f02-06e6-49e9-b38d-04b31175da4b">
            <path
               style="stroke:none;stroke-width:0"
               d="m 5.140625,-6.8125 c 0,0 0,-0.109375 -0.125,-0.109375 -0.15625,0 -1.09375,0.09375 -1.265625,0.109375 -0.078125,0.015625 -0.140625,0.0625 -0.140625,0.1875 0,0.125 0.09375,0.125 0.234375,0.125 0.484375,0 0.5,0.0625 0.5,0.171875 L 4.3125,-6.125 3.71875,-3.765625 C 3.53125,-4.140625 3.25,-4.40625 2.796875,-4.40625 c -1.15625,0 -2.390625,1.46875 -2.390625,2.921875 0,0.9375 0.546875,1.59375 1.3125,1.59375 0.203125,0 0.703125,-0.046875 1.296875,-0.75 0.078125,0.421875 0.4375,0.75 0.90625,0.75 0.359375,0 0.578125,-0.234375 0.75,-0.546875 0.15625,-0.359375 0.296875,-0.96875 0.296875,-0.984375 0,-0.109375 -0.09375,-0.109375 -0.125,-0.109375 -0.09375,0 -0.109375,0.046875 -0.140625,0.1875 -0.171875,0.640625 -0.34375,1.234375 -0.75,1.234375 -0.28125,0 -0.296875,-0.265625 -0.296875,-0.453125 0,-0.25 0.015625,-0.3125 0.046875,-0.484375 z m -2.0625,5.625 C 3.015625,-1 3.015625,-0.984375 2.875,-0.8125 2.4375,-0.265625 2.03125,-0.109375 1.75,-0.109375 c -0.5,0 -0.640625,-0.546875 -0.640625,-0.9375 0,-0.5 0.3125,-1.71875 0.546875,-2.1875 0.3125,-0.578125 0.75,-0.953125 1.15625,-0.953125 0.640625,0 0.78125,0.8125 0.78125,0.875 0,0.0625 -0.015625,0.125 -0.03125,0.171875 z m 0,0"
               id="id-dc4d9afe-a5eb-41af-8f9b-e2b32a1a1f4c" />
          </symbol>
          <symbol
             overflow="visible"
             id="id-0f59ac0f-53db-45b9-a16b-8538b837bc51">
            <path
               style="stroke:none;stroke-width:0"
               d="M 3.734375,-6.03125 C 3.8125,-6.390625 3.84375,-6.5 4.78125,-6.5 c 0.296875,0 0.375,0 0.375,-0.1875 0,-0.125 -0.109375,-0.125 -0.15625,-0.125 -0.328125,0 -1.140625,0.03125 -1.46875,0.03125 -0.296875,0 -1.03125,-0.03125 -1.328125,-0.03125 -0.0625,0 -0.1875,0 -0.1875,0.203125 0,0.109375 0.09375,0.109375 0.28125,0.109375 0.015625,0 0.203125,0 0.375,0.015625 0.171875,0.03125 0.265625,0.03125 0.265625,0.171875 0,0.03125 0,0.0625 -0.03125,0.1875 L 1.5625,-0.78125 c -0.09375,0.390625 -0.109375,0.46875 -0.90625,0.46875 -0.171875,0 -0.265625,0 -0.265625,0.203125 C 0.390625,0 0.484375,0 0.65625,0 h 4.625 C 5.515625,0 5.515625,0 5.578125,-0.171875 L 6.375,-2.328125 c 0.03125,-0.109375 0.03125,-0.125 0.03125,-0.140625 0,-0.03125 -0.03125,-0.109375 -0.109375,-0.109375 -0.09375,0 -0.109375,0.0625 -0.171875,0.21875 -0.34375,0.90625 -0.78125,2.046875 -2.5,2.046875 H 2.6875 c -0.140625,0 -0.171875,0 -0.21875,0 -0.109375,-0.015625 -0.140625,-0.03125 -0.140625,-0.109375 0,-0.03125 0,-0.046875 0.046875,-0.21875 z m 0,0"
               id="id-e2d969b3-718a-44de-ba16-86f602f1805a" />
          </symbol>
          <symbol
             overflow="visible"
             id="id-5979225b-80cf-4f32-a791-111faa5cc41e">
            <path
               style="stroke:none;stroke-width:0"
               d=""
               id="id-21dcb801-765c-4991-bf55-60fdd9e7c368" />
          </symbol>
          <symbol
             overflow="visible"
             id="id-b4930055-dacc-4a82-b64f-a544f3ffc709">
            <path
               style="stroke:none;stroke-width:0"
               d="m 6.84375,-3.265625 c 0.15625,0 0.34375,0 0.34375,-0.1875 C 7.1875,-3.65625 7,-3.65625 6.859375,-3.65625 h -5.96875 c -0.140625,0 -0.328125,0 -0.328125,0.203125 0,0.1875 0.1875,0.1875 0.328125,0.1875 z m 0.015625,1.9375 c 0.140625,0 0.328125,0 0.328125,-0.203125 0,-0.1875 -0.1875,-0.1875 -0.34375,-0.1875 H 0.890625 c -0.140625,0 -0.328125,0 -0.328125,0.1875 0,0.203125 0.1875,0.203125 0.328125,0.203125 z m 0,0"
               id="id-a15eb633-64cf-47c8-b764-6332675b8268" />
          </symbol>
          <symbol
             overflow="visible"
             id="id-2ceb7322-73f6-4646-82d7-f4c4aa884372">
            <path
               style="stroke:none;stroke-width:0"
               d=""
               id="id-5672e95d-0240-4d89-b18c-1665aa3afd0d" />
          </symbol>
          <symbol
             overflow="visible"
             id="id-039c4c97-f7aa-4644-a8b8-f9886d2dca47">
            <path
               style="stroke:none;stroke-width:0"
               d="m 1.03125,21.703125 c 0.328125,-0.01563 0.5,-0.234375 0.5,-0.484375 0,-0.328125 -0.25,-0.5 -0.484375,-0.5 -0.234375,0 -0.484375,0.15625 -0.484375,0.5 0,0.515625 0.5,0.9375 1.109375,0.9375 1.515625,0 2.078125,-2.34375 2.78125,-5.234375 C 5.21875,13.78125 5.875,10.59375 6.40625,7.390625 6.78125,5.28125 7.140625,3.28125 7.484375,2 7.609375,1.5 7.9375,0.21875 8.328125,0.21875 c 0.3125,0 0.5625,0.1875 0.609375,0.234375 -0.328125,0.015625 -0.5,0.234375 -0.5,0.484375 0,0.328125 0.25,0.484375 0.46875,0.484375 0.25,0 0.5,-0.140625 0.5,-0.5 C 9.40625,0.390625 8.859375,0 8.3125,0 7.5625,0 7,1.09375 6.453125,3.125 6.421875,3.234375 5.0625,8.234375 3.96875,14.75 3.703125,16.28125 3.421875,17.9375 3.09375,19.328125 2.90625,20.0625 2.453125,21.9375 1.640625,21.9375 c -0.359375,0 -0.59375,-0.234375 -0.609375,-0.234375 z m 0,0"
               id="id-ede58631-3fae-43af-883b-4dc4d9c0f407" />
          </symbol>
        </g>
      </defs>
      <g
         id="id-ce1d7a4e-c1fa-418a-a50a-92491ad7a74e"
         transform="translate(-277.613,-135.761)">
        <g
           style="fill:#000000;fill-opacity:1"
           id="id-cb3e7f53-7030-466d-bb6c-e8a1466fb400">
          <g
             transform="translate(277.066,149.321)"
             id="g32594">
            <path
               style="stroke:none;stroke-width:0"
               d="m 9.140625,-5.65625 c 0.25,-0.4375 0.484375,-0.796875 1.125,-0.84375 0.07813,-0.015625 0.1875,-0.015625 0.1875,-0.203125 0,-0.03125 -0.04687,-0.109375 -0.125,-0.109375 -0.234375,0 -0.515625,0.03125 -0.765625,0.03125 -0.34375,0 -0.703125,-0.03125 -1.046875,-0.03125 -0.046875,0 -0.1875,0 -0.1875,0.1875 0,0.109375 0.09375,0.125 0.15625,0.125 0.234375,0.015625 0.59375,0.09375 0.59375,0.390625 0,0.109375 -0.0625,0.1875 -0.140625,0.328125 L 6.25,-1.09375 5.875,-6.03125 c 0,-0.203125 -0.015625,-0.453125 0.703125,-0.46875 0.171875,0 0.265625,0 0.265625,-0.203125 0,-0.09375 -0.109375,-0.109375 -0.140625,-0.109375 -0.40625,0 -0.828125,0.03125 -1.21875,0.03125 -0.234375,0 -0.8125,-0.03125 -1.046875,-0.03125 -0.0625,0 -0.1875,0 -0.1875,0.203125 C 4.25,-6.5 4.34375,-6.5 4.484375,-6.5 4.921875,-6.5 5,-6.4375 5.015625,-6.25 l 0.0625,0.765625 -2.53125,4.390625 -0.375,-5.046875 c 0,-0.125 0,-0.34375 0.765625,-0.359375 0.09375,0 0.203125,0 0.203125,-0.203125 C 3.140625,-6.8125 3.015625,-6.8125 3,-6.8125 c -0.390625,0 -0.8125,0.03125 -1.21875,0.03125 -0.359375,0 -0.71875,-0.03125 -1.046875,-0.03125 -0.0625,0 -0.1875,0 -0.1875,0.1875 0,0.125 0.09375,0.125 0.25,0.125 0.5,0 0.515625,0.09375 0.53125,0.375 l 0.453125,6.078125 c 0,0.1875 0.015625,0.265625 0.15625,0.265625 0.109375,0 0.140625,-0.0625 0.234375,-0.203125 l 2.9375,-5.09375 0.359375,5.03125 C 5.5,0.171875 5.515625,0.21875 5.625,0.21875 c 0.140625,0 0.203125,-0.09375 0.25,-0.1875 z m 0,0"
               id="id-830abea6-aeb7-49ca-94c0-079f07a747c6" />
          </g>
        </g>
        <g
           style="fill:#000000;fill-opacity:1"
           id="id-b68d6a56-334a-4a7f-8abd-05a0e5686e6d">
          <g
             transform="translate(290.626,149.321)"
             id="g32598">
            <path
               style="stroke:none;stroke-width:0"
               d="m 6.84375,-3.265625 c 0.15625,0 0.34375,0 0.34375,-0.1875 C 7.1875,-3.65625 7,-3.65625 6.859375,-3.65625 h -5.96875 c -0.140625,0 -0.328125,0 -0.328125,0.203125 0,0.1875 0.1875,0.1875 0.328125,0.1875 z m 0.015625,1.9375 c 0.140625,0 0.328125,0 0.328125,-0.203125 0,-0.1875 -0.1875,-0.1875 -0.34375,-0.1875 H 0.890625 c -0.140625,0 -0.328125,0 -0.328125,0.1875 0,0.203125 0.1875,0.203125 0.328125,0.203125 z m 0,0"
               id="id-728c93e7-2819-474e-a3af-e6b9a1dd5767" />
          </g>
        </g>
        <g
           style="fill:#000000;fill-opacity:1"
           id="id-7bdaa6ec-aad6-434e-90ef-b0acbce29ad8">
          <g
             transform="translate(301.142,135.761)"
             id="g32602">
            <path
               style="stroke:none;stroke-width:0"
               d="m 1.03125,21.703125 c 0.328125,-0.01563 0.5,-0.234375 0.5,-0.484375 0,-0.328125 -0.25,-0.5 -0.484375,-0.5 -0.234375,0 -0.484375,0.15625 -0.484375,0.5 0,0.515625 0.5,0.9375 1.109375,0.9375 1.515625,0 2.078125,-2.34375 2.78125,-5.234375 C 5.21875,13.78125 5.875,10.59375 6.40625,7.390625 6.78125,5.28125 7.140625,3.28125 7.484375,2 7.609375,1.5 7.9375,0.21875 8.328125,0.21875 c 0.3125,0 0.5625,0.1875 0.609375,0.234375 -0.328125,0.015625 -0.5,0.234375 -0.5,0.484375 0,0.328125 0.25,0.484375 0.46875,0.484375 0.25,0 0.5,-0.140625 0.5,-0.5 C 9.40625,0.390625 8.859375,0 8.3125,0 7.5625,0 7,1.09375 6.453125,3.125 6.421875,3.234375 5.0625,8.234375 3.96875,14.75 3.703125,16.28125 3.421875,17.9375 3.09375,19.328125 2.90625,20.0625 2.453125,21.9375 1.640625,21.9375 c -0.359375,0 -0.59375,-0.234375 -0.609375,-0.234375 z m 0,0"
               id="id-eff41643-2611-42bb-9362-079f33688516" />
          </g>
        </g>
        <g
           style="fill:#000000;fill-opacity:1"
           id="id-5d5a6727-c485-4a86-8b8c-66da8599b49d">
          <g
             transform="translate(312.765,149.321)"
             id="g32606">
            <path
               style="stroke:none;stroke-width:0"
               d="m 3.015625,-3.234375 h 0.96875 c 0.75,0 0.828125,0.15625 0.828125,0.4375 0,0.078125 0,0.1875 -0.0625,0.5 C 4.71875,-2.25 4.71875,-2.21875 4.71875,-2.1875 c 0,0.078125 0.0625,0.109375 0.109375,0.109375 0.109375,0 0.109375,-0.03125 0.15625,-0.203125 L 5.53125,-4.453125 C 5.5625,-4.5625 5.5625,-4.578125 5.5625,-4.609375 5.5625,-4.625 5.546875,-4.71875 5.4375,-4.71875 5.34375,-4.71875 5.328125,-4.671875 5.296875,-4.5 5.078125,-3.734375 4.859375,-3.546875 4,-3.546875 H 3.09375 l 0.640625,-2.53125 C 3.828125,-6.4375 3.84375,-6.46875 4.28125,-6.46875 h 1.3125 c 1.21875,0 1.453125,0.328125 1.453125,1.09375 0,0.234375 0,0.265625 -0.03125,0.546875 C 7,-4.703125 7,-4.6875 7,-4.65625 c 0,0.046875 0.03125,0.125 0.125,0.125 0.109375,0 0.109375,-0.0625 0.125,-0.25 L 7.453125,-6.515625 C 7.484375,-6.78125 7.4375,-6.78125 7.1875,-6.78125 H 2.296875 c -0.1875,0 -0.296875,0 -0.296875,0.203125 0,0.109375 0.09375,0.109375 0.28125,0.109375 0.375,0 0.65625,0 0.65625,0.171875 0,0.046875 0,0.0625 -0.0625,0.25 L 1.5625,-0.78125 c -0.09375,0.390625 -0.109375,0.46875 -0.90625,0.46875 -0.171875,0 -0.28125,0 -0.28125,0.1875 C 0.375,0 0.5,0 0.53125,0 0.8125,0 1.5625,-0.03125 1.84375,-0.03125 2.171875,-0.03125 3,0 3.328125,0 3.421875,0 3.53125,0 3.53125,-0.1875 3.53125,-0.265625 3.484375,-0.296875 3.484375,-0.296875 3.453125,-0.3125 3.421875,-0.3125 3.203125,-0.3125 c -0.21875,0 -0.265625,0 -0.515625,-0.015625 -0.296875,-0.03125 -0.328125,-0.078125 -0.328125,-0.203125 0,-0.015625 0,-0.078125 0.046875,-0.21875 z m 0,0"
               id="id-60b90c7f-ff7f-4121-adfb-ba18fdb8e736" />
          </g>
        </g>
        <g
           style="fill:#000000;fill-opacity:1"
           id="id-2ecea228-dc49-4691-bfc2-adcbf67fd4df">
          <g
             transform="translate(322.22,149.321)"
             id="g32610">
            <path
               style="stroke:none;stroke-width:0"
               d="m 5.140625,-6.8125 c 0,0 0,-0.109375 -0.125,-0.109375 -0.15625,0 -1.09375,0.09375 -1.265625,0.109375 -0.078125,0.015625 -0.140625,0.0625 -0.140625,0.1875 0,0.125 0.09375,0.125 0.234375,0.125 0.484375,0 0.5,0.0625 0.5,0.171875 L 4.3125,-6.125 3.71875,-3.765625 C 3.53125,-4.140625 3.25,-4.40625 2.796875,-4.40625 c -1.15625,0 -2.390625,1.46875 -2.390625,2.921875 0,0.9375 0.546875,1.59375 1.3125,1.59375 0.203125,0 0.703125,-0.046875 1.296875,-0.75 0.078125,0.421875 0.4375,0.75 0.90625,0.75 0.359375,0 0.578125,-0.234375 0.75,-0.546875 0.15625,-0.359375 0.296875,-0.96875 0.296875,-0.984375 0,-0.109375 -0.09375,-0.109375 -0.125,-0.109375 -0.09375,0 -0.109375,0.046875 -0.140625,0.1875 -0.171875,0.640625 -0.34375,1.234375 -0.75,1.234375 -0.28125,0 -0.296875,-0.265625 -0.296875,-0.453125 0,-0.25 0.015625,-0.3125 0.046875,-0.484375 z m -2.0625,5.625 C 3.015625,-1 3.015625,-0.984375 2.875,-0.8125 2.4375,-0.265625 2.03125,-0.109375 1.75,-0.109375 c -0.5,0 -0.640625,-0.546875 -0.640625,-0.9375 0,-0.5 0.3125,-1.71875 0.546875,-2.1875 0.3125,-0.578125 0.75,-0.953125 1.15625,-0.953125 0.640625,0 0.78125,0.8125 0.78125,0.875 0,0.0625 -0.015625,0.125 -0.03125,0.171875 z m 0,0"
               id="id-11305e1b-8e7b-4ec0-be93-b737988c2ff3" />
          </g>
          <g
             transform="translate(327.406,149.321)"
             id="g32613">
            <path
               style="stroke:none;stroke-width:0"
               d="M 3.734375,-6.03125 C 3.8125,-6.390625 3.84375,-6.5 4.78125,-6.5 c 0.296875,0 0.375,0 0.375,-0.1875 0,-0.125 -0.109375,-0.125 -0.15625,-0.125 -0.328125,0 -1.140625,0.03125 -1.46875,0.03125 -0.296875,0 -1.03125,-0.03125 -1.328125,-0.03125 -0.0625,0 -0.1875,0 -0.1875,0.203125 0,0.109375 0.09375,0.109375 0.28125,0.109375 0.015625,0 0.203125,0 0.375,0.015625 0.171875,0.03125 0.265625,0.03125 0.265625,0.171875 0,0.03125 0,0.0625 -0.03125,0.1875 L 1.5625,-0.78125 c -0.09375,0.390625 -0.109375,0.46875 -0.90625,0.46875 -0.171875,0 -0.265625,0 -0.265625,0.203125 C 0.390625,0 0.484375,0 0.65625,0 h 4.625 C 5.515625,0 5.515625,0 5.578125,-0.171875 L 6.375,-2.328125 c 0.03125,-0.109375 0.03125,-0.125 0.03125,-0.140625 0,-0.03125 -0.03125,-0.109375 -0.109375,-0.109375 -0.09375,0 -0.109375,0.0625 -0.171875,0.21875 -0.34375,0.90625 -0.78125,2.046875 -2.5,2.046875 H 2.6875 c -0.140625,0 -0.171875,0 -0.21875,0 -0.109375,-0.015625 -0.140625,-0.03125 -0.140625,-0.109375 0,-0.03125 0,-0.046875 0.046875,-0.21875 z m 0,0"
               id="id-ea1c7831-c528-49d4-a826-c0ba0795d616" />
          </g>
        </g>
      </g>
    </g>
  </g>
</svg>
