<?xml version="1.0" encoding="UTF-8" standalone="no"?>
<!-- Created with Inkscape (http://www.inkscape.org/) -->

<svg
   width="5in"
   height="3.5in"
   viewBox="0 0 127 88.9"
   version="1.1"
   id="svg4708"
   inkscape:version="1.1 (c4e8f9e, 2021-05-24)"
   sodipodi:docname="example_trivector.svg"
   xmlns:inkscape="http://www.inkscape.org/namespaces/inkscape"
   xmlns:sodipodi="http://sodipodi.sourceforge.net/DTD/sodipodi-0.dtd"
   xmlns="http://www.w3.org/2000/svg"
   xmlns:svg="http://www.w3.org/2000/svg"
   xmlns:ns2="http://www.iki.fi/pav/software/textext/">
  <sodipodi:namedview
     id="namedview4710"
     pagecolor="#ffffff"
     bordercolor="#666666"
     borderopacity="1.0"
     inkscape:pageshadow="2"
     inkscape:pageopacity="0.0"
     inkscape:pagecheckerboard="0"
     inkscape:document-units="mm"
     showgrid="false"
     units="in"
     width="8in"
     inkscape:zoom="2.1200054"
     inkscape:cx="253.53709"
     inkscape:cy="158.49016"
     inkscape:window-width="1312"
     inkscape:window-height="762"
     inkscape:window-x="0"
     inkscape:window-y="25"
     inkscape:window-maximized="0"
     inkscape:current-layer="layer1"
     height="4in" />
  <defs
     id="defs4705">
    <g
       id="id-70764b85-5342-40b3-8209-da5f3521b1b2">
      <symbol
         overflow="visible"
         id="id-030e7c21-a2c8-4ffc-8407-283953ed13e0">
        <path
           style="stroke:none;stroke-width:0"
           d=""
           id="id-44cf43e6-dabb-4f43-825c-e387709adae1" />
      </symbol>
      <symbol
         overflow="visible"
         id="id-ce66d6f9-77e8-4e97-a300-4e32f804f518">
        <path
           style="stroke:none;stroke-width:0"
           d="m 5.359375,-5.9375 c -0.140625,0.140625 -0.46875,0.421875 -0.46875,0.59375 0,0.09375 0.09375,0.203125 0.1875,0.203125 0.09375,0 0.140625,-0.078125 0.203125,-0.140625 C 5.390625,-5.421875 5.625,-5.703125 6.0625,-5.921875 6.125,-5.96875 6.234375,-6.015625 6.234375,-6.125 6.234375,-6.234375 6.15625,-6.28125 6.09375,-6.328125 5.875,-6.484375 5.765625,-6.65625 5.6875,-6.890625 5.65625,-6.984375 5.625,-7.125 5.484375,-7.125 c -0.140625,0 -0.203125,0.140625 -0.203125,0.21875 0,0.046875 0.078125,0.359375 0.234375,0.578125 H 2.15625 c -0.15625,0 -0.34375,0 -0.34375,0.203125 0,0.1875 0.1875,0.1875 0.34375,0.1875 z m 0,0"
           id="id-36c864ec-4f06-4c35-929d-2471291cc34e" />
      </symbol>
      <symbol
         overflow="visible"
         id="id-92534b23-97c0-4dc8-ba8c-fc3ae465139b">
        <path
           style="stroke:none;stroke-width:0"
           d="m 4.671875,-3.703125 c 0,-0.546875 -0.265625,-0.703125 -0.4375,-0.703125 -0.25,0 -0.5,0.265625 -0.5,0.484375 0,0.125 0.046875,0.1875 0.15625,0.296875 0.21875,0.203125 0.34375,0.453125 0.34375,0.8125 0,0.421875 -0.609375,2.703125 -1.765625,2.703125 -0.515625,0 -0.75,-0.34375 -0.75,-0.875 0,-0.546875 0.28125,-1.28125 0.578125,-2.109375 0.078125,-0.171875 0.125,-0.3125 0.125,-0.5 0,-0.4375 -0.3125,-0.8125 -0.8125,-0.8125 -0.9375,0 -1.3125,1.453125 -1.3125,1.53125 0,0.109375 0.09375,0.109375 0.109375,0.109375 0.109375,0 0.109375,-0.03125 0.15625,-0.1875 0.296875,-1 0.71875,-1.234375 1.015625,-1.234375 0.078125,0 0.25,0 0.25,0.3125 0,0.25 -0.109375,0.53125 -0.171875,0.703125 -0.4375,1.15625 -0.5625,1.609375 -0.5625,2.046875 0,1.078125 0.875,1.234375 1.328125,1.234375 1.671875,0 2.25,-3.296875 2.25,-3.8125 z m 0,0"
           id="id-42651123-7fc0-4327-a5f5-d4ee8961ac82" />
      </symbol>
    </g>
    <g
       id="id-9c46ef1b-d41f-44d2-ad9d-0a6704433a1f">
      <symbol
         overflow="visible"
         id="id-fd2dd4c3-3a32-426c-862c-5bb94ea83cff">
        <path
           style="stroke:none;stroke-width:0"
           d=""
           id="id-f33fd053-053c-4207-9def-075f91a342e5" />
      </symbol>
      <symbol
         overflow="visible"
         id="id-2ad728b1-2487-4b51-b812-b406ddcd1913">
        <path
           style="stroke:none;stroke-width:0"
           d="m 4.671875,-3.703125 c 0,-0.546875 -0.265625,-0.703125 -0.4375,-0.703125 -0.25,0 -0.5,0.265625 -0.5,0.484375 0,0.125 0.046875,0.1875 0.15625,0.296875 0.21875,0.203125 0.34375,0.453125 0.34375,0.8125 0,0.421875 -0.609375,2.703125 -1.765625,2.703125 -0.515625,0 -0.75,-0.34375 -0.75,-0.875 0,-0.546875 0.28125,-1.28125 0.578125,-2.109375 0.078125,-0.171875 0.125,-0.3125 0.125,-0.5 0,-0.4375 -0.3125,-0.8125 -0.8125,-0.8125 -0.9375,0 -1.3125,1.453125 -1.3125,1.53125 0,0.109375 0.09375,0.109375 0.109375,0.109375 0.109375,0 0.109375,-0.03125 0.15625,-0.1875 0.296875,-1 0.71875,-1.234375 1.015625,-1.234375 0.078125,0 0.25,0 0.25,0.3125 0,0.25 -0.109375,0.53125 -0.171875,0.703125 -0.4375,1.15625 -0.5625,1.609375 -0.5625,2.046875 0,1.078125 0.875,1.234375 1.328125,1.234375 1.671875,0 2.25,-3.296875 2.25,-3.8125 z m 0,0"
           id="id-81e0735f-5670-42ab-9fd5-63b24a16a049" />
      </symbol>
      <symbol
         overflow="visible"
         id="id-9d6218ae-6a8d-47a7-a32a-2d2f259673cf">
        <path
           style="stroke:none;stroke-width:0"
           d=""
           id="id-e4c2f244-b119-4942-a138-236ad16f56e0" />
      </symbol>
      <symbol
         overflow="visible"
         id="id-4d3368f2-ec38-444f-9ad9-55eb0bbf2435">
        <path
           style="stroke:none;stroke-width:0"
           d="M 1.734375,-0.734375 C 1.671875,-0.5 1.4375,-0.125 1.078125,-0.125 c -0.015625,0 -0.234375,0 -0.375,-0.09375 0.28125,-0.09375 0.3125,-0.34375 0.3125,-0.390625 0,-0.15625 -0.125,-0.25 -0.28125,-0.25 -0.203125,0 -0.40625,0.15625 -0.40625,0.421875 0,0.34375 0.390625,0.5 0.734375,0.5 0.328125,0 0.609375,-0.1875 0.78125,-0.484375 C 2.015625,-0.0625 2.390625,0.0625 2.671875,0.0625 c 0.8125,0 1.234375,-0.859375 1.234375,-1.0625 0,-0.09375 -0.09375,-0.09375 -0.109375,-0.09375 -0.109375,0 -0.109375,0.046875 -0.140625,0.125 -0.140625,0.484375 -0.5625,0.84375 -0.953125,0.84375 -0.28125,0 -0.421875,-0.1875 -0.421875,-0.453125 0,-0.1875 0.171875,-0.8125 0.359375,-1.59375 C 2.78125,-2.703125 3.09375,-2.875 3.328125,-2.875 c 0.015625,0 0.21875,0 0.375,0.09375 -0.21875,0.0625 -0.3125,0.265625 -0.3125,0.390625 0,0.140625 0.125,0.25 0.28125,0.25 0.15625,0 0.390625,-0.125 0.390625,-0.421875 0,-0.390625 -0.453125,-0.515625 -0.71875,-0.515625 -0.359375,0 -0.640625,0.234375 -0.78125,0.5 -0.125,-0.28125 -0.453125,-0.5 -0.84375,-0.5 C 0.9375,-3.078125 0.5,-2.21875 0.5,-2 c 0,0.078125 0.09375,0.078125 0.109375,0.078125 0.09375,0 0.09375,-0.015625 0.140625,-0.109375 C 0.921875,-2.578125 1.359375,-2.875 1.703125,-2.875 1.9375,-2.875 2.125,-2.75 2.125,-2.421875 2.125,-2.28125 2.03125,-1.9375 1.96875,-1.6875 Z m 0,0"
           id="id-eac70406-1c6e-4e17-9b96-a2a09d3c66f7" />
      </symbol>
    </g>
    <g
       id="id-b3a54287-ea3e-4ae7-9a17-736d033708b7">
      <symbol
         overflow="visible"
         id="id-946ef816-665a-4de6-9034-7f9f56232f86">
        <path
           style="stroke:none;stroke-width:0"
           d=""
           id="id-49a588f6-380e-4c92-ab73-edbfe6fcb0b9" />
      </symbol>
      <symbol
         overflow="visible"
         id="id-8a5aae0a-56db-427d-9275-3e95e261392d">
        <path
           style="stroke:none;stroke-width:0"
           d="m 4.671875,-3.703125 c 0,-0.546875 -0.265625,-0.703125 -0.4375,-0.703125 -0.25,0 -0.5,0.265625 -0.5,0.484375 0,0.125 0.046875,0.1875 0.15625,0.296875 0.21875,0.203125 0.34375,0.453125 0.34375,0.8125 0,0.421875 -0.609375,2.703125 -1.765625,2.703125 -0.515625,0 -0.75,-0.34375 -0.75,-0.875 0,-0.546875 0.28125,-1.28125 0.578125,-2.109375 0.078125,-0.171875 0.125,-0.3125 0.125,-0.5 0,-0.4375 -0.3125,-0.8125 -0.8125,-0.8125 -0.9375,0 -1.3125,1.453125 -1.3125,1.53125 0,0.109375 0.09375,0.109375 0.109375,0.109375 0.109375,0 0.109375,-0.03125 0.15625,-0.1875 0.296875,-1 0.71875,-1.234375 1.015625,-1.234375 0.078125,0 0.25,0 0.25,0.3125 0,0.25 -0.109375,0.53125 -0.171875,0.703125 -0.4375,1.15625 -0.5625,1.609375 -0.5625,2.046875 0,1.078125 0.875,1.234375 1.328125,1.234375 1.671875,0 2.25,-3.296875 2.25,-3.8125 z m 0,0"
           id="id-8535a110-4f6c-450c-8899-2f94ff85d5ac" />
      </symbol>
      <symbol
         overflow="visible"
         id="id-b7879a63-59d5-48db-82f5-b1be025d6880">
        <path
           style="stroke:none;stroke-width:0"
           d=""
           id="id-8cb783ee-f05d-4511-b1e4-7294c5650e9e" />
      </symbol>
      <symbol
         overflow="visible"
         id="id-8afc9c9b-554d-4347-af15-de4cd04f77fc">
        <path
           style="stroke:none;stroke-width:0"
           d="M 3.875,-2.625 C 3.90625,-2.71875 3.90625,-2.734375 3.90625,-2.78125 3.90625,-2.921875 3.796875,-3 3.671875,-3 3.59375,-3 3.46875,-2.96875 3.390625,-2.84375 3.359375,-2.796875 3.3125,-2.578125 3.28125,-2.4375 L 3.125,-1.859375 c -0.03125,0.171875 -0.25,1.046875 -0.28125,1.125 0,0 -0.3125,0.609375 -0.84375,0.609375 -0.484375,0 -0.484375,-0.453125 -0.484375,-0.578125 0,-0.375 0.15625,-0.8125 0.375,-1.359375 C 1.96875,-2.28125 2,-2.359375 2,-2.484375 2,-2.8125 1.71875,-3.078125 1.34375,-3.078125 0.640625,-3.078125 0.328125,-2.125 0.328125,-2 c 0,0.078125 0.09375,0.078125 0.125,0.078125 0.09375,0 0.09375,-0.03125 0.125,-0.109375 C 0.75,-2.609375 1.046875,-2.875 1.328125,-2.875 1.4375,-2.875 1.5,-2.796875 1.5,-2.640625 c 0,0.171875 -0.0625,0.3125 -0.09375,0.40625 C 1.0625,-1.375 1,-1.125 1,-0.8125 1,-0.703125 1,-0.375 1.265625,-0.140625 1.484375,0.03125 1.78125,0.0625 1.96875,0.0625 2.25,0.0625 2.5,-0.03125 2.71875,-0.25 2.640625,0.140625 2.5625,0.4375 2.265625,0.78125 2.078125,1 1.796875,1.21875 1.421875,1.21875 c -0.046875,0 -0.375,0 -0.515625,-0.21875 0.375,-0.046875 0.375,-0.375 0.375,-0.390625 0,-0.21875 -0.203125,-0.265625 -0.265625,-0.265625 -0.171875,0 -0.40625,0.140625 -0.40625,0.46875 0,0.34375 0.328125,0.609375 0.828125,0.609375 C 2.140625,1.421875 3,0.875 3.21875,0 Z m 0,0"
           id="id-8ffed16d-96f2-4aa6-a6c1-8c1cabf978ff" />
      </symbol>
    </g>
    <g
       id="id-c289380e-4c4c-4095-8c84-e4a7a9798190">
      <symbol
         overflow="visible"
         id="id-72619672-e8e5-41bb-bf15-8ac96a6e5691">
        <path
           style="stroke:none;stroke-width:0"
           d=""
           id="id-99553ea3-a017-4134-91c4-e80afbd361ed" />
      </symbol>
      <symbol
         overflow="visible"
         id="id-ba9342d2-9a51-4c93-8dd5-89ea2d2251d0">
        <path
           style="stroke:none;stroke-width:0"
           d="m 4.671875,-3.703125 c 0,-0.546875 -0.265625,-0.703125 -0.4375,-0.703125 -0.25,0 -0.5,0.265625 -0.5,0.484375 0,0.125 0.046875,0.1875 0.15625,0.296875 0.21875,0.203125 0.34375,0.453125 0.34375,0.8125 0,0.421875 -0.609375,2.703125 -1.765625,2.703125 -0.515625,0 -0.75,-0.34375 -0.75,-0.875 0,-0.546875 0.28125,-1.28125 0.578125,-2.109375 0.078125,-0.171875 0.125,-0.3125 0.125,-0.5 0,-0.4375 -0.3125,-0.8125 -0.8125,-0.8125 -0.9375,0 -1.3125,1.453125 -1.3125,1.53125 0,0.109375 0.09375,0.109375 0.109375,0.109375 0.109375,0 0.109375,-0.03125 0.15625,-0.1875 0.296875,-1 0.71875,-1.234375 1.015625,-1.234375 0.078125,0 0.25,0 0.25,0.3125 0,0.25 -0.109375,0.53125 -0.171875,0.703125 -0.4375,1.15625 -0.5625,1.609375 -0.5625,2.046875 0,1.078125 0.875,1.234375 1.328125,1.234375 1.671875,0 2.25,-3.296875 2.25,-3.8125 z m 0,0"
           id="id-af919684-a8e4-4b56-8920-5dde240cafa4" />
      </symbol>
      <symbol
         overflow="visible"
         id="id-4edc5f52-7327-43fb-b4cd-8bcfe8b28a6f">
        <path
           style="stroke:none;stroke-width:0"
           d=""
           id="id-d2dbfc0f-466d-4150-bb6c-66f46dd87188" />
      </symbol>
      <symbol
         overflow="visible"
         id="id-11594256-7bb9-4c17-baa8-6be55a8da63f">
        <path
           style="stroke:none;stroke-width:0"
           d="m 1.171875,-0.609375 c 0.1875,-0.1875 0.3125,-0.3125 0.890625,-0.796875 0.15625,-0.109375 0.671875,-0.53125 0.875,-0.71875 0.421875,-0.421875 0.6875,-0.78125 0.6875,-0.859375 0,-0.09375 -0.078125,-0.09375 -0.109375,-0.09375 -0.0625,0 -0.09375,0.015625 -0.125,0.078125 -0.21875,0.3125 -0.359375,0.421875 -0.53125,0.421875 -0.078125,0 -0.1875,0 -0.390625,-0.203125 -0.234375,-0.25 -0.390625,-0.296875 -0.546875,-0.296875 -0.5625,0 -0.9375,0.609375 -0.9375,0.8125 0,0.078125 0.0625,0.09375 0.109375,0.09375 0.09375,0 0.109375,-0.015625 0.125,-0.09375 0.109375,-0.25 0.5,-0.265625 0.609375,-0.265625 0.171875,0 0.34375,0.046875 0.4375,0.0625 0.390625,0.078125 0.4375,0.078125 0.609375,0.078125 -0.171875,0.203125 -0.296875,0.328125 -0.96875,0.84375 -0.546875,0.4375 -0.734375,0.609375 -0.859375,0.75 -0.421875,0.40625 -0.625,0.71875 -0.625,0.78125 0,0.078125 0.09375,0.078125 0.125,0.078125 0.0625,0 0.078125,0 0.109375,-0.0625 0.1875,-0.265625 0.40625,-0.421875 0.640625,-0.421875 0.09375,0 0.1875,0 0.375,0.171875 0.21875,0.21875 0.359375,0.3125 0.59375,0.3125 C 3,0.0625 3.46875,-0.78125 3.46875,-1.015625 3.46875,-1.09375 3.390625,-1.09375 3.359375,-1.09375 3.265625,-1.09375 3.25,-1.0625 3.21875,-0.984375 3.09375,-0.640625 2.6875,-0.46875 2.34375,-0.46875 2.1875,-0.46875 2,-0.515625 1.828125,-0.546875 1.515625,-0.625 1.453125,-0.625 1.328125,-0.625 c -0.015625,0 -0.109375,0 -0.15625,0.015625 z m 0,0"
           id="id-23e597d5-01f7-47fe-ac93-a92a05657499" />
      </symbol>
    </g>
    <g
       id="id-6ab97043-a07f-4fcb-97b2-1fe2ca6a445e">
      <symbol
         overflow="visible"
         id="id-96b7d6e2-bf13-4d1f-b865-f0462377a3d1">
        <path
           style="stroke:none;stroke-width:0"
           d=""
           id="id-cc9bcc73-67b8-4739-97b4-cbb46bc29036" />
      </symbol>
      <symbol
         overflow="visible"
         id="id-9ae12039-6f36-4583-b3eb-84568e363c98">
        <path
           style="stroke:none;stroke-width:0"
           d="m 2.859375,-6.921875 -1.5625,1.265625 0.28125,0.375 1.28125,-0.8125 1.28125,0.8125 0.28125,-0.375 z m 0,0"
           id="id-f310ddac-62e8-4993-ac47-a1603d20ecd1" />
      </symbol>
      <symbol
         overflow="visible"
         id="id-3964fbdf-b10a-43bf-9e46-839a4e52d502">
        <path
           style="stroke:none;stroke-width:0"
           d="M 3.453125,-2.453125 4.609375,-3.75 C 4.75,-3.890625 4.8125,-3.953125 5.625,-3.953125 v -0.46875 c -0.34375,0.015625 -0.859375,0.03125 -0.90625,0.03125 -0.25,0 -0.75,-0.03125 -1.03125,-0.03125 v 0.46875 c 0.140625,0 0.265625,0.015625 0.375,0.078125 -0.03125,0.0625 -0.03125,0.09375 -0.078125,0.125 L 3.15625,-2.8125 2.171875,-3.953125 h 0.40625 v -0.46875 c -0.265625,0 -0.890625,0.03125 -1.21875,0.03125 -0.3125,0 -0.765625,-0.03125 -1.09375,-0.03125 v 0.46875 h 0.71875 L 2.53125,-2.125 1.21875,-0.65625 c -0.15625,0.1875 -0.515625,0.1875 -1,0.1875 V 0 c 0.34375,-0.015625 0.875,-0.03125 0.921875,-0.03125 0.25,0 0.828125,0.015625 1.015625,0.03125 v -0.46875 c -0.171875,0 -0.359375,-0.046875 -0.359375,-0.109375 0,-0.015625 0,-0.015625 0.0625,-0.09375 l 0.96875,-1.09375 1.09375,1.296875 H 3.53125 V 0 c 0.265625,-0.015625 0.875,-0.03125 1.203125,-0.03125 0.3125,0 0.765625,0.015625 1.09375,0.03125 V -0.46875 H 5.125 Z m 0,0"
           id="id-e252afb8-1085-465e-b7dd-70d311bcb37b" />
      </symbol>
    </g>
    <g
       id="id-8191e5f8-2aae-4155-8f5a-97ae08d08c04">
      <symbol
         overflow="visible"
         id="id-6e1737cc-cc79-4a08-ae6b-79e57e41e220">
        <path
           style="stroke:none"
           d=""
           id="id-44fdaee1-89d4-4f30-acea-62841ee76fc8" />
      </symbol>
      <symbol
         overflow="visible"
         id="id-e97978b6-a28e-40b1-8987-d5ad59df77e3">
        <path
           style="stroke:none"
           d="m 2.859375,-6.921875 -1.5625,1.265625 0.28125,0.375 1.28125,-0.8125 1.28125,0.8125 0.28125,-0.375 z m 0,0"
           id="id-8f6a7052-f8a5-4ff3-91db-d8455431fb70" />
      </symbol>
      <symbol
         overflow="visible"
         id="id-49d5a334-c623-4dfd-bbb2-7667773cdb18">
        <path
           style="stroke:none"
           d="M 4.46875,-4 C 4.5625,-4.109375 4.578125,-4.125 4.578125,-4.21875 4.578125,-4.421875 4.4375,-4.421875 4.25,-4.421875 H 0.59375 L 0.484375,-2.6875 h 0.46875 C 1,-3.703125 1.3125,-4.0625 2.34375,-4.0625 H 3.1875 l -2.78125,3.625 C 0.3125,-0.328125 0.3125,-0.3125 0.3125,-0.21875 0.3125,0 0.453125,0 0.640625,0 h 3.78125 l 0.1875,-2.015625 H 4.140625 C 4.046875,-1 3.890625,-0.40625 2.578125,-0.40625 H 1.71875 Z m 0,0"
           id="id-63c96ba0-ff1a-4546-8845-ffa2af002a0a" />
      </symbol>
    </g>
    <g
       id="id-c3f315e2-db5c-4c39-a48c-3c016e9ebd9b">
      <symbol
         overflow="visible"
         id="id-114a1695-eedb-43b3-9bfa-12ab9b218238">
        <path
           style="stroke:none;stroke-width:0"
           d=""
           id="id-bf35f0be-37a2-4ad3-9be2-0fbd1409b85b" />
      </symbol>
      <symbol
         overflow="visible"
         id="id-bcecef0e-2145-479e-8f70-e0f2b45d305d">
        <path
           style="stroke:none;stroke-width:0"
           d="m 2.859375,-6.921875 -1.5625,1.265625 0.28125,0.375 1.28125,-0.8125 1.28125,0.8125 0.28125,-0.375 z m 0,0"
           id="id-cef710c7-8f8f-466f-9f6f-c39b2eb9a732" />
      </symbol>
      <symbol
         overflow="visible"
         id="id-d8345a83-12e6-41ad-a8d9-ea92cc12c79e">
        <path
           style="stroke:none;stroke-width:0"
           d="m 5.046875,-3.75 c 0.0625,-0.140625 0.09375,-0.203125 0.734375,-0.203125 v -0.46875 C 5.546875,-4.40625 5.25,-4.390625 5,-4.390625 c -0.25,0 -0.703125,-0.03125 -0.90625,-0.03125 v 0.46875 c 0.015625,0 0.46875,0 0.46875,0.109375 0,0.015625 -0.046875,0.109375 -0.0625,0.125 L 3.359375,-1.265625 2.09375,-3.953125 H 2.625 v -0.46875 c -0.328125,0.015625 -1.21875,0.03125 -1.234375,0.03125 -0.28125,0 -0.71875,-0.03125 -1.125,-0.03125 v 0.46875 h 0.625 L 2.765625,0 2.53125,0.484375 C 2.3125,0.953125 2,1.640625 1.28125,1.640625 1.140625,1.640625 1.125,1.625 1.046875,1.59375 1.140625,1.5625 1.359375,1.421875 1.359375,1.0625 1.359375,0.734375 1.125,0.5 0.78125,0.5 0.515625,0.5 0.21875,0.6875 0.21875,1.078125 0.21875,1.578125 0.6875,2 1.28125,2 2.046875,2 2.625,1.375 2.90625,0.8125 Z m 0,0"
           id="id-5a3a29a7-1aad-4752-b68a-ec3937e8e8fe" />
      </symbol>
    </g>
    <g
       id="id-0342c17a-4c54-418f-8f5b-e7b39ad72aff">
      <symbol
         overflow="visible"
         id="id-9159410d-df8a-461e-9831-77d7a59a1ee5">
        <path
           style="stroke:none;stroke-width:0"
           d=""
           id="id-225bf945-3c49-486b-92ab-980be23f8c26" />
      </symbol>
      <symbol
         overflow="visible"
         id="id-70fe5fc5-1ba8-4fac-9c2b-959bb3e4db15">
        <path
           style="stroke:none;stroke-width:0"
           d="m 1.71875,-7.140625 c 0,-0.15625 0,-0.34375 -0.203125,-0.34375 -0.203125,0 -0.203125,0.234375 -0.203125,0.375 V 2.125 c 0,0.15625 0,0.375 0.203125,0.375 C 1.71875,2.5 1.71875,2.3125 1.71875,2.15625 Z m 1.9375,0.03125 c 0,-0.15625 0,-0.375 -0.203125,-0.375 -0.1875,0 -0.1875,0.1875 -0.1875,0.34375 V 2.15625 c 0,0.15625 0,0.34375 0.1875,0.34375 C 3.65625,2.5 3.65625,2.265625 3.65625,2.125 Z m 0,0"
           id="id-fa91c9f6-4d2c-499b-bc00-e34663004a00" />
      </symbol>
      <symbol
         overflow="visible"
         id="id-b3d265c0-6b64-420a-827b-fffabdeb2f8f">
        <path
           style="stroke:none;stroke-width:0"
           d=""
           id="id-0847dca7-0a09-40fb-b85c-a87e0dc7511f" />
      </symbol>
      <symbol
         overflow="visible"
         id="id-f30c7946-b148-4bf4-8876-7c95b54ebba5">
        <path
           style="stroke:none;stroke-width:0"
           d="m 5.359375,-5.9375 c -0.140625,0.140625 -0.46875,0.421875 -0.46875,0.59375 0,0.09375 0.09375,0.203125 0.1875,0.203125 0.09375,0 0.140625,-0.078125 0.203125,-0.140625 C 5.390625,-5.421875 5.625,-5.703125 6.0625,-5.921875 6.125,-5.96875 6.234375,-6.015625 6.234375,-6.125 6.234375,-6.234375 6.15625,-6.28125 6.09375,-6.328125 5.875,-6.484375 5.765625,-6.65625 5.6875,-6.890625 5.65625,-6.984375 5.625,-7.125 5.484375,-7.125 c -0.140625,0 -0.203125,0.140625 -0.203125,0.21875 0,0.046875 0.078125,0.359375 0.234375,0.578125 H 2.15625 c -0.15625,0 -0.34375,0 -0.34375,0.203125 0,0.1875 0.1875,0.1875 0.34375,0.1875 z m 0,0"
           id="id-4de6b551-e240-4976-a847-6a9c2cffd5f3" />
      </symbol>
      <symbol
         overflow="visible"
         id="id-7b566ec8-d368-49d9-9b50-8ecca1ab764c">
        <path
           style="stroke:none;stroke-width:0"
           d="m 4.671875,-3.703125 c 0,-0.546875 -0.265625,-0.703125 -0.4375,-0.703125 -0.25,0 -0.5,0.265625 -0.5,0.484375 0,0.125 0.046875,0.1875 0.15625,0.296875 0.21875,0.203125 0.34375,0.453125 0.34375,0.8125 0,0.421875 -0.609375,2.703125 -1.765625,2.703125 -0.515625,0 -0.75,-0.34375 -0.75,-0.875 0,-0.546875 0.28125,-1.28125 0.578125,-2.109375 0.078125,-0.171875 0.125,-0.3125 0.125,-0.5 0,-0.4375 -0.3125,-0.8125 -0.8125,-0.8125 -0.9375,0 -1.3125,1.453125 -1.3125,1.53125 0,0.109375 0.09375,0.109375 0.109375,0.109375 0.109375,0 0.109375,-0.03125 0.15625,-0.1875 0.296875,-1 0.71875,-1.234375 1.015625,-1.234375 0.078125,0 0.25,0 0.25,0.3125 0,0.25 -0.109375,0.53125 -0.171875,0.703125 -0.4375,1.15625 -0.5625,1.609375 -0.5625,2.046875 0,1.078125 0.875,1.234375 1.328125,1.234375 1.671875,0 2.25,-3.296875 2.25,-3.8125 z m 0,0"
           id="id-6e509957-8da5-4f8b-9ed9-c657b6445a2f" />
      </symbol>
    </g>
  </defs>
  <g
     inkscape:label="Layer 1"
     inkscape:groupmode="layer"
     id="layer1">
    <g
       id="g2113"
       transform="matrix(0.71756646,0,0,0.6925105,-12.587769,-0.1287572)"
       style="fill:#000000;fill-opacity:1;stroke:#000000;stroke-opacity:1">
      <path
         style="fill:#000000;fill-opacity:1;stroke:#000000;stroke-width:0.264583px;stroke-linecap:butt;stroke-linejoin:miter;stroke-opacity:1"
         d="M 154.98283,57.536394 101.99484,69.423192"
         id="path526" />
      <path
         sodipodi:type="star"
         style="font-variation-settings:normal;opacity:1;vector-effect:none;fill:#000000;fill-opacity:1;fill-rule:evenodd;stroke:#000000;stroke-width:2.26772;stroke-linecap:butt;stroke-linejoin:miter;stroke-miterlimit:4;stroke-dasharray:none;stroke-dashoffset:0.226772;stroke-opacity:1;-inkscape-stroke:none;stop-color:#000000;stop-opacity:1"
         id="path2091"
         inkscape:flatsided="false"
         sodipodi:sides="3"
         sodipodi:cx="651.7666"
         sodipodi:cy="220.58768"
         sodipodi:r1="7.0842271"
         sodipodi:r2="3.2436836"
         sodipodi:arg1="-0.85196633"
         sodipodi:arg2="0.19523122"
         inkscape:rounded="0"
         inkscape:randomized="0"
         transform="matrix(0.13921244,-0.22499829,-0.22499829,-0.13921244,112.03167,235.19873)"
         inkscape:transform-center-x="-0.93500896"
         inkscape:transform-center-y="0.078723553"
         d="m 656.4316,215.25625 -1.48294,5.96068 -0.89741,6.07646 -4.42063,-4.26459 -4.81367,-3.81542 5.90357,-1.69608 z" />
    </g>
    <path
       style="fill:#ff7000;fill-opacity:0.20161301;stroke:none;stroke-width:0.264583px;stroke-linecap:butt;stroke-linejoin:miter;stroke-opacity:1"
       d="M 60.600307,47.947531 75.46958,37.676342 97.002271,39.164131 82.133,49.43532 Z"
       id="path11382" />
    <path
       style="fill:#ff7000;fill-opacity:0.20161301;stroke:none;stroke-width:0.264583px;stroke-linecap:butt;stroke-linejoin:miter;stroke-opacity:1"
       d="M 64.476176,38.761443 79.345449,28.490254 100.87814,29.978043 86.008869,40.249232 Z"
       id="path11752" />
    <path
       style="fill:#ff7000;fill-opacity:0.20161301;stroke:none;stroke-width:0.264583px;stroke-linecap:butt;stroke-linejoin:miter;stroke-opacity:1"
       d="M 68.019877,30.046429 82.88915,19.77524 104.42184,21.263029 89.55257,31.534218 Z"
       id="path11829" />
    <g
       id="g2118"
       transform="matrix(0.71756646,0,0,0.6925105,-12.587769,-0.1287572)"
       style="fill:#000000;fill-opacity:1;stroke:#000000;stroke-opacity:1">
      <path
         sodipodi:type="star"
         style="font-variation-settings:normal;opacity:1;vector-effect:none;fill:#000000;fill-opacity:1;fill-rule:evenodd;stroke:#000000;stroke-width:2.26772;stroke-linecap:butt;stroke-linejoin:miter;stroke-miterlimit:4;stroke-dasharray:none;stroke-dashoffset:0.226772;stroke-opacity:1;-inkscape-stroke:none;stop-color:#000000;stop-opacity:1"
         id="path2335"
         inkscape:flatsided="false"
         sodipodi:sides="3"
         sodipodi:cx="651.7666"
         sodipodi:cy="220.58768"
         sodipodi:r1="7.0842271"
         sodipodi:r2="3.2436836"
         sodipodi:arg1="-0.85196633"
         sodipodi:arg2="0.19523122"
         inkscape:rounded="0"
         inkscape:randomized="0"
         transform="matrix(0.13921244,0.22499829,-0.22499829,0.13921244,112.1046,-96.307401)"
         inkscape:transform-center-x="-0.93500896"
         inkscape:transform-center-y="-0.078727127"
         d="m 656.4316,215.25625 -1.48294,5.96068 -0.89741,6.07646 -4.42063,-4.26459 -4.81367,-3.81542 5.90357,-1.69608 z" />
      <g
         id="g613"
         style="fill:#000000;fill-opacity:1;stroke:#000000;stroke-opacity:1">
        <path
           style="fill:#000000;fill-opacity:1;stroke:#000000;stroke-width:0.264583px;stroke-linecap:butt;stroke-linejoin:miter;stroke-opacity:1"
           d="m 101.99484,69.423194 53.06091,11.93174"
           id="path2817" />
      </g>
    </g>
    <path
       style="fill:none;stroke:#000000;stroke-width:0.186512px;stroke-linecap:butt;stroke-linejoin:miter;stroke-opacity:1"
       d="M 22.982012,56.138037 60.600308,47.947533"
       id="path3151" />
    <path
       style="fill:none;stroke:#000000;stroke-width:0.186512px;stroke-linecap:butt;stroke-linejoin:miter;stroke-opacity:1"
       d="m 22.982012,39.715798 37.618296,8.231735"
       id="path411" />
    <g
       id="g4448"
       transform="matrix(0.71756646,0,0,0.6925105,-12.587769,-0.1287572)"
       style="fill:#000000;fill-opacity:1;stroke:#000000;stroke-opacity:1">
      <path
         style="fill:#000000;fill-opacity:1;stroke:#000000;stroke-width:0.264583px;stroke-linecap:butt;stroke-linejoin:miter;stroke-opacity:1"
         d="m 101.81474,15.118582 0.1801,54.30461"
         id="path3477" />
      <path
         sodipodi:type="star"
         style="font-variation-settings:normal;opacity:1;vector-effect:none;fill:#000000;fill-opacity:1;fill-rule:evenodd;stroke:#000000;stroke-width:2.26772;stroke-linecap:butt;stroke-linejoin:miter;stroke-miterlimit:4;stroke-dasharray:none;stroke-dashoffset:0.226772;stroke-opacity:1;-inkscape-stroke:none;stop-color:#000000;stop-opacity:1"
         id="path3479"
         inkscape:flatsided="false"
         sodipodi:sides="3"
         sodipodi:cx="651.7666"
         sodipodi:cy="220.58768"
         sodipodi:r1="7.0842271"
         sodipodi:r2="3.2436836"
         sodipodi:arg1="-0.85196633"
         sodipodi:arg2="0.19523122"
         inkscape:rounded="0"
         inkscape:randomized="0"
         transform="matrix(-0.16715805,-0.14160244,-0.14674364,0.16239987,243.13232,73.725266)"
         inkscape:transform-center-x="-0.84670449"
         inkscape:transform-center-y="-0.014167344"
         d="m 656.4316,215.25625 -1.48294,5.96068 -0.89741,6.07646 -4.42063,-4.26459 -4.81367,-3.81542 5.90357,-1.69608 z" />
    </g>
    <path
       style="fill:none;stroke:#000000;stroke-width:0.186512px;stroke-linecap:butt;stroke-linejoin:miter;stroke-opacity:1"
       d="M 60.600308,47.947533 V 81.497635"
       id="path5427" />
    <path
       style="fill:#009c10;stroke:#00ce10;stroke-width:0.26458299;stroke-linecap:butt;stroke-linejoin:miter;stroke-opacity:1;stroke-miterlimit:4;stroke-dasharray:1.05833194, 1.05833194;stroke-dashoffset:0;fill-opacity:1"
       d="M 60.600307,47.947531 75.46958,37.676342"
       id="path10375" />
    <path
       style="fill:#fd8100;stroke:#ff6600;stroke-width:0.26458299;stroke-linecap:butt;stroke-linejoin:miter;stroke-opacity:1;stroke-miterlimit:4;stroke-dasharray:1.05833194, 1.05833194;stroke-dashoffset:0;fill-opacity:1"
       d="m 75.46958,37.676342 21.532693,1.487789"
       id="path10999" />
    <path
       style="fill:none;stroke:#800080;stroke-width:0.26458299;stroke-linecap:butt;stroke-linejoin:miter;stroke-opacity:1;stroke-miterlimit:4;stroke-dasharray:1.05833194, 1.05833194;stroke-dashoffset:0"
       d="m 60.600307,47.947531 7.41957,-17.901102"
       id="path11132" />
    <path
       style="fill:none;stroke:#800080;stroke-width:0.26458299;stroke-linecap:butt;stroke-linejoin:miter;stroke-opacity:1;stroke-miterlimit:4;stroke-dasharray:1.05833194, 1.05833194;stroke-dashoffset:0"
       d="M 75.46958,37.676342 82.88915,19.77524"
       id="path11345" />
    <path
       style="fill:none;stroke:#800080;stroke-width:0.26458299;stroke-linecap:butt;stroke-linejoin:miter;stroke-opacity:1;stroke-miterlimit:4;stroke-dasharray:1.05833194, 1.05833194;stroke-dashoffset:0"
       d="M 82.133,49.43532 89.55257,31.534218"
       id="path11347" />
    <g
       transform="matrix(0.768574,0,0,0.768574,78.024305,7.1289008)"
       ns2:version="1.5.0"
       ns2:texconverter="pdflatex"
       ns2:pdfconverter="inkscape"
       ns2:text="$$\n\\vec{a} \\wedge \\vec{b} \\wedge \\vec{c}\n$$\n"
       ns2:preamble="default_packages.tex"
       ns2:scale="2.17863472211986"
       ns2:alignment="middle center"
       ns2:stroke-to-path="0"
       ns2:inkscapeversion="1.1"
       ns2:jacobian_sqrt="0.768574"
       id="g12141">
      <defs
         id="id-db530505-0862-439e-8f8e-cf24520c78ea">
        <g
           id="id-ea760c07-af68-40c5-a336-b6a73ac3b5c5">
          <symbol
             overflow="visible"
             id="id-2abbecd0-7a83-4f50-9a22-52c56b155a2b">
            <path
               style="stroke:none;stroke-width:0"
               d=""
               id="id-03dc4360-520b-45c3-acd9-f35a2ddcc612" />
          </symbol>
          <symbol
             overflow="visible"
             id="id-fc2bde3a-6074-4be6-8867-058a186cb74d">
            <path
               style="stroke:none;stroke-width:0"
               d="m 5.359375,-5.9375 c -0.140625,0.140625 -0.46875,0.421875 -0.46875,0.59375 0,0.09375 0.09375,0.203125 0.1875,0.203125 0.09375,0 0.140625,-0.078125 0.203125,-0.140625 C 5.390625,-5.421875 5.625,-5.703125 6.0625,-5.921875 6.125,-5.96875 6.234375,-6.015625 6.234375,-6.125 6.234375,-6.234375 6.15625,-6.28125 6.09375,-6.328125 5.875,-6.484375 5.765625,-6.65625 5.6875,-6.890625 5.65625,-6.984375 5.625,-7.125 5.484375,-7.125 c -0.140625,0 -0.203125,0.140625 -0.203125,0.21875 0,0.046875 0.078125,0.359375 0.234375,0.578125 H 2.15625 c -0.15625,0 -0.34375,0 -0.34375,0.203125 0,0.1875 0.1875,0.1875 0.34375,0.1875 z m 0,0"
               id="id-e7c8f1e6-e384-4c30-89af-24c41514e677" />
          </symbol>
          <symbol
             overflow="visible"
             id="id-dafbca6f-0f43-42f3-bd66-3993592ef78f">
            <path
               style="stroke:none;stroke-width:0"
               d="M 3.71875,-3.765625 C 3.53125,-4.140625 3.25,-4.40625 2.796875,-4.40625 c -1.15625,0 -2.390625,1.46875 -2.390625,2.921875 0,0.9375 0.546875,1.59375 1.3125,1.59375 0.203125,0 0.703125,-0.046875 1.296875,-0.75 0.078125,0.421875 0.4375,0.75 0.90625,0.75 0.359375,0 0.578125,-0.234375 0.75,-0.546875 0.15625,-0.359375 0.296875,-0.96875 0.296875,-0.984375 0,-0.109375 -0.09375,-0.109375 -0.125,-0.109375 -0.09375,0 -0.109375,0.046875 -0.140625,0.1875 -0.171875,0.640625 -0.34375,1.234375 -0.75,1.234375 -0.28125,0 -0.296875,-0.265625 -0.296875,-0.453125 0,-0.21875 0.015625,-0.3125 0.125,-0.75 C 3.890625,-1.71875 3.90625,-1.828125 4,-2.203125 L 4.359375,-3.59375 c 0.0625,-0.28125 0.0625,-0.296875 0.0625,-0.34375 0,-0.171875 -0.109375,-0.265625 -0.28125,-0.265625 -0.25,0 -0.390625,0.21875 -0.421875,0.4375 z M 3.078125,-1.1875 C 3.015625,-1 3.015625,-0.984375 2.875,-0.8125 2.4375,-0.265625 2.03125,-0.109375 1.75,-0.109375 c -0.5,0 -0.640625,-0.546875 -0.640625,-0.9375 0,-0.5 0.3125,-1.71875 0.546875,-2.1875 0.3125,-0.578125 0.75,-0.953125 1.15625,-0.953125 0.640625,0 0.78125,0.8125 0.78125,0.875 0,0.0625 -0.015625,0.125 -0.03125,0.171875 z m 0,0"
               id="id-97e73c8f-ef7e-4f7a-9906-0a697fc3c8d3" />
          </symbol>
          <symbol
             overflow="visible"
             id="id-09527d3b-e38c-4fcf-9631-616fb59f5163">
            <path
               style="stroke:none;stroke-width:0"
               d="m 2.375,-6.8125 c 0,0 0,-0.109375 -0.125,-0.109375 -0.21875,0 -0.953125,0.078125 -1.21875,0.109375 -0.078125,0 -0.1875,0.015625 -0.1875,0.1875 0,0.125 0.09375,0.125 0.25,0.125 0.46875,0 0.484375,0.0625 0.484375,0.171875 0,0.0625 -0.078125,0.40625 -0.125,0.609375 l -0.828125,3.25 c -0.109375,0.5 -0.15625,0.671875 -0.15625,1.015625 0,0.9375 0.53125,1.5625 1.265625,1.5625 1.171875,0 2.40625,-1.484375 2.40625,-2.921875 0,-0.90625 -0.53125,-1.59375 -1.328125,-1.59375 -0.453125,0 -0.875,0.296875 -1.171875,0.59375 z M 1.453125,-3.046875 C 1.5,-3.265625 1.5,-3.28125 1.59375,-3.390625 2.078125,-4.03125 2.53125,-4.1875 2.796875,-4.1875 c 0.359375,0 0.625,0.296875 0.625,0.9375 0,0.59375 -0.328125,1.734375 -0.515625,2.109375 -0.328125,0.671875 -0.78125,1.03125 -1.171875,1.03125 -0.34375,0 -0.671875,-0.265625 -0.671875,-1 0,-0.203125 0,-0.390625 0.15625,-1.015625 z m 0,0"
               id="id-94c0fb59-bcd8-4a94-b8c8-3578eaad8c73" />
          </symbol>
          <symbol
             overflow="visible"
             id="id-0bba639b-ab36-4a34-9e7b-42edd55a66a4">
            <path
               style="stroke:none;stroke-width:0"
               d="m 3.953125,-3.78125 c -0.171875,0 -0.296875,0 -0.4375,0.125 -0.171875,0.15625 -0.1875,0.328125 -0.1875,0.390625 0,0.25 0.1875,0.359375 0.375,0.359375 0.28125,0 0.546875,-0.25 0.546875,-0.640625 0,-0.484375 -0.46875,-0.859375 -1.171875,-0.859375 -1.34375,0 -2.671875,1.421875 -2.671875,2.828125 0,0.90625 0.578125,1.6875 1.625,1.6875 1.421875,0 2.25,-1.0625 2.25,-1.171875 0,-0.0625 -0.046875,-0.140625 -0.109375,-0.140625 -0.0625,0 -0.078125,0.03125 -0.140625,0.109375 -0.78125,0.984375 -1.875,0.984375 -1.984375,0.984375 -0.625,0 -0.90625,-0.484375 -0.90625,-1.09375 0,-0.40625 0.203125,-1.375 0.546875,-1.984375 0.3125,-0.578125 0.859375,-1 1.40625,-1 0.328125,0 0.71875,0.125 0.859375,0.40625 z m 0,0"
               id="id-fee14515-195d-4126-a181-83a2ce3ebb47" />
          </symbol>
          <symbol
             overflow="visible"
             id="id-f375369e-77cc-4bd3-ab6e-0dc5dddcd4ab">
            <path
               style="stroke:none;stroke-width:0"
               d=""
               id="id-1a82a485-1f57-4c75-b2b3-ed39f33a103e" />
          </symbol>
          <symbol
             overflow="visible"
             id="id-9df97923-5a36-4890-b388-19ca52918616">
            <path
               style="stroke:none;stroke-width:0"
               d="M 3.546875,-5.75 C 3.46875,-5.921875 3.40625,-5.96875 3.3125,-5.96875 c -0.125,0 -0.15625,0.078125 -0.21875,0.21875 L 0.625,-0.171875 c -0.0625,0.125 -0.078125,0.140625 -0.078125,0.1875 0,0.109375 0.09375,0.203125 0.203125,0.203125 0.0625,0 0.140625,-0.015625 0.234375,-0.203125 L 3.3125,-5.28125 5.65625,0.015625 C 5.75,0.21875 5.859375,0.21875 5.890625,0.21875 6,0.21875 6.09375,0.125 6.09375,0.015625 c 0,-0.015625 0,-0.03125 -0.0625,-0.15625 z m 0,0"
               id="id-40a23c05-bde1-4066-8b09-a67c62740a92" />
          </symbol>
        </g>
      </defs>
      <g
         id="id-e3f77ffb-1878-456c-a7aa-f1513fd45157"
         transform="translate(-288.038,-136.966)">
        <g
           style="fill:#000000;fill-opacity:1"
           id="id-97af8edd-ff3f-4bd8-81eb-843c616ad132">
          <g
             transform="translate(287.004,146.72)"
             id="g12109">
            <path
               style="stroke:none;stroke-width:0"
               d="m 5.359375,-5.9375 c -0.140625,0.140625 -0.46875,0.421875 -0.46875,0.59375 0,0.09375 0.09375,0.203125 0.1875,0.203125 0.09375,0 0.140625,-0.078125 0.203125,-0.140625 C 5.390625,-5.421875 5.625,-5.703125 6.0625,-5.921875 6.125,-5.96875 6.234375,-6.015625 6.234375,-6.125 6.234375,-6.234375 6.15625,-6.28125 6.09375,-6.328125 5.875,-6.484375 5.765625,-6.65625 5.6875,-6.890625 5.65625,-6.984375 5.625,-7.125 5.484375,-7.125 c -0.140625,0 -0.203125,0.140625 -0.203125,0.21875 0,0.046875 0.078125,0.359375 0.234375,0.578125 H 2.15625 c -0.15625,0 -0.34375,0 -0.34375,0.203125 0,0.1875 0.1875,0.1875 0.34375,0.1875 z m 0,0"
               id="id-631f62fd-078a-4e28-a706-2d3e0215d35d" />
          </g>
        </g>
        <g
           style="fill:#000000;fill-opacity:1"
           id="id-f3000fa2-ea3c-4d64-a3b4-e827a49b262d">
          <g
             transform="translate(287.632,146.72)"
             id="g12113">
            <path
               style="stroke:none;stroke-width:0"
               d="M 3.71875,-3.765625 C 3.53125,-4.140625 3.25,-4.40625 2.796875,-4.40625 c -1.15625,0 -2.390625,1.46875 -2.390625,2.921875 0,0.9375 0.546875,1.59375 1.3125,1.59375 0.203125,0 0.703125,-0.046875 1.296875,-0.75 0.078125,0.421875 0.4375,0.75 0.90625,0.75 0.359375,0 0.578125,-0.234375 0.75,-0.546875 0.15625,-0.359375 0.296875,-0.96875 0.296875,-0.984375 0,-0.109375 -0.09375,-0.109375 -0.125,-0.109375 -0.09375,0 -0.109375,0.046875 -0.140625,0.1875 -0.171875,0.640625 -0.34375,1.234375 -0.75,1.234375 -0.28125,0 -0.296875,-0.265625 -0.296875,-0.453125 0,-0.21875 0.015625,-0.3125 0.125,-0.75 C 3.890625,-1.71875 3.90625,-1.828125 4,-2.203125 L 4.359375,-3.59375 c 0.0625,-0.28125 0.0625,-0.296875 0.0625,-0.34375 0,-0.171875 -0.109375,-0.265625 -0.28125,-0.265625 -0.25,0 -0.390625,0.21875 -0.421875,0.4375 z M 3.078125,-1.1875 C 3.015625,-1 3.015625,-0.984375 2.875,-0.8125 2.4375,-0.265625 2.03125,-0.109375 1.75,-0.109375 c -0.5,0 -0.640625,-0.546875 -0.640625,-0.9375 0,-0.5 0.3125,-1.71875 0.546875,-2.1875 0.3125,-0.578125 0.75,-0.953125 1.15625,-0.953125 0.640625,0 0.78125,0.8125 0.78125,0.875 0,0.0625 -0.015625,0.125 -0.03125,0.171875 z m 0,0"
               id="id-1aef8f58-fd49-4a09-9e85-3ab30c1ec1c5" />
          </g>
        </g>
        <g
           style="fill:#000000;fill-opacity:1"
           id="id-11e98a73-e7f6-4938-9490-d92ebd15c639">
          <g
             transform="translate(295.108,146.72)"
             id="g12117">
            <path
               style="stroke:none;stroke-width:0"
               d="M 3.546875,-5.75 C 3.46875,-5.921875 3.40625,-5.96875 3.3125,-5.96875 c -0.125,0 -0.15625,0.078125 -0.21875,0.21875 L 0.625,-0.171875 c -0.0625,0.125 -0.078125,0.140625 -0.078125,0.1875 0,0.109375 0.09375,0.203125 0.203125,0.203125 0.0625,0 0.140625,-0.015625 0.234375,-0.203125 L 3.3125,-5.28125 5.65625,0.015625 C 5.75,0.21875 5.859375,0.21875 5.890625,0.21875 6,0.21875 6.09375,0.125 6.09375,0.015625 c 0,-0.015625 0,-0.03125 -0.0625,-0.15625 z m 0,0"
               id="id-6fc47dde-026f-4c42-86a4-bb519a72f254" />
          </g>
        </g>
        <g
           style="fill:#000000;fill-opacity:1"
           id="id-8fdae965-5de5-438d-844a-1809aef7b797">
          <g
             transform="translate(302.844,144.091)"
             id="g12121">
            <path
               style="stroke:none;stroke-width:0"
               d="m 5.359375,-5.9375 c -0.140625,0.140625 -0.46875,0.421875 -0.46875,0.59375 0,0.09375 0.09375,0.203125 0.1875,0.203125 0.09375,0 0.140625,-0.078125 0.203125,-0.140625 C 5.390625,-5.421875 5.625,-5.703125 6.0625,-5.921875 6.125,-5.96875 6.234375,-6.015625 6.234375,-6.125 6.234375,-6.234375 6.15625,-6.28125 6.09375,-6.328125 5.875,-6.484375 5.765625,-6.65625 5.6875,-6.890625 5.65625,-6.984375 5.625,-7.125 5.484375,-7.125 c -0.140625,0 -0.203125,0.140625 -0.203125,0.21875 0,0.046875 0.078125,0.359375 0.234375,0.578125 H 2.15625 c -0.15625,0 -0.34375,0 -0.34375,0.203125 0,0.1875 0.1875,0.1875 0.34375,0.1875 z m 0,0"
               id="id-42a166d9-54d1-49c7-a095-677504f84be8" />
          </g>
        </g>
        <g
           style="fill:#000000;fill-opacity:1"
           id="id-023ac696-3924-46a8-8f7a-8e02ba685254">
          <g
             transform="translate(303.963,146.72)"
             id="g12125">
            <path
               style="stroke:none;stroke-width:0"
               d="m 2.375,-6.8125 c 0,0 0,-0.109375 -0.125,-0.109375 -0.21875,0 -0.953125,0.078125 -1.21875,0.109375 -0.078125,0 -0.1875,0.015625 -0.1875,0.1875 0,0.125 0.09375,0.125 0.25,0.125 0.46875,0 0.484375,0.0625 0.484375,0.171875 0,0.0625 -0.078125,0.40625 -0.125,0.609375 l -0.828125,3.25 c -0.109375,0.5 -0.15625,0.671875 -0.15625,1.015625 0,0.9375 0.53125,1.5625 1.265625,1.5625 1.171875,0 2.40625,-1.484375 2.40625,-2.921875 0,-0.90625 -0.53125,-1.59375 -1.328125,-1.59375 -0.453125,0 -0.875,0.296875 -1.171875,0.59375 z M 1.453125,-3.046875 C 1.5,-3.265625 1.5,-3.28125 1.59375,-3.390625 2.078125,-4.03125 2.53125,-4.1875 2.796875,-4.1875 c 0.359375,0 0.625,0.296875 0.625,0.9375 0,0.59375 -0.328125,1.734375 -0.515625,2.109375 -0.328125,0.671875 -0.78125,1.03125 -1.171875,1.03125 -0.34375,0 -0.671875,-0.265625 -0.671875,-1 0,-0.203125 0,-0.390625 0.15625,-1.015625 z m 0,0"
               id="id-f839d91f-a6cc-48da-80e7-11aed0044341" />
          </g>
        </g>
        <g
           style="fill:#000000;fill-opacity:1"
           id="id-46fa146a-c5e2-4a89-9e08-d19b9f2604c0">
          <g
             transform="translate(310.453,146.72)"
             id="g12129">
            <path
               style="stroke:none;stroke-width:0"
               d="M 3.546875,-5.75 C 3.46875,-5.921875 3.40625,-5.96875 3.3125,-5.96875 c -0.125,0 -0.15625,0.078125 -0.21875,0.21875 L 0.625,-0.171875 c -0.0625,0.125 -0.078125,0.140625 -0.078125,0.1875 0,0.109375 0.09375,0.203125 0.203125,0.203125 0.0625,0 0.140625,-0.015625 0.234375,-0.203125 L 3.3125,-5.28125 5.65625,0.015625 C 5.75,0.21875 5.859375,0.21875 5.890625,0.21875 6,0.21875 6.09375,0.125 6.09375,0.015625 c 0,-0.015625 0,-0.03125 -0.0625,-0.15625 z m 0,0"
               id="id-92d6e2e4-66c3-4aeb-bf66-9b78c8585d54" />
          </g>
        </g>
        <g
           style="fill:#000000;fill-opacity:1"
           id="id-7fc6c789-99b5-44f1-af7c-5dc71edfeeb9">
          <g
             transform="translate(318.761,146.72)"
             id="g12133">
            <path
               style="stroke:none;stroke-width:0"
               d="m 5.359375,-5.9375 c -0.140625,0.140625 -0.46875,0.421875 -0.46875,0.59375 0,0.09375 0.09375,0.203125 0.1875,0.203125 0.09375,0 0.140625,-0.078125 0.203125,-0.140625 C 5.390625,-5.421875 5.625,-5.703125 6.0625,-5.921875 6.125,-5.96875 6.234375,-6.015625 6.234375,-6.125 6.234375,-6.234375 6.15625,-6.28125 6.09375,-6.328125 5.875,-6.484375 5.765625,-6.65625 5.6875,-6.890625 5.65625,-6.984375 5.625,-7.125 5.484375,-7.125 c -0.140625,0 -0.203125,0.140625 -0.203125,0.21875 0,0.046875 0.078125,0.359375 0.234375,0.578125 H 2.15625 c -0.15625,0 -0.34375,0 -0.34375,0.203125 0,0.1875 0.1875,0.1875 0.34375,0.1875 z m 0,0"
               id="id-23436066-f154-4394-bfcf-7ac89865801f" />
          </g>
        </g>
        <g
           style="fill:#000000;fill-opacity:1"
           id="id-da83f55b-c3a1-4d52-b03b-45856d4f73a0">
          <g
             transform="translate(319.309,146.72)"
             id="g12137">
            <path
               style="stroke:none;stroke-width:0"
               d="m 3.953125,-3.78125 c -0.171875,0 -0.296875,0 -0.4375,0.125 -0.171875,0.15625 -0.1875,0.328125 -0.1875,0.390625 0,0.25 0.1875,0.359375 0.375,0.359375 0.28125,0 0.546875,-0.25 0.546875,-0.640625 0,-0.484375 -0.46875,-0.859375 -1.171875,-0.859375 -1.34375,0 -2.671875,1.421875 -2.671875,2.828125 0,0.90625 0.578125,1.6875 1.625,1.6875 1.421875,0 2.25,-1.0625 2.25,-1.171875 0,-0.0625 -0.046875,-0.140625 -0.109375,-0.140625 -0.0625,0 -0.078125,0.03125 -0.140625,0.109375 -0.78125,0.984375 -1.875,0.984375 -1.984375,0.984375 -0.625,0 -0.90625,-0.484375 -0.90625,-1.09375 0,-0.40625 0.203125,-1.375 0.546875,-1.984375 0.3125,-0.578125 0.859375,-1 1.40625,-1 0.328125,0 0.71875,0.125 0.859375,0.40625 z m 0,0"
               id="id-17247ed9-d911-4a7e-a6e5-26f80a0e1b8d" />
          </g>
        </g>
      </g>
    </g>
    <g
       id="g16611">
      <path
         style="fill:#fd8100;stroke:#ff6600;stroke-width:0.264583px;stroke-linecap:butt;stroke-linejoin:miter;stroke-opacity:1;fill-opacity:1"
         d="M 60.600307,47.947531 82.133,49.43532"
         id="path10490" />
      <path
         sodipodi:type="star"
         style="font-variation-settings:normal;opacity:1;vector-effect:none;fill:#ff7600;fill-opacity:1;fill-rule:evenodd;stroke-width:2.26772;stroke-linecap:butt;stroke-linejoin:miter;stroke-miterlimit:4;stroke-dasharray:none;stroke-dashoffset:0.226772;stroke-opacity:1;-inkscape-stroke:none;stop-color:#000000;stop-opacity:1"
         id="path12686"
         inkscape:flatsided="false"
         sodipodi:sides="3"
         sodipodi:cx="296.38358"
         sodipodi:cy="176.8027"
         sodipodi:r1="6.1010661"
         sodipodi:r2="2.7935195"
         sodipodi:arg1="0.18822151"
         sodipodi:arg2="1.2354191"
         inkscape:rounded="0"
         inkscape:randomized="0"
         d="m 302.37689,177.94429 -5.0739,1.4963 -4.90471,1.98168 1.24111,-5.14227 0.73617,-5.23845 3.83278,3.64597 z"
         transform="matrix(0.263013,-0.02878364,0.02878364,0.263013,-2.5179367,11.337167)"
         inkscape:transform-center-x="-0.34697751"
         inkscape:transform-center-y="-0.063871171" />
    </g>
    <path
       style="fill:#009c10;fill-opacity:1;stroke:#00ce10;stroke-width:0.264583px;stroke-linecap:butt;stroke-linejoin:miter;stroke-opacity:1"
       d="M 82.133,49.43532 97.002273,39.164131"
       id="path10997" />
    <path
       sodipodi:type="star"
       style="font-variation-settings:normal;opacity:1;vector-effect:none;fill:#00ce10;fill-opacity:1;fill-rule:evenodd;stroke-width:2.26772;stroke-linecap:butt;stroke-linejoin:miter;stroke-miterlimit:4;stroke-dasharray:none;stroke-dashoffset:0.226772;stroke-opacity:1;-inkscape-stroke:none;stop-color:#000000;stop-opacity:1"
       id="path12768"
       inkscape:flatsided="false"
       sodipodi:sides="3"
       sodipodi:cx="296.38358"
       sodipodi:cy="176.8027"
       sodipodi:r1="6.1010661"
       sodipodi:r2="2.7935195"
       sodipodi:arg1="0.18822151"
       sodipodi:arg2="1.2354191"
       inkscape:rounded="0"
       inkscape:randomized="0"
       transform="matrix(0.18952635,-0.1846188,0.1846188,0.18952635,6.8420243,61.263458)"
       inkscape:transform-center-x="0.048771773"
       inkscape:transform-center-y="0.36058532"
       d="m 302.37689,177.94429 -5.0739,1.4963 -4.90471,1.98168 1.24111,-5.14227 0.73617,-5.23845 3.83278,3.64597 z" />
    <path
       style="fill:#800080;stroke:#800080;stroke-width:0.264583px;stroke-linecap:butt;stroke-linejoin:miter;stroke-opacity:1"
       d="M 97.002273,39.164131 104.42184,21.263029"
       id="path11343" />
    <path
       sodipodi:type="star"
       style="font-variation-settings:normal;opacity:1;vector-effect:none;fill:#800080;fill-opacity:1;fill-rule:evenodd;stroke-width:2.26772;stroke-linecap:butt;stroke-linejoin:miter;stroke-miterlimit:4;stroke-dasharray:none;stroke-dashoffset:0.226772;stroke-opacity:1;-inkscape-stroke:none;stop-color:#000000;stop-opacity:1"
       id="path12770"
       inkscape:flatsided="false"
       sodipodi:sides="3"
       sodipodi:cx="296.38358"
       sodipodi:cy="176.8027"
       sodipodi:r1="6.1010661"
       sodipodi:r2="2.7935195"
       sodipodi:arg1="0.18822151"
       sodipodi:arg2="1.2354191"
       inkscape:rounded="0"
       inkscape:randomized="0"
       transform="matrix(0.04920409,-0.25996787,0.25996787,0.04920409,43.283863,91.115718)"
       inkscape:transform-center-x="0.29583662"
       inkscape:transform-center-y="-0.11927098"
       d="m 302.37689,177.94429 -5.0739,1.4963 -4.90471,1.98168 1.24111,-5.14227 0.73617,-5.23845 3.83278,3.64597 z" />
    <g
       transform="matrix(0.768574,0,0,0.768574,102.49471,27.894746)"
       ns2:version="1.5.0"
       ns2:texconverter="pdflatex"
       ns2:pdfconverter="inkscape"
       ns2:text="$$\n\\vec{c}\n$$\n\n"
       ns2:preamble="default_packages.tex"
       ns2:scale="2.17863472211986"
       ns2:alignment="middle center"
       ns2:stroke-to-path="0"
       ns2:inkscapeversion="1.1"
       ns2:jacobian_sqrt="0.768574"
       id="g13452"
       style="fill:#800080">
      <defs
         id="id-8afccf3b-812c-418a-820d-5a436e6e7b7d">
        <g
           id="id-2ddd09ac-73b5-41f7-ad5a-b5eaa0e1aa40">
          <symbol
             overflow="visible"
             id="id-6e2832fb-bf30-412e-bfae-6067ab53ddde">
            <path
               style="stroke:none"
               d=""
               id="id-25f98529-32c7-4017-a2b3-0a28787e8deb" />
          </symbol>
          <symbol
             overflow="visible"
             id="id-f60ffe08-b534-4204-9d44-3fb1cedfb2ee">
            <path
               style="stroke:none"
               d="m 5.359375,-5.9375 c -0.140625,0.140625 -0.46875,0.421875 -0.46875,0.59375 0,0.09375 0.09375,0.203125 0.1875,0.203125 0.09375,0 0.140625,-0.078125 0.203125,-0.140625 C 5.390625,-5.421875 5.625,-5.703125 6.0625,-5.921875 6.125,-5.96875 6.234375,-6.015625 6.234375,-6.125 6.234375,-6.234375 6.15625,-6.28125 6.09375,-6.328125 5.875,-6.484375 5.765625,-6.65625 5.6875,-6.890625 5.65625,-6.984375 5.625,-7.125 5.484375,-7.125 c -0.140625,0 -0.203125,0.140625 -0.203125,0.21875 0,0.046875 0.078125,0.359375 0.234375,0.578125 H 2.15625 c -0.15625,0 -0.34375,0 -0.34375,0.203125 0,0.1875 0.1875,0.1875 0.34375,0.1875 z m 0,0"
               id="id-90dedff5-928e-4c47-b1bb-007888a33cdb" />
          </symbol>
          <symbol
             overflow="visible"
             id="id-86b8ed18-3992-4727-86c9-770bceadbe00">
            <path
               style="stroke:none"
               d="m 3.953125,-3.78125 c -0.171875,0 -0.296875,0 -0.4375,0.125 -0.171875,0.15625 -0.1875,0.328125 -0.1875,0.390625 0,0.25 0.1875,0.359375 0.375,0.359375 0.28125,0 0.546875,-0.25 0.546875,-0.640625 0,-0.484375 -0.46875,-0.859375 -1.171875,-0.859375 -1.34375,0 -2.671875,1.421875 -2.671875,2.828125 0,0.90625 0.578125,1.6875 1.625,1.6875 1.421875,0 2.25,-1.0625 2.25,-1.171875 0,-0.0625 -0.046875,-0.140625 -0.109375,-0.140625 -0.0625,0 -0.078125,0.03125 -0.140625,0.109375 -0.78125,0.984375 -1.875,0.984375 -1.984375,0.984375 -0.625,0 -0.90625,-0.484375 -0.90625,-1.09375 0,-0.40625 0.203125,-1.375 0.546875,-1.984375 0.3125,-0.578125 0.859375,-1 1.40625,-1 0.328125,0 0.71875,0.125 0.859375,0.40625 z m 0,0"
               id="id-3d3bb7e2-f0a6-431b-94de-0d98d8f80618" />
          </symbol>
        </g>
      </defs>
      <g
         id="id-3c5f2693-34e8-4585-bd27-0c3d37351a0c"
         transform="translate(-303.875,-139.595)"
         style="fill:#800080">
        <g
           style="fill:#800080;fill-opacity:1"
           id="id-823fb8b1-a98d-4ee9-afd4-f245cdb819b0">
          <g
             transform="translate(302.921,146.72)"
             id="g13791"
             style="fill:#800080">
            <path
               style="stroke:none;fill:#800080"
               d="m 5.359375,-5.9375 c -0.140625,0.140625 -0.46875,0.421875 -0.46875,0.59375 0,0.09375 0.09375,0.203125 0.1875,0.203125 0.09375,0 0.140625,-0.078125 0.203125,-0.140625 C 5.390625,-5.421875 5.625,-5.703125 6.0625,-5.921875 6.125,-5.96875 6.234375,-6.015625 6.234375,-6.125 6.234375,-6.234375 6.15625,-6.28125 6.09375,-6.328125 5.875,-6.484375 5.765625,-6.65625 5.6875,-6.890625 5.65625,-6.984375 5.625,-7.125 5.484375,-7.125 c -0.140625,0 -0.203125,0.140625 -0.203125,0.21875 0,0.046875 0.078125,0.359375 0.234375,0.578125 H 2.15625 c -0.15625,0 -0.34375,0 -0.34375,0.203125 0,0.1875 0.1875,0.1875 0.34375,0.1875 z m 0,0"
               id="id-82041588-f501-47ed-b4ea-8324fa7f5f65" />
          </g>
        </g>
        <g
           style="fill:#800080;fill-opacity:1"
           id="id-7a99a382-6b4e-41e8-89e4-b9b9fcc97461">
          <g
             transform="translate(303.469,146.72)"
             id="g13795"
             style="fill:#800080">
            <path
               style="stroke:none;fill:#800080"
               d="m 3.953125,-3.78125 c -0.171875,0 -0.296875,0 -0.4375,0.125 -0.171875,0.15625 -0.1875,0.328125 -0.1875,0.390625 0,0.25 0.1875,0.359375 0.375,0.359375 0.28125,0 0.546875,-0.25 0.546875,-0.640625 0,-0.484375 -0.46875,-0.859375 -1.171875,-0.859375 -1.34375,0 -2.671875,1.421875 -2.671875,2.828125 0,0.90625 0.578125,1.6875 1.625,1.6875 1.421875,0 2.25,-1.0625 2.25,-1.171875 0,-0.0625 -0.046875,-0.140625 -0.109375,-0.140625 -0.0625,0 -0.078125,0.03125 -0.140625,0.109375 -0.78125,0.984375 -1.875,0.984375 -1.984375,0.984375 -0.625,0 -0.90625,-0.484375 -0.90625,-1.09375 0,-0.40625 0.203125,-1.375 0.546875,-1.984375 0.3125,-0.578125 0.859375,-1 1.40625,-1 0.328125,0 0.71875,0.125 0.859375,0.40625 z m 0,0"
               id="id-c7e146ff-2c06-4f1f-b744-32a9eb8d424a" />
          </g>
        </g>
      </g>
    </g>
    <g
       transform="matrix(0.768574,0,0,0.768574,92.83514,44.03331)"
       ns2:version="1.5.0"
       ns2:texconverter="pdflatex"
       ns2:pdfconverter="inkscape"
       ns2:text="$$\n\\vec{b}\n$$\n"
       ns2:preamble="default_packages.tex"
       ns2:scale="2.17863472211986"
       ns2:alignment="middle center"
       ns2:stroke-to-path="0"
       ns2:inkscapeversion="1.1"
       ns2:jacobian_sqrt="0.768574"
       id="g14179"
       style="fill:#00ce10;fill-opacity:1">
      <defs
         id="id-5135b0d4-fa72-4ce4-be0a-aaac1404f2e3">
        <g
           id="id-056c56ac-1a27-43ef-ae87-77b883ca6219">
          <symbol
             overflow="visible"
             id="id-edd85284-84c3-4abf-90b6-8e0292abbdde">
            <path
               style="stroke:none;stroke-width:0"
               d=""
               id="id-b73f0ce7-ddf3-400a-a6d2-b1e9738a1a24" />
          </symbol>
          <symbol
             overflow="visible"
             id="id-9b5250ee-f021-463f-8695-a6386109af75">
            <path
               style="stroke:none;stroke-width:0"
               d="m 5.359375,-5.9375 c -0.140625,0.140625 -0.46875,0.421875 -0.46875,0.59375 0,0.09375 0.09375,0.203125 0.1875,0.203125 0.09375,0 0.140625,-0.078125 0.203125,-0.140625 C 5.390625,-5.421875 5.625,-5.703125 6.0625,-5.921875 6.125,-5.96875 6.234375,-6.015625 6.234375,-6.125 6.234375,-6.234375 6.15625,-6.28125 6.09375,-6.328125 5.875,-6.484375 5.765625,-6.65625 5.6875,-6.890625 5.65625,-6.984375 5.625,-7.125 5.484375,-7.125 c -0.140625,0 -0.203125,0.140625 -0.203125,0.21875 0,0.046875 0.078125,0.359375 0.234375,0.578125 H 2.15625 c -0.15625,0 -0.34375,0 -0.34375,0.203125 0,0.1875 0.1875,0.1875 0.34375,0.1875 z m 0,0"
               id="id-c7013cd1-7d36-42f9-93f2-22fc5d893a00" />
          </symbol>
          <symbol
             overflow="visible"
             id="id-7c06102c-3f4c-494d-9d06-f0ced71819ae">
            <path
               style="stroke:none;stroke-width:0"
               d="m 2.375,-6.8125 c 0,0 0,-0.109375 -0.125,-0.109375 -0.21875,0 -0.953125,0.078125 -1.21875,0.109375 -0.078125,0 -0.1875,0.015625 -0.1875,0.1875 0,0.125 0.09375,0.125 0.25,0.125 0.46875,0 0.484375,0.0625 0.484375,0.171875 0,0.0625 -0.078125,0.40625 -0.125,0.609375 l -0.828125,3.25 c -0.109375,0.5 -0.15625,0.671875 -0.15625,1.015625 0,0.9375 0.53125,1.5625 1.265625,1.5625 1.171875,0 2.40625,-1.484375 2.40625,-2.921875 0,-0.90625 -0.53125,-1.59375 -1.328125,-1.59375 -0.453125,0 -0.875,0.296875 -1.171875,0.59375 z M 1.453125,-3.046875 C 1.5,-3.265625 1.5,-3.28125 1.59375,-3.390625 2.078125,-4.03125 2.53125,-4.1875 2.796875,-4.1875 c 0.359375,0 0.625,0.296875 0.625,0.9375 0,0.59375 -0.328125,1.734375 -0.515625,2.109375 -0.328125,0.671875 -0.78125,1.03125 -1.171875,1.03125 -0.34375,0 -0.671875,-0.265625 -0.671875,-1 0,-0.203125 0,-0.390625 0.15625,-1.015625 z m 0,0"
               id="id-5ed9846a-6630-43f6-b98b-eb42306ef8ac" />
          </symbol>
        </g>
      </defs>
      <g
         id="id-99ec6d11-bfc2-43a8-abdd-1cf4aa882cb6"
         transform="translate(-303.955,-136.966)"
         style="fill:#00ce10;fill-opacity:1">
        <g
           style="fill:#00ce10;fill-opacity:1"
           id="id-43448b48-398e-486d-a8e4-dc15fa4a42df">
          <g
             transform="translate(302.367,144.091)"
             id="g14171"
             style="fill:#00ce10;fill-opacity:1">
            <path
               style="stroke:none;stroke-width:0;fill:#00ce10;fill-opacity:1"
               d="m 5.359375,-5.9375 c -0.140625,0.140625 -0.46875,0.421875 -0.46875,0.59375 0,0.09375 0.09375,0.203125 0.1875,0.203125 0.09375,0 0.140625,-0.078125 0.203125,-0.140625 C 5.390625,-5.421875 5.625,-5.703125 6.0625,-5.921875 6.125,-5.96875 6.234375,-6.015625 6.234375,-6.125 6.234375,-6.234375 6.15625,-6.28125 6.09375,-6.328125 5.875,-6.484375 5.765625,-6.65625 5.6875,-6.890625 5.65625,-6.984375 5.625,-7.125 5.484375,-7.125 c -0.140625,0 -0.203125,0.140625 -0.203125,0.21875 0,0.046875 0.078125,0.359375 0.234375,0.578125 H 2.15625 c -0.15625,0 -0.34375,0 -0.34375,0.203125 0,0.1875 0.1875,0.1875 0.34375,0.1875 z m 0,0"
               id="id-b185b612-d55e-45b7-a059-839bbffb0ba1" />
          </g>
        </g>
        <g
           style="fill:#00ce10;fill-opacity:1"
           id="id-f14109a0-55ce-4af7-b56f-ed0b2db9e013">
          <g
             transform="translate(303.486,146.72)"
             id="g14175"
             style="fill:#00ce10;fill-opacity:1">
            <path
               style="stroke:none;stroke-width:0;fill:#00ce10;fill-opacity:1"
               d="m 2.375,-6.8125 c 0,0 0,-0.109375 -0.125,-0.109375 -0.21875,0 -0.953125,0.078125 -1.21875,0.109375 -0.078125,0 -0.1875,0.015625 -0.1875,0.1875 0,0.125 0.09375,0.125 0.25,0.125 0.46875,0 0.484375,0.0625 0.484375,0.171875 0,0.0625 -0.078125,0.40625 -0.125,0.609375 l -0.828125,3.25 c -0.109375,0.5 -0.15625,0.671875 -0.15625,1.015625 0,0.9375 0.53125,1.5625 1.265625,1.5625 1.171875,0 2.40625,-1.484375 2.40625,-2.921875 0,-0.90625 -0.53125,-1.59375 -1.328125,-1.59375 -0.453125,0 -0.875,0.296875 -1.171875,0.59375 z M 1.453125,-3.046875 C 1.5,-3.265625 1.5,-3.28125 1.59375,-3.390625 2.078125,-4.03125 2.53125,-4.1875 2.796875,-4.1875 c 0.359375,0 0.625,0.296875 0.625,0.9375 0,0.59375 -0.328125,1.734375 -0.515625,2.109375 -0.328125,0.671875 -0.78125,1.03125 -1.171875,1.03125 -0.34375,0 -0.671875,-0.265625 -0.671875,-1 0,-0.203125 0,-0.390625 0.15625,-1.015625 z m 0,0"
               id="id-bdaff363-6ca0-41d8-82e2-e9694c596e5c" />
          </g>
        </g>
      </g>
    </g>
    <g
       transform="matrix(0.768574,0,0,0.768574,67.925388,52.993864)"
       ns2:version="1.5.0"
       ns2:texconverter="pdflatex"
       ns2:pdfconverter="inkscape"
       ns2:text="$$\n\\vec{a}\n$$\n"
       ns2:preamble="default_packages.tex"
       ns2:scale="2.17863472211986"
       ns2:alignment="middle center"
       ns2:stroke-to-path="0"
       ns2:inkscapeversion="1.1"
       ns2:jacobian_sqrt="0.768574"
       id="g14592"
       style="fill:#ff5900;fill-opacity:1">
      <defs
         id="id-1336fb3b-0d64-4027-b8d3-0c447f74fe9c">
        <g
           id="id-138da02b-2247-402a-80c3-4077007ce8b0">
          <symbol
             overflow="visible"
             id="id-a9b39d9a-f963-4bfb-a036-1144c5eb7e5c">
            <path
               style="stroke:none;stroke-width:0"
               d=""
               id="id-1f724d73-fe3b-4e18-ad23-1fc051571bb7" />
          </symbol>
          <symbol
             overflow="visible"
             id="id-1f516bb3-8909-4873-b34a-1ff74a459e63">
            <path
               style="stroke:none;stroke-width:0"
               d="m 5.359375,-5.9375 c -0.140625,0.140625 -0.46875,0.421875 -0.46875,0.59375 0,0.09375 0.09375,0.203125 0.1875,0.203125 0.09375,0 0.140625,-0.078125 0.203125,-0.140625 C 5.390625,-5.421875 5.625,-5.703125 6.0625,-5.921875 6.125,-5.96875 6.234375,-6.015625 6.234375,-6.125 6.234375,-6.234375 6.15625,-6.28125 6.09375,-6.328125 5.875,-6.484375 5.765625,-6.65625 5.6875,-6.890625 5.65625,-6.984375 5.625,-7.125 5.484375,-7.125 c -0.140625,0 -0.203125,0.140625 -0.203125,0.21875 0,0.046875 0.078125,0.359375 0.234375,0.578125 H 2.15625 c -0.15625,0 -0.34375,0 -0.34375,0.203125 0,0.1875 0.1875,0.1875 0.34375,0.1875 z m 0,0"
               id="id-5a5b9d5f-4aea-4235-a231-2e093a71454c" />
          </symbol>
          <symbol
             overflow="visible"
             id="id-2ca5e800-5a97-490c-9804-f461ddbe9e09">
            <path
               style="stroke:none;stroke-width:0"
               d="M 3.71875,-3.765625 C 3.53125,-4.140625 3.25,-4.40625 2.796875,-4.40625 c -1.15625,0 -2.390625,1.46875 -2.390625,2.921875 0,0.9375 0.546875,1.59375 1.3125,1.59375 0.203125,0 0.703125,-0.046875 1.296875,-0.75 0.078125,0.421875 0.4375,0.75 0.90625,0.75 0.359375,0 0.578125,-0.234375 0.75,-0.546875 0.15625,-0.359375 0.296875,-0.96875 0.296875,-0.984375 0,-0.109375 -0.09375,-0.109375 -0.125,-0.109375 -0.09375,0 -0.109375,0.046875 -0.140625,0.1875 -0.171875,0.640625 -0.34375,1.234375 -0.75,1.234375 -0.28125,0 -0.296875,-0.265625 -0.296875,-0.453125 0,-0.21875 0.015625,-0.3125 0.125,-0.75 C 3.890625,-1.71875 3.90625,-1.828125 4,-2.203125 L 4.359375,-3.59375 c 0.0625,-0.28125 0.0625,-0.296875 0.0625,-0.34375 0,-0.171875 -0.109375,-0.265625 -0.28125,-0.265625 -0.25,0 -0.390625,0.21875 -0.421875,0.4375 z M 3.078125,-1.1875 C 3.015625,-1 3.015625,-0.984375 2.875,-0.8125 2.4375,-0.265625 2.03125,-0.109375 1.75,-0.109375 c -0.5,0 -0.640625,-0.546875 -0.640625,-0.9375 0,-0.5 0.3125,-1.71875 0.546875,-2.1875 0.3125,-0.578125 0.75,-0.953125 1.15625,-0.953125 0.640625,0 0.78125,0.8125 0.78125,0.875 0,0.0625 -0.015625,0.125 -0.03125,0.171875 z m 0,0"
               id="id-cfcb9321-0a26-4e8e-a4e6-95b34e01a48b" />
          </symbol>
        </g>
      </defs>
      <g
         id="id-ffa063a0-511b-4f73-9d47-a88eb54d5e7f"
         transform="translate(-303.401,-139.595)"
         style="fill:#ff5900;fill-opacity:1">
        <g
           style="fill:#ff5900;fill-opacity:1"
           id="id-9b8269c2-d4ef-4928-b474-1f6b42ec44d2">
          <g
             transform="translate(302.367,146.72)"
             id="g14584"
             style="fill:#ff5900;fill-opacity:1">
            <path
               style="fill:#ff5900;fill-opacity:1;stroke:none;stroke-width:0"
               d="m 5.359375,-5.9375 c -0.140625,0.140625 -0.46875,0.421875 -0.46875,0.59375 0,0.09375 0.09375,0.203125 0.1875,0.203125 0.09375,0 0.140625,-0.078125 0.203125,-0.140625 C 5.390625,-5.421875 5.625,-5.703125 6.0625,-5.921875 6.125,-5.96875 6.234375,-6.015625 6.234375,-6.125 6.234375,-6.234375 6.15625,-6.28125 6.09375,-6.328125 5.875,-6.484375 5.765625,-6.65625 5.6875,-6.890625 5.65625,-6.984375 5.625,-7.125 5.484375,-7.125 c -0.140625,0 -0.203125,0.140625 -0.203125,0.21875 0,0.046875 0.078125,0.359375 0.234375,0.578125 H 2.15625 c -0.15625,0 -0.34375,0 -0.34375,0.203125 0,0.1875 0.1875,0.1875 0.34375,0.1875 z m 0,0"
               id="id-8224bdd5-3814-4ee7-bb23-ccb403bdd34d" />
          </g>
        </g>
        <g
           style="fill:#ff5900;fill-opacity:1"
           id="id-89829e67-e4d5-4443-b872-e3ec2ee47df4">
          <g
             transform="translate(302.995,146.72)"
             id="g14588"
             style="fill:#ff5900;fill-opacity:1">
            <path
               style="fill:#ff5900;fill-opacity:1;stroke:none;stroke-width:0"
               d="M 3.71875,-3.765625 C 3.53125,-4.140625 3.25,-4.40625 2.796875,-4.40625 c -1.15625,0 -2.390625,1.46875 -2.390625,2.921875 0,0.9375 0.546875,1.59375 1.3125,1.59375 0.203125,0 0.703125,-0.046875 1.296875,-0.75 0.078125,0.421875 0.4375,0.75 0.90625,0.75 0.359375,0 0.578125,-0.234375 0.75,-0.546875 0.15625,-0.359375 0.296875,-0.96875 0.296875,-0.984375 0,-0.109375 -0.09375,-0.109375 -0.125,-0.109375 -0.09375,0 -0.109375,0.046875 -0.140625,0.1875 -0.171875,0.640625 -0.34375,1.234375 -0.75,1.234375 -0.28125,0 -0.296875,-0.265625 -0.296875,-0.453125 0,-0.21875 0.015625,-0.3125 0.125,-0.75 C 3.890625,-1.71875 3.90625,-1.828125 4,-2.203125 L 4.359375,-3.59375 c 0.0625,-0.28125 0.0625,-0.296875 0.0625,-0.34375 0,-0.171875 -0.109375,-0.265625 -0.28125,-0.265625 -0.25,0 -0.390625,0.21875 -0.421875,0.4375 z M 3.078125,-1.1875 C 3.015625,-1 3.015625,-0.984375 2.875,-0.8125 2.4375,-0.265625 2.03125,-0.109375 1.75,-0.109375 c -0.5,0 -0.640625,-0.546875 -0.640625,-0.9375 0,-0.5 0.3125,-1.71875 0.546875,-2.1875 0.3125,-0.578125 0.75,-0.953125 1.15625,-0.953125 0.640625,0 0.78125,0.8125 0.78125,0.875 0,0.0625 -0.015625,0.125 -0.03125,0.171875 z m 0,0"
               id="id-3eee69e3-ebeb-4184-852b-d86bcdacc797" />
          </g>
        </g>
      </g>
    </g>
  </g>
</svg>
