<?xml version="1.0" encoding="UTF-8" standalone="no"?>
<!-- Created with Serif DrawPlus 11, 0, 3, 23 (Feb 25, 14:12:55) (http://www.serif.com) -->
<svg version="1.1" xmlns="http://www.w3.org/2000/svg" xmlns:xlink="http://www.w3.org/1999/xlink" xmlns:inkscape="http://www.inkscape.org/namespaces/inkscape" width="231.129" height="213.444">
	<g id="dp_group001" transform="matrix(1,0,0,1,-556.569,-818.745)">
		<path id="dp_path002" fill="#1e02ab" fill-rule="evenodd" stroke="none" stroke-width="1.33333" d="M 565.207,823.709 L 557.579,841.628 L 563.021,841.609 L 563.532,995.757 L 568.023,995.743 L 567.512,841.595 L 572.955,841.576 Z "/>
		<text id="dp_text001" transform="matrix(0.996729,7.74614e-016,-7.77156e-016,1,622.518,918.163)" xml:space="preserve" fill="#00b050" font-family="Arial" font-size="24" font-weight="700" x="0" y="0">b </text>
		<text id="dp_text002" transform="matrix(0.996515,7.74447e-016,-7.77156e-016,1,689.718,1026.3)" xml:space="preserve" fill="#9d00f3" font-family="Arial" font-size="24" font-weight="700" x="0" y="0">a </text>
		<path id="dp_path005" fill="#a4a3ff" fill-rule="evenodd" fill-opacity="0.698039" stroke="#1e02ab" stroke-width="2" d="M 707.256,995.917 L 785.115,924.421 L 644.339,925.243 L 566.339,995.769 Z "/>
		<path id="dp_path006" fill="#e55151" fill-rule="evenodd" stroke="#f20707" stroke-width="2" d="M 622.241,995.919 L 653.128,967.447 L 597.281,967.773 L 566.339,995.86 Z "/>
		<path id="dp_path007" fill="#00b050" fill-rule="evenodd" stroke="none" stroke-width="1.33333" d="M 644.28,924.908 L 627.032,930.181 L 630.689,934.212 L 565.82,993.093 L 568.839,996.419 L 633.708,937.537 L 637.365,941.567 Z "/>
		<path id="dp_path008" fill="#9d00f3" fill-rule="evenodd" stroke="none" stroke-width="1.33333" d="M 707.424,995.503 L 692.176,987.756 L 692.156,993.199 L 567.275,992.719 L 567.257,997.209 L 692.139,997.689 L 692.117,1003.13 Z "/>
		<text id="dp_text003" transform="matrix(0.996729,7.74614e-016,-7.77156e-016,1,705.716,961.029)" xml:space="preserve" fill="#03a248" font-family="Arial" font-size="24" font-weight="700" x="0" y="0">b </text>
		<text id="dp_text004" transform="matrix(0.996515,7.74447e-016,-7.77156e-016,1,669.617,961.029)" xml:space="preserve" fill="#9d00f3" font-family="Arial" font-size="24" font-weight="700" x="0" y="0">a </text>
		<path id="dp_path011" fill="black" fill-rule="evenodd" d="M 694.656,950.139 L 701.132,961.005 L 699.792,961.005 L 694.355,951.879 L 688.931,961.005 L 687.593,961.005 L 694.049,950.139 Z "/>
		<g id="dp_group012">
			<text id="dp_text005" transform="matrix(0.996729,7.74614e-016,-7.77156e-016,1,616.31,843.029)" xml:space="preserve" fill="#00b050" font-family="Arial" font-size="24" font-weight="700" x="0" y="0">b </text>
			<text id="dp_text006" transform="matrix(0.996515,7.74447e-016,-7.77156e-016,1,580.212,843.029)" xml:space="preserve" fill="#9d00f3" font-family="Arial" font-size="24" font-weight="700" x="0" y="0">a </text>
			<path id="dp_path015" fill="black" fill-rule="evenodd" d="M 598.997,841.304 L 604.165,836.121 L 599.025,830.981 L 599.892,830.168 L 605.005,835.281 L 610.157,830.116 L 610.999,830.959 L 605.845,836.121 L 611.028,841.304 L 610.188,842.144 L 605.008,836.964 L 599.863,842.12 Z "/>
		</g>
		<path id="dp_path016" fill="#f20707" fill-rule="evenodd" stroke="none" stroke-width="1.33333" d="M 565.547,926.011 L 557.928,946.959 L 563.371,946.941 L 563.532,995.76 L 568.023,995.744 L 567.861,946.927 L 573.304,946.908 Z "/>
		<path id="dp_path017" fill="#1e02ab" fill-rule="evenodd" stroke="none" stroke-width="1.33333" d="M 753.321,953.48 L 748.144,965.9 L 740.639,957.979 Z "/>
		<path id="dp_path018" fill="#1e02ab" fill-rule="evenodd" stroke="none" stroke-width="1.33333" d="M 693.765,924.961 L 706.037,919.443 L 706.093,930.355 Z "/>
		<path id="dp_path019" fill="#f20707" fill-rule="evenodd" stroke="none" stroke-width="1.33333" d="M 616.165,967.961 L 628.437,962.443 L 628.493,973.355 Z "/>
		<path id="dp_path020" fill="#f20707" fill-rule="evenodd" stroke="none" stroke-width="1.33333" d="M 643.121,976.28 L 637.944,988.7 L 630.439,980.779 Z "/>
	</g>
</svg>