<?xml version="1.0" encoding="UTF-8" standalone="no"?>
<!-- Created with Inkscape (http://www.inkscape.org/) -->

<svg
   width="9in"
   height="3.5in"
   viewBox="0 0 228.6 88.9"
   version="1.1"
   id="svg4708"
   inkscape:version="1.1 (c4e8f9e, 2021-05-24)"
   sodipodi:docname="unit_bivectors.svg"
   xmlns:inkscape="http://www.inkscape.org/namespaces/inkscape"
   xmlns:sodipodi="http://sodipodi.sourceforge.net/DTD/sodipodi-0.dtd"
   xmlns="http://www.w3.org/2000/svg"
   xmlns:svg="http://www.w3.org/2000/svg"
   xmlns:ns2="http://www.iki.fi/pav/software/textext/">
  <sodipodi:namedview
     id="namedview4710"
     pagecolor="#ffffff"
     bordercolor="#666666"
     borderopacity="1.0"
     inkscape:pageshadow="2"
     inkscape:pageopacity="0.0"
     inkscape:pagecheckerboard="0"
     inkscape:document-units="mm"
     showgrid="false"
     units="in"
     width="9in"
     inkscape:zoom="1.2411465"
     inkscape:cx="351.69095"
     inkscape:cy="186.11824"
     inkscape:window-width="1312"
     inkscape:window-height="762"
     inkscape:window-x="0"
     inkscape:window-y="25"
     inkscape:window-maximized="0"
     inkscape:current-layer="layer1"
     height="4in" />
  <defs
     id="defs4705">
    <g
       id="id-70764b85-5342-40b3-8209-da5f3521b1b2">
      <symbol
         overflow="visible"
         id="id-030e7c21-a2c8-4ffc-8407-283953ed13e0">
        <path
           style="stroke:none;stroke-width:0"
           d=""
           id="id-44cf43e6-dabb-4f43-825c-e387709adae1" />
      </symbol>
      <symbol
         overflow="visible"
         id="id-ce66d6f9-77e8-4e97-a300-4e32f804f518">
        <path
           style="stroke:none;stroke-width:0"
           d="m 5.359375,-5.9375 c -0.140625,0.140625 -0.46875,0.421875 -0.46875,0.59375 0,0.09375 0.09375,0.203125 0.1875,0.203125 0.09375,0 0.140625,-0.078125 0.203125,-0.140625 C 5.390625,-5.421875 5.625,-5.703125 6.0625,-5.921875 6.125,-5.96875 6.234375,-6.015625 6.234375,-6.125 6.234375,-6.234375 6.15625,-6.28125 6.09375,-6.328125 5.875,-6.484375 5.765625,-6.65625 5.6875,-6.890625 5.65625,-6.984375 5.625,-7.125 5.484375,-7.125 c -0.140625,0 -0.203125,0.140625 -0.203125,0.21875 0,0.046875 0.078125,0.359375 0.234375,0.578125 H 2.15625 c -0.15625,0 -0.34375,0 -0.34375,0.203125 0,0.1875 0.1875,0.1875 0.34375,0.1875 z m 0,0"
           id="id-36c864ec-4f06-4c35-929d-2471291cc34e" />
      </symbol>
      <symbol
         overflow="visible"
         id="id-92534b23-97c0-4dc8-ba8c-fc3ae465139b">
        <path
           style="stroke:none;stroke-width:0"
           d="m 4.671875,-3.703125 c 0,-0.546875 -0.265625,-0.703125 -0.4375,-0.703125 -0.25,0 -0.5,0.265625 -0.5,0.484375 0,0.125 0.046875,0.1875 0.15625,0.296875 0.21875,0.203125 0.34375,0.453125 0.34375,0.8125 0,0.421875 -0.609375,2.703125 -1.765625,2.703125 -0.515625,0 -0.75,-0.34375 -0.75,-0.875 0,-0.546875 0.28125,-1.28125 0.578125,-2.109375 0.078125,-0.171875 0.125,-0.3125 0.125,-0.5 0,-0.4375 -0.3125,-0.8125 -0.8125,-0.8125 -0.9375,0 -1.3125,1.453125 -1.3125,1.53125 0,0.109375 0.09375,0.109375 0.109375,0.109375 0.109375,0 0.109375,-0.03125 0.15625,-0.1875 0.296875,-1 0.71875,-1.234375 1.015625,-1.234375 0.078125,0 0.25,0 0.25,0.3125 0,0.25 -0.109375,0.53125 -0.171875,0.703125 -0.4375,1.15625 -0.5625,1.609375 -0.5625,2.046875 0,1.078125 0.875,1.234375 1.328125,1.234375 1.671875,0 2.25,-3.296875 2.25,-3.8125 z m 0,0"
           id="id-42651123-7fc0-4327-a5f5-d4ee8961ac82" />
      </symbol>
    </g>
    <g
       id="id-9c46ef1b-d41f-44d2-ad9d-0a6704433a1f">
      <symbol
         overflow="visible"
         id="id-fd2dd4c3-3a32-426c-862c-5bb94ea83cff">
        <path
           style="stroke:none;stroke-width:0"
           d=""
           id="id-f33fd053-053c-4207-9def-075f91a342e5" />
      </symbol>
      <symbol
         overflow="visible"
         id="id-2ad728b1-2487-4b51-b812-b406ddcd1913">
        <path
           style="stroke:none;stroke-width:0"
           d="m 4.671875,-3.703125 c 0,-0.546875 -0.265625,-0.703125 -0.4375,-0.703125 -0.25,0 -0.5,0.265625 -0.5,0.484375 0,0.125 0.046875,0.1875 0.15625,0.296875 0.21875,0.203125 0.34375,0.453125 0.34375,0.8125 0,0.421875 -0.609375,2.703125 -1.765625,2.703125 -0.515625,0 -0.75,-0.34375 -0.75,-0.875 0,-0.546875 0.28125,-1.28125 0.578125,-2.109375 0.078125,-0.171875 0.125,-0.3125 0.125,-0.5 0,-0.4375 -0.3125,-0.8125 -0.8125,-0.8125 -0.9375,0 -1.3125,1.453125 -1.3125,1.53125 0,0.109375 0.09375,0.109375 0.109375,0.109375 0.109375,0 0.109375,-0.03125 0.15625,-0.1875 0.296875,-1 0.71875,-1.234375 1.015625,-1.234375 0.078125,0 0.25,0 0.25,0.3125 0,0.25 -0.109375,0.53125 -0.171875,0.703125 -0.4375,1.15625 -0.5625,1.609375 -0.5625,2.046875 0,1.078125 0.875,1.234375 1.328125,1.234375 1.671875,0 2.25,-3.296875 2.25,-3.8125 z m 0,0"
           id="id-81e0735f-5670-42ab-9fd5-63b24a16a049" />
      </symbol>
      <symbol
         overflow="visible"
         id="id-9d6218ae-6a8d-47a7-a32a-2d2f259673cf">
        <path
           style="stroke:none;stroke-width:0"
           d=""
           id="id-e4c2f244-b119-4942-a138-236ad16f56e0" />
      </symbol>
      <symbol
         overflow="visible"
         id="id-4d3368f2-ec38-444f-9ad9-55eb0bbf2435">
        <path
           style="stroke:none;stroke-width:0"
           d="M 1.734375,-0.734375 C 1.671875,-0.5 1.4375,-0.125 1.078125,-0.125 c -0.015625,0 -0.234375,0 -0.375,-0.09375 0.28125,-0.09375 0.3125,-0.34375 0.3125,-0.390625 0,-0.15625 -0.125,-0.25 -0.28125,-0.25 -0.203125,0 -0.40625,0.15625 -0.40625,0.421875 0,0.34375 0.390625,0.5 0.734375,0.5 0.328125,0 0.609375,-0.1875 0.78125,-0.484375 C 2.015625,-0.0625 2.390625,0.0625 2.671875,0.0625 c 0.8125,0 1.234375,-0.859375 1.234375,-1.0625 0,-0.09375 -0.09375,-0.09375 -0.109375,-0.09375 -0.109375,0 -0.109375,0.046875 -0.140625,0.125 -0.140625,0.484375 -0.5625,0.84375 -0.953125,0.84375 -0.28125,0 -0.421875,-0.1875 -0.421875,-0.453125 0,-0.1875 0.171875,-0.8125 0.359375,-1.59375 C 2.78125,-2.703125 3.09375,-2.875 3.328125,-2.875 c 0.015625,0 0.21875,0 0.375,0.09375 -0.21875,0.0625 -0.3125,0.265625 -0.3125,0.390625 0,0.140625 0.125,0.25 0.28125,0.25 0.15625,0 0.390625,-0.125 0.390625,-0.421875 0,-0.390625 -0.453125,-0.515625 -0.71875,-0.515625 -0.359375,0 -0.640625,0.234375 -0.78125,0.5 -0.125,-0.28125 -0.453125,-0.5 -0.84375,-0.5 C 0.9375,-3.078125 0.5,-2.21875 0.5,-2 c 0,0.078125 0.09375,0.078125 0.109375,0.078125 0.09375,0 0.09375,-0.015625 0.140625,-0.109375 C 0.921875,-2.578125 1.359375,-2.875 1.703125,-2.875 1.9375,-2.875 2.125,-2.75 2.125,-2.421875 2.125,-2.28125 2.03125,-1.9375 1.96875,-1.6875 Z m 0,0"
           id="id-eac70406-1c6e-4e17-9b96-a2a09d3c66f7" />
      </symbol>
    </g>
    <g
       id="id-b3a54287-ea3e-4ae7-9a17-736d033708b7">
      <symbol
         overflow="visible"
         id="id-946ef816-665a-4de6-9034-7f9f56232f86">
        <path
           style="stroke:none;stroke-width:0"
           d=""
           id="id-49a588f6-380e-4c92-ab73-edbfe6fcb0b9" />
      </symbol>
      <symbol
         overflow="visible"
         id="id-8a5aae0a-56db-427d-9275-3e95e261392d">
        <path
           style="stroke:none;stroke-width:0"
           d="m 4.671875,-3.703125 c 0,-0.546875 -0.265625,-0.703125 -0.4375,-0.703125 -0.25,0 -0.5,0.265625 -0.5,0.484375 0,0.125 0.046875,0.1875 0.15625,0.296875 0.21875,0.203125 0.34375,0.453125 0.34375,0.8125 0,0.421875 -0.609375,2.703125 -1.765625,2.703125 -0.515625,0 -0.75,-0.34375 -0.75,-0.875 0,-0.546875 0.28125,-1.28125 0.578125,-2.109375 0.078125,-0.171875 0.125,-0.3125 0.125,-0.5 0,-0.4375 -0.3125,-0.8125 -0.8125,-0.8125 -0.9375,0 -1.3125,1.453125 -1.3125,1.53125 0,0.109375 0.09375,0.109375 0.109375,0.109375 0.109375,0 0.109375,-0.03125 0.15625,-0.1875 0.296875,-1 0.71875,-1.234375 1.015625,-1.234375 0.078125,0 0.25,0 0.25,0.3125 0,0.25 -0.109375,0.53125 -0.171875,0.703125 -0.4375,1.15625 -0.5625,1.609375 -0.5625,2.046875 0,1.078125 0.875,1.234375 1.328125,1.234375 1.671875,0 2.25,-3.296875 2.25,-3.8125 z m 0,0"
           id="id-8535a110-4f6c-450c-8899-2f94ff85d5ac" />
      </symbol>
      <symbol
         overflow="visible"
         id="id-b7879a63-59d5-48db-82f5-b1be025d6880">
        <path
           style="stroke:none;stroke-width:0"
           d=""
           id="id-8cb783ee-f05d-4511-b1e4-7294c5650e9e" />
      </symbol>
      <symbol
         overflow="visible"
         id="id-8afc9c9b-554d-4347-af15-de4cd04f77fc">
        <path
           style="stroke:none;stroke-width:0"
           d="M 3.875,-2.625 C 3.90625,-2.71875 3.90625,-2.734375 3.90625,-2.78125 3.90625,-2.921875 3.796875,-3 3.671875,-3 3.59375,-3 3.46875,-2.96875 3.390625,-2.84375 3.359375,-2.796875 3.3125,-2.578125 3.28125,-2.4375 L 3.125,-1.859375 c -0.03125,0.171875 -0.25,1.046875 -0.28125,1.125 0,0 -0.3125,0.609375 -0.84375,0.609375 -0.484375,0 -0.484375,-0.453125 -0.484375,-0.578125 0,-0.375 0.15625,-0.8125 0.375,-1.359375 C 1.96875,-2.28125 2,-2.359375 2,-2.484375 2,-2.8125 1.71875,-3.078125 1.34375,-3.078125 0.640625,-3.078125 0.328125,-2.125 0.328125,-2 c 0,0.078125 0.09375,0.078125 0.125,0.078125 0.09375,0 0.09375,-0.03125 0.125,-0.109375 C 0.75,-2.609375 1.046875,-2.875 1.328125,-2.875 1.4375,-2.875 1.5,-2.796875 1.5,-2.640625 c 0,0.171875 -0.0625,0.3125 -0.09375,0.40625 C 1.0625,-1.375 1,-1.125 1,-0.8125 1,-0.703125 1,-0.375 1.265625,-0.140625 1.484375,0.03125 1.78125,0.0625 1.96875,0.0625 2.25,0.0625 2.5,-0.03125 2.71875,-0.25 2.640625,0.140625 2.5625,0.4375 2.265625,0.78125 2.078125,1 1.796875,1.21875 1.421875,1.21875 c -0.046875,0 -0.375,0 -0.515625,-0.21875 0.375,-0.046875 0.375,-0.375 0.375,-0.390625 0,-0.21875 -0.203125,-0.265625 -0.265625,-0.265625 -0.171875,0 -0.40625,0.140625 -0.40625,0.46875 0,0.34375 0.328125,0.609375 0.828125,0.609375 C 2.140625,1.421875 3,0.875 3.21875,0 Z m 0,0"
           id="id-8ffed16d-96f2-4aa6-a6c1-8c1cabf978ff" />
      </symbol>
    </g>
    <g
       id="id-c289380e-4c4c-4095-8c84-e4a7a9798190">
      <symbol
         overflow="visible"
         id="id-72619672-e8e5-41bb-bf15-8ac96a6e5691">
        <path
           style="stroke:none;stroke-width:0"
           d=""
           id="id-99553ea3-a017-4134-91c4-e80afbd361ed" />
      </symbol>
      <symbol
         overflow="visible"
         id="id-ba9342d2-9a51-4c93-8dd5-89ea2d2251d0">
        <path
           style="stroke:none;stroke-width:0"
           d="m 4.671875,-3.703125 c 0,-0.546875 -0.265625,-0.703125 -0.4375,-0.703125 -0.25,0 -0.5,0.265625 -0.5,0.484375 0,0.125 0.046875,0.1875 0.15625,0.296875 0.21875,0.203125 0.34375,0.453125 0.34375,0.8125 0,0.421875 -0.609375,2.703125 -1.765625,2.703125 -0.515625,0 -0.75,-0.34375 -0.75,-0.875 0,-0.546875 0.28125,-1.28125 0.578125,-2.109375 0.078125,-0.171875 0.125,-0.3125 0.125,-0.5 0,-0.4375 -0.3125,-0.8125 -0.8125,-0.8125 -0.9375,0 -1.3125,1.453125 -1.3125,1.53125 0,0.109375 0.09375,0.109375 0.109375,0.109375 0.109375,0 0.109375,-0.03125 0.15625,-0.1875 0.296875,-1 0.71875,-1.234375 1.015625,-1.234375 0.078125,0 0.25,0 0.25,0.3125 0,0.25 -0.109375,0.53125 -0.171875,0.703125 -0.4375,1.15625 -0.5625,1.609375 -0.5625,2.046875 0,1.078125 0.875,1.234375 1.328125,1.234375 1.671875,0 2.25,-3.296875 2.25,-3.8125 z m 0,0"
           id="id-af919684-a8e4-4b56-8920-5dde240cafa4" />
      </symbol>
      <symbol
         overflow="visible"
         id="id-4edc5f52-7327-43fb-b4cd-8bcfe8b28a6f">
        <path
           style="stroke:none;stroke-width:0"
           d=""
           id="id-d2dbfc0f-466d-4150-bb6c-66f46dd87188" />
      </symbol>
      <symbol
         overflow="visible"
         id="id-11594256-7bb9-4c17-baa8-6be55a8da63f">
        <path
           style="stroke:none;stroke-width:0"
           d="m 1.171875,-0.609375 c 0.1875,-0.1875 0.3125,-0.3125 0.890625,-0.796875 0.15625,-0.109375 0.671875,-0.53125 0.875,-0.71875 0.421875,-0.421875 0.6875,-0.78125 0.6875,-0.859375 0,-0.09375 -0.078125,-0.09375 -0.109375,-0.09375 -0.0625,0 -0.09375,0.015625 -0.125,0.078125 -0.21875,0.3125 -0.359375,0.421875 -0.53125,0.421875 -0.078125,0 -0.1875,0 -0.390625,-0.203125 -0.234375,-0.25 -0.390625,-0.296875 -0.546875,-0.296875 -0.5625,0 -0.9375,0.609375 -0.9375,0.8125 0,0.078125 0.0625,0.09375 0.109375,0.09375 0.09375,0 0.109375,-0.015625 0.125,-0.09375 0.109375,-0.25 0.5,-0.265625 0.609375,-0.265625 0.171875,0 0.34375,0.046875 0.4375,0.0625 0.390625,0.078125 0.4375,0.078125 0.609375,0.078125 -0.171875,0.203125 -0.296875,0.328125 -0.96875,0.84375 -0.546875,0.4375 -0.734375,0.609375 -0.859375,0.75 -0.421875,0.40625 -0.625,0.71875 -0.625,0.78125 0,0.078125 0.09375,0.078125 0.125,0.078125 0.0625,0 0.078125,0 0.109375,-0.0625 0.1875,-0.265625 0.40625,-0.421875 0.640625,-0.421875 0.09375,0 0.1875,0 0.375,0.171875 0.21875,0.21875 0.359375,0.3125 0.59375,0.3125 C 3,0.0625 3.46875,-0.78125 3.46875,-1.015625 3.46875,-1.09375 3.390625,-1.09375 3.359375,-1.09375 3.265625,-1.09375 3.25,-1.0625 3.21875,-0.984375 3.09375,-0.640625 2.6875,-0.46875 2.34375,-0.46875 2.1875,-0.46875 2,-0.515625 1.828125,-0.546875 1.515625,-0.625 1.453125,-0.625 1.328125,-0.625 c -0.015625,0 -0.109375,0 -0.15625,0.015625 z m 0,0"
           id="id-23e597d5-01f7-47fe-ac93-a92a05657499" />
      </symbol>
    </g>
    <g
       id="id-6ab97043-a07f-4fcb-97b2-1fe2ca6a445e">
      <symbol
         overflow="visible"
         id="id-96b7d6e2-bf13-4d1f-b865-f0462377a3d1">
        <path
           style="stroke:none;stroke-width:0"
           d=""
           id="id-cc9bcc73-67b8-4739-97b4-cbb46bc29036" />
      </symbol>
      <symbol
         overflow="visible"
         id="id-9ae12039-6f36-4583-b3eb-84568e363c98">
        <path
           style="stroke:none;stroke-width:0"
           d="m 2.859375,-6.921875 -1.5625,1.265625 0.28125,0.375 1.28125,-0.8125 1.28125,0.8125 0.28125,-0.375 z m 0,0"
           id="id-f310ddac-62e8-4993-ac47-a1603d20ecd1" />
      </symbol>
      <symbol
         overflow="visible"
         id="id-3964fbdf-b10a-43bf-9e46-839a4e52d502">
        <path
           style="stroke:none;stroke-width:0"
           d="M 3.453125,-2.453125 4.609375,-3.75 C 4.75,-3.890625 4.8125,-3.953125 5.625,-3.953125 v -0.46875 c -0.34375,0.015625 -0.859375,0.03125 -0.90625,0.03125 -0.25,0 -0.75,-0.03125 -1.03125,-0.03125 v 0.46875 c 0.140625,0 0.265625,0.015625 0.375,0.078125 -0.03125,0.0625 -0.03125,0.09375 -0.078125,0.125 L 3.15625,-2.8125 2.171875,-3.953125 h 0.40625 v -0.46875 c -0.265625,0 -0.890625,0.03125 -1.21875,0.03125 -0.3125,0 -0.765625,-0.03125 -1.09375,-0.03125 v 0.46875 h 0.71875 L 2.53125,-2.125 1.21875,-0.65625 c -0.15625,0.1875 -0.515625,0.1875 -1,0.1875 V 0 c 0.34375,-0.015625 0.875,-0.03125 0.921875,-0.03125 0.25,0 0.828125,0.015625 1.015625,0.03125 v -0.46875 c -0.171875,0 -0.359375,-0.046875 -0.359375,-0.109375 0,-0.015625 0,-0.015625 0.0625,-0.09375 l 0.96875,-1.09375 1.09375,1.296875 H 3.53125 V 0 c 0.265625,-0.015625 0.875,-0.03125 1.203125,-0.03125 0.3125,0 0.765625,0.015625 1.09375,0.03125 V -0.46875 H 5.125 Z m 0,0"
           id="id-e252afb8-1085-465e-b7dd-70d311bcb37b" />
      </symbol>
    </g>
    <g
       id="id-8191e5f8-2aae-4155-8f5a-97ae08d08c04">
      <symbol
         overflow="visible"
         id="id-6e1737cc-cc79-4a08-ae6b-79e57e41e220">
        <path
           style="stroke:none"
           d=""
           id="id-44fdaee1-89d4-4f30-acea-62841ee76fc8" />
      </symbol>
      <symbol
         overflow="visible"
         id="id-e97978b6-a28e-40b1-8987-d5ad59df77e3">
        <path
           style="stroke:none"
           d="m 2.859375,-6.921875 -1.5625,1.265625 0.28125,0.375 1.28125,-0.8125 1.28125,0.8125 0.28125,-0.375 z m 0,0"
           id="id-8f6a7052-f8a5-4ff3-91db-d8455431fb70" />
      </symbol>
      <symbol
         overflow="visible"
         id="id-49d5a334-c623-4dfd-bbb2-7667773cdb18">
        <path
           style="stroke:none"
           d="M 4.46875,-4 C 4.5625,-4.109375 4.578125,-4.125 4.578125,-4.21875 4.578125,-4.421875 4.4375,-4.421875 4.25,-4.421875 H 0.59375 L 0.484375,-2.6875 h 0.46875 C 1,-3.703125 1.3125,-4.0625 2.34375,-4.0625 H 3.1875 l -2.78125,3.625 C 0.3125,-0.328125 0.3125,-0.3125 0.3125,-0.21875 0.3125,0 0.453125,0 0.640625,0 h 3.78125 l 0.1875,-2.015625 H 4.140625 C 4.046875,-1 3.890625,-0.40625 2.578125,-0.40625 H 1.71875 Z m 0,0"
           id="id-63c96ba0-ff1a-4546-8845-ffa2af002a0a" />
      </symbol>
    </g>
    <g
       id="id-c3f315e2-db5c-4c39-a48c-3c016e9ebd9b">
      <symbol
         overflow="visible"
         id="id-114a1695-eedb-43b3-9bfa-12ab9b218238">
        <path
           style="stroke:none;stroke-width:0"
           d=""
           id="id-bf35f0be-37a2-4ad3-9be2-0fbd1409b85b" />
      </symbol>
      <symbol
         overflow="visible"
         id="id-bcecef0e-2145-479e-8f70-e0f2b45d305d">
        <path
           style="stroke:none;stroke-width:0"
           d="m 2.859375,-6.921875 -1.5625,1.265625 0.28125,0.375 1.28125,-0.8125 1.28125,0.8125 0.28125,-0.375 z m 0,0"
           id="id-cef710c7-8f8f-466f-9f6f-c39b2eb9a732" />
      </symbol>
      <symbol
         overflow="visible"
         id="id-d8345a83-12e6-41ad-a8d9-ea92cc12c79e">
        <path
           style="stroke:none;stroke-width:0"
           d="m 5.046875,-3.75 c 0.0625,-0.140625 0.09375,-0.203125 0.734375,-0.203125 v -0.46875 C 5.546875,-4.40625 5.25,-4.390625 5,-4.390625 c -0.25,0 -0.703125,-0.03125 -0.90625,-0.03125 v 0.46875 c 0.015625,0 0.46875,0 0.46875,0.109375 0,0.015625 -0.046875,0.109375 -0.0625,0.125 L 3.359375,-1.265625 2.09375,-3.953125 H 2.625 v -0.46875 c -0.328125,0.015625 -1.21875,0.03125 -1.234375,0.03125 -0.28125,0 -0.71875,-0.03125 -1.125,-0.03125 v 0.46875 h 0.625 L 2.765625,0 2.53125,0.484375 C 2.3125,0.953125 2,1.640625 1.28125,1.640625 1.140625,1.640625 1.125,1.625 1.046875,1.59375 1.140625,1.5625 1.359375,1.421875 1.359375,1.0625 1.359375,0.734375 1.125,0.5 0.78125,0.5 0.515625,0.5 0.21875,0.6875 0.21875,1.078125 0.21875,1.578125 0.6875,2 1.28125,2 2.046875,2 2.625,1.375 2.90625,0.8125 Z m 0,0"
           id="id-5a3a29a7-1aad-4752-b68a-ec3937e8e8fe" />
      </symbol>
    </g>
    <g
       id="id-0342c17a-4c54-418f-8f5b-e7b39ad72aff">
      <symbol
         overflow="visible"
         id="id-9159410d-df8a-461e-9831-77d7a59a1ee5">
        <path
           style="stroke:none;stroke-width:0"
           d=""
           id="id-225bf945-3c49-486b-92ab-980be23f8c26" />
      </symbol>
      <symbol
         overflow="visible"
         id="id-70fe5fc5-1ba8-4fac-9c2b-959bb3e4db15">
        <path
           style="stroke:none;stroke-width:0"
           d="m 1.71875,-7.140625 c 0,-0.15625 0,-0.34375 -0.203125,-0.34375 -0.203125,0 -0.203125,0.234375 -0.203125,0.375 V 2.125 c 0,0.15625 0,0.375 0.203125,0.375 C 1.71875,2.5 1.71875,2.3125 1.71875,2.15625 Z m 1.9375,0.03125 c 0,-0.15625 0,-0.375 -0.203125,-0.375 -0.1875,0 -0.1875,0.1875 -0.1875,0.34375 V 2.15625 c 0,0.15625 0,0.34375 0.1875,0.34375 C 3.65625,2.5 3.65625,2.265625 3.65625,2.125 Z m 0,0"
           id="id-fa91c9f6-4d2c-499b-bc00-e34663004a00" />
      </symbol>
      <symbol
         overflow="visible"
         id="id-b3d265c0-6b64-420a-827b-fffabdeb2f8f">
        <path
           style="stroke:none;stroke-width:0"
           d=""
           id="id-0847dca7-0a09-40fb-b85c-a87e0dc7511f" />
      </symbol>
      <symbol
         overflow="visible"
         id="id-f30c7946-b148-4bf4-8876-7c95b54ebba5">
        <path
           style="stroke:none;stroke-width:0"
           d="m 5.359375,-5.9375 c -0.140625,0.140625 -0.46875,0.421875 -0.46875,0.59375 0,0.09375 0.09375,0.203125 0.1875,0.203125 0.09375,0 0.140625,-0.078125 0.203125,-0.140625 C 5.390625,-5.421875 5.625,-5.703125 6.0625,-5.921875 6.125,-5.96875 6.234375,-6.015625 6.234375,-6.125 6.234375,-6.234375 6.15625,-6.28125 6.09375,-6.328125 5.875,-6.484375 5.765625,-6.65625 5.6875,-6.890625 5.65625,-6.984375 5.625,-7.125 5.484375,-7.125 c -0.140625,0 -0.203125,0.140625 -0.203125,0.21875 0,0.046875 0.078125,0.359375 0.234375,0.578125 H 2.15625 c -0.15625,0 -0.34375,0 -0.34375,0.203125 0,0.1875 0.1875,0.1875 0.34375,0.1875 z m 0,0"
           id="id-4de6b551-e240-4976-a847-6a9c2cffd5f3" />
      </symbol>
      <symbol
         overflow="visible"
         id="id-7b566ec8-d368-49d9-9b50-8ecca1ab764c">
        <path
           style="stroke:none;stroke-width:0"
           d="m 4.671875,-3.703125 c 0,-0.546875 -0.265625,-0.703125 -0.4375,-0.703125 -0.25,0 -0.5,0.265625 -0.5,0.484375 0,0.125 0.046875,0.1875 0.15625,0.296875 0.21875,0.203125 0.34375,0.453125 0.34375,0.8125 0,0.421875 -0.609375,2.703125 -1.765625,2.703125 -0.515625,0 -0.75,-0.34375 -0.75,-0.875 0,-0.546875 0.28125,-1.28125 0.578125,-2.109375 0.078125,-0.171875 0.125,-0.3125 0.125,-0.5 0,-0.4375 -0.3125,-0.8125 -0.8125,-0.8125 -0.9375,0 -1.3125,1.453125 -1.3125,1.53125 0,0.109375 0.09375,0.109375 0.109375,0.109375 0.109375,0 0.109375,-0.03125 0.15625,-0.1875 0.296875,-1 0.71875,-1.234375 1.015625,-1.234375 0.078125,0 0.25,0 0.25,0.3125 0,0.25 -0.109375,0.53125 -0.171875,0.703125 -0.4375,1.15625 -0.5625,1.609375 -0.5625,2.046875 0,1.078125 0.875,1.234375 1.328125,1.234375 1.671875,0 2.25,-3.296875 2.25,-3.8125 z m 0,0"
           id="id-6e509957-8da5-4f8b-9ed9-c657b6445a2f" />
      </symbol>
    </g>
  </defs>
  <g
     inkscape:label="Layer 1"
     inkscape:groupmode="layer"
     id="layer1">
    <path
       style="fill:#ff0000;fill-opacity:0.2;stroke:none;stroke-width:0.186512px;stroke-linecap:butt;stroke-linejoin:miter;stroke-opacity:1"
       d="m 45.493475,51.231627 38.022397,-8.231733 38.074738,8.262855 -38.022405,8.231734 z"
       id="path2555" />
    <path
       style="fill:#0005ff;fill-opacity:0.201613;stroke:none;stroke-width:0.186512px;stroke-linecap:butt;stroke-linejoin:miter;stroke-opacity:1"
       d="M 45.493475,51.231627 45.364242,13.625113 83.386646,5.3933814 83.515872,42.999894 Z"
       id="path3821" />
    <g
       id="g2118"
       transform="matrix(0.71756646,0,0,0.6925105,-27.694602,3.155337)">
      <path
         sodipodi:type="star"
         style="font-variation-settings:normal;opacity:1;vector-effect:none;fill:#ff0000;fill-opacity:1;fill-rule:evenodd;stroke-width:2.26772;stroke-linecap:butt;stroke-linejoin:miter;stroke-miterlimit:4;stroke-dasharray:none;stroke-dashoffset:0.226772;stroke-opacity:1;-inkscape-stroke:none;stop-color:#000000;stop-opacity:1"
         id="path2335"
         inkscape:flatsided="false"
         sodipodi:sides="3"
         sodipodi:cx="651.7666"
         sodipodi:cy="220.58768"
         sodipodi:r1="7.0842271"
         sodipodi:r2="3.2436836"
         sodipodi:arg1="-0.85196633"
         sodipodi:arg2="0.19523122"
         inkscape:rounded="0"
         inkscape:randomized="0"
         transform="matrix(0.13921244,0.22499829,-0.22499829,0.13921244,112.1046,-96.307401)"
         inkscape:transform-center-x="-0.93500896"
         inkscape:transform-center-y="-0.078727127"
         d="m 656.4316,215.25625 -1.48294,5.96068 -0.89741,6.07646 -4.42063,-4.26459 -4.81367,-3.81542 5.90357,-1.69608 z" />
      <g
         id="g613"
         style="fill:#ff0000;fill-opacity:1;stroke:#ff0300;stroke-opacity:1">
        <path
           style="fill:#ff0000;fill-opacity:1;stroke:#ff0300;stroke-width:0.264583px;stroke-linecap:butt;stroke-linejoin:miter;stroke-opacity:1"
           d="m 101.99484,69.423194 53.06091,11.93174"
           id="path2817" />
      </g>
    </g>
    <path
       style="fill:none;stroke:#000000;stroke-width:0.186512px;stroke-linecap:butt;stroke-linejoin:miter;stroke-opacity:1"
       d="M 7.8751787,59.422131 45.493475,51.231627"
       id="path3151" />
    <path
       style="fill:none;stroke:#000000;stroke-width:0.186512px;stroke-linecap:butt;stroke-linejoin:miter;stroke-opacity:1"
       d="M 7.8751787,42.999892 45.493475,51.231627"
       id="path411" />
    <g
       id="g2113"
       transform="matrix(0.71756646,0,0,0.6925105,-27.694602,3.155337)">
      <path
         style="fill:#0000ff;stroke:#0407ff;stroke-width:0.264583px;stroke-linecap:butt;stroke-linejoin:miter;stroke-opacity:1"
         d="M 154.98283,57.536394 101.99484,69.423192"
         id="path526" />
      <path
         sodipodi:type="star"
         style="font-variation-settings:normal;opacity:1;vector-effect:none;fill:#0000ff;fill-opacity:1;fill-rule:evenodd;stroke-width:2.26772;stroke-linecap:butt;stroke-linejoin:miter;stroke-miterlimit:4;stroke-dasharray:none;stroke-dashoffset:0.226772;stroke-opacity:1;-inkscape-stroke:none;stop-color:#000000;stop-opacity:1"
         id="path2091"
         inkscape:flatsided="false"
         sodipodi:sides="3"
         sodipodi:cx="651.7666"
         sodipodi:cy="220.58768"
         sodipodi:r1="7.0842271"
         sodipodi:r2="3.2436836"
         sodipodi:arg1="-0.85196633"
         sodipodi:arg2="0.19523122"
         inkscape:rounded="0"
         inkscape:randomized="0"
         transform="matrix(0.13921244,-0.22499829,-0.22499829,-0.13921244,112.03167,235.19873)"
         inkscape:transform-center-x="-0.93500896"
         inkscape:transform-center-y="0.078723553"
         d="m 656.4316,215.25625 -1.48294,5.96068 -0.89741,6.07646 -4.42063,-4.26459 -4.81367,-3.81542 5.90357,-1.69608 z" />
    </g>
    <g
       id="g2504"
       transform="matrix(0.71756646,0,0,0.6925105,10.380128,11.418194)">
      <path
         style="fill:#0000ff;stroke:#0407ff;stroke-width:0.264583px;stroke-linecap:butt;stroke-linejoin:miter;stroke-opacity:1"
         d="M 154.98283,57.536394 101.99484,69.423192"
         id="path2500" />
      <path
         sodipodi:type="star"
         style="font-variation-settings:normal;opacity:1;vector-effect:none;fill:#0000ff;fill-opacity:1;fill-rule:evenodd;stroke-width:2.26772;stroke-linecap:butt;stroke-linejoin:miter;stroke-miterlimit:4;stroke-dasharray:none;stroke-dashoffset:0.226772;stroke-opacity:1;-inkscape-stroke:none;stop-color:#000000;stop-opacity:1"
         id="path2502"
         inkscape:flatsided="false"
         sodipodi:sides="3"
         sodipodi:cx="651.7666"
         sodipodi:cy="220.58768"
         sodipodi:r1="7.0842271"
         sodipodi:r2="3.2436836"
         sodipodi:arg1="-0.85196633"
         sodipodi:arg2="0.19523122"
         inkscape:rounded="0"
         inkscape:randomized="0"
         transform="matrix(0.13921244,-0.22499829,-0.22499829,-0.13921244,112.03167,235.19873)"
         inkscape:transform-center-x="-0.93500896"
         inkscape:transform-center-y="0.078723553"
         d="m 656.4316,215.25625 -1.48294,5.96068 -0.89741,6.07646 -4.42063,-4.26459 -4.81367,-3.81542 5.90357,-1.69608 z" />
    </g>
    <g
       id="g2338"
       transform="matrix(0.71756646,0,0,0.6925105,10.327803,-5.0763968)">
      <path
         sodipodi:type="star"
         style="font-variation-settings:normal;opacity:1;vector-effect:none;fill:#ff0000;fill-opacity:1;fill-rule:evenodd;stroke-width:2.26772;stroke-linecap:butt;stroke-linejoin:miter;stroke-miterlimit:4;stroke-dasharray:none;stroke-dashoffset:0.226772;stroke-opacity:1;-inkscape-stroke:none;stop-color:#000000;stop-opacity:1"
         id="path2332"
         inkscape:flatsided="false"
         sodipodi:sides="3"
         sodipodi:cx="651.7666"
         sodipodi:cy="220.58768"
         sodipodi:r1="7.0842271"
         sodipodi:r2="3.2436836"
         sodipodi:arg1="-0.85196633"
         sodipodi:arg2="0.19523122"
         inkscape:rounded="0"
         inkscape:randomized="0"
         transform="matrix(0.13921244,0.22499829,-0.22499829,0.13921244,112.1046,-96.307401)"
         inkscape:transform-center-x="-0.93500896"
         inkscape:transform-center-y="-0.078727127"
         d="m 656.4316,215.25625 -1.48294,5.96068 -0.89741,6.07646 -4.42063,-4.26459 -4.81367,-3.81542 5.90357,-1.69608 z" />
      <g
         id="g2336"
         style="fill:#ff0000;fill-opacity:1;stroke:#ff0300;stroke-opacity:1">
        <path
           style="fill:#ff0000;fill-opacity:1;stroke:#ff0300;stroke-width:0.264583px;stroke-linecap:butt;stroke-linejoin:miter;stroke-opacity:1"
           d="m 101.99484,69.423194 53.06091,11.93174"
           id="path2334" />
      </g>
    </g>
    <g
       id="g4448"
       transform="matrix(0.71756646,0,0,0.6925105,-27.694602,3.155337)">
      <path
         style="fill:#00ff00;stroke:#00ff0a;stroke-width:0.264583px;stroke-linecap:butt;stroke-linejoin:miter;stroke-opacity:1"
         d="m 101.81474,15.118582 0.1801,54.30461"
         id="path3477" />
      <path
         sodipodi:type="star"
         style="font-variation-settings:normal;opacity:1;vector-effect:none;fill:#00ff00;fill-opacity:1;fill-rule:evenodd;stroke:#00ff0a;stroke-width:2.26772;stroke-linecap:butt;stroke-linejoin:miter;stroke-miterlimit:4;stroke-dasharray:none;stroke-dashoffset:0.226772;stroke-opacity:1;-inkscape-stroke:none;stop-color:#000000;stop-opacity:1"
         id="path3479"
         inkscape:flatsided="false"
         sodipodi:sides="3"
         sodipodi:cx="651.7666"
         sodipodi:cy="220.58768"
         sodipodi:r1="7.0842271"
         sodipodi:r2="3.2436836"
         sodipodi:arg1="-0.85196633"
         sodipodi:arg2="0.19523122"
         inkscape:rounded="0"
         inkscape:randomized="0"
         transform="matrix(-0.16715805,-0.14160244,-0.14674364,0.16239987,243.13232,73.725266)"
         inkscape:transform-center-x="-0.84670449"
         inkscape:transform-center-y="-0.014167344"
         d="m 656.4316,215.25625 -1.48294,5.96068 -0.89741,6.07646 -4.42063,-4.26459 -4.81367,-3.81542 5.90357,-1.69608 z" />
    </g>
    <g
       id="g3776"
       transform="matrix(0.71756646,0,0,0.6925105,-27.823836,-34.451176)">
      <path
         style="fill:#0000ff;stroke:#0407ff;stroke-width:0.264583px;stroke-linecap:butt;stroke-linejoin:miter;stroke-opacity:1"
         d="M 154.98283,57.536394 101.99484,69.423192"
         id="path3772" />
      <path
         sodipodi:type="star"
         style="font-variation-settings:normal;opacity:1;vector-effect:none;fill:#0000ff;fill-opacity:1;fill-rule:evenodd;stroke-width:2.26772;stroke-linecap:butt;stroke-linejoin:miter;stroke-miterlimit:4;stroke-dasharray:none;stroke-dashoffset:0.226772;stroke-opacity:1;-inkscape-stroke:none;stop-color:#000000;stop-opacity:1"
         id="path3774"
         inkscape:flatsided="false"
         sodipodi:sides="3"
         sodipodi:cx="651.7666"
         sodipodi:cy="220.58768"
         sodipodi:r1="7.0842271"
         sodipodi:r2="3.2436836"
         sodipodi:arg1="-0.85196633"
         sodipodi:arg2="0.19523122"
         inkscape:rounded="0"
         inkscape:randomized="0"
         transform="matrix(0.13921244,-0.22499829,-0.22499829,-0.13921244,112.03167,235.19873)"
         inkscape:transform-center-x="-0.93500896"
         inkscape:transform-center-y="0.078723553"
         d="m 656.4316,215.25625 -1.48294,5.96068 -0.89741,6.07646 -4.42063,-4.26459 -4.81367,-3.81542 5.90357,-1.69608 z" />
    </g>
    <path
       style="fill:#00ff00;stroke:#00ff0a;stroke-width:0.186512px;stroke-linecap:butt;stroke-linejoin:miter;stroke-opacity:1"
       d="M 83.386646,5.3933788 83.515879,42.999892"
       id="path3778" />
    <path
       sodipodi:type="star"
       style="font-variation-settings:normal;opacity:1;vector-effect:none;fill:#00ff00;fill-opacity:1;fill-rule:evenodd;stroke:#00ff0a;stroke-width:2.26772;stroke-linecap:butt;stroke-linejoin:miter;stroke-miterlimit:4;stroke-dasharray:none;stroke-dashoffset:0.226772;stroke-opacity:1;-inkscape-stroke:none;stop-color:#000000;stop-opacity:1"
       id="path3780"
       inkscape:flatsided="false"
       sodipodi:sides="3"
       sodipodi:cx="651.7666"
       sodipodi:cy="220.58768"
       sodipodi:r1="7.0842271"
       sodipodi:r2="3.2436836"
       sodipodi:arg1="-0.85196633"
       sodipodi:arg2="0.19523122"
       inkscape:rounded="0"
       inkscape:randomized="0"
       transform="matrix(-0.11555085,-0.09479993,-0.0989718,0.11068014,180.55909,44.173953)"
       inkscape:transform-center-x="-0.82062125"
       inkscape:transform-center-y="-0.015223502"
       d="m 656.4316,215.25625 -1.48294,5.96068 -0.89741,6.07646 -4.42063,-4.26459 -4.81367,-3.81542 5.90357,-1.69608 z" />
    <g
       transform="matrix(0.81340644,0,0,0.78500394,73.44955,47.487427)"
       ns2:version="1.5.0"
       ns2:texconverter="pdflatex"
       ns2:pdfconverter="inkscape"
       ns2:text="$$\n\\mathbf{\\hat{x}} \\wedge \\mathbf{\\hat{y}}\n$$\n"
       ns2:preamble="default_packages.tex"
       ns2:scale="2.17863472211986"
       ns2:alignment="middle center"
       ns2:stroke-to-path="0"
       ns2:inkscapeversion="1.1"
       ns2:jacobian_sqrt="0.768574"
       id="g5001">
      <defs
         id="id-2d773915-db7c-4371-b2f8-1932dffcaf34">
        <g
           id="id-35e1168b-a5a2-4dba-9847-a67b97bb113e">
          <symbol
             overflow="visible"
             id="id-a616761e-51da-4986-94e0-55b5105a9797">
            <path
               style="stroke:none;stroke-width:0"
               d=""
               id="id-99e250b5-fd40-47cc-84f6-6eadfef7cae6" />
          </symbol>
          <symbol
             overflow="visible"
             id="id-aab0720c-cae5-47f8-92d6-14cb6d4570f2">
            <path
               style="stroke:none;stroke-width:0"
               d="m 2.859375,-6.921875 -1.5625,1.265625 0.28125,0.375 1.28125,-0.8125 1.28125,0.8125 0.28125,-0.375 z m 0,0"
               id="id-34fb5a6a-5271-4bdc-ac85-84b75fecfec7" />
          </symbol>
          <symbol
             overflow="visible"
             id="id-a5739604-11d0-41bc-949d-f2223807d18c">
            <path
               style="stroke:none;stroke-width:0"
               d="M 3.453125,-2.453125 4.609375,-3.75 C 4.75,-3.890625 4.8125,-3.953125 5.625,-3.953125 v -0.46875 c -0.34375,0.015625 -0.859375,0.03125 -0.90625,0.03125 -0.25,0 -0.75,-0.03125 -1.03125,-0.03125 v 0.46875 c 0.140625,0 0.265625,0.015625 0.375,0.078125 -0.03125,0.0625 -0.03125,0.09375 -0.078125,0.125 L 3.15625,-2.8125 2.171875,-3.953125 h 0.40625 v -0.46875 c -0.265625,0 -0.890625,0.03125 -1.21875,0.03125 -0.3125,0 -0.765625,-0.03125 -1.09375,-0.03125 v 0.46875 h 0.71875 L 2.53125,-2.125 1.21875,-0.65625 c -0.15625,0.1875 -0.515625,0.1875 -1,0.1875 V 0 c 0.34375,-0.015625 0.875,-0.03125 0.921875,-0.03125 0.25,0 0.828125,0.015625 1.015625,0.03125 v -0.46875 c -0.171875,0 -0.359375,-0.046875 -0.359375,-0.109375 0,-0.015625 0,-0.015625 0.0625,-0.09375 l 0.96875,-1.09375 1.09375,1.296875 H 3.53125 V 0 c 0.265625,-0.015625 0.875,-0.03125 1.203125,-0.03125 0.3125,0 0.765625,0.015625 1.09375,0.03125 V -0.46875 H 5.125 Z m 0,0"
               id="id-739c2f9a-920f-44ac-bd22-cb76a6598266" />
          </symbol>
          <symbol
             overflow="visible"
             id="id-c974629e-e2a9-411c-b4d0-c3b063dd20ac">
            <path
               style="stroke:none;stroke-width:0"
               d="m 5.046875,-3.75 c 0.0625,-0.140625 0.09375,-0.203125 0.734375,-0.203125 v -0.46875 C 5.546875,-4.40625 5.25,-4.390625 5,-4.390625 c -0.25,0 -0.703125,-0.03125 -0.90625,-0.03125 v 0.46875 c 0.015625,0 0.46875,0 0.46875,0.109375 0,0.015625 -0.046875,0.109375 -0.0625,0.125 L 3.359375,-1.265625 2.09375,-3.953125 H 2.625 v -0.46875 c -0.328125,0.015625 -1.21875,0.03125 -1.234375,0.03125 -0.28125,0 -0.71875,-0.03125 -1.125,-0.03125 v 0.46875 h 0.625 L 2.765625,0 2.53125,0.484375 C 2.3125,0.953125 2,1.640625 1.28125,1.640625 1.140625,1.640625 1.125,1.625 1.046875,1.59375 1.140625,1.5625 1.359375,1.421875 1.359375,1.0625 1.359375,0.734375 1.125,0.5 0.78125,0.5 0.515625,0.5 0.21875,0.6875 0.21875,1.078125 0.21875,1.578125 0.6875,2 1.28125,2 2.046875,2 2.625,1.375 2.90625,0.8125 Z m 0,0"
               id="id-9ddcc590-1f42-43b3-a147-cb68005fed9d" />
          </symbol>
          <symbol
             overflow="visible"
             id="id-1f3b7996-cf17-45cb-9716-d81c4eb812df">
            <path
               style="stroke:none;stroke-width:0"
               d=""
               id="id-1327841a-ee40-4557-8d31-cbb5ea08a0c1" />
          </symbol>
          <symbol
             overflow="visible"
             id="id-73dd76c3-a6d6-4c4d-8374-df59eb11561f">
            <path
               style="stroke:none;stroke-width:0"
               d="M 3.546875,-5.75 C 3.46875,-5.921875 3.40625,-5.96875 3.3125,-5.96875 c -0.125,0 -0.15625,0.078125 -0.21875,0.21875 L 0.625,-0.171875 c -0.0625,0.125 -0.078125,0.140625 -0.078125,0.1875 0,0.109375 0.09375,0.203125 0.203125,0.203125 0.0625,0 0.140625,-0.015625 0.234375,-0.203125 L 3.3125,-5.28125 5.65625,0.015625 C 5.75,0.21875 5.859375,0.21875 5.890625,0.21875 6,0.21875 6.09375,0.125 6.09375,0.015625 c 0,-0.015625 0,-0.03125 -0.0625,-0.15625 z m 0,0"
               id="id-15cdbf60-8c68-49a0-8064-bac0fcca2de7" />
          </symbol>
        </g>
      </defs>
      <g
         id="id-185410f8-cc7e-4dc8-875b-b9b738d155ca"
         transform="translate(-294.181,-139.798)">
        <g
           style="fill:#000000;fill-opacity:1"
           id="id-aaa76d44-6dd4-43bd-87b2-3e98047496f9">
          <g
             transform="translate(294.122,146.72)"
             id="g4981">
            <path
               style="stroke:none;stroke-width:0"
               d="m 2.859375,-6.921875 -1.5625,1.265625 0.28125,0.375 1.28125,-0.8125 1.28125,0.8125 0.28125,-0.375 z m 0,0"
               id="id-ef196d17-35ae-4667-8f04-39e32448ff48" />
          </g>
        </g>
        <g
           style="fill:#000000;fill-opacity:1"
           id="id-bfe9dd8a-a074-4a57-99d9-f25e3fff0b83">
          <g
             transform="translate(293.963,146.72)"
             id="g4985">
            <path
               style="stroke:none;stroke-width:0"
               d="M 3.453125,-2.453125 4.609375,-3.75 C 4.75,-3.890625 4.8125,-3.953125 5.625,-3.953125 v -0.46875 c -0.34375,0.015625 -0.859375,0.03125 -0.90625,0.03125 -0.25,0 -0.75,-0.03125 -1.03125,-0.03125 v 0.46875 c 0.140625,0 0.265625,0.015625 0.375,0.078125 -0.03125,0.0625 -0.03125,0.09375 -0.078125,0.125 L 3.15625,-2.8125 2.171875,-3.953125 h 0.40625 v -0.46875 c -0.265625,0 -0.890625,0.03125 -1.21875,0.03125 -0.3125,0 -0.765625,-0.03125 -1.09375,-0.03125 v 0.46875 h 0.71875 L 2.53125,-2.125 1.21875,-0.65625 c -0.15625,0.1875 -0.515625,0.1875 -1,0.1875 V 0 c 0.34375,-0.015625 0.875,-0.03125 0.921875,-0.03125 0.25,0 0.828125,0.015625 1.015625,0.03125 v -0.46875 c -0.171875,0 -0.359375,-0.046875 -0.359375,-0.109375 0,-0.015625 0,-0.015625 0.0625,-0.09375 l 0.96875,-1.09375 1.09375,1.296875 H 3.53125 V 0 c 0.265625,-0.015625 0.875,-0.03125 1.203125,-0.03125 0.3125,0 0.765625,0.015625 1.09375,0.03125 V -0.46875 H 5.125 Z m 0,0"
               id="id-33770270-9047-485f-88cb-517d7fa3ce7b" />
          </g>
        </g>
        <g
           style="fill:#000000;fill-opacity:1"
           id="id-79085069-3575-4664-818d-b57ad1578dd5">
          <g
             transform="translate(302.223,146.72)"
             id="g4989">
            <path
               style="stroke:none;stroke-width:0"
               d="M 3.546875,-5.75 C 3.46875,-5.921875 3.40625,-5.96875 3.3125,-5.96875 c -0.125,0 -0.15625,0.078125 -0.21875,0.21875 L 0.625,-0.171875 c -0.0625,0.125 -0.078125,0.140625 -0.078125,0.1875 0,0.109375 0.09375,0.203125 0.203125,0.203125 0.0625,0 0.140625,-0.015625 0.234375,-0.203125 L 3.3125,-5.28125 5.65625,0.015625 C 5.75,0.21875 5.859375,0.21875 5.890625,0.21875 6,0.21875 6.09375,0.125 6.09375,0.015625 c 0,-0.015625 0,-0.03125 -0.0625,-0.15625 z m 0,0"
               id="id-cf62c5f2-c60b-4eb6-8277-9022b8c760b1" />
          </g>
        </g>
        <g
           style="fill:#000000;fill-opacity:1"
           id="id-f85f6043-c2e0-4699-a09a-7a2fc9ada627">
          <g
             transform="translate(311.318,146.72)"
             id="g4993">
            <path
               style="stroke:none;stroke-width:0"
               d="m 2.859375,-6.921875 -1.5625,1.265625 0.28125,0.375 1.28125,-0.8125 1.28125,0.8125 0.28125,-0.375 z m 0,0"
               id="id-8649b411-a96d-4f25-9cdd-6522153d7e4a" />
          </g>
        </g>
        <g
           style="fill:#000000;fill-opacity:1"
           id="id-f8331d2b-03aa-4ae1-964f-77e27982c28e">
          <g
             transform="translate(311.079,146.72)"
             id="g4997">
            <path
               style="stroke:none;stroke-width:0"
               d="m 5.046875,-3.75 c 0.0625,-0.140625 0.09375,-0.203125 0.734375,-0.203125 v -0.46875 C 5.546875,-4.40625 5.25,-4.390625 5,-4.390625 c -0.25,0 -0.703125,-0.03125 -0.90625,-0.03125 v 0.46875 c 0.015625,0 0.46875,0 0.46875,0.109375 0,0.015625 -0.046875,0.109375 -0.0625,0.125 L 3.359375,-1.265625 2.09375,-3.953125 H 2.625 v -0.46875 c -0.328125,0.015625 -1.21875,0.03125 -1.234375,0.03125 -0.28125,0 -0.71875,-0.03125 -1.125,-0.03125 v 0.46875 h 0.625 L 2.765625,0 2.53125,0.484375 C 2.3125,0.953125 2,1.640625 1.28125,1.640625 1.140625,1.640625 1.125,1.625 1.046875,1.59375 1.140625,1.5625 1.359375,1.421875 1.359375,1.0625 1.359375,0.734375 1.125,0.5 0.78125,0.5 0.515625,0.5 0.21875,0.6875 0.21875,1.078125 0.21875,1.578125 0.6875,2 1.28125,2 2.046875,2 2.625,1.375 2.90625,0.8125 Z m 0,0"
               id="id-47289b81-70cd-49a6-8fed-0ea69412d059" />
          </g>
        </g>
      </g>
    </g>
    <g
       transform="matrix(0.81802398,0,0,0.78946025,55.192466,24.670633)"
       ns2:version="1.5.0"
       ns2:texconverter="pdflatex"
       ns2:pdfconverter="inkscape"
       ns2:text="$$\n\\mathbf{\\hat{y}} \\wedge \\mathbf{\\hat{z}}\n$$\n"
       ns2:preamble="default_packages.tex"
       ns2:scale="2.17863472211986"
       ns2:alignment="middle center"
       ns2:stroke-to-path="0"
       ns2:inkscapeversion="1.1"
       ns2:jacobian_sqrt="0.768574"
       id="g5341">
      <defs
         id="id-08f03c58-bf53-4e80-8f43-5ae2683d0a15">
        <g
           id="id-97d18328-bf1c-47f5-90fb-2b43b9207412">
          <symbol
             overflow="visible"
             id="id-3e91be8a-67f0-4d32-b681-bc03e91776fc">
            <path
               style="stroke:none;stroke-width:0"
               d=""
               id="id-a894b854-4be1-4705-915d-d5cb8ca56163" />
          </symbol>
          <symbol
             overflow="visible"
             id="id-8b3291a0-0ffd-4f9e-b851-1af697ec90f5">
            <path
               style="stroke:none;stroke-width:0"
               d="m 2.859375,-6.921875 -1.5625,1.265625 0.28125,0.375 1.28125,-0.8125 1.28125,0.8125 0.28125,-0.375 z m 0,0"
               id="id-ba760b7e-8478-4fc6-bb8e-dfb4a0a00e7f" />
          </symbol>
          <symbol
             overflow="visible"
             id="id-fa91bd50-eb6b-4ea1-9258-9cc070c8209c">
            <path
               style="stroke:none;stroke-width:0"
               d="m 5.046875,-3.75 c 0.0625,-0.140625 0.09375,-0.203125 0.734375,-0.203125 v -0.46875 C 5.546875,-4.40625 5.25,-4.390625 5,-4.390625 c -0.25,0 -0.703125,-0.03125 -0.90625,-0.03125 v 0.46875 c 0.015625,0 0.46875,0 0.46875,0.109375 0,0.015625 -0.046875,0.109375 -0.0625,0.125 L 3.359375,-1.265625 2.09375,-3.953125 H 2.625 v -0.46875 c -0.328125,0.015625 -1.21875,0.03125 -1.234375,0.03125 -0.28125,0 -0.71875,-0.03125 -1.125,-0.03125 v 0.46875 h 0.625 L 2.765625,0 2.53125,0.484375 C 2.3125,0.953125 2,1.640625 1.28125,1.640625 1.140625,1.640625 1.125,1.625 1.046875,1.59375 1.140625,1.5625 1.359375,1.421875 1.359375,1.0625 1.359375,0.734375 1.125,0.5 0.78125,0.5 0.515625,0.5 0.21875,0.6875 0.21875,1.078125 0.21875,1.578125 0.6875,2 1.28125,2 2.046875,2 2.625,1.375 2.90625,0.8125 Z m 0,0"
               id="id-5d9926bf-b5eb-4a75-8e09-1195fd97ad81" />
          </symbol>
          <symbol
             overflow="visible"
             id="id-dc600e4b-85c6-4712-abf1-97e06a16ed09">
            <path
               style="stroke:none;stroke-width:0"
               d="M 4.46875,-4 C 4.5625,-4.109375 4.578125,-4.125 4.578125,-4.21875 4.578125,-4.421875 4.4375,-4.421875 4.25,-4.421875 H 0.59375 L 0.484375,-2.6875 h 0.46875 C 1,-3.703125 1.3125,-4.0625 2.34375,-4.0625 H 3.1875 l -2.78125,3.625 C 0.3125,-0.328125 0.3125,-0.3125 0.3125,-0.21875 0.3125,0 0.453125,0 0.640625,0 h 3.78125 l 0.1875,-2.015625 H 4.140625 C 4.046875,-1 3.890625,-0.40625 2.578125,-0.40625 H 1.71875 Z m 0,0"
               id="id-13330f6e-5cfc-4f50-9585-2c3e6e48d3ed" />
          </symbol>
          <symbol
             overflow="visible"
             id="id-0ac92d70-8228-4285-8b92-922c683bf713">
            <path
               style="stroke:none;stroke-width:0"
               d=""
               id="id-1ac37dd5-1f9a-4d0f-baee-a858db147f63" />
          </symbol>
          <symbol
             overflow="visible"
             id="id-820065d1-62af-4351-9e85-facc59fd39f9">
            <path
               style="stroke:none;stroke-width:0"
               d="M 3.546875,-5.75 C 3.46875,-5.921875 3.40625,-5.96875 3.3125,-5.96875 c -0.125,0 -0.15625,0.078125 -0.21875,0.21875 L 0.625,-0.171875 c -0.0625,0.125 -0.078125,0.140625 -0.078125,0.1875 0,0.109375 0.09375,0.203125 0.203125,0.203125 0.0625,0 0.140625,-0.015625 0.234375,-0.203125 L 3.3125,-5.28125 5.65625,0.015625 C 5.75,0.21875 5.859375,0.21875 5.890625,0.21875 6,0.21875 6.09375,0.125 6.09375,0.015625 c 0,-0.015625 0,-0.03125 -0.0625,-0.15625 z m 0,0"
               id="id-354cffec-a3fd-4dc3-85a1-1851386c380f" />
          </symbol>
        </g>
      </defs>
      <g
         id="id-8ff0bbe7-f144-42f1-b468-b54c0f1cc7c2"
         transform="translate(-294.659,-139.798)">
        <g
           style="fill:#000000;fill-opacity:1"
           id="id-db776909-9f0f-4eb3-93f4-88047fa0aed6">
          <g
             transform="translate(294.679,146.72)"
             id="g5321">
            <path
               style="stroke:none;stroke-width:0"
               d="m 2.859375,-6.921875 -1.5625,1.265625 0.28125,0.375 1.28125,-0.8125 1.28125,0.8125 0.28125,-0.375 z m 0,0"
               id="id-cc48e206-4e29-468e-a8b1-b70109ca76eb" />
          </g>
        </g>
        <g
           style="fill:#000000;fill-opacity:1"
           id="id-48c6b7b8-2b4f-4d93-8ac8-4bcb8b9d2bdb">
          <g
             transform="translate(294.44,146.72)"
             id="g5325">
            <path
               style="stroke:none;stroke-width:0"
               d="m 5.046875,-3.75 c 0.0625,-0.140625 0.09375,-0.203125 0.734375,-0.203125 v -0.46875 C 5.546875,-4.40625 5.25,-4.390625 5,-4.390625 c -0.25,0 -0.703125,-0.03125 -0.90625,-0.03125 v 0.46875 c 0.015625,0 0.46875,0 0.46875,0.109375 0,0.015625 -0.046875,0.109375 -0.0625,0.125 L 3.359375,-1.265625 2.09375,-3.953125 H 2.625 v -0.46875 c -0.328125,0.015625 -1.21875,0.03125 -1.234375,0.03125 -0.28125,0 -0.71875,-0.03125 -1.125,-0.03125 v 0.46875 h 0.625 L 2.765625,0 2.53125,0.484375 C 2.3125,0.953125 2,1.640625 1.28125,1.640625 1.140625,1.640625 1.125,1.625 1.046875,1.59375 1.140625,1.5625 1.359375,1.421875 1.359375,1.0625 1.359375,0.734375 1.125,0.5 0.78125,0.5 0.515625,0.5 0.21875,0.6875 0.21875,1.078125 0.21875,1.578125 0.6875,2 1.28125,2 2.046875,2 2.625,1.375 2.90625,0.8125 Z m 0,0"
               id="id-2aa557be-90a7-477b-906e-0b54a982dc3e" />
          </g>
        </g>
        <g
           style="fill:#000000;fill-opacity:1"
           id="id-09a8ac65-57be-411e-acdc-2d29829f31f0">
          <g
             transform="translate(302.86,146.72)"
             id="g5329">
            <path
               style="stroke:none;stroke-width:0"
               d="M 3.546875,-5.75 C 3.46875,-5.921875 3.40625,-5.96875 3.3125,-5.96875 c -0.125,0 -0.15625,0.078125 -0.21875,0.21875 L 0.625,-0.171875 c -0.0625,0.125 -0.078125,0.140625 -0.078125,0.1875 0,0.109375 0.09375,0.203125 0.203125,0.203125 0.0625,0 0.140625,-0.015625 0.234375,-0.203125 L 3.3125,-5.28125 5.65625,0.015625 C 5.75,0.21875 5.859375,0.21875 5.890625,0.21875 6,0.21875 6.09375,0.125 6.09375,0.015625 c 0,-0.015625 0,-0.03125 -0.0625,-0.15625 z m 0,0"
               id="id-06aca1b0-7e8e-482d-b515-44035134560b" />
          </g>
        </g>
        <g
           style="fill:#000000;fill-opacity:1"
           id="id-8efa82ca-9e41-4bd5-a2f5-07ba3ffc329b">
          <g
             transform="translate(311.397,146.72)"
             id="g5333">
            <path
               style="stroke:none;stroke-width:0"
               d="m 2.859375,-6.921875 -1.5625,1.265625 0.28125,0.375 1.28125,-0.8125 1.28125,0.8125 0.28125,-0.375 z m 0,0"
               id="id-efcb5288-9ca4-44ae-8d40-16665b3e62e6" />
          </g>
        </g>
        <g
           style="fill:#000000;fill-opacity:1"
           id="id-bbef4d4e-fd7d-4899-be54-96d6f5e527a6">
          <g
             transform="translate(311.716,146.72)"
             id="g5337">
            <path
               style="stroke:none;stroke-width:0"
               d="M 4.46875,-4 C 4.5625,-4.109375 4.578125,-4.125 4.578125,-4.21875 4.578125,-4.421875 4.4375,-4.421875 4.25,-4.421875 H 0.59375 L 0.484375,-2.6875 h 0.46875 C 1,-3.703125 1.3125,-4.0625 2.34375,-4.0625 H 3.1875 l -2.78125,3.625 C 0.3125,-0.328125 0.3125,-0.3125 0.3125,-0.21875 0.3125,0 0.453125,0 0.640625,0 h 3.78125 l 0.1875,-2.015625 H 4.140625 C 4.046875,-1 3.890625,-0.40625 2.578125,-0.40625 H 1.71875 Z m 0,0"
               id="id-24e79ee5-10d8-4984-a087-fdc4af9676e1" />
          </g>
        </g>
      </g>
    </g>
    <path
       style="fill:none;stroke:#000000;stroke-width:0.186512px;stroke-linecap:butt;stroke-linejoin:miter;stroke-opacity:1"
       d="M 45.493475,51.231627 V 84.781729"
       id="path5427" />
    <g
       id="g6029"
       transform="matrix(0.71756646,0,0,0.6925105,102.79274,1.8150303)">
      <path
         sodipodi:type="star"
         style="font-variation-settings:normal;opacity:1;vector-effect:none;fill:#ff0000;fill-opacity:1;fill-rule:evenodd;stroke-width:2.26772;stroke-linecap:butt;stroke-linejoin:miter;stroke-miterlimit:4;stroke-dasharray:none;stroke-dashoffset:0.226772;stroke-opacity:1;-inkscape-stroke:none;stop-color:#000000;stop-opacity:1"
         id="path6023"
         inkscape:flatsided="false"
         sodipodi:sides="3"
         sodipodi:cx="651.7666"
         sodipodi:cy="220.58768"
         sodipodi:r1="7.0842271"
         sodipodi:r2="3.2436836"
         sodipodi:arg1="-0.85196633"
         sodipodi:arg2="0.19523122"
         inkscape:rounded="0"
         inkscape:randomized="0"
         transform="matrix(0.13921244,0.22499829,-0.22499829,0.13921244,112.1046,-96.307401)"
         inkscape:transform-center-x="-0.93500896"
         inkscape:transform-center-y="-0.078727127"
         d="m 656.4316,215.25625 -1.48294,5.96068 -0.89741,6.07646 -4.42063,-4.26459 -4.81367,-3.81542 5.90357,-1.69608 z" />
      <g
         id="g6027"
         style="fill:#ff0000;fill-opacity:1;stroke:#ff0300;stroke-opacity:1">
        <path
           style="fill:#ff0000;fill-opacity:1;stroke:#ff0300;stroke-width:0.264583px;stroke-linecap:butt;stroke-linejoin:miter;stroke-opacity:1"
           d="m 101.99484,69.423194 53.06091,11.93174"
           id="path6025" />
      </g>
    </g>
    <path
       style="fill:none;stroke:#000000;stroke-width:0.186512px;stroke-linecap:butt;stroke-linejoin:miter;stroke-opacity:1"
       d="m 138.36251,58.081824 37.61831,-8.190505"
       id="path6031" />
    <path
       style="fill:none;stroke:#000000;stroke-width:0.186512px;stroke-linecap:butt;stroke-linejoin:miter;stroke-opacity:1"
       d="m 138.36251,41.659585 37.61831,8.231734"
       id="path6033" />
    <g
       id="g6039"
       transform="matrix(0.71756646,0,0,0.6925105,102.79274,1.8150303)">
      <path
         style="fill:#0000ff;stroke:#0407ff;stroke-width:0.264583px;stroke-linecap:butt;stroke-linejoin:miter;stroke-opacity:1"
         d="M 154.98283,57.536394 101.99484,69.423192"
         id="path6035" />
      <path
         sodipodi:type="star"
         style="font-variation-settings:normal;opacity:1;vector-effect:none;fill:#0000ff;fill-opacity:1;fill-rule:evenodd;stroke-width:2.26772;stroke-linecap:butt;stroke-linejoin:miter;stroke-miterlimit:4;stroke-dasharray:none;stroke-dashoffset:0.226772;stroke-opacity:1;-inkscape-stroke:none;stop-color:#000000;stop-opacity:1"
         id="path6037"
         inkscape:flatsided="false"
         sodipodi:sides="3"
         sodipodi:cx="651.7666"
         sodipodi:cy="220.58768"
         sodipodi:r1="7.0842271"
         sodipodi:r2="3.2436836"
         sodipodi:arg1="-0.85196633"
         sodipodi:arg2="0.19523122"
         inkscape:rounded="0"
         inkscape:randomized="0"
         transform="matrix(0.13921244,-0.22499829,-0.22499829,-0.13921244,112.03167,235.19873)"
         inkscape:transform-center-x="-0.93500896"
         inkscape:transform-center-y="0.078723553"
         d="m 656.4316,215.25625 -1.48294,5.96068 -0.89741,6.07646 -4.42063,-4.26459 -4.81367,-3.81542 5.90357,-1.69608 z" />
    </g>
    <g
       id="g6059"
       transform="matrix(0.71756646,0,0,0.6925105,102.79274,1.8150303)">
      <path
         style="fill:#00ff00;stroke:#00ff0a;stroke-width:0.264583px;stroke-linecap:butt;stroke-linejoin:miter;stroke-opacity:1"
         d="m 101.81474,15.118582 0.1801,54.30461"
         id="path6055" />
      <path
         sodipodi:type="star"
         style="font-variation-settings:normal;opacity:1;vector-effect:none;fill:#00ff00;fill-opacity:1;fill-rule:evenodd;stroke:#00ff0a;stroke-width:2.26772;stroke-linecap:butt;stroke-linejoin:miter;stroke-miterlimit:4;stroke-dasharray:none;stroke-dashoffset:0.226772;stroke-opacity:1;-inkscape-stroke:none;stop-color:#000000;stop-opacity:1"
         id="path6057"
         inkscape:flatsided="false"
         sodipodi:sides="3"
         sodipodi:cx="651.7666"
         sodipodi:cy="220.58768"
         sodipodi:r1="7.0842271"
         sodipodi:r2="3.2436836"
         sodipodi:arg1="-0.85196633"
         sodipodi:arg2="0.19523122"
         inkscape:rounded="0"
         inkscape:randomized="0"
         transform="matrix(-0.16715805,-0.14160244,-0.14674364,0.16239987,243.13232,73.725266)"
         inkscape:transform-center-x="-0.84670449"
         inkscape:transform-center-y="-0.014167344"
         d="m 656.4316,215.25625 -1.48294,5.96068 -0.89741,6.07646 -4.42063,-4.26459 -4.81367,-3.81542 5.90357,-1.69608 z" />
    </g>
    <path
       style="fill:none;stroke:#000000;stroke-width:0.186512px;stroke-linecap:butt;stroke-linejoin:miter;stroke-opacity:1"
       d="M 175.98082,49.891319 V 83.441423"
       id="path6195" />
    <g
       id="g7014"
       transform="matrix(0.71756646,0,0,0.6925105,102.66351,-35.791483)">
      <path
         sodipodi:type="star"
         style="font-variation-settings:normal;opacity:1;vector-effect:none;fill:#ff0000;fill-opacity:1;fill-rule:evenodd;stroke-width:2.26772;stroke-linecap:butt;stroke-linejoin:miter;stroke-miterlimit:4;stroke-dasharray:none;stroke-dashoffset:0.226772;stroke-opacity:1;-inkscape-stroke:none;stop-color:#000000;stop-opacity:1"
         id="path7008"
         inkscape:flatsided="false"
         sodipodi:sides="3"
         sodipodi:cx="651.7666"
         sodipodi:cy="220.58768"
         sodipodi:r1="7.0842271"
         sodipodi:r2="3.2436836"
         sodipodi:arg1="-0.85196633"
         sodipodi:arg2="0.19523122"
         inkscape:rounded="0"
         inkscape:randomized="0"
         transform="matrix(0.13921244,0.22499829,-0.22499829,0.13921244,112.1046,-96.307401)"
         inkscape:transform-center-x="-0.93500896"
         inkscape:transform-center-y="-0.078727127"
         d="m 656.4316,215.25625 -1.48294,5.96068 -0.89741,6.07646 -4.42063,-4.26459 -4.81367,-3.81542 5.90357,-1.69608 z" />
      <g
         id="g7012"
         style="fill:#ff0000;fill-opacity:1;stroke:#ff0300;stroke-opacity:1">
        <path
           style="fill:#ff0000;fill-opacity:1;stroke:#ff0300;stroke-width:0.264583px;stroke-linecap:butt;stroke-linejoin:miter;stroke-opacity:1"
           d="m 101.99484,69.423194 53.06091,11.93174"
           id="path7010" />
      </g>
    </g>
    <g
       id="g7020"
       transform="matrix(0.71756646,0,0,0.6925105,140.86747,10.077886)">
      <path
         style="fill:#00ff00;stroke:#00ff0a;stroke-width:0.264583px;stroke-linecap:butt;stroke-linejoin:miter;stroke-opacity:1"
         d="m 101.81474,15.118582 0.1801,54.30461"
         id="path7016" />
      <path
         sodipodi:type="star"
         style="font-variation-settings:normal;opacity:1;vector-effect:none;fill:#00ff00;fill-opacity:1;fill-rule:evenodd;stroke:#00ff0a;stroke-width:2.26772;stroke-linecap:butt;stroke-linejoin:miter;stroke-miterlimit:4;stroke-dasharray:none;stroke-dashoffset:0.226772;stroke-opacity:1;-inkscape-stroke:none;stop-color:#000000;stop-opacity:1"
         id="path7018"
         inkscape:flatsided="false"
         sodipodi:sides="3"
         sodipodi:cx="651.7666"
         sodipodi:cy="220.58768"
         sodipodi:r1="7.0842271"
         sodipodi:r2="3.2436836"
         sodipodi:arg1="-0.85196633"
         sodipodi:arg2="0.19523122"
         inkscape:rounded="0"
         inkscape:randomized="0"
         transform="matrix(-0.16715805,-0.14160244,-0.14674364,0.16239987,243.13232,73.725266)"
         inkscape:transform-center-x="-0.84670449"
         inkscape:transform-center-y="-0.014167344"
         d="m 656.4316,215.25625 -1.48294,5.96068 -0.89741,6.07646 -4.42063,-4.26459 -4.81367,-3.81542 5.90357,-1.69608 z" />
    </g>
    <path
       style="fill:#00ff03;fill-opacity:0.2;stroke:none;stroke-width:0.303644px;stroke-linecap:butt;stroke-linejoin:miter;stroke-opacity:1"
       d="m 175.98082,49.89132 -0.12924,-37.606513 38.07473,8.262855 0.12924,37.606513 -38.07473,-8.262855"
       id="path7055" />
    <g
       transform="matrix(0.91262717,0,0,0.88076008,186.08732,32.580013)"
       ns2:version="1.5.0"
       ns2:texconverter="pdflatex"
       ns2:pdfconverter="inkscape"
       ns2:text="$$\n\\mathbf{\\hat{z}} \\wedge \\mathbf{\\hat{x}}\n$$\n"
       ns2:preamble="default_packages.tex"
       ns2:scale="2.17863472211986"
       ns2:alignment="middle center"
       ns2:stroke-to-path="0"
       ns2:inkscapeversion="1.1"
       ns2:jacobian_sqrt="0.768574"
       id="g8097">
      <defs
         id="id-9f7ab260-28fd-4d49-ba11-985769eeb02b">
        <g
           id="id-23437755-e1fa-443a-9280-7604f6817e6b">
          <symbol
             overflow="visible"
             id="id-39345e04-862a-4617-9b4f-c7516107eac3">
            <path
               style="stroke:none;stroke-width:0"
               d=""
               id="id-e24ed897-2a74-4237-b07d-05f904ea0ec8" />
          </symbol>
          <symbol
             overflow="visible"
             id="id-358dde19-21e3-4528-9e99-a9a4884fb191">
            <path
               style="stroke:none;stroke-width:0"
               d="m 2.859375,-6.921875 -1.5625,1.265625 0.28125,0.375 1.28125,-0.8125 1.28125,0.8125 0.28125,-0.375 z m 0,0"
               id="id-cb6819ed-7069-46f7-9d00-69c9dc5b1e42" />
          </symbol>
          <symbol
             overflow="visible"
             id="id-0a1f8322-9fc7-4b30-aa70-6e9fde39079f">
            <path
               style="stroke:none;stroke-width:0"
               d="M 4.46875,-4 C 4.5625,-4.109375 4.578125,-4.125 4.578125,-4.21875 4.578125,-4.421875 4.4375,-4.421875 4.25,-4.421875 H 0.59375 L 0.484375,-2.6875 h 0.46875 C 1,-3.703125 1.3125,-4.0625 2.34375,-4.0625 H 3.1875 l -2.78125,3.625 C 0.3125,-0.328125 0.3125,-0.3125 0.3125,-0.21875 0.3125,0 0.453125,0 0.640625,0 h 3.78125 l 0.1875,-2.015625 H 4.140625 C 4.046875,-1 3.890625,-0.40625 2.578125,-0.40625 H 1.71875 Z m 0,0"
               id="id-a8509645-415c-4c73-addd-54389c477262" />
          </symbol>
          <symbol
             overflow="visible"
             id="id-017dabfc-b3b7-4e1d-bce2-06b10e8d38bf">
            <path
               style="stroke:none;stroke-width:0"
               d="M 3.453125,-2.453125 4.609375,-3.75 C 4.75,-3.890625 4.8125,-3.953125 5.625,-3.953125 v -0.46875 c -0.34375,0.015625 -0.859375,0.03125 -0.90625,0.03125 -0.25,0 -0.75,-0.03125 -1.03125,-0.03125 v 0.46875 c 0.140625,0 0.265625,0.015625 0.375,0.078125 -0.03125,0.0625 -0.03125,0.09375 -0.078125,0.125 L 3.15625,-2.8125 2.171875,-3.953125 h 0.40625 v -0.46875 c -0.265625,0 -0.890625,0.03125 -1.21875,0.03125 -0.3125,0 -0.765625,-0.03125 -1.09375,-0.03125 v 0.46875 h 0.71875 L 2.53125,-2.125 1.21875,-0.65625 c -0.15625,0.1875 -0.515625,0.1875 -1,0.1875 V 0 c 0.34375,-0.015625 0.875,-0.03125 0.921875,-0.03125 0.25,0 0.828125,0.015625 1.015625,0.03125 v -0.46875 c -0.171875,0 -0.359375,-0.046875 -0.359375,-0.109375 0,-0.015625 0,-0.015625 0.0625,-0.09375 l 0.96875,-1.09375 1.09375,1.296875 H 3.53125 V 0 c 0.265625,-0.015625 0.875,-0.03125 1.203125,-0.03125 0.3125,0 0.765625,0.015625 1.09375,0.03125 V -0.46875 H 5.125 Z m 0,0"
               id="id-b9584e70-c39c-4ebf-be5a-ee697df6a714" />
          </symbol>
          <symbol
             overflow="visible"
             id="id-73ade303-a557-4f6b-8d0b-b304e15c1c2d">
            <path
               style="stroke:none;stroke-width:0"
               d=""
               id="id-d54f963c-7a0a-4a62-8d4d-00025e8e5f37" />
          </symbol>
          <symbol
             overflow="visible"
             id="id-fca982a3-0674-4aff-8102-19c581b8511c">
            <path
               style="stroke:none;stroke-width:0"
               d="M 3.546875,-5.75 C 3.46875,-5.921875 3.40625,-5.96875 3.3125,-5.96875 c -0.125,0 -0.15625,0.078125 -0.21875,0.21875 L 0.625,-0.171875 c -0.0625,0.125 -0.078125,0.140625 -0.078125,0.1875 0,0.109375 0.09375,0.203125 0.203125,0.203125 0.0625,0 0.140625,-0.015625 0.234375,-0.203125 L 3.3125,-5.28125 5.65625,0.015625 C 5.75,0.21875 5.859375,0.21875 5.890625,0.21875 6,0.21875 6.09375,0.125 6.09375,0.015625 c 0,-0.015625 0,-0.03125 -0.0625,-0.15625 z m 0,0"
               id="id-dc9cbf93-fb88-47eb-a11f-9a5918a4cd45" />
          </symbol>
        </g>
      </defs>
      <g
         id="id-15a20295-0467-469f-86a7-13292355dd3b"
         transform="translate(-294.833,-139.798)">
        <g
           style="fill:#000000;fill-opacity:1"
           id="id-63e6fa74-c23e-4bc1-9bca-2dd7312f36b5">
          <g
             transform="translate(294.202,146.72)"
             id="g8077">
            <path
               style="stroke:none;stroke-width:0"
               d="m 2.859375,-6.921875 -1.5625,1.265625 0.28125,0.375 1.28125,-0.8125 1.28125,0.8125 0.28125,-0.375 z m 0,0"
               id="id-1be0e8de-45e4-480f-90e3-8a8d98e5ea32" />
          </g>
        </g>
        <g
           style="fill:#000000;fill-opacity:1"
           id="id-bfd48bf8-66a5-420c-bb34-ee73fe6316e3">
          <g
             transform="translate(294.521,146.72)"
             id="g8081">
            <path
               style="stroke:none;stroke-width:0"
               d="M 4.46875,-4 C 4.5625,-4.109375 4.578125,-4.125 4.578125,-4.21875 4.578125,-4.421875 4.4375,-4.421875 4.25,-4.421875 H 0.59375 L 0.484375,-2.6875 h 0.46875 C 1,-3.703125 1.3125,-4.0625 2.34375,-4.0625 H 3.1875 l -2.78125,3.625 C 0.3125,-0.328125 0.3125,-0.3125 0.3125,-0.21875 0.3125,0 0.453125,0 0.640625,0 h 3.78125 l 0.1875,-2.015625 H 4.140625 C 4.046875,-1 3.890625,-0.40625 2.578125,-0.40625 H 1.71875 Z m 0,0"
               id="id-fbe8decf-30bd-4cdb-8b7d-3a164833fe4d" />
          </g>
        </g>
        <g
           style="fill:#000000;fill-opacity:1"
           id="id-66694a14-1943-49f9-9559-e2aa8650de08">
          <g
             transform="translate(301.826,146.72)"
             id="g8085">
            <path
               style="stroke:none;stroke-width:0"
               d="M 3.546875,-5.75 C 3.46875,-5.921875 3.40625,-5.96875 3.3125,-5.96875 c -0.125,0 -0.15625,0.078125 -0.21875,0.21875 L 0.625,-0.171875 c -0.0625,0.125 -0.078125,0.140625 -0.078125,0.1875 0,0.109375 0.09375,0.203125 0.203125,0.203125 0.0625,0 0.140625,-0.015625 0.234375,-0.203125 L 3.3125,-5.28125 5.65625,0.015625 C 5.75,0.21875 5.859375,0.21875 5.890625,0.21875 6,0.21875 6.09375,0.125 6.09375,0.015625 c 0,-0.015625 0,-0.03125 -0.0625,-0.15625 z m 0,0"
               id="id-71e1d305-9c66-49bb-84da-daee21bcb515" />
          </g>
        </g>
        <g
           style="fill:#000000;fill-opacity:1"
           id="id-3f05eae6-6e62-49bd-aaf2-963d4585d547">
          <g
             transform="translate(310.84,146.72)"
             id="g8089">
            <path
               style="stroke:none;stroke-width:0"
               d="m 2.859375,-6.921875 -1.5625,1.265625 0.28125,0.375 1.28125,-0.8125 1.28125,0.8125 0.28125,-0.375 z m 0,0"
               id="id-1564f57d-725d-497a-a11a-867c4b1f644d" />
          </g>
        </g>
        <g
           style="fill:#000000;fill-opacity:1"
           id="id-aee9c678-39bb-4233-b092-d2bfd1de875b">
          <g
             transform="translate(310.681,146.72)"
             id="g8093">
            <path
               style="stroke:none;stroke-width:0"
               d="M 3.453125,-2.453125 4.609375,-3.75 C 4.75,-3.890625 4.8125,-3.953125 5.625,-3.953125 v -0.46875 c -0.34375,0.015625 -0.859375,0.03125 -0.90625,0.03125 -0.25,0 -0.75,-0.03125 -1.03125,-0.03125 v 0.46875 c 0.140625,0 0.265625,0.015625 0.375,0.078125 -0.03125,0.0625 -0.03125,0.09375 -0.078125,0.125 L 3.15625,-2.8125 2.171875,-3.953125 h 0.40625 v -0.46875 c -0.265625,0 -0.890625,0.03125 -1.21875,0.03125 -0.3125,0 -0.765625,-0.03125 -1.09375,-0.03125 v 0.46875 h 0.71875 L 2.53125,-2.125 1.21875,-0.65625 c -0.15625,0.1875 -0.515625,0.1875 -1,0.1875 V 0 c 0.34375,-0.015625 0.875,-0.03125 0.921875,-0.03125 0.25,0 0.828125,0.015625 1.015625,0.03125 v -0.46875 c -0.171875,0 -0.359375,-0.046875 -0.359375,-0.109375 0,-0.015625 0,-0.015625 0.0625,-0.09375 l 0.96875,-1.09375 1.09375,1.296875 H 3.53125 V 0 c 0.265625,-0.015625 0.875,-0.03125 1.203125,-0.03125 0.3125,0 0.765625,0.015625 1.09375,0.03125 V -0.46875 H 5.125 Z m 0,0"
               id="id-4302b79c-88a4-4704-bfc1-27098a31d5a3" />
          </g>
        </g>
      </g>
    </g>
  </g>
</svg>
