<?xml version="1.0" encoding="UTF-8" standalone="no"?>
<!-- Created with Inkscape (http://www.inkscape.org/) -->

<svg
   width="9in"
   height="4.25in"
   viewBox="0 0 228.6 107.95"
   version="1.1"
   id="svg6820"
   inkscape:version="1.1 (c4e8f9e, 2021-05-24)"
   sodipodi:docname="vector.svg"
   xmlns:inkscape="http://www.inkscape.org/namespaces/inkscape"
   xmlns:sodipodi="http://sodipodi.sourceforge.net/DTD/sodipodi-0.dtd"
   xmlns="http://www.w3.org/2000/svg"
   xmlns:svg="http://www.w3.org/2000/svg"
   xmlns:ns2="http://www.iki.fi/pav/software/textext/">
  <sodipodi:namedview
     id="namedview6822"
     pagecolor="#ffffff"
     bordercolor="#666666"
     borderopacity="1.0"
     inkscape:pageshadow="2"
     inkscape:pageopacity="0.0"
     inkscape:pagecheckerboard="0"
     inkscape:document-units="mm"
     showgrid="false"
     units="in"
     inkscape:zoom="1.8561994"
     inkscape:cx="495.90577"
     inkscape:cy="154.61701"
     inkscape:window-width="1312"
     inkscape:window-height="762"
     inkscape:window-x="0"
     inkscape:window-y="25"
     inkscape:window-maximized="0"
     inkscape:current-layer="layer1"
     height="7.5in" />
  <defs
     id="defs6817" />
  <g
     inkscape:label="Layer 1"
     inkscape:groupmode="layer"
     id="layer1">
    <path
       style="fill:none;stroke:#000000;stroke-width:0.130471px;stroke-linecap:butt;stroke-linejoin:miter;stroke-opacity:1"
       d="M 61.797372,51.032281 156.39853,72.5928"
       id="path6919" />
    <path
       style="fill:none;stroke:#000000;stroke-width:0.188912px;stroke-linecap:butt;stroke-linejoin:miter;stroke-opacity:1"
       d="M 106.17152,13.350469 V 99.14884"
       id="path6954" />
    <path
       style="fill:none;stroke:#000000;stroke-width:0.145984px;stroke-linecap:butt;stroke-linejoin:miter;stroke-opacity:1"
       d="M 63.176207,82.333125 154.62727,37.325295"
       id="path6989" />
    <path
       style="fill:#ff8000;stroke:#ff8000;stroke-width:0.5;stroke-linecap:butt;stroke-linejoin:miter;stroke-miterlimit:4;stroke-dasharray:none;stroke-opacity:1;fill-opacity:1"
       d="M 106.17708,61.196542 146.19182,13.152319"
       id="path7104" />
    <path
       style="fill:#ff8000;stroke:#ff8000;stroke-width:0.5;stroke-linecap:butt;stroke-linejoin:miter;stroke-miterlimit:4;stroke-dasharray:4, 2;stroke-dashoffset:0;stroke-opacity:1;fill-opacity:1"
       d="M 146.19182,13.152319 V 61.340592"
       id="path7139" />
    <path
       style="fill:#000000;stroke:#898989;stroke-width:0.5;stroke-linecap:butt;stroke-linejoin:miter;stroke-miterlimit:4;stroke-dasharray:4, 2;stroke-dashoffset:0;stroke-opacity:1"
       d="m 106.17708,61.196542 h 39.99015"
       id="path7141" />
    <path
       style="fill:#ff8000;stroke:#ff8000;stroke-width:0.5;stroke-linecap:butt;stroke-linejoin:miter;stroke-miterlimit:4;stroke-dasharray:4, 2;stroke-dashoffset:0;stroke-opacity:1;fill-opacity:1"
       d="m 146.16723,61.196542 -12.52861,6.1432"
       id="path7256" />
    <path
       sodipodi:type="star"
       style="font-variation-settings:normal;opacity:1;vector-effect:none;fill:#ff8000;fill-opacity:1;fill-rule:evenodd;stroke-width:2.26772;stroke-linecap:butt;stroke-linejoin:miter;stroke-miterlimit:4;stroke-dasharray:none;stroke-dashoffset:0.226772;stroke-opacity:1;-inkscape-stroke:none;stop-color:#000000;stop-opacity:1"
       id="path7669"
       inkscape:flatsided="false"
       sodipodi:sides="3"
       sodipodi:cx="651.7666"
       sodipodi:cy="220.58768"
       sodipodi:r1="7.0842271"
       sodipodi:r2="3.2436836"
       sodipodi:arg1="-0.85196633"
       sodipodi:arg2="0.19523122"
       inkscape:rounded="0"
       inkscape:randomized="0"
       transform="matrix(0.26458333,0,0,0.26458333,-27.308609,-44.024142)"
       inkscape:transform-center-x="0.30224243"
       inkscape:transform-center-y="0.18180679"
       d="m 656.4316,215.25625 -1.48294,5.96068 -0.89741,6.07646 -4.42063,-4.26459 -4.81367,-3.81542 5.90357,-1.69608 z" />
    <path
       style="fill:#ff8000;stroke:#ff8000;stroke-width:0.5;stroke-linecap:butt;stroke-linejoin:miter;stroke-miterlimit:4;stroke-dasharray:4, 2;stroke-dashoffset:0;stroke-opacity:1;fill-opacity:1"
       d="m 106.17708,61.196542 27.46154,6.1432"
       id="path24170" />
    <path
       sodipodi:type="star"
       style="font-variation-settings:normal;opacity:1;vector-effect:none;fill:#000000;fill-opacity:1;fill-rule:evenodd;stroke-width:2.26772;stroke-linecap:butt;stroke-linejoin:miter;stroke-miterlimit:4;stroke-dasharray:none;stroke-dashoffset:0.226772;stroke-opacity:1;-inkscape-stroke:none;stop-color:#000000;stop-opacity:1"
       id="path2333"
       inkscape:flatsided="false"
       sodipodi:sides="3"
       sodipodi:cx="651.7666"
       sodipodi:cy="220.58768"
       sodipodi:r1="7.0842271"
       sodipodi:r2="3.2436836"
       sodipodi:arg1="-0.85196633"
       sodipodi:arg2="0.19523122"
       inkscape:rounded="0"
       inkscape:randomized="0"
       transform="matrix(0.25502019,0.07049141,-0.07049141,0.25502019,4.67996,-65.34493)"
       inkscape:transform-center-x="0.054972118"
       inkscape:transform-center-y="0.42017761"
       d="m 656.4316,215.25625 -1.48294,5.96068 -0.89741,6.07646 -4.42063,-4.26459 -4.81367,-3.81542 5.90357,-1.69608 z" />
    <path
       sodipodi:type="star"
       style="font-variation-settings:normal;opacity:1;vector-effect:none;fill:#000000;fill-opacity:1;fill-rule:evenodd;stroke-width:2.26772;stroke-linecap:butt;stroke-linejoin:miter;stroke-miterlimit:4;stroke-dasharray:none;stroke-dashoffset:0.226772;stroke-opacity:1;-inkscape-stroke:none;stop-color:#000000;stop-opacity:1"
       id="path2335"
       inkscape:flatsided="false"
       sodipodi:sides="3"
       sodipodi:cx="651.7666"
       sodipodi:cy="220.58768"
       sodipodi:r1="7.0842271"
       sodipodi:r2="3.2436836"
       sodipodi:arg1="-0.85196633"
       sodipodi:arg2="0.19523122"
       inkscape:rounded="0"
       inkscape:randomized="0"
       transform="matrix(0.13251247,0.22900826,-0.22900826,0.13251247,121.38981,-105.73208)"
       inkscape:transform-center-x="-0.90649567"
       inkscape:transform-center-y="-0.088094863"
       d="m 656.4316,215.25625 -1.48294,5.96068 -0.89741,6.07646 -4.42063,-4.26459 -4.81367,-3.81542 5.90357,-1.69608 z" />
    <path
       sodipodi:type="star"
       style="font-variation-settings:normal;opacity:1;vector-effect:none;fill:#000000;fill-opacity:1;fill-rule:evenodd;stroke-width:2.26772;stroke-linecap:butt;stroke-linejoin:miter;stroke-miterlimit:4;stroke-dasharray:none;stroke-dashoffset:0.226772;stroke-opacity:1;-inkscape-stroke:none;stop-color:#000000;stop-opacity:1"
       id="path2337"
       inkscape:flatsided="false"
       sodipodi:sides="3"
       sodipodi:cx="651.7666"
       sodipodi:cy="220.58768"
       sodipodi:r1="7.0842271"
       sodipodi:r2="3.2436836"
       sodipodi:arg1="-0.85196633"
       sodipodi:arg2="0.19523122"
       inkscape:rounded="0"
       inkscape:randomized="0"
       transform="matrix(0.1996067,-0.17367068,0.17367068,0.1996067,-62.232667,81.654218)"
       inkscape:transform-center-x="0.0026278429"
       inkscape:transform-center-y="-0.46631739"
       d="m 656.4316,215.25625 -1.48294,5.96068 -0.89741,6.07646 -4.42063,-4.26459 -4.81367,-3.81542 5.90357,-1.69608 z" />
    <g
       transform="matrix(0.87133156,0,0,0.87133156,163.49435,71.047348)"
       ns2:version="1.5.0"
       ns2:texconverter="pdflatex"
       ns2:pdfconverter="inkscape"
       ns2:text="$$\n\\mathbf{\\hat{x}}\n$$\n"
       ns2:preamble="default_packages.tex"
       ns2:scale="1.0"
       ns2:alignment="middle center"
       ns2:stroke-to-path="0"
       ns2:inkscapeversion="1.1"
       ns2:jacobian_sqrt="0.352778"
       id="g2716">
      <defs
         id="id-a1a3ac4c-cc87-4f0e-98e7-68da97bd0306">
        <g
           id="id-6ab97043-a07f-4fcb-97b2-1fe2ca6a445e">
          <symbol
             overflow="visible"
             id="id-96b7d6e2-bf13-4d1f-b865-f0462377a3d1">
            <path
               style="stroke:none;stroke-width:0"
               d=""
               id="id-cc9bcc73-67b8-4739-97b4-cbb46bc29036" />
          </symbol>
          <symbol
             overflow="visible"
             id="id-9ae12039-6f36-4583-b3eb-84568e363c98">
            <path
               style="stroke:none;stroke-width:0"
               d="m 2.859375,-6.921875 -1.5625,1.265625 0.28125,0.375 1.28125,-0.8125 1.28125,0.8125 0.28125,-0.375 z m 0,0"
               id="id-f310ddac-62e8-4993-ac47-a1603d20ecd1" />
          </symbol>
          <symbol
             overflow="visible"
             id="id-3964fbdf-b10a-43bf-9e46-839a4e52d502">
            <path
               style="stroke:none;stroke-width:0"
               d="M 3.453125,-2.453125 4.609375,-3.75 C 4.75,-3.890625 4.8125,-3.953125 5.625,-3.953125 v -0.46875 c -0.34375,0.015625 -0.859375,0.03125 -0.90625,0.03125 -0.25,0 -0.75,-0.03125 -1.03125,-0.03125 v 0.46875 c 0.140625,0 0.265625,0.015625 0.375,0.078125 -0.03125,0.0625 -0.03125,0.09375 -0.078125,0.125 L 3.15625,-2.8125 2.171875,-3.953125 h 0.40625 v -0.46875 c -0.265625,0 -0.890625,0.03125 -1.21875,0.03125 -0.3125,0 -0.765625,-0.03125 -1.09375,-0.03125 v 0.46875 h 0.71875 L 2.53125,-2.125 1.21875,-0.65625 c -0.15625,0.1875 -0.515625,0.1875 -1,0.1875 V 0 c 0.34375,-0.015625 0.875,-0.03125 0.921875,-0.03125 0.25,0 0.828125,0.015625 1.015625,0.03125 v -0.46875 c -0.171875,0 -0.359375,-0.046875 -0.359375,-0.109375 0,-0.015625 0,-0.015625 0.0625,-0.09375 l 0.96875,-1.09375 1.09375,1.296875 H 3.53125 V 0 c 0.265625,-0.015625 0.875,-0.03125 1.203125,-0.03125 0.3125,0 0.765625,0.015625 1.09375,0.03125 V -0.46875 H 5.125 Z m 0,0"
               id="id-e252afb8-1085-465e-b7dd-70d311bcb37b" />
          </symbol>
        </g>
      </defs>
      <g
         id="id-b0f73cc0-3167-416a-aad8-45289ddbb654"
         transform="translate(-302.819,-139.798)">
        <g
           style="fill:#000000;fill-opacity:1"
           id="id-61f10acb-a3e2-42a1-a81c-9d527b99b82e">
          <g
             transform="translate(302.76,146.72)"
             id="g2708">
            <path
               style="stroke:none;stroke-width:0"
               d="m 2.859375,-6.921875 -1.5625,1.265625 0.28125,0.375 1.28125,-0.8125 1.28125,0.8125 0.28125,-0.375 z m 0,0"
               id="id-07412707-d989-4502-84d4-bb9c5dbd3231" />
          </g>
        </g>
        <g
           style="fill:#000000;fill-opacity:1"
           id="id-842dbef9-da07-4f04-9af6-cae36f0e3213">
          <g
             transform="translate(302.601,146.72)"
             id="g2712">
            <path
               style="stroke:none;stroke-width:0"
               d="M 3.453125,-2.453125 4.609375,-3.75 C 4.75,-3.890625 4.8125,-3.953125 5.625,-3.953125 v -0.46875 c -0.34375,0.015625 -0.859375,0.03125 -0.90625,0.03125 -0.25,0 -0.75,-0.03125 -1.03125,-0.03125 v 0.46875 c 0.140625,0 0.265625,0.015625 0.375,0.078125 -0.03125,0.0625 -0.03125,0.09375 -0.078125,0.125 L 3.15625,-2.8125 2.171875,-3.953125 h 0.40625 v -0.46875 c -0.265625,0 -0.890625,0.03125 -1.21875,0.03125 -0.3125,0 -0.765625,-0.03125 -1.09375,-0.03125 v 0.46875 h 0.71875 L 2.53125,-2.125 1.21875,-0.65625 c -0.15625,0.1875 -0.515625,0.1875 -1,0.1875 V 0 c 0.34375,-0.015625 0.875,-0.03125 0.921875,-0.03125 0.25,0 0.828125,0.015625 1.015625,0.03125 v -0.46875 c -0.171875,0 -0.359375,-0.046875 -0.359375,-0.109375 0,-0.015625 0,-0.015625 0.0625,-0.09375 l 0.96875,-1.09375 1.09375,1.296875 H 3.53125 V 0 c 0.265625,-0.015625 0.875,-0.03125 1.203125,-0.03125 0.3125,0 0.765625,0.015625 1.09375,0.03125 V -0.46875 H 5.125 Z m 0,0"
               id="id-66db1eaa-2998-4556-9b5e-c4e72ec6a7a1" />
          </g>
        </g>
      </g>
    </g>
    <g
       transform="matrix(0.99414329,0,0,0.99414329,104.1535,1.282116)"
       ns2:version="1.5.0"
       ns2:texconverter="pdflatex"
       ns2:pdfconverter="inkscape"
       ns2:text="$$\n\\mathbf{\\hat{z}}\n$$\n\n"
       ns2:preamble="default_packages.tex"
       ns2:scale="1.0"
       ns2:alignment="middle center"
       ns2:stroke-to-path="0"
       ns2:inkscapeversion="1.1"
       ns2:jacobian_sqrt="0.352778"
       id="g3075">
      <defs
         id="id-cf237519-7be7-4407-b9dd-de387da4e115">
        <g
           id="id-8191e5f8-2aae-4155-8f5a-97ae08d08c04">
          <symbol
             overflow="visible"
             id="id-6e1737cc-cc79-4a08-ae6b-79e57e41e220">
            <path
               style="stroke:none"
               d=""
               id="id-44fdaee1-89d4-4f30-acea-62841ee76fc8" />
          </symbol>
          <symbol
             overflow="visible"
             id="id-e97978b6-a28e-40b1-8987-d5ad59df77e3">
            <path
               style="stroke:none"
               d="m 2.859375,-6.921875 -1.5625,1.265625 0.28125,0.375 1.28125,-0.8125 1.28125,0.8125 0.28125,-0.375 z m 0,0"
               id="id-8f6a7052-f8a5-4ff3-91db-d8455431fb70" />
          </symbol>
          <symbol
             overflow="visible"
             id="id-49d5a334-c623-4dfd-bbb2-7667773cdb18">
            <path
               style="stroke:none"
               d="M 4.46875,-4 C 4.5625,-4.109375 4.578125,-4.125 4.578125,-4.21875 4.578125,-4.421875 4.4375,-4.421875 4.25,-4.421875 H 0.59375 L 0.484375,-2.6875 h 0.46875 C 1,-3.703125 1.3125,-4.0625 2.34375,-4.0625 H 3.1875 l -2.78125,3.625 C 0.3125,-0.328125 0.3125,-0.3125 0.3125,-0.21875 0.3125,0 0.453125,0 0.640625,0 h 3.78125 l 0.1875,-2.015625 H 4.140625 C 4.046875,-1 3.890625,-0.40625 2.578125,-0.40625 H 1.71875 Z m 0,0"
               id="id-63c96ba0-ff1a-4546-8845-ffa2af002a0a" />
          </symbol>
        </g>
      </defs>
      <g
         id="id-216bf60b-9310-424c-af6e-14a0a55718af"
         transform="translate(-303.391,-139.798)">
        <g
           style="fill:#000000;fill-opacity:1"
           id="id-e556d3a3-2838-43f1-bbed-e40c86dd4f8a">
          <g
             transform="translate(302.76,146.72)"
             id="g3340">
            <path
               style="stroke:none"
               d="m 2.859375,-6.921875 -1.5625,1.265625 0.28125,0.375 1.28125,-0.8125 1.28125,0.8125 0.28125,-0.375 z m 0,0"
               id="id-595316be-8a5f-4fb1-b9ed-4b191878f1d0" />
          </g>
        </g>
        <g
           style="fill:#000000;fill-opacity:1"
           id="id-218d6203-5682-4a32-b356-8fb98a7f4bb6">
          <g
             transform="translate(303.079,146.72)"
             id="g3344">
            <path
               style="stroke:none"
               d="M 4.46875,-4 C 4.5625,-4.109375 4.578125,-4.125 4.578125,-4.21875 4.578125,-4.421875 4.4375,-4.421875 4.25,-4.421875 H 0.59375 L 0.484375,-2.6875 h 0.46875 C 1,-3.703125 1.3125,-4.0625 2.34375,-4.0625 H 3.1875 l -2.78125,3.625 C 0.3125,-0.328125 0.3125,-0.3125 0.3125,-0.21875 0.3125,0 0.453125,0 0.640625,0 h 3.78125 l 0.1875,-2.015625 H 4.140625 C 4.046875,-1 3.890625,-0.40625 2.578125,-0.40625 H 1.71875 Z m 0,0"
               id="id-1edafe5d-c900-487d-8c75-073d7509ecae" />
          </g>
        </g>
      </g>
    </g>
    <g
       transform="matrix(0.88189097,0,0,0.88189097,158.79666,30.200684)"
       ns2:version="1.5.0"
       ns2:texconverter="pdflatex"
       ns2:pdfconverter="inkscape"
       ns2:text="$$\n\\mathbf{\\hat{y}}\n$$\n"
       ns2:preamble="default_packages.tex"
       ns2:scale="1.0"
       ns2:alignment="middle center"
       ns2:stroke-to-path="0"
       ns2:inkscapeversion="1.1"
       ns2:jacobian_sqrt="0.352778"
       id="g3636">
      <defs
         id="id-6b9ae8d2-5abd-4b63-adfd-bdc9f8cfc008">
        <g
           id="id-c3f315e2-db5c-4c39-a48c-3c016e9ebd9b">
          <symbol
             overflow="visible"
             id="id-114a1695-eedb-43b3-9bfa-12ab9b218238">
            <path
               style="stroke:none;stroke-width:0"
               d=""
               id="id-bf35f0be-37a2-4ad3-9be2-0fbd1409b85b" />
          </symbol>
          <symbol
             overflow="visible"
             id="id-bcecef0e-2145-479e-8f70-e0f2b45d305d">
            <path
               style="stroke:none;stroke-width:0"
               d="m 2.859375,-6.921875 -1.5625,1.265625 0.28125,0.375 1.28125,-0.8125 1.28125,0.8125 0.28125,-0.375 z m 0,0"
               id="id-cef710c7-8f8f-466f-9f6f-c39b2eb9a732" />
          </symbol>
          <symbol
             overflow="visible"
             id="id-d8345a83-12e6-41ad-a8d9-ea92cc12c79e">
            <path
               style="stroke:none;stroke-width:0"
               d="m 5.046875,-3.75 c 0.0625,-0.140625 0.09375,-0.203125 0.734375,-0.203125 v -0.46875 C 5.546875,-4.40625 5.25,-4.390625 5,-4.390625 c -0.25,0 -0.703125,-0.03125 -0.90625,-0.03125 v 0.46875 c 0.015625,0 0.46875,0 0.46875,0.109375 0,0.015625 -0.046875,0.109375 -0.0625,0.125 L 3.359375,-1.265625 2.09375,-3.953125 H 2.625 v -0.46875 c -0.328125,0.015625 -1.21875,0.03125 -1.234375,0.03125 -0.28125,0 -0.71875,-0.03125 -1.125,-0.03125 v 0.46875 h 0.625 L 2.765625,0 2.53125,0.484375 C 2.3125,0.953125 2,1.640625 1.28125,1.640625 1.140625,1.640625 1.125,1.625 1.046875,1.59375 1.140625,1.5625 1.359375,1.421875 1.359375,1.0625 1.359375,0.734375 1.125,0.5 0.78125,0.5 0.515625,0.5 0.21875,0.6875 0.21875,1.078125 0.21875,1.578125 0.6875,2 1.28125,2 2.046875,2 2.625,1.375 2.90625,0.8125 Z m 0,0"
               id="id-5a3a29a7-1aad-4752-b68a-ec3937e8e8fe" />
          </symbol>
        </g>
      </defs>
      <g
         id="id-812ef915-8bac-4884-93f6-fa8752a724c5"
         transform="translate(-302.74,-139.798)">
        <g
           style="fill:#000000;fill-opacity:1"
           id="id-4cea35e6-4261-46e1-8c56-d70bafd3c94e">
          <g
             transform="translate(302.76,146.72)"
             id="g3628">
            <path
               style="stroke:none;stroke-width:0"
               d="m 2.859375,-6.921875 -1.5625,1.265625 0.28125,0.375 1.28125,-0.8125 1.28125,0.8125 0.28125,-0.375 z m 0,0"
               id="id-8c5e2974-ee6c-488a-898b-1975237bbbc4" />
          </g>
        </g>
        <g
           style="fill:#000000;fill-opacity:1"
           id="id-94f912cb-18f1-4c38-b1ac-79b8062197c7">
          <g
             transform="translate(302.521,146.72)"
             id="g3632">
            <path
               style="stroke:none;stroke-width:0"
               d="m 5.046875,-3.75 c 0.0625,-0.140625 0.09375,-0.203125 0.734375,-0.203125 v -0.46875 C 5.546875,-4.40625 5.25,-4.390625 5,-4.390625 c -0.25,0 -0.703125,-0.03125 -0.90625,-0.03125 v 0.46875 c 0.015625,0 0.46875,0 0.46875,0.109375 0,0.015625 -0.046875,0.109375 -0.0625,0.125 L 3.359375,-1.265625 2.09375,-3.953125 H 2.625 v -0.46875 c -0.328125,0.015625 -1.21875,0.03125 -1.234375,0.03125 -0.28125,0 -0.71875,-0.03125 -1.125,-0.03125 v 0.46875 h 0.625 L 2.765625,0 2.53125,0.484375 C 2.3125,0.953125 2,1.640625 1.28125,1.640625 1.140625,1.640625 1.125,1.625 1.046875,1.59375 1.140625,1.5625 1.359375,1.421875 1.359375,1.0625 1.359375,0.734375 1.125,0.5 0.78125,0.5 0.515625,0.5 0.21875,0.6875 0.21875,1.078125 0.21875,1.578125 0.6875,2 1.28125,2 2.046875,2 2.625,1.375 2.90625,0.8125 Z m 0,0"
               id="id-2b2976aa-ded5-438e-a68b-33b0623fdc8d" />
          </g>
        </g>
      </g>
    </g>
    <g
       transform="matrix(1.06111 0 0 1.06111 148.006 2.95962)"
       ns2:version="1.5.0"
       ns2:texconverter="pdflatex"
       ns2:pdfconverter="inkscape"
       ns2:text="$$\n\\vec{a}\n$$\n\n"
       ns2:preamble="default_packages.tex"
       ns2:scale="3.007879176139102"
       ns2:alignment="middle center"
       ns2:stroke-to-path="0"
       ns2:inkscapeversion="1.1"
       ns2:jacobian_sqrt="1.06111"
       style="fill:#ff8000;fill-opacity:1;stroke-width:0"
       id="g179">
      <defs
         id="id-31269ff2-25f7-4e73-bbb1-918c2c7835b9"
         style="fill:#ff8000;fill-opacity:1;stroke-width:0">
        <g
           id="id-10f40967-9380-4fae-a7a9-0594652076f6"
           style="fill:#ff8000;fill-opacity:1;stroke-width:0">
          <symbol
             overflow="visible"
             id="id-9ab5a769-8cfd-4830-b1d7-55eb3eac941a"
             style="fill:#ff8000;fill-opacity:1;stroke-width:0">
            <path
               style="stroke:#ff8000;fill:#ff8000;fill-opacity:1;stroke-width:0"
               d=""
               id="id-ce0decf0-4d0a-460b-8815-f295a8e55562" />
          </symbol>
          <symbol
             overflow="visible"
             id="id-a2b47506-9840-4bad-91e5-1b21250745cc"
             style="fill:#ff8000;fill-opacity:1;stroke-width:0">
            <path
               style="stroke:#ff8000;fill:#ff8000;fill-opacity:1;stroke-width:0"
               d="m 5.359375,-5.9375 c -0.140625,0.140625 -0.46875,0.421875 -0.46875,0.59375 0,0.09375 0.09375,0.203125 0.1875,0.203125 0.09375,0 0.140625,-0.078125 0.203125,-0.140625 C 5.390625,-5.421875 5.625,-5.703125 6.0625,-5.921875 6.125,-5.96875 6.234375,-6.015625 6.234375,-6.125 6.234375,-6.234375 6.15625,-6.28125 6.09375,-6.328125 5.875,-6.484375 5.765625,-6.65625 5.6875,-6.890625 5.65625,-6.984375 5.625,-7.125 5.484375,-7.125 c -0.140625,0 -0.203125,0.140625 -0.203125,0.21875 0,0.046875 0.078125,0.359375 0.234375,0.578125 H 2.15625 c -0.15625,0 -0.34375,0 -0.34375,0.203125 0,0.1875 0.1875,0.1875 0.34375,0.1875 z m 0,0"
               id="id-f510b810-2736-42de-8f1f-8a2946958d37" />
          </symbol>
          <symbol
             overflow="visible"
             id="id-08c3809a-a637-496c-9c8b-4a46bc3baa0c"
             style="fill:#ff8000;fill-opacity:1;stroke-width:0">
            <path
               style="stroke:#ff8000;fill:#ff8000;fill-opacity:1;stroke-width:0"
               d="M 3.71875,-3.765625 C 3.53125,-4.140625 3.25,-4.40625 2.796875,-4.40625 c -1.15625,0 -2.390625,1.46875 -2.390625,2.921875 0,0.9375 0.546875,1.59375 1.3125,1.59375 0.203125,0 0.703125,-0.046875 1.296875,-0.75 0.078125,0.421875 0.4375,0.75 0.90625,0.75 0.359375,0 0.578125,-0.234375 0.75,-0.546875 0.15625,-0.359375 0.296875,-0.96875 0.296875,-0.984375 0,-0.109375 -0.09375,-0.109375 -0.125,-0.109375 -0.09375,0 -0.109375,0.046875 -0.140625,0.1875 -0.171875,0.640625 -0.34375,1.234375 -0.75,1.234375 -0.28125,0 -0.296875,-0.265625 -0.296875,-0.453125 0,-0.21875 0.015625,-0.3125 0.125,-0.75 C 3.890625,-1.71875 3.90625,-1.828125 4,-2.203125 L 4.359375,-3.59375 c 0.0625,-0.28125 0.0625,-0.296875 0.0625,-0.34375 0,-0.171875 -0.109375,-0.265625 -0.28125,-0.265625 -0.25,0 -0.390625,0.21875 -0.421875,0.4375 z M 3.078125,-1.1875 C 3.015625,-1 3.015625,-0.984375 2.875,-0.8125 2.4375,-0.265625 2.03125,-0.109375 1.75,-0.109375 c -0.5,0 -0.640625,-0.546875 -0.640625,-0.9375 0,-0.5 0.3125,-1.71875 0.546875,-2.1875 0.3125,-0.578125 0.75,-0.953125 1.15625,-0.953125 0.640625,0 0.78125,0.8125 0.78125,0.875 0,0.0625 -0.015625,0.125 -0.03125,0.171875 z m 0,0"
               id="id-10fd738c-dd7a-42c1-b90a-6c58620e4fec" />
          </symbol>
        </g>
      </defs>
      <g
         id="id-38e796e0-d092-4021-be08-2fb172652fe2"
         transform="translate(-303.401, -139.595)"
         style="fill:#ff8000;fill-opacity:1;stroke-width:0">
        <g
           style="fill:#ff8000;fill-opacity:1;stroke-width:0"
           id="id-0f6a545f-d6b0-4a65-a203-8d82e0aead1c">
          <g
             transform="translate(302.367, 146.72)"
             style="fill:#ff8000;fill-opacity:1;stroke-width:0"
             id="g7222">
            <path
               style="stroke:#ff8000;fill:#ff8000;fill-opacity:1;stroke-width:0"
               d="m 5.359375,-5.9375 c -0.140625,0.140625 -0.46875,0.421875 -0.46875,0.59375 0,0.09375 0.09375,0.203125 0.1875,0.203125 0.09375,0 0.140625,-0.078125 0.203125,-0.140625 C 5.390625,-5.421875 5.625,-5.703125 6.0625,-5.921875 6.125,-5.96875 6.234375,-6.015625 6.234375,-6.125 6.234375,-6.234375 6.15625,-6.28125 6.09375,-6.328125 5.875,-6.484375 5.765625,-6.65625 5.6875,-6.890625 5.65625,-6.984375 5.625,-7.125 5.484375,-7.125 c -0.140625,0 -0.203125,0.140625 -0.203125,0.21875 0,0.046875 0.078125,0.359375 0.234375,0.578125 H 2.15625 c -0.15625,0 -0.34375,0 -0.34375,0.203125 0,0.1875 0.1875,0.1875 0.34375,0.1875 z m 0,0"
               id="id-fc820755-aab8-4492-bfde-21dec336370f" />
          </g>
        </g>
        <g
           style="fill:#ff8000;fill-opacity:1;stroke-width:0"
           id="id-520e782b-a835-4a67-9e23-bd739257a2e6">
          <g
             transform="translate(302.995, 146.72)"
             style="fill:#ff8000;fill-opacity:1;stroke-width:0"
             id="g7226">
            <path
               style="stroke:#ff8000;fill:#ff8000;fill-opacity:1;stroke-width:0"
               d="M 3.71875,-3.765625 C 3.53125,-4.140625 3.25,-4.40625 2.796875,-4.40625 c -1.15625,0 -2.390625,1.46875 -2.390625,2.921875 0,0.9375 0.546875,1.59375 1.3125,1.59375 0.203125,0 0.703125,-0.046875 1.296875,-0.75 0.078125,0.421875 0.4375,0.75 0.90625,0.75 0.359375,0 0.578125,-0.234375 0.75,-0.546875 0.15625,-0.359375 0.296875,-0.96875 0.296875,-0.984375 0,-0.109375 -0.09375,-0.109375 -0.125,-0.109375 -0.09375,0 -0.109375,0.046875 -0.140625,0.1875 -0.171875,0.640625 -0.34375,1.234375 -0.75,1.234375 -0.28125,0 -0.296875,-0.265625 -0.296875,-0.453125 0,-0.21875 0.015625,-0.3125 0.125,-0.75 C 3.890625,-1.71875 3.90625,-1.828125 4,-2.203125 L 4.359375,-3.59375 c 0.0625,-0.28125 0.0625,-0.296875 0.0625,-0.34375 0,-0.171875 -0.109375,-0.265625 -0.28125,-0.265625 -0.25,0 -0.390625,0.21875 -0.421875,0.4375 z M 3.078125,-1.1875 C 3.015625,-1 3.015625,-0.984375 2.875,-0.8125 2.4375,-0.265625 2.03125,-0.109375 1.75,-0.109375 c -0.5,0 -0.640625,-0.546875 -0.640625,-0.9375 0,-0.5 0.3125,-1.71875 0.546875,-2.1875 0.3125,-0.578125 0.75,-0.953125 1.15625,-0.953125 0.640625,0 0.78125,0.8125 0.78125,0.875 0,0.0625 -0.015625,0.125 -0.03125,0.171875 z m 0,0"
               id="id-55992d58-5b95-404c-9c37-8829fd626e88" />
          </g>
        </g>
      </g>
    </g>
    <g
       transform="matrix(0.63261794,-0.74477181,0.77016826,0.61175725,114.12714,34.770801)"
       ns2:version="1.5.0"
       ns2:texconverter="pdflatex"
       ns2:pdfconverter="inkscape"
       ns2:text="$$\n\\|\\vec{a}\\|\n$$\n\n"
       ns2:preamble="default_packages.tex"
       ns2:scale="2.0711491295259163"
       ns2:alignment="middle center"
       ns2:stroke-to-path="0"
       ns2:inkscapeversion="1.1"
       ns2:jacobian_sqrt="0.7306555324535633"
       style="fill:#ff8000;fill-opacity:1;stroke-width:0"
       id="g4479">
      <defs
         id="id-5e5d51a3-f953-4e27-9951-558b55c07612"
         style="fill:#ff8000;fill-opacity:1;stroke-width:0">
        <g
           id="id-7f6d57af-7884-4c60-9bbd-ecc5b5af01fb"
           style="fill:#ff8000;fill-opacity:1;stroke-width:0">
          <symbol
             overflow="visible"
             id="id-0eccd866-2cc3-46f1-bccb-d961db06cc12"
             style="fill:#ff8000;fill-opacity:1;stroke-width:0">
            <path
               style="fill:#ff8000;fill-opacity:1;stroke:#ff8000;stroke-width:0"
               d=""
               id="id-e8cb5afd-e0c7-42d4-ae30-04d2f0872e66" />
          </symbol>
          <symbol
             overflow="visible"
             id="id-5bda2d6a-c54a-4ee9-96d5-caa14617ee9b"
             style="fill:#ff8000;fill-opacity:1;stroke-width:0">
            <path
               style="fill:#ff8000;fill-opacity:1;stroke:#ff8000;stroke-width:0"
               d="m 1.71875,-7.140625 c 0,-0.15625 0,-0.34375 -0.203125,-0.34375 -0.203125,0 -0.203125,0.234375 -0.203125,0.375 V 2.125 c 0,0.15625 0,0.375 0.203125,0.375 C 1.71875,2.5 1.71875,2.3125 1.71875,2.15625 Z m 1.9375,0.03125 c 0,-0.15625 0,-0.375 -0.203125,-0.375 -0.1875,0 -0.1875,0.1875 -0.1875,0.34375 V 2.15625 c 0,0.15625 0,0.34375 0.1875,0.34375 C 3.65625,2.5 3.65625,2.265625 3.65625,2.125 Z m 0,0"
               id="id-d1dfec3f-a561-406d-b3f1-183da79abb48" />
          </symbol>
          <symbol
             overflow="visible"
             id="id-6754039b-df37-465b-ad6b-c98c400fee05"
             style="fill:#ff8000;fill-opacity:1;stroke-width:0">
            <path
               style="fill:#ff8000;fill-opacity:1;stroke:#ff8000;stroke-width:0"
               d=""
               id="id-7c48fa23-fc7f-4624-92b4-85fcbbe47068" />
          </symbol>
          <symbol
             overflow="visible"
             id="id-879d3bd5-3f12-4597-890c-07b99cdfe8b4"
             style="fill:#ff8000;fill-opacity:1;stroke-width:0">
            <path
               style="fill:#ff8000;fill-opacity:1;stroke:#ff8000;stroke-width:0"
               d="m 5.359375,-5.9375 c -0.140625,0.140625 -0.46875,0.421875 -0.46875,0.59375 0,0.09375 0.09375,0.203125 0.1875,0.203125 0.09375,0 0.140625,-0.078125 0.203125,-0.140625 C 5.390625,-5.421875 5.625,-5.703125 6.0625,-5.921875 6.125,-5.96875 6.234375,-6.015625 6.234375,-6.125 6.234375,-6.234375 6.15625,-6.28125 6.09375,-6.328125 5.875,-6.484375 5.765625,-6.65625 5.6875,-6.890625 5.65625,-6.984375 5.625,-7.125 5.484375,-7.125 c -0.140625,0 -0.203125,0.140625 -0.203125,0.21875 0,0.046875 0.078125,0.359375 0.234375,0.578125 H 2.15625 c -0.15625,0 -0.34375,0 -0.34375,0.203125 0,0.1875 0.1875,0.1875 0.34375,0.1875 z m 0,0"
               id="id-22b66ee3-1ef6-4e1a-9da7-7b50486f5e3d" />
          </symbol>
          <symbol
             overflow="visible"
             id="id-cc44fc0b-ad90-455e-b896-a294c6cc45ec"
             style="fill:#ff8000;fill-opacity:1;stroke-width:0">
            <path
               style="fill:#ff8000;fill-opacity:1;stroke:#ff8000;stroke-width:0"
               d="M 3.71875,-3.765625 C 3.53125,-4.140625 3.25,-4.40625 2.796875,-4.40625 c -1.15625,0 -2.390625,1.46875 -2.390625,2.921875 0,0.9375 0.546875,1.59375 1.3125,1.59375 0.203125,0 0.703125,-0.046875 1.296875,-0.75 0.078125,0.421875 0.4375,0.75 0.90625,0.75 0.359375,0 0.578125,-0.234375 0.75,-0.546875 0.15625,-0.359375 0.296875,-0.96875 0.296875,-0.984375 0,-0.109375 -0.09375,-0.109375 -0.125,-0.109375 -0.09375,0 -0.109375,0.046875 -0.140625,0.1875 -0.171875,0.640625 -0.34375,1.234375 -0.75,1.234375 -0.28125,0 -0.296875,-0.265625 -0.296875,-0.453125 0,-0.21875 0.015625,-0.3125 0.125,-0.75 C 3.890625,-1.71875 3.90625,-1.828125 4,-2.203125 L 4.359375,-3.59375 c 0.0625,-0.28125 0.0625,-0.296875 0.0625,-0.34375 0,-0.171875 -0.109375,-0.265625 -0.28125,-0.265625 -0.25,0 -0.390625,0.21875 -0.421875,0.4375 z M 3.078125,-1.1875 C 3.015625,-1 3.015625,-0.984375 2.875,-0.8125 2.4375,-0.265625 2.03125,-0.109375 1.75,-0.109375 c -0.5,0 -0.640625,-0.546875 -0.640625,-0.9375 0,-0.5 0.3125,-1.71875 0.546875,-2.1875 0.3125,-0.578125 0.75,-0.953125 1.15625,-0.953125 0.640625,0 0.78125,0.8125 0.78125,0.875 0,0.0625 -0.015625,0.125 -0.03125,0.171875 z m 0,0"
               id="id-ca91dfc2-381f-484f-9275-52caf45a076b" />
          </symbol>
        </g>
      </defs>
      <g
         id="id-61eda0d7-fcf5-4e8b-aa2d-6b5db18be0ac"
         transform="translate(-299.322,-139.236)"
         style="fill:#ff8000;fill-opacity:1;stroke-width:0">
        <g
           style="fill:#ff8000;fill-opacity:1;stroke-width:0"
           id="id-71db83d7-74d4-4a07-8a3e-bd10cc8bf2b6">
          <g
             transform="translate(298.009,146.72)"
             style="fill:#ff8000;fill-opacity:1;stroke-width:0"
             id="g7572">
            <path
               style="fill:#ff8000;fill-opacity:1;stroke:#ff8000;stroke-width:0"
               d="m 1.71875,-7.140625 c 0,-0.15625 0,-0.34375 -0.203125,-0.34375 -0.203125,0 -0.203125,0.234375 -0.203125,0.375 V 2.125 c 0,0.15625 0,0.375 0.203125,0.375 C 1.71875,2.5 1.71875,2.3125 1.71875,2.15625 Z m 1.9375,0.03125 c 0,-0.15625 0,-0.375 -0.203125,-0.375 -0.1875,0 -0.1875,0.1875 -0.1875,0.34375 V 2.15625 c 0,0.15625 0,0.34375 0.1875,0.34375 C 3.65625,2.5 3.65625,2.265625 3.65625,2.125 Z m 0,0"
               id="id-156425b3-47bd-46bc-ac71-a41ed953c8ba" />
          </g>
        </g>
        <g
           style="fill:#ff8000;fill-opacity:1;stroke-width:0"
           id="id-536eaa69-4ecb-429e-a58e-6672d76f1462">
          <g
             transform="translate(302.367,146.72)"
             style="fill:#ff8000;fill-opacity:1;stroke-width:0"
             id="g7576">
            <path
               style="fill:#ff8000;fill-opacity:1;stroke:#ff8000;stroke-width:0"
               d="m 5.359375,-5.9375 c -0.140625,0.140625 -0.46875,0.421875 -0.46875,0.59375 0,0.09375 0.09375,0.203125 0.1875,0.203125 0.09375,0 0.140625,-0.078125 0.203125,-0.140625 C 5.390625,-5.421875 5.625,-5.703125 6.0625,-5.921875 6.125,-5.96875 6.234375,-6.015625 6.234375,-6.125 6.234375,-6.234375 6.15625,-6.28125 6.09375,-6.328125 5.875,-6.484375 5.765625,-6.65625 5.6875,-6.890625 5.65625,-6.984375 5.625,-7.125 5.484375,-7.125 c -0.140625,0 -0.203125,0.140625 -0.203125,0.21875 0,0.046875 0.078125,0.359375 0.234375,0.578125 H 2.15625 c -0.15625,0 -0.34375,0 -0.34375,0.203125 0,0.1875 0.1875,0.1875 0.34375,0.1875 z m 0,0"
               id="id-e18afaef-af37-4b75-8659-da480077ceb5" />
          </g>
        </g>
        <g
           style="fill:#ff8000;fill-opacity:1;stroke-width:0"
           id="id-f0f68cd6-9863-4fb1-9346-7ce6e081754b">
          <g
             transform="translate(302.995,146.72)"
             style="fill:#ff8000;fill-opacity:1;stroke-width:0"
             id="g7580">
            <path
               style="fill:#ff8000;fill-opacity:1;stroke:#ff8000;stroke-width:0"
               d="M 3.71875,-3.765625 C 3.53125,-4.140625 3.25,-4.40625 2.796875,-4.40625 c -1.15625,0 -2.390625,1.46875 -2.390625,2.921875 0,0.9375 0.546875,1.59375 1.3125,1.59375 0.203125,0 0.703125,-0.046875 1.296875,-0.75 0.078125,0.421875 0.4375,0.75 0.90625,0.75 0.359375,0 0.578125,-0.234375 0.75,-0.546875 0.15625,-0.359375 0.296875,-0.96875 0.296875,-0.984375 0,-0.109375 -0.09375,-0.109375 -0.125,-0.109375 -0.09375,0 -0.109375,0.046875 -0.140625,0.1875 -0.171875,0.640625 -0.34375,1.234375 -0.75,1.234375 -0.28125,0 -0.296875,-0.265625 -0.296875,-0.453125 0,-0.21875 0.015625,-0.3125 0.125,-0.75 C 3.890625,-1.71875 3.90625,-1.828125 4,-2.203125 L 4.359375,-3.59375 c 0.0625,-0.28125 0.0625,-0.296875 0.0625,-0.34375 0,-0.171875 -0.109375,-0.265625 -0.28125,-0.265625 -0.25,0 -0.390625,0.21875 -0.421875,0.4375 z M 3.078125,-1.1875 C 3.015625,-1 3.015625,-0.984375 2.875,-0.8125 2.4375,-0.265625 2.03125,-0.109375 1.75,-0.109375 c -0.5,0 -0.640625,-0.546875 -0.640625,-0.9375 0,-0.5 0.3125,-1.71875 0.546875,-2.1875 0.3125,-0.578125 0.75,-0.953125 1.15625,-0.953125 0.640625,0 0.78125,0.8125 0.78125,0.875 0,0.0625 -0.015625,0.125 -0.03125,0.171875 z m 0,0"
               id="id-38d4286c-96d0-4906-86f7-56d5c0164ab3" />
          </g>
        </g>
        <g
           style="fill:#ff8000;fill-opacity:1;stroke-width:0"
           id="id-727ab4c3-e01e-4b3c-af12-4e701ff68737">
          <g
             transform="translate(308.257,146.72)"
             style="fill:#ff8000;fill-opacity:1;stroke-width:0"
             id="g7584">
            <path
               style="fill:#ff8000;fill-opacity:1;stroke:#ff8000;stroke-width:0"
               d="m 1.71875,-7.140625 c 0,-0.15625 0,-0.34375 -0.203125,-0.34375 -0.203125,0 -0.203125,0.234375 -0.203125,0.375 V 2.125 c 0,0.15625 0,0.375 0.203125,0.375 C 1.71875,2.5 1.71875,2.3125 1.71875,2.15625 Z m 1.9375,0.03125 c 0,-0.15625 0,-0.375 -0.203125,-0.375 -0.1875,0 -0.1875,0.1875 -0.1875,0.34375 V 2.15625 c 0,0.15625 0,0.34375 0.1875,0.34375 C 3.65625,2.5 3.65625,2.265625 3.65625,2.125 Z m 0,0"
               id="id-c80d394a-f084-425f-9d79-bb77f17df549" />
          </g>
        </g>
      </g>
    </g>
    <g
       transform="matrix(1.0519272,0,0,1.0479203,148.21997,23.550431)"
       ns2:version="1.5.0"
       ns2:texconverter="pdflatex"
       ns2:pdfconverter="inkscape"
       ns2:text="$$\na_z\n$$\n\n"
       ns2:preamble="default_packages.tex"
       ns2:scale="2.740141391257413"
       ns2:alignment="middle center"
       ns2:stroke-to-path="0"
       ns2:inkscapeversion="1.1"
       ns2:jacobian_sqrt="0.9666606314007"
       style="fill:#ff8000;fill-opacity:1;stroke-width:0"
       id="g1098">
      <defs
         id="id-34ae68cd-c56b-4f65-bba9-0ab09eb9fa36"
         style="fill:#ff8000;fill-opacity:1;stroke-width:0">
        <g
           id="id-a46a499e-aaf9-48ef-b051-da6cdbb72f3d"
           style="fill:#ff8000;fill-opacity:1;stroke-width:0">
          <symbol
             overflow="visible"
             id="id-644b774f-6c56-4a7d-a07c-9ba13b0fce4b"
             style="fill:#ff8000;fill-opacity:1;stroke-width:0">
            <path
               style="fill:#ff8000;fill-opacity:1;stroke:#ff8000;stroke-width:0"
               d=""
               id="id-f6c9b721-70a3-4528-909c-15e13292a7b2" />
          </symbol>
          <symbol
             overflow="visible"
             id="id-e1c5d570-e2e5-4e15-9b5b-c6348b87ffc1"
             style="fill:#ff8000;fill-opacity:1;stroke-width:0">
            <path
               style="fill:#ff8000;fill-opacity:1;stroke:#ff8000;stroke-width:0"
               d="M 3.71875,-3.765625 C 3.53125,-4.140625 3.25,-4.40625 2.796875,-4.40625 c -1.15625,0 -2.390625,1.46875 -2.390625,2.921875 0,0.9375 0.546875,1.59375 1.3125,1.59375 0.203125,0 0.703125,-0.046875 1.296875,-0.75 0.078125,0.421875 0.4375,0.75 0.90625,0.75 0.359375,0 0.578125,-0.234375 0.75,-0.546875 0.15625,-0.359375 0.296875,-0.96875 0.296875,-0.984375 0,-0.109375 -0.09375,-0.109375 -0.125,-0.109375 -0.09375,0 -0.109375,0.046875 -0.140625,0.1875 -0.171875,0.640625 -0.34375,1.234375 -0.75,1.234375 -0.28125,0 -0.296875,-0.265625 -0.296875,-0.453125 0,-0.21875 0.015625,-0.3125 0.125,-0.75 C 3.890625,-1.71875 3.90625,-1.828125 4,-2.203125 L 4.359375,-3.59375 c 0.0625,-0.28125 0.0625,-0.296875 0.0625,-0.34375 0,-0.171875 -0.109375,-0.265625 -0.28125,-0.265625 -0.25,0 -0.390625,0.21875 -0.421875,0.4375 z M 3.078125,-1.1875 C 3.015625,-1 3.015625,-0.984375 2.875,-0.8125 2.4375,-0.265625 2.03125,-0.109375 1.75,-0.109375 c -0.5,0 -0.640625,-0.546875 -0.640625,-0.9375 0,-0.5 0.3125,-1.71875 0.546875,-2.1875 0.3125,-0.578125 0.75,-0.953125 1.15625,-0.953125 0.640625,0 0.78125,0.8125 0.78125,0.875 0,0.0625 -0.015625,0.125 -0.03125,0.171875 z m 0,0"
               id="id-a46c9261-d8c0-45e6-ba48-26ba2a900621" />
          </symbol>
          <symbol
             overflow="visible"
             id="id-71f56e3f-e1aa-408b-96df-62195b1c070f"
             style="fill:#ff8000;fill-opacity:1;stroke-width:0">
            <path
               style="fill:#ff8000;fill-opacity:1;stroke:#ff8000;stroke-width:0"
               d=""
               id="id-ac59e79e-02ee-47d3-8c3f-affbed8b4532" />
          </symbol>
          <symbol
             overflow="visible"
             id="id-7766645e-a29f-4947-a22c-aeb106ea60fb"
             style="fill:#ff8000;fill-opacity:1;stroke-width:0">
            <path
               style="fill:#ff8000;fill-opacity:1;stroke:#ff8000;stroke-width:0"
               d="m 1.171875,-0.609375 c 0.1875,-0.1875 0.3125,-0.3125 0.890625,-0.796875 0.15625,-0.109375 0.671875,-0.53125 0.875,-0.71875 0.421875,-0.421875 0.6875,-0.78125 0.6875,-0.859375 0,-0.09375 -0.078125,-0.09375 -0.109375,-0.09375 -0.0625,0 -0.09375,0.015625 -0.125,0.078125 -0.21875,0.3125 -0.359375,0.421875 -0.53125,0.421875 -0.078125,0 -0.1875,0 -0.390625,-0.203125 -0.234375,-0.25 -0.390625,-0.296875 -0.546875,-0.296875 -0.5625,0 -0.9375,0.609375 -0.9375,0.8125 0,0.078125 0.0625,0.09375 0.109375,0.09375 0.09375,0 0.109375,-0.015625 0.125,-0.09375 0.109375,-0.25 0.5,-0.265625 0.609375,-0.265625 0.171875,0 0.34375,0.046875 0.4375,0.0625 0.390625,0.078125 0.4375,0.078125 0.609375,0.078125 -0.171875,0.203125 -0.296875,0.328125 -0.96875,0.84375 -0.546875,0.4375 -0.734375,0.609375 -0.859375,0.75 -0.421875,0.40625 -0.625,0.71875 -0.625,0.78125 0,0.078125 0.09375,0.078125 0.125,0.078125 0.0625,0 0.078125,0 0.109375,-0.0625 0.1875,-0.265625 0.40625,-0.421875 0.640625,-0.421875 0.09375,0 0.1875,0 0.375,0.171875 0.21875,0.21875 0.359375,0.3125 0.59375,0.3125 C 3,0.0625 3.46875,-0.78125 3.46875,-1.015625 3.46875,-1.09375 3.390625,-1.09375 3.359375,-1.09375 3.265625,-1.09375 3.25,-1.0625 3.21875,-0.984375 3.09375,-0.640625 2.6875,-0.46875 2.34375,-0.46875 2.1875,-0.46875 2,-0.515625 1.828125,-0.546875 1.515625,-0.625 1.453125,-0.625 1.328125,-0.625 c -0.015625,0 -0.109375,0 -0.15625,0.015625 z m 0,0"
               id="id-9db9f306-165c-4105-b201-3d7104d22df9" />
          </symbol>
        </g>
      </defs>
      <g
         id="id-064611b9-3422-4ad5-aa89-769534f54a75"
         transform="translate(-301.102,-142.314)"
         style="fill:#ff8000;fill-opacity:1;stroke-width:0">
        <g
           style="fill:#ff8000;fill-opacity:1;stroke-width:0"
           id="id-c887eed2-4904-42df-82fc-49ebaf9eef16">
          <g
             transform="translate(300.696,146.72)"
             style="fill:#ff8000;fill-opacity:1;stroke-width:0"
             id="g7946">
            <path
               style="fill:#ff8000;fill-opacity:1;stroke:#ff8000;stroke-width:0"
               d="M 3.71875,-3.765625 C 3.53125,-4.140625 3.25,-4.40625 2.796875,-4.40625 c -1.15625,0 -2.390625,1.46875 -2.390625,2.921875 0,0.9375 0.546875,1.59375 1.3125,1.59375 0.203125,0 0.703125,-0.046875 1.296875,-0.75 0.078125,0.421875 0.4375,0.75 0.90625,0.75 0.359375,0 0.578125,-0.234375 0.75,-0.546875 0.15625,-0.359375 0.296875,-0.96875 0.296875,-0.984375 0,-0.109375 -0.09375,-0.109375 -0.125,-0.109375 -0.09375,0 -0.109375,0.046875 -0.140625,0.1875 -0.171875,0.640625 -0.34375,1.234375 -0.75,1.234375 -0.28125,0 -0.296875,-0.265625 -0.296875,-0.453125 0,-0.21875 0.015625,-0.3125 0.125,-0.75 C 3.890625,-1.71875 3.90625,-1.828125 4,-2.203125 L 4.359375,-3.59375 c 0.0625,-0.28125 0.0625,-0.296875 0.0625,-0.34375 0,-0.171875 -0.109375,-0.265625 -0.28125,-0.265625 -0.25,0 -0.390625,0.21875 -0.421875,0.4375 z M 3.078125,-1.1875 C 3.015625,-1 3.015625,-0.984375 2.875,-0.8125 2.4375,-0.265625 2.03125,-0.109375 1.75,-0.109375 c -0.5,0 -0.640625,-0.546875 -0.640625,-0.9375 0,-0.5 0.3125,-1.71875 0.546875,-2.1875 0.3125,-0.578125 0.75,-0.953125 1.15625,-0.953125 0.640625,0 0.78125,0.8125 0.78125,0.875 0,0.0625 -0.015625,0.125 -0.03125,0.171875 z m 0,0"
               id="id-bf42928f-a48e-4886-977c-c7d2a5933843" />
          </g>
        </g>
        <g
           style="fill:#ff8000;fill-opacity:1;stroke-width:0"
           id="id-d351fe41-40f7-4653-9863-0b45168bdb67">
          <g
             transform="translate(305.962,148.214)"
             style="fill:#ff8000;fill-opacity:1;stroke-width:0"
             id="g7950">
            <path
               style="fill:#ff8000;fill-opacity:1;stroke:#ff8000;stroke-width:0"
               d="m 1.171875,-0.609375 c 0.1875,-0.1875 0.3125,-0.3125 0.890625,-0.796875 0.15625,-0.109375 0.671875,-0.53125 0.875,-0.71875 0.421875,-0.421875 0.6875,-0.78125 0.6875,-0.859375 0,-0.09375 -0.078125,-0.09375 -0.109375,-0.09375 -0.0625,0 -0.09375,0.015625 -0.125,0.078125 -0.21875,0.3125 -0.359375,0.421875 -0.53125,0.421875 -0.078125,0 -0.1875,0 -0.390625,-0.203125 -0.234375,-0.25 -0.390625,-0.296875 -0.546875,-0.296875 -0.5625,0 -0.9375,0.609375 -0.9375,0.8125 0,0.078125 0.0625,0.09375 0.109375,0.09375 0.09375,0 0.109375,-0.015625 0.125,-0.09375 0.109375,-0.25 0.5,-0.265625 0.609375,-0.265625 0.171875,0 0.34375,0.046875 0.4375,0.0625 0.390625,0.078125 0.4375,0.078125 0.609375,0.078125 -0.171875,0.203125 -0.296875,0.328125 -0.96875,0.84375 -0.546875,0.4375 -0.734375,0.609375 -0.859375,0.75 -0.421875,0.40625 -0.625,0.71875 -0.625,0.78125 0,0.078125 0.09375,0.078125 0.125,0.078125 0.0625,0 0.078125,0 0.109375,-0.0625 0.1875,-0.265625 0.40625,-0.421875 0.640625,-0.421875 0.09375,0 0.1875,0 0.375,0.171875 0.21875,0.21875 0.359375,0.3125 0.59375,0.3125 C 3,0.0625 3.46875,-0.78125 3.46875,-1.015625 3.46875,-1.09375 3.390625,-1.09375 3.359375,-1.09375 3.265625,-1.09375 3.25,-1.0625 3.21875,-0.984375 3.09375,-0.640625 2.6875,-0.46875 2.34375,-0.46875 2.1875,-0.46875 2,-0.515625 1.828125,-0.546875 1.515625,-0.625 1.453125,-0.625 1.328125,-0.625 c -0.015625,0 -0.109375,0 -0.15625,0.015625 z m 0,0"
               id="id-a425eba2-09c7-44d8-b337-83e007ecebdb" />
          </g>
        </g>
      </g>
    </g>
    <g
       transform="matrix(1.04818 0 0 1.03467 142.839 63.7633)"
       ns2:version="1.5.0"
       ns2:texconverter="pdflatex"
       ns2:pdfconverter="inkscape"
       ns2:text="$$\na_y\n$$\n\n"
       ns2:preamble="default_packages.tex"
       ns2:scale="2.9520025278094497"
       ns2:alignment="middle center"
       ns2:stroke-to-path="0"
       ns2:inkscapeversion="1.1"
       ns2:jacobian_sqrt="1.0414030922750324"
       style="fill:#ff8000;fill-opacity:1;stroke-width:0"
       id="g795">
      <defs
         id="id-1a4be936-59f9-4161-92bd-95d1acd6093f"
         style="fill:#ff8000;fill-opacity:1;stroke-width:0">
        <g
           id="id-4f098b2d-0cc9-46f9-acc7-869e419fcec2"
           style="fill:#ff8000;fill-opacity:1;stroke-width:0">
          <symbol
             overflow="visible"
             id="id-64650d3d-9555-46e7-a692-ebd77045f939"
             style="fill:#ff8000;fill-opacity:1;stroke-width:0">
            <path
               style="stroke:#ff8000;fill:#ff8000;fill-opacity:1;stroke-width:0"
               d=""
               id="id-d7317571-670e-4d80-a61d-474f6772bacf" />
          </symbol>
          <symbol
             overflow="visible"
             id="id-ca3334a9-cc1e-40cc-9e23-29d069071862"
             style="fill:#ff8000;fill-opacity:1;stroke-width:0">
            <path
               style="stroke:#ff8000;fill:#ff8000;fill-opacity:1;stroke-width:0"
               d="M 3.71875,-3.765625 C 3.53125,-4.140625 3.25,-4.40625 2.796875,-4.40625 c -1.15625,0 -2.390625,1.46875 -2.390625,2.921875 0,0.9375 0.546875,1.59375 1.3125,1.59375 0.203125,0 0.703125,-0.046875 1.296875,-0.75 0.078125,0.421875 0.4375,0.75 0.90625,0.75 0.359375,0 0.578125,-0.234375 0.75,-0.546875 0.15625,-0.359375 0.296875,-0.96875 0.296875,-0.984375 0,-0.109375 -0.09375,-0.109375 -0.125,-0.109375 -0.09375,0 -0.109375,0.046875 -0.140625,0.1875 -0.171875,0.640625 -0.34375,1.234375 -0.75,1.234375 -0.28125,0 -0.296875,-0.265625 -0.296875,-0.453125 0,-0.21875 0.015625,-0.3125 0.125,-0.75 C 3.890625,-1.71875 3.90625,-1.828125 4,-2.203125 L 4.359375,-3.59375 c 0.0625,-0.28125 0.0625,-0.296875 0.0625,-0.34375 0,-0.171875 -0.109375,-0.265625 -0.28125,-0.265625 -0.25,0 -0.390625,0.21875 -0.421875,0.4375 z M 3.078125,-1.1875 C 3.015625,-1 3.015625,-0.984375 2.875,-0.8125 2.4375,-0.265625 2.03125,-0.109375 1.75,-0.109375 c -0.5,0 -0.640625,-0.546875 -0.640625,-0.9375 0,-0.5 0.3125,-1.71875 0.546875,-2.1875 0.3125,-0.578125 0.75,-0.953125 1.15625,-0.953125 0.640625,0 0.78125,0.8125 0.78125,0.875 0,0.0625 -0.015625,0.125 -0.03125,0.171875 z m 0,0"
               id="id-c8aace8c-9465-42b5-86ba-42ca2ccb0f20" />
          </symbol>
          <symbol
             overflow="visible"
             id="id-88e0acd4-7f3b-447a-a29c-1a3d2f7b3851"
             style="fill:#ff8000;fill-opacity:1;stroke-width:0">
            <path
               style="stroke:#ff8000;fill:#ff8000;fill-opacity:1;stroke-width:0"
               d=""
               id="id-9f50f47b-7a0c-4d5a-a984-45bfa62f9001" />
          </symbol>
          <symbol
             overflow="visible"
             id="id-aed84469-5d20-4a09-8262-4c7c320fb445"
             style="fill:#ff8000;fill-opacity:1;stroke-width:0">
            <path
               style="stroke:#ff8000;fill:#ff8000;fill-opacity:1;stroke-width:0"
               d="M 3.875,-2.625 C 3.90625,-2.71875 3.90625,-2.734375 3.90625,-2.78125 3.90625,-2.921875 3.796875,-3 3.671875,-3 3.59375,-3 3.46875,-2.96875 3.390625,-2.84375 3.359375,-2.796875 3.3125,-2.578125 3.28125,-2.4375 L 3.125,-1.859375 c -0.03125,0.171875 -0.25,1.046875 -0.28125,1.125 0,0 -0.3125,0.609375 -0.84375,0.609375 -0.484375,0 -0.484375,-0.453125 -0.484375,-0.578125 0,-0.375 0.15625,-0.8125 0.375,-1.359375 C 1.96875,-2.28125 2,-2.359375 2,-2.484375 2,-2.8125 1.71875,-3.078125 1.34375,-3.078125 0.640625,-3.078125 0.328125,-2.125 0.328125,-2 c 0,0.078125 0.09375,0.078125 0.125,0.078125 0.09375,0 0.09375,-0.03125 0.125,-0.109375 C 0.75,-2.609375 1.046875,-2.875 1.328125,-2.875 1.4375,-2.875 1.5,-2.796875 1.5,-2.640625 c 0,0.171875 -0.0625,0.3125 -0.09375,0.40625 C 1.0625,-1.375 1,-1.125 1,-0.8125 1,-0.703125 1,-0.375 1.265625,-0.140625 1.484375,0.03125 1.78125,0.0625 1.96875,0.0625 2.25,0.0625 2.5,-0.03125 2.71875,-0.25 2.640625,0.140625 2.5625,0.4375 2.265625,0.78125 2.078125,1 1.796875,1.21875 1.421875,1.21875 c -0.046875,0 -0.375,0 -0.515625,-0.21875 0.375,-0.046875 0.375,-0.375 0.375,-0.390625 0,-0.21875 -0.203125,-0.265625 -0.265625,-0.265625 -0.171875,0 -0.40625,0.140625 -0.40625,0.46875 0,0.34375 0.328125,0.609375 0.828125,0.609375 C 2.140625,1.421875 3,0.875 3.21875,0 Z m 0,0"
               id="id-cbe22023-106b-47b5-b2a7-83817e5c304f" />
          </symbol>
        </g>
      </defs>
      <g
         id="id-ab3ff4b8-c4ca-426a-8c9f-d2896fd2e64a"
         transform="translate(-301.002, -142.314)"
         style="fill:#ff8000;fill-opacity:1;stroke-width:0">
        <g
           style="fill:#ff8000;fill-opacity:1;stroke-width:0"
           id="id-18a84067-c7cf-485a-a970-37fd3a3824b0">
          <g
             transform="translate(300.596, 146.72)"
             style="fill:#ff8000;fill-opacity:1;stroke-width:0"
             id="g8304">
            <path
               style="stroke:#ff8000;fill:#ff8000;fill-opacity:1;stroke-width:0"
               d="M 3.71875,-3.765625 C 3.53125,-4.140625 3.25,-4.40625 2.796875,-4.40625 c -1.15625,0 -2.390625,1.46875 -2.390625,2.921875 0,0.9375 0.546875,1.59375 1.3125,1.59375 0.203125,0 0.703125,-0.046875 1.296875,-0.75 0.078125,0.421875 0.4375,0.75 0.90625,0.75 0.359375,0 0.578125,-0.234375 0.75,-0.546875 0.15625,-0.359375 0.296875,-0.96875 0.296875,-0.984375 0,-0.109375 -0.09375,-0.109375 -0.125,-0.109375 -0.09375,0 -0.109375,0.046875 -0.140625,0.1875 -0.171875,0.640625 -0.34375,1.234375 -0.75,1.234375 -0.28125,0 -0.296875,-0.265625 -0.296875,-0.453125 0,-0.21875 0.015625,-0.3125 0.125,-0.75 C 3.890625,-1.71875 3.90625,-1.828125 4,-2.203125 L 4.359375,-3.59375 c 0.0625,-0.28125 0.0625,-0.296875 0.0625,-0.34375 0,-0.171875 -0.109375,-0.265625 -0.28125,-0.265625 -0.25,0 -0.390625,0.21875 -0.421875,0.4375 z M 3.078125,-1.1875 C 3.015625,-1 3.015625,-0.984375 2.875,-0.8125 2.4375,-0.265625 2.03125,-0.109375 1.75,-0.109375 c -0.5,0 -0.640625,-0.546875 -0.640625,-0.9375 0,-0.5 0.3125,-1.71875 0.546875,-2.1875 0.3125,-0.578125 0.75,-0.953125 1.15625,-0.953125 0.640625,0 0.78125,0.8125 0.78125,0.875 0,0.0625 -0.015625,0.125 -0.03125,0.171875 z m 0,0"
               id="id-3ab346c6-5089-4a7d-bcd4-71e89897c9e9" />
          </g>
        </g>
        <g
           style="fill:#ff8000;fill-opacity:1;stroke-width:0"
           id="id-20735f0e-7614-4592-b9fe-4d357b4798bd">
          <g
             transform="translate(305.863, 148.214)"
             style="fill:#ff8000;fill-opacity:1;stroke-width:0"
             id="g8308">
            <path
               style="stroke:#ff8000;fill:#ff8000;fill-opacity:1;stroke-width:0"
               d="M 3.875,-2.625 C 3.90625,-2.71875 3.90625,-2.734375 3.90625,-2.78125 3.90625,-2.921875 3.796875,-3 3.671875,-3 3.59375,-3 3.46875,-2.96875 3.390625,-2.84375 3.359375,-2.796875 3.3125,-2.578125 3.28125,-2.4375 L 3.125,-1.859375 c -0.03125,0.171875 -0.25,1.046875 -0.28125,1.125 0,0 -0.3125,0.609375 -0.84375,0.609375 -0.484375,0 -0.484375,-0.453125 -0.484375,-0.578125 0,-0.375 0.15625,-0.8125 0.375,-1.359375 C 1.96875,-2.28125 2,-2.359375 2,-2.484375 2,-2.8125 1.71875,-3.078125 1.34375,-3.078125 0.640625,-3.078125 0.328125,-2.125 0.328125,-2 c 0,0.078125 0.09375,0.078125 0.125,0.078125 0.09375,0 0.09375,-0.03125 0.125,-0.109375 C 0.75,-2.609375 1.046875,-2.875 1.328125,-2.875 1.4375,-2.875 1.5,-2.796875 1.5,-2.640625 c 0,0.171875 -0.0625,0.3125 -0.09375,0.40625 C 1.0625,-1.375 1,-1.125 1,-0.8125 1,-0.703125 1,-0.375 1.265625,-0.140625 1.484375,0.03125 1.78125,0.0625 1.96875,0.0625 2.25,0.0625 2.5,-0.03125 2.71875,-0.25 2.640625,0.140625 2.5625,0.4375 2.265625,0.78125 2.078125,1 1.796875,1.21875 1.421875,1.21875 c -0.046875,0 -0.375,0 -0.515625,-0.21875 0.375,-0.046875 0.375,-0.375 0.375,-0.390625 0,-0.21875 -0.203125,-0.265625 -0.265625,-0.265625 -0.171875,0 -0.40625,0.140625 -0.40625,0.46875 0,0.34375 0.328125,0.609375 0.828125,0.609375 C 2.140625,1.421875 3,0.875 3.21875,0 Z m 0,0"
               id="id-d2069c74-8d04-4d07-9015-96eac44444d7" />
          </g>
        </g>
      </g>
    </g>
    <g
       transform="matrix(1.05472 0 0 1.06504 115.145 65.6962)"
       ns2:version="1.5.0"
       ns2:texconverter="pdflatex"
       ns2:pdfconverter="inkscape"
       ns2:text="$$\na_x\n$$\n\n"
       ns2:preamble="default_packages.tex"
       ns2:scale="3.0043524111480138"
       ns2:alignment="middle center"
       ns2:stroke-to-path="0"
       ns2:inkscapeversion="1.1"
       ns2:jacobian_sqrt="1.0598674392583254"
       style="fill:#ff8000;fill-opacity:1;stroke-width:0"
       id="g540">
      <defs
         id="id-986798d0-8d62-44b2-a531-bcc25c6f1777"
         style="fill:#ff8000;fill-opacity:1;stroke-width:0">
        <g
           id="id-12434f20-ea43-4d24-b21a-76b49860934d"
           style="fill:#ff8000;fill-opacity:1;stroke-width:0">
          <symbol
             overflow="visible"
             id="id-746c3bba-d08e-4b04-9fd5-195b7d6ea606"
             style="fill:#ff8000;fill-opacity:1;stroke-width:0">
            <path
               style="stroke:#ff8000;fill:#ff8000;fill-opacity:1;stroke-width:0"
               d=""
               id="id-37596a53-b0fe-4921-99b5-b77e94740e1a" />
          </symbol>
          <symbol
             overflow="visible"
             id="id-13084f40-e1f3-41ce-b75c-24777aaeba35"
             style="fill:#ff8000;fill-opacity:1;stroke-width:0">
            <path
               style="stroke:#ff8000;fill:#ff8000;fill-opacity:1;stroke-width:0"
               d="M 3.71875,-3.765625 C 3.53125,-4.140625 3.25,-4.40625 2.796875,-4.40625 c -1.15625,0 -2.390625,1.46875 -2.390625,2.921875 0,0.9375 0.546875,1.59375 1.3125,1.59375 0.203125,0 0.703125,-0.046875 1.296875,-0.75 0.078125,0.421875 0.4375,0.75 0.90625,0.75 0.359375,0 0.578125,-0.234375 0.75,-0.546875 0.15625,-0.359375 0.296875,-0.96875 0.296875,-0.984375 0,-0.109375 -0.09375,-0.109375 -0.125,-0.109375 -0.09375,0 -0.109375,0.046875 -0.140625,0.1875 -0.171875,0.640625 -0.34375,1.234375 -0.75,1.234375 -0.28125,0 -0.296875,-0.265625 -0.296875,-0.453125 0,-0.21875 0.015625,-0.3125 0.125,-0.75 C 3.890625,-1.71875 3.90625,-1.828125 4,-2.203125 L 4.359375,-3.59375 c 0.0625,-0.28125 0.0625,-0.296875 0.0625,-0.34375 0,-0.171875 -0.109375,-0.265625 -0.28125,-0.265625 -0.25,0 -0.390625,0.21875 -0.421875,0.4375 z M 3.078125,-1.1875 C 3.015625,-1 3.015625,-0.984375 2.875,-0.8125 2.4375,-0.265625 2.03125,-0.109375 1.75,-0.109375 c -0.5,0 -0.640625,-0.546875 -0.640625,-0.9375 0,-0.5 0.3125,-1.71875 0.546875,-2.1875 0.3125,-0.578125 0.75,-0.953125 1.15625,-0.953125 0.640625,0 0.78125,0.8125 0.78125,0.875 0,0.0625 -0.015625,0.125 -0.03125,0.171875 z m 0,0"
               id="id-f6798035-6b9c-4684-a07f-4f5a52f5a8c4" />
          </symbol>
          <symbol
             overflow="visible"
             id="id-fb8a2227-3b4a-4c5f-bbd4-e2fad4db76ba"
             style="fill:#ff8000;fill-opacity:1;stroke-width:0">
            <path
               style="stroke:#ff8000;fill:#ff8000;fill-opacity:1;stroke-width:0"
               d=""
               id="id-5dc3f4c3-c43b-4a27-94a6-223bcf3dfd2f" />
          </symbol>
          <symbol
             overflow="visible"
             id="id-fb10f0eb-cef0-4a50-9f82-16251813c68d"
             style="fill:#ff8000;fill-opacity:1;stroke-width:0">
            <path
               style="stroke:#ff8000;fill:#ff8000;fill-opacity:1;stroke-width:0"
               d="M 1.734375,-0.734375 C 1.671875,-0.5 1.4375,-0.125 1.078125,-0.125 c -0.015625,0 -0.234375,0 -0.375,-0.09375 0.28125,-0.09375 0.3125,-0.34375 0.3125,-0.390625 0,-0.15625 -0.125,-0.25 -0.28125,-0.25 -0.203125,0 -0.40625,0.15625 -0.40625,0.421875 0,0.34375 0.390625,0.5 0.734375,0.5 0.328125,0 0.609375,-0.1875 0.78125,-0.484375 C 2.015625,-0.0625 2.390625,0.0625 2.671875,0.0625 c 0.8125,0 1.234375,-0.859375 1.234375,-1.0625 0,-0.09375 -0.09375,-0.09375 -0.109375,-0.09375 -0.109375,0 -0.109375,0.046875 -0.140625,0.125 -0.140625,0.484375 -0.5625,0.84375 -0.953125,0.84375 -0.28125,0 -0.421875,-0.1875 -0.421875,-0.453125 0,-0.1875 0.171875,-0.8125 0.359375,-1.59375 C 2.78125,-2.703125 3.09375,-2.875 3.328125,-2.875 c 0.015625,0 0.21875,0 0.375,0.09375 -0.21875,0.0625 -0.3125,0.265625 -0.3125,0.390625 0,0.140625 0.125,0.25 0.28125,0.25 0.15625,0 0.390625,-0.125 0.390625,-0.421875 0,-0.390625 -0.453125,-0.515625 -0.71875,-0.515625 -0.359375,0 -0.640625,0.234375 -0.78125,0.5 -0.125,-0.28125 -0.453125,-0.5 -0.84375,-0.5 C 0.9375,-3.078125 0.5,-2.21875 0.5,-2 c 0,0.078125 0.09375,0.078125 0.109375,0.078125 0.09375,0 0.09375,-0.015625 0.140625,-0.109375 C 0.921875,-2.578125 1.359375,-2.875 1.703125,-2.875 1.9375,-2.875 2.125,-2.75 2.125,-2.421875 2.125,-2.28125 2.03125,-1.9375 1.96875,-1.6875 Z m 0,0"
               id="id-387eab66-53a5-4a31-95a5-501074a6eb95" />
          </symbol>
        </g>
      </defs>
      <g
         id="id-112d68f4-798a-455b-b2f9-15b446b621a0"
         transform="translate(-300.889, -142.314)"
         style="fill:#ff8000;fill-opacity:1;stroke-width:0">
        <g
           style="fill:#ff8000;fill-opacity:1;stroke-width:0"
           id="id-3df21b26-23e8-419a-9405-6bbaa1d175f1">
          <g
             transform="translate(300.483, 146.72)"
             style="fill:#ff8000;fill-opacity:1;stroke-width:0"
             id="g8662">
            <path
               style="stroke:#ff8000;fill:#ff8000;fill-opacity:1;stroke-width:0"
               d="M 3.71875,-3.765625 C 3.53125,-4.140625 3.25,-4.40625 2.796875,-4.40625 c -1.15625,0 -2.390625,1.46875 -2.390625,2.921875 0,0.9375 0.546875,1.59375 1.3125,1.59375 0.203125,0 0.703125,-0.046875 1.296875,-0.75 0.078125,0.421875 0.4375,0.75 0.90625,0.75 0.359375,0 0.578125,-0.234375 0.75,-0.546875 0.15625,-0.359375 0.296875,-0.96875 0.296875,-0.984375 0,-0.109375 -0.09375,-0.109375 -0.125,-0.109375 -0.09375,0 -0.109375,0.046875 -0.140625,0.1875 -0.171875,0.640625 -0.34375,1.234375 -0.75,1.234375 -0.28125,0 -0.296875,-0.265625 -0.296875,-0.453125 0,-0.21875 0.015625,-0.3125 0.125,-0.75 C 3.890625,-1.71875 3.90625,-1.828125 4,-2.203125 L 4.359375,-3.59375 c 0.0625,-0.28125 0.0625,-0.296875 0.0625,-0.34375 0,-0.171875 -0.109375,-0.265625 -0.28125,-0.265625 -0.25,0 -0.390625,0.21875 -0.421875,0.4375 z M 3.078125,-1.1875 C 3.015625,-1 3.015625,-0.984375 2.875,-0.8125 2.4375,-0.265625 2.03125,-0.109375 1.75,-0.109375 c -0.5,0 -0.640625,-0.546875 -0.640625,-0.9375 0,-0.5 0.3125,-1.71875 0.546875,-2.1875 0.3125,-0.578125 0.75,-0.953125 1.15625,-0.953125 0.640625,0 0.78125,0.8125 0.78125,0.875 0,0.0625 -0.015625,0.125 -0.03125,0.171875 z m 0,0"
               id="id-3310709f-7c63-46de-9c8e-0055808030b7" />
          </g>
        </g>
        <g
           style="fill:#ff8000;fill-opacity:1;stroke-width:0"
           id="id-49faba41-0ab0-4fcb-baee-9c5ac059943a">
          <g
             transform="translate(305.749, 148.214)"
             style="fill:#ff8000;fill-opacity:1;stroke-width:0"
             id="g8666">
            <path
               style="stroke:#ff8000;fill:#ff8000;fill-opacity:1;stroke-width:0"
               d="M 1.734375,-0.734375 C 1.671875,-0.5 1.4375,-0.125 1.078125,-0.125 c -0.015625,0 -0.234375,0 -0.375,-0.09375 0.28125,-0.09375 0.3125,-0.34375 0.3125,-0.390625 0,-0.15625 -0.125,-0.25 -0.28125,-0.25 -0.203125,0 -0.40625,0.15625 -0.40625,0.421875 0,0.34375 0.390625,0.5 0.734375,0.5 0.328125,0 0.609375,-0.1875 0.78125,-0.484375 C 2.015625,-0.0625 2.390625,0.0625 2.671875,0.0625 c 0.8125,0 1.234375,-0.859375 1.234375,-1.0625 0,-0.09375 -0.09375,-0.09375 -0.109375,-0.09375 -0.109375,0 -0.109375,0.046875 -0.140625,0.125 -0.140625,0.484375 -0.5625,0.84375 -0.953125,0.84375 -0.28125,0 -0.421875,-0.1875 -0.421875,-0.453125 0,-0.1875 0.171875,-0.8125 0.359375,-1.59375 C 2.78125,-2.703125 3.09375,-2.875 3.328125,-2.875 c 0.015625,0 0.21875,0 0.375,0.09375 -0.21875,0.0625 -0.3125,0.265625 -0.3125,0.390625 0,0.140625 0.125,0.25 0.28125,0.25 0.15625,0 0.390625,-0.125 0.390625,-0.421875 0,-0.390625 -0.453125,-0.515625 -0.71875,-0.515625 -0.359375,0 -0.640625,0.234375 -0.78125,0.5 -0.125,-0.28125 -0.453125,-0.5 -0.84375,-0.5 C 0.9375,-3.078125 0.5,-2.21875 0.5,-2 c 0,0.078125 0.09375,0.078125 0.109375,0.078125 0.09375,0 0.09375,-0.015625 0.140625,-0.109375 C 0.921875,-2.578125 1.359375,-2.875 1.703125,-2.875 1.9375,-2.875 2.125,-2.75 2.125,-2.421875 2.125,-2.28125 2.03125,-1.9375 1.96875,-1.6875 Z m 0,0"
               id="id-5d548f3a-d1d8-4ebf-a239-d575d5ec7b22" />
          </g>
        </g>
      </g>
    </g>
  </g>
</svg>
