<?xml version="1.0" encoding="UTF-8" standalone="no"?>
<!-- Created with Inkscape (http://www.inkscape.org/) -->

<svg
   width="9in"
   height="5in"
   viewBox="0 0 228.6 127"
   version="1.1"
   id="svg4708"
   inkscape:version="1.1 (c4e8f9e, 2021-05-24)"
   sodipodi:docname="x_extrude_y.svg"
   xmlns:inkscape="http://www.inkscape.org/namespaces/inkscape"
   xmlns:sodipodi="http://sodipodi.sourceforge.net/DTD/sodipodi-0.dtd"
   xmlns="http://www.w3.org/2000/svg"
   xmlns:svg="http://www.w3.org/2000/svg"
   xmlns:ns2="http://www.iki.fi/pav/software/textext/">
  <sodipodi:namedview
     id="namedview4710"
     pagecolor="#ffffff"
     bordercolor="#666666"
     borderopacity="1.0"
     inkscape:pageshadow="2"
     inkscape:pageopacity="0.0"
     inkscape:pagecheckerboard="0"
     inkscape:document-units="mm"
     showgrid="false"
     units="in"
     width="9in"
     inkscape:zoom="1.5329755"
     inkscape:cx="577.63481"
     inkscape:cy="277.89094"
     inkscape:window-width="1312"
     inkscape:window-height="762"
     inkscape:window-x="0"
     inkscape:window-y="25"
     inkscape:window-maximized="0"
     inkscape:current-layer="layer1" />
  <defs
     id="defs4705">
    <g
       id="id-70764b85-5342-40b3-8209-da5f3521b1b2">
      <symbol
         overflow="visible"
         id="id-030e7c21-a2c8-4ffc-8407-283953ed13e0">
        <path
           style="stroke:none;stroke-width:0"
           d=""
           id="id-44cf43e6-dabb-4f43-825c-e387709adae1" />
      </symbol>
      <symbol
         overflow="visible"
         id="id-ce66d6f9-77e8-4e97-a300-4e32f804f518">
        <path
           style="stroke:none;stroke-width:0"
           d="m 5.359375,-5.9375 c -0.140625,0.140625 -0.46875,0.421875 -0.46875,0.59375 0,0.09375 0.09375,0.203125 0.1875,0.203125 0.09375,0 0.140625,-0.078125 0.203125,-0.140625 C 5.390625,-5.421875 5.625,-5.703125 6.0625,-5.921875 6.125,-5.96875 6.234375,-6.015625 6.234375,-6.125 6.234375,-6.234375 6.15625,-6.28125 6.09375,-6.328125 5.875,-6.484375 5.765625,-6.65625 5.6875,-6.890625 5.65625,-6.984375 5.625,-7.125 5.484375,-7.125 c -0.140625,0 -0.203125,0.140625 -0.203125,0.21875 0,0.046875 0.078125,0.359375 0.234375,0.578125 H 2.15625 c -0.15625,0 -0.34375,0 -0.34375,0.203125 0,0.1875 0.1875,0.1875 0.34375,0.1875 z m 0,0"
           id="id-36c864ec-4f06-4c35-929d-2471291cc34e" />
      </symbol>
      <symbol
         overflow="visible"
         id="id-92534b23-97c0-4dc8-ba8c-fc3ae465139b">
        <path
           style="stroke:none;stroke-width:0"
           d="m 4.671875,-3.703125 c 0,-0.546875 -0.265625,-0.703125 -0.4375,-0.703125 -0.25,0 -0.5,0.265625 -0.5,0.484375 0,0.125 0.046875,0.1875 0.15625,0.296875 0.21875,0.203125 0.34375,0.453125 0.34375,0.8125 0,0.421875 -0.609375,2.703125 -1.765625,2.703125 -0.515625,0 -0.75,-0.34375 -0.75,-0.875 0,-0.546875 0.28125,-1.28125 0.578125,-2.109375 0.078125,-0.171875 0.125,-0.3125 0.125,-0.5 0,-0.4375 -0.3125,-0.8125 -0.8125,-0.8125 -0.9375,0 -1.3125,1.453125 -1.3125,1.53125 0,0.109375 0.09375,0.109375 0.109375,0.109375 0.109375,0 0.109375,-0.03125 0.15625,-0.1875 0.296875,-1 0.71875,-1.234375 1.015625,-1.234375 0.078125,0 0.25,0 0.25,0.3125 0,0.25 -0.109375,0.53125 -0.171875,0.703125 -0.4375,1.15625 -0.5625,1.609375 -0.5625,2.046875 0,1.078125 0.875,1.234375 1.328125,1.234375 1.671875,0 2.25,-3.296875 2.25,-3.8125 z m 0,0"
           id="id-42651123-7fc0-4327-a5f5-d4ee8961ac82" />
      </symbol>
    </g>
    <g
       id="id-9c46ef1b-d41f-44d2-ad9d-0a6704433a1f">
      <symbol
         overflow="visible"
         id="id-fd2dd4c3-3a32-426c-862c-5bb94ea83cff">
        <path
           style="stroke:none;stroke-width:0"
           d=""
           id="id-f33fd053-053c-4207-9def-075f91a342e5" />
      </symbol>
      <symbol
         overflow="visible"
         id="id-2ad728b1-2487-4b51-b812-b406ddcd1913">
        <path
           style="stroke:none;stroke-width:0"
           d="m 4.671875,-3.703125 c 0,-0.546875 -0.265625,-0.703125 -0.4375,-0.703125 -0.25,0 -0.5,0.265625 -0.5,0.484375 0,0.125 0.046875,0.1875 0.15625,0.296875 0.21875,0.203125 0.34375,0.453125 0.34375,0.8125 0,0.421875 -0.609375,2.703125 -1.765625,2.703125 -0.515625,0 -0.75,-0.34375 -0.75,-0.875 0,-0.546875 0.28125,-1.28125 0.578125,-2.109375 0.078125,-0.171875 0.125,-0.3125 0.125,-0.5 0,-0.4375 -0.3125,-0.8125 -0.8125,-0.8125 -0.9375,0 -1.3125,1.453125 -1.3125,1.53125 0,0.109375 0.09375,0.109375 0.109375,0.109375 0.109375,0 0.109375,-0.03125 0.15625,-0.1875 0.296875,-1 0.71875,-1.234375 1.015625,-1.234375 0.078125,0 0.25,0 0.25,0.3125 0,0.25 -0.109375,0.53125 -0.171875,0.703125 -0.4375,1.15625 -0.5625,1.609375 -0.5625,2.046875 0,1.078125 0.875,1.234375 1.328125,1.234375 1.671875,0 2.25,-3.296875 2.25,-3.8125 z m 0,0"
           id="id-81e0735f-5670-42ab-9fd5-63b24a16a049" />
      </symbol>
      <symbol
         overflow="visible"
         id="id-9d6218ae-6a8d-47a7-a32a-2d2f259673cf">
        <path
           style="stroke:none;stroke-width:0"
           d=""
           id="id-e4c2f244-b119-4942-a138-236ad16f56e0" />
      </symbol>
      <symbol
         overflow="visible"
         id="id-4d3368f2-ec38-444f-9ad9-55eb0bbf2435">
        <path
           style="stroke:none;stroke-width:0"
           d="M 1.734375,-0.734375 C 1.671875,-0.5 1.4375,-0.125 1.078125,-0.125 c -0.015625,0 -0.234375,0 -0.375,-0.09375 0.28125,-0.09375 0.3125,-0.34375 0.3125,-0.390625 0,-0.15625 -0.125,-0.25 -0.28125,-0.25 -0.203125,0 -0.40625,0.15625 -0.40625,0.421875 0,0.34375 0.390625,0.5 0.734375,0.5 0.328125,0 0.609375,-0.1875 0.78125,-0.484375 C 2.015625,-0.0625 2.390625,0.0625 2.671875,0.0625 c 0.8125,0 1.234375,-0.859375 1.234375,-1.0625 0,-0.09375 -0.09375,-0.09375 -0.109375,-0.09375 -0.109375,0 -0.109375,0.046875 -0.140625,0.125 -0.140625,0.484375 -0.5625,0.84375 -0.953125,0.84375 -0.28125,0 -0.421875,-0.1875 -0.421875,-0.453125 0,-0.1875 0.171875,-0.8125 0.359375,-1.59375 C 2.78125,-2.703125 3.09375,-2.875 3.328125,-2.875 c 0.015625,0 0.21875,0 0.375,0.09375 -0.21875,0.0625 -0.3125,0.265625 -0.3125,0.390625 0,0.140625 0.125,0.25 0.28125,0.25 0.15625,0 0.390625,-0.125 0.390625,-0.421875 0,-0.390625 -0.453125,-0.515625 -0.71875,-0.515625 -0.359375,0 -0.640625,0.234375 -0.78125,0.5 -0.125,-0.28125 -0.453125,-0.5 -0.84375,-0.5 C 0.9375,-3.078125 0.5,-2.21875 0.5,-2 c 0,0.078125 0.09375,0.078125 0.109375,0.078125 0.09375,0 0.09375,-0.015625 0.140625,-0.109375 C 0.921875,-2.578125 1.359375,-2.875 1.703125,-2.875 1.9375,-2.875 2.125,-2.75 2.125,-2.421875 2.125,-2.28125 2.03125,-1.9375 1.96875,-1.6875 Z m 0,0"
           id="id-eac70406-1c6e-4e17-9b96-a2a09d3c66f7" />
      </symbol>
    </g>
    <g
       id="id-b3a54287-ea3e-4ae7-9a17-736d033708b7">
      <symbol
         overflow="visible"
         id="id-946ef816-665a-4de6-9034-7f9f56232f86">
        <path
           style="stroke:none;stroke-width:0"
           d=""
           id="id-49a588f6-380e-4c92-ab73-edbfe6fcb0b9" />
      </symbol>
      <symbol
         overflow="visible"
         id="id-8a5aae0a-56db-427d-9275-3e95e261392d">
        <path
           style="stroke:none;stroke-width:0"
           d="m 4.671875,-3.703125 c 0,-0.546875 -0.265625,-0.703125 -0.4375,-0.703125 -0.25,0 -0.5,0.265625 -0.5,0.484375 0,0.125 0.046875,0.1875 0.15625,0.296875 0.21875,0.203125 0.34375,0.453125 0.34375,0.8125 0,0.421875 -0.609375,2.703125 -1.765625,2.703125 -0.515625,0 -0.75,-0.34375 -0.75,-0.875 0,-0.546875 0.28125,-1.28125 0.578125,-2.109375 0.078125,-0.171875 0.125,-0.3125 0.125,-0.5 0,-0.4375 -0.3125,-0.8125 -0.8125,-0.8125 -0.9375,0 -1.3125,1.453125 -1.3125,1.53125 0,0.109375 0.09375,0.109375 0.109375,0.109375 0.109375,0 0.109375,-0.03125 0.15625,-0.1875 0.296875,-1 0.71875,-1.234375 1.015625,-1.234375 0.078125,0 0.25,0 0.25,0.3125 0,0.25 -0.109375,0.53125 -0.171875,0.703125 -0.4375,1.15625 -0.5625,1.609375 -0.5625,2.046875 0,1.078125 0.875,1.234375 1.328125,1.234375 1.671875,0 2.25,-3.296875 2.25,-3.8125 z m 0,0"
           id="id-8535a110-4f6c-450c-8899-2f94ff85d5ac" />
      </symbol>
      <symbol
         overflow="visible"
         id="id-b7879a63-59d5-48db-82f5-b1be025d6880">
        <path
           style="stroke:none;stroke-width:0"
           d=""
           id="id-8cb783ee-f05d-4511-b1e4-7294c5650e9e" />
      </symbol>
      <symbol
         overflow="visible"
         id="id-8afc9c9b-554d-4347-af15-de4cd04f77fc">
        <path
           style="stroke:none;stroke-width:0"
           d="M 3.875,-2.625 C 3.90625,-2.71875 3.90625,-2.734375 3.90625,-2.78125 3.90625,-2.921875 3.796875,-3 3.671875,-3 3.59375,-3 3.46875,-2.96875 3.390625,-2.84375 3.359375,-2.796875 3.3125,-2.578125 3.28125,-2.4375 L 3.125,-1.859375 c -0.03125,0.171875 -0.25,1.046875 -0.28125,1.125 0,0 -0.3125,0.609375 -0.84375,0.609375 -0.484375,0 -0.484375,-0.453125 -0.484375,-0.578125 0,-0.375 0.15625,-0.8125 0.375,-1.359375 C 1.96875,-2.28125 2,-2.359375 2,-2.484375 2,-2.8125 1.71875,-3.078125 1.34375,-3.078125 0.640625,-3.078125 0.328125,-2.125 0.328125,-2 c 0,0.078125 0.09375,0.078125 0.125,0.078125 0.09375,0 0.09375,-0.03125 0.125,-0.109375 C 0.75,-2.609375 1.046875,-2.875 1.328125,-2.875 1.4375,-2.875 1.5,-2.796875 1.5,-2.640625 c 0,0.171875 -0.0625,0.3125 -0.09375,0.40625 C 1.0625,-1.375 1,-1.125 1,-0.8125 1,-0.703125 1,-0.375 1.265625,-0.140625 1.484375,0.03125 1.78125,0.0625 1.96875,0.0625 2.25,0.0625 2.5,-0.03125 2.71875,-0.25 2.640625,0.140625 2.5625,0.4375 2.265625,0.78125 2.078125,1 1.796875,1.21875 1.421875,1.21875 c -0.046875,0 -0.375,0 -0.515625,-0.21875 0.375,-0.046875 0.375,-0.375 0.375,-0.390625 0,-0.21875 -0.203125,-0.265625 -0.265625,-0.265625 -0.171875,0 -0.40625,0.140625 -0.40625,0.46875 0,0.34375 0.328125,0.609375 0.828125,0.609375 C 2.140625,1.421875 3,0.875 3.21875,0 Z m 0,0"
           id="id-8ffed16d-96f2-4aa6-a6c1-8c1cabf978ff" />
      </symbol>
    </g>
    <g
       id="id-c289380e-4c4c-4095-8c84-e4a7a9798190">
      <symbol
         overflow="visible"
         id="id-72619672-e8e5-41bb-bf15-8ac96a6e5691">
        <path
           style="stroke:none;stroke-width:0"
           d=""
           id="id-99553ea3-a017-4134-91c4-e80afbd361ed" />
      </symbol>
      <symbol
         overflow="visible"
         id="id-ba9342d2-9a51-4c93-8dd5-89ea2d2251d0">
        <path
           style="stroke:none;stroke-width:0"
           d="m 4.671875,-3.703125 c 0,-0.546875 -0.265625,-0.703125 -0.4375,-0.703125 -0.25,0 -0.5,0.265625 -0.5,0.484375 0,0.125 0.046875,0.1875 0.15625,0.296875 0.21875,0.203125 0.34375,0.453125 0.34375,0.8125 0,0.421875 -0.609375,2.703125 -1.765625,2.703125 -0.515625,0 -0.75,-0.34375 -0.75,-0.875 0,-0.546875 0.28125,-1.28125 0.578125,-2.109375 0.078125,-0.171875 0.125,-0.3125 0.125,-0.5 0,-0.4375 -0.3125,-0.8125 -0.8125,-0.8125 -0.9375,0 -1.3125,1.453125 -1.3125,1.53125 0,0.109375 0.09375,0.109375 0.109375,0.109375 0.109375,0 0.109375,-0.03125 0.15625,-0.1875 0.296875,-1 0.71875,-1.234375 1.015625,-1.234375 0.078125,0 0.25,0 0.25,0.3125 0,0.25 -0.109375,0.53125 -0.171875,0.703125 -0.4375,1.15625 -0.5625,1.609375 -0.5625,2.046875 0,1.078125 0.875,1.234375 1.328125,1.234375 1.671875,0 2.25,-3.296875 2.25,-3.8125 z m 0,0"
           id="id-af919684-a8e4-4b56-8920-5dde240cafa4" />
      </symbol>
      <symbol
         overflow="visible"
         id="id-4edc5f52-7327-43fb-b4cd-8bcfe8b28a6f">
        <path
           style="stroke:none;stroke-width:0"
           d=""
           id="id-d2dbfc0f-466d-4150-bb6c-66f46dd87188" />
      </symbol>
      <symbol
         overflow="visible"
         id="id-11594256-7bb9-4c17-baa8-6be55a8da63f">
        <path
           style="stroke:none;stroke-width:0"
           d="m 1.171875,-0.609375 c 0.1875,-0.1875 0.3125,-0.3125 0.890625,-0.796875 0.15625,-0.109375 0.671875,-0.53125 0.875,-0.71875 0.421875,-0.421875 0.6875,-0.78125 0.6875,-0.859375 0,-0.09375 -0.078125,-0.09375 -0.109375,-0.09375 -0.0625,0 -0.09375,0.015625 -0.125,0.078125 -0.21875,0.3125 -0.359375,0.421875 -0.53125,0.421875 -0.078125,0 -0.1875,0 -0.390625,-0.203125 -0.234375,-0.25 -0.390625,-0.296875 -0.546875,-0.296875 -0.5625,0 -0.9375,0.609375 -0.9375,0.8125 0,0.078125 0.0625,0.09375 0.109375,0.09375 0.09375,0 0.109375,-0.015625 0.125,-0.09375 0.109375,-0.25 0.5,-0.265625 0.609375,-0.265625 0.171875,0 0.34375,0.046875 0.4375,0.0625 0.390625,0.078125 0.4375,0.078125 0.609375,0.078125 -0.171875,0.203125 -0.296875,0.328125 -0.96875,0.84375 -0.546875,0.4375 -0.734375,0.609375 -0.859375,0.75 -0.421875,0.40625 -0.625,0.71875 -0.625,0.78125 0,0.078125 0.09375,0.078125 0.125,0.078125 0.0625,0 0.078125,0 0.109375,-0.0625 0.1875,-0.265625 0.40625,-0.421875 0.640625,-0.421875 0.09375,0 0.1875,0 0.375,0.171875 0.21875,0.21875 0.359375,0.3125 0.59375,0.3125 C 3,0.0625 3.46875,-0.78125 3.46875,-1.015625 3.46875,-1.09375 3.390625,-1.09375 3.359375,-1.09375 3.265625,-1.09375 3.25,-1.0625 3.21875,-0.984375 3.09375,-0.640625 2.6875,-0.46875 2.34375,-0.46875 2.1875,-0.46875 2,-0.515625 1.828125,-0.546875 1.515625,-0.625 1.453125,-0.625 1.328125,-0.625 c -0.015625,0 -0.109375,0 -0.15625,0.015625 z m 0,0"
           id="id-23e597d5-01f7-47fe-ac93-a92a05657499" />
      </symbol>
    </g>
    <g
       id="id-6ab97043-a07f-4fcb-97b2-1fe2ca6a445e">
      <symbol
         overflow="visible"
         id="id-96b7d6e2-bf13-4d1f-b865-f0462377a3d1">
        <path
           style="stroke:none;stroke-width:0"
           d=""
           id="id-cc9bcc73-67b8-4739-97b4-cbb46bc29036" />
      </symbol>
      <symbol
         overflow="visible"
         id="id-9ae12039-6f36-4583-b3eb-84568e363c98">
        <path
           style="stroke:none;stroke-width:0"
           d="m 2.859375,-6.921875 -1.5625,1.265625 0.28125,0.375 1.28125,-0.8125 1.28125,0.8125 0.28125,-0.375 z m 0,0"
           id="id-f310ddac-62e8-4993-ac47-a1603d20ecd1" />
      </symbol>
      <symbol
         overflow="visible"
         id="id-3964fbdf-b10a-43bf-9e46-839a4e52d502">
        <path
           style="stroke:none;stroke-width:0"
           d="M 3.453125,-2.453125 4.609375,-3.75 C 4.75,-3.890625 4.8125,-3.953125 5.625,-3.953125 v -0.46875 c -0.34375,0.015625 -0.859375,0.03125 -0.90625,0.03125 -0.25,0 -0.75,-0.03125 -1.03125,-0.03125 v 0.46875 c 0.140625,0 0.265625,0.015625 0.375,0.078125 -0.03125,0.0625 -0.03125,0.09375 -0.078125,0.125 L 3.15625,-2.8125 2.171875,-3.953125 h 0.40625 v -0.46875 c -0.265625,0 -0.890625,0.03125 -1.21875,0.03125 -0.3125,0 -0.765625,-0.03125 -1.09375,-0.03125 v 0.46875 h 0.71875 L 2.53125,-2.125 1.21875,-0.65625 c -0.15625,0.1875 -0.515625,0.1875 -1,0.1875 V 0 c 0.34375,-0.015625 0.875,-0.03125 0.921875,-0.03125 0.25,0 0.828125,0.015625 1.015625,0.03125 v -0.46875 c -0.171875,0 -0.359375,-0.046875 -0.359375,-0.109375 0,-0.015625 0,-0.015625 0.0625,-0.09375 l 0.96875,-1.09375 1.09375,1.296875 H 3.53125 V 0 c 0.265625,-0.015625 0.875,-0.03125 1.203125,-0.03125 0.3125,0 0.765625,0.015625 1.09375,0.03125 V -0.46875 H 5.125 Z m 0,0"
           id="id-e252afb8-1085-465e-b7dd-70d311bcb37b" />
      </symbol>
    </g>
    <g
       id="id-8191e5f8-2aae-4155-8f5a-97ae08d08c04">
      <symbol
         overflow="visible"
         id="id-6e1737cc-cc79-4a08-ae6b-79e57e41e220">
        <path
           style="stroke:none"
           d=""
           id="id-44fdaee1-89d4-4f30-acea-62841ee76fc8" />
      </symbol>
      <symbol
         overflow="visible"
         id="id-e97978b6-a28e-40b1-8987-d5ad59df77e3">
        <path
           style="stroke:none"
           d="m 2.859375,-6.921875 -1.5625,1.265625 0.28125,0.375 1.28125,-0.8125 1.28125,0.8125 0.28125,-0.375 z m 0,0"
           id="id-8f6a7052-f8a5-4ff3-91db-d8455431fb70" />
      </symbol>
      <symbol
         overflow="visible"
         id="id-49d5a334-c623-4dfd-bbb2-7667773cdb18">
        <path
           style="stroke:none"
           d="M 4.46875,-4 C 4.5625,-4.109375 4.578125,-4.125 4.578125,-4.21875 4.578125,-4.421875 4.4375,-4.421875 4.25,-4.421875 H 0.59375 L 0.484375,-2.6875 h 0.46875 C 1,-3.703125 1.3125,-4.0625 2.34375,-4.0625 H 3.1875 l -2.78125,3.625 C 0.3125,-0.328125 0.3125,-0.3125 0.3125,-0.21875 0.3125,0 0.453125,0 0.640625,0 h 3.78125 l 0.1875,-2.015625 H 4.140625 C 4.046875,-1 3.890625,-0.40625 2.578125,-0.40625 H 1.71875 Z m 0,0"
           id="id-63c96ba0-ff1a-4546-8845-ffa2af002a0a" />
      </symbol>
    </g>
    <g
       id="id-c3f315e2-db5c-4c39-a48c-3c016e9ebd9b">
      <symbol
         overflow="visible"
         id="id-114a1695-eedb-43b3-9bfa-12ab9b218238">
        <path
           style="stroke:none;stroke-width:0"
           d=""
           id="id-bf35f0be-37a2-4ad3-9be2-0fbd1409b85b" />
      </symbol>
      <symbol
         overflow="visible"
         id="id-bcecef0e-2145-479e-8f70-e0f2b45d305d">
        <path
           style="stroke:none;stroke-width:0"
           d="m 2.859375,-6.921875 -1.5625,1.265625 0.28125,0.375 1.28125,-0.8125 1.28125,0.8125 0.28125,-0.375 z m 0,0"
           id="id-cef710c7-8f8f-466f-9f6f-c39b2eb9a732" />
      </symbol>
      <symbol
         overflow="visible"
         id="id-d8345a83-12e6-41ad-a8d9-ea92cc12c79e">
        <path
           style="stroke:none;stroke-width:0"
           d="m 5.046875,-3.75 c 0.0625,-0.140625 0.09375,-0.203125 0.734375,-0.203125 v -0.46875 C 5.546875,-4.40625 5.25,-4.390625 5,-4.390625 c -0.25,0 -0.703125,-0.03125 -0.90625,-0.03125 v 0.46875 c 0.015625,0 0.46875,0 0.46875,0.109375 0,0.015625 -0.046875,0.109375 -0.0625,0.125 L 3.359375,-1.265625 2.09375,-3.953125 H 2.625 v -0.46875 c -0.328125,0.015625 -1.21875,0.03125 -1.234375,0.03125 -0.28125,0 -0.71875,-0.03125 -1.125,-0.03125 v 0.46875 h 0.625 L 2.765625,0 2.53125,0.484375 C 2.3125,0.953125 2,1.640625 1.28125,1.640625 1.140625,1.640625 1.125,1.625 1.046875,1.59375 1.140625,1.5625 1.359375,1.421875 1.359375,1.0625 1.359375,0.734375 1.125,0.5 0.78125,0.5 0.515625,0.5 0.21875,0.6875 0.21875,1.078125 0.21875,1.578125 0.6875,2 1.28125,2 2.046875,2 2.625,1.375 2.90625,0.8125 Z m 0,0"
           id="id-5a3a29a7-1aad-4752-b68a-ec3937e8e8fe" />
      </symbol>
    </g>
    <g
       id="id-0342c17a-4c54-418f-8f5b-e7b39ad72aff">
      <symbol
         overflow="visible"
         id="id-9159410d-df8a-461e-9831-77d7a59a1ee5">
        <path
           style="stroke:none;stroke-width:0"
           d=""
           id="id-225bf945-3c49-486b-92ab-980be23f8c26" />
      </symbol>
      <symbol
         overflow="visible"
         id="id-70fe5fc5-1ba8-4fac-9c2b-959bb3e4db15">
        <path
           style="stroke:none;stroke-width:0"
           d="m 1.71875,-7.140625 c 0,-0.15625 0,-0.34375 -0.203125,-0.34375 -0.203125,0 -0.203125,0.234375 -0.203125,0.375 V 2.125 c 0,0.15625 0,0.375 0.203125,0.375 C 1.71875,2.5 1.71875,2.3125 1.71875,2.15625 Z m 1.9375,0.03125 c 0,-0.15625 0,-0.375 -0.203125,-0.375 -0.1875,0 -0.1875,0.1875 -0.1875,0.34375 V 2.15625 c 0,0.15625 0,0.34375 0.1875,0.34375 C 3.65625,2.5 3.65625,2.265625 3.65625,2.125 Z m 0,0"
           id="id-fa91c9f6-4d2c-499b-bc00-e34663004a00" />
      </symbol>
      <symbol
         overflow="visible"
         id="id-b3d265c0-6b64-420a-827b-fffabdeb2f8f">
        <path
           style="stroke:none;stroke-width:0"
           d=""
           id="id-0847dca7-0a09-40fb-b85c-a87e0dc7511f" />
      </symbol>
      <symbol
         overflow="visible"
         id="id-f30c7946-b148-4bf4-8876-7c95b54ebba5">
        <path
           style="stroke:none;stroke-width:0"
           d="m 5.359375,-5.9375 c -0.140625,0.140625 -0.46875,0.421875 -0.46875,0.59375 0,0.09375 0.09375,0.203125 0.1875,0.203125 0.09375,0 0.140625,-0.078125 0.203125,-0.140625 C 5.390625,-5.421875 5.625,-5.703125 6.0625,-5.921875 6.125,-5.96875 6.234375,-6.015625 6.234375,-6.125 6.234375,-6.234375 6.15625,-6.28125 6.09375,-6.328125 5.875,-6.484375 5.765625,-6.65625 5.6875,-6.890625 5.65625,-6.984375 5.625,-7.125 5.484375,-7.125 c -0.140625,0 -0.203125,0.140625 -0.203125,0.21875 0,0.046875 0.078125,0.359375 0.234375,0.578125 H 2.15625 c -0.15625,0 -0.34375,0 -0.34375,0.203125 0,0.1875 0.1875,0.1875 0.34375,0.1875 z m 0,0"
           id="id-4de6b551-e240-4976-a847-6a9c2cffd5f3" />
      </symbol>
      <symbol
         overflow="visible"
         id="id-7b566ec8-d368-49d9-9b50-8ecca1ab764c">
        <path
           style="stroke:none;stroke-width:0"
           d="m 4.671875,-3.703125 c 0,-0.546875 -0.265625,-0.703125 -0.4375,-0.703125 -0.25,0 -0.5,0.265625 -0.5,0.484375 0,0.125 0.046875,0.1875 0.15625,0.296875 0.21875,0.203125 0.34375,0.453125 0.34375,0.8125 0,0.421875 -0.609375,2.703125 -1.765625,2.703125 -0.515625,0 -0.75,-0.34375 -0.75,-0.875 0,-0.546875 0.28125,-1.28125 0.578125,-2.109375 0.078125,-0.171875 0.125,-0.3125 0.125,-0.5 0,-0.4375 -0.3125,-0.8125 -0.8125,-0.8125 -0.9375,0 -1.3125,1.453125 -1.3125,1.53125 0,0.109375 0.09375,0.109375 0.109375,0.109375 0.109375,0 0.109375,-0.03125 0.15625,-0.1875 0.296875,-1 0.71875,-1.234375 1.015625,-1.234375 0.078125,0 0.25,0 0.25,0.3125 0,0.25 -0.109375,0.53125 -0.171875,0.703125 -0.4375,1.15625 -0.5625,1.609375 -0.5625,2.046875 0,1.078125 0.875,1.234375 1.328125,1.234375 1.671875,0 2.25,-3.296875 2.25,-3.8125 z m 0,0"
           id="id-6e509957-8da5-4f8b-9ed9-c657b6445a2f" />
      </symbol>
    </g>
  </defs>
  <g
     inkscape:label="Layer 1"
     inkscape:groupmode="layer"
     id="layer1">
    <g
       transform="matrix(0.87133156,0,0,0.87133156,125.89725,78.839811)"
       ns2:version="1.5.0"
       ns2:texconverter="pdflatex"
       ns2:pdfconverter="inkscape"
       ns2:text="$$\n\\mathbf{\\hat{x}}\n$$\n"
       ns2:preamble="default_packages.tex"
       ns2:scale="1.0"
       ns2:alignment="middle center"
       ns2:stroke-to-path="0"
       ns2:inkscapeversion="1.1"
       ns2:jacobian_sqrt="0.352778"
       id="g2716">
      <defs
         id="id-a1a3ac4c-cc87-4f0e-98e7-68da97bd0306">
        <g
           id="g5410">
          <symbol
             overflow="visible"
             id="symbol5400">
            <path
               style="stroke:none;stroke-width:0"
               d=""
               id="path5398" />
          </symbol>
          <symbol
             overflow="visible"
             id="symbol5404">
            <path
               style="stroke:none;stroke-width:0"
               d="m 2.859375,-6.921875 -1.5625,1.265625 0.28125,0.375 1.28125,-0.8125 1.28125,0.8125 0.28125,-0.375 z m 0,0"
               id="path5402" />
          </symbol>
          <symbol
             overflow="visible"
             id="symbol5408">
            <path
               style="stroke:none;stroke-width:0"
               d="M 3.453125,-2.453125 4.609375,-3.75 C 4.75,-3.890625 4.8125,-3.953125 5.625,-3.953125 v -0.46875 c -0.34375,0.015625 -0.859375,0.03125 -0.90625,0.03125 -0.25,0 -0.75,-0.03125 -1.03125,-0.03125 v 0.46875 c 0.140625,0 0.265625,0.015625 0.375,0.078125 -0.03125,0.0625 -0.03125,0.09375 -0.078125,0.125 L 3.15625,-2.8125 2.171875,-3.953125 h 0.40625 v -0.46875 c -0.265625,0 -0.890625,0.03125 -1.21875,0.03125 -0.3125,0 -0.765625,-0.03125 -1.09375,-0.03125 v 0.46875 h 0.71875 L 2.53125,-2.125 1.21875,-0.65625 c -0.15625,0.1875 -0.515625,0.1875 -1,0.1875 V 0 c 0.34375,-0.015625 0.875,-0.03125 0.921875,-0.03125 0.25,0 0.828125,0.015625 1.015625,0.03125 v -0.46875 c -0.171875,0 -0.359375,-0.046875 -0.359375,-0.109375 0,-0.015625 0,-0.015625 0.0625,-0.09375 l 0.96875,-1.09375 1.09375,1.296875 H 3.53125 V 0 c 0.265625,-0.015625 0.875,-0.03125 1.203125,-0.03125 0.3125,0 0.765625,0.015625 1.09375,0.03125 V -0.46875 H 5.125 Z m 0,0"
               id="path5406" />
          </symbol>
        </g>
      </defs>
      <g
         id="id-b0f73cc0-3167-416a-aad8-45289ddbb654"
         transform="translate(-302.819,-139.798)">
        <g
           style="fill:#000000;fill-opacity:1"
           id="id-61f10acb-a3e2-42a1-a81c-9d527b99b82e">
          <g
             transform="translate(302.76,146.72)"
             id="g2708">
            <path
               style="stroke:none;stroke-width:0"
               d="m 2.859375,-6.921875 -1.5625,1.265625 0.28125,0.375 1.28125,-0.8125 1.28125,0.8125 0.28125,-0.375 z m 0,0"
               id="id-07412707-d989-4502-84d4-bb9c5dbd3231" />
          </g>
        </g>
        <g
           style="fill:#000000;fill-opacity:1"
           id="id-842dbef9-da07-4f04-9af6-cae36f0e3213">
          <g
             transform="translate(302.601,146.72)"
             id="g2712">
            <path
               style="stroke:none;stroke-width:0"
               d="M 3.453125,-2.453125 4.609375,-3.75 C 4.75,-3.890625 4.8125,-3.953125 5.625,-3.953125 v -0.46875 c -0.34375,0.015625 -0.859375,0.03125 -0.90625,0.03125 -0.25,0 -0.75,-0.03125 -1.03125,-0.03125 v 0.46875 c 0.140625,0 0.265625,0.015625 0.375,0.078125 -0.03125,0.0625 -0.03125,0.09375 -0.078125,0.125 L 3.15625,-2.8125 2.171875,-3.953125 h 0.40625 v -0.46875 c -0.265625,0 -0.890625,0.03125 -1.21875,0.03125 -0.3125,0 -0.765625,-0.03125 -1.09375,-0.03125 v 0.46875 h 0.71875 L 2.53125,-2.125 1.21875,-0.65625 c -0.15625,0.1875 -0.515625,0.1875 -1,0.1875 V 0 c 0.34375,-0.015625 0.875,-0.03125 0.921875,-0.03125 0.25,0 0.828125,0.015625 1.015625,0.03125 v -0.46875 c -0.171875,0 -0.359375,-0.046875 -0.359375,-0.109375 0,-0.015625 0,-0.015625 0.0625,-0.09375 l 0.96875,-1.09375 1.09375,1.296875 H 3.53125 V 0 c 0.265625,-0.015625 0.875,-0.03125 1.203125,-0.03125 0.3125,0 0.765625,0.015625 1.09375,0.03125 V -0.46875 H 5.125 Z m 0,0"
               id="id-66db1eaa-2998-4556-9b5e-c4e72ec6a7a1" />
          </g>
        </g>
      </g>
    </g>
    <g
       id="g1993"
       transform="translate(-3.072198)">
      <path
         style="fill:none;stroke:#000000;stroke-width:0.188912px;stroke-linecap:butt;stroke-linejoin:miter;stroke-opacity:1"
         d="M 105.08963,25.271642 V 111.07001"
         id="path6954" />
      <path
         sodipodi:type="star"
         style="font-variation-settings:normal;opacity:1;vector-effect:none;fill:#000000;fill-opacity:1;fill-rule:evenodd;stroke-width:2.26772;stroke-linecap:butt;stroke-linejoin:miter;stroke-miterlimit:4;stroke-dasharray:none;stroke-dashoffset:0.226772;stroke-opacity:1;-inkscape-stroke:none;stop-color:#000000;stop-opacity:1"
         id="path2337"
         inkscape:flatsided="false"
         sodipodi:sides="3"
         sodipodi:cx="651.7666"
         sodipodi:cy="220.58768"
         sodipodi:r1="7.0842271"
         sodipodi:r2="3.2436836"
         sodipodi:arg1="-0.85196633"
         sodipodi:arg2="0.19523122"
         inkscape:rounded="0"
         inkscape:randomized="0"
         transform="matrix(0.1996067,-0.17367068,0.17367068,0.1996067,-63.314593,93.575391)"
         inkscape:transform-center-x="0.0026278429"
         inkscape:transform-center-y="-0.46631739"
         d="m 656.4316,215.25625 -1.48294,5.96068 -0.89741,6.07646 -4.42063,-4.26459 -4.81367,-3.81542 5.90357,-1.69608 z" />
      <g
         transform="matrix(0.99414329,0,0,0.99414329,103.07161,13.203289)"
         ns2:version="1.5.0"
         ns2:texconverter="pdflatex"
         ns2:pdfconverter="inkscape"
         ns2:text="$$\n\\mathbf{\\hat{z}}\n$$\n\n"
         ns2:preamble="default_packages.tex"
         ns2:scale="1.0"
         ns2:alignment="middle center"
         ns2:stroke-to-path="0"
         ns2:inkscapeversion="1.1"
         ns2:jacobian_sqrt="0.352778"
         id="g3075">
        <defs
           id="id-cf237519-7be7-4407-b9dd-de387da4e115">
          <g
             id="g5433">
            <symbol
               overflow="visible"
               id="symbol5423">
              <path
                 style="stroke:none"
                 d=""
                 id="path5421" />
            </symbol>
            <symbol
               overflow="visible"
               id="symbol5427">
              <path
                 style="stroke:none"
                 d="m 2.859375,-6.921875 -1.5625,1.265625 0.28125,0.375 1.28125,-0.8125 1.28125,0.8125 0.28125,-0.375 z m 0,0"
                 id="path5425" />
            </symbol>
            <symbol
               overflow="visible"
               id="symbol5431">
              <path
                 style="stroke:none"
                 d="M 4.46875,-4 C 4.5625,-4.109375 4.578125,-4.125 4.578125,-4.21875 4.578125,-4.421875 4.4375,-4.421875 4.25,-4.421875 H 0.59375 L 0.484375,-2.6875 h 0.46875 C 1,-3.703125 1.3125,-4.0625 2.34375,-4.0625 H 3.1875 l -2.78125,3.625 C 0.3125,-0.328125 0.3125,-0.3125 0.3125,-0.21875 0.3125,0 0.453125,0 0.640625,0 h 3.78125 l 0.1875,-2.015625 H 4.140625 C 4.046875,-1 3.890625,-0.40625 2.578125,-0.40625 H 1.71875 Z m 0,0"
                 id="path5429" />
            </symbol>
          </g>
        </defs>
        <g
           id="id-216bf60b-9310-424c-af6e-14a0a55718af"
           transform="translate(-303.391,-139.798)">
          <g
             style="fill:#000000;fill-opacity:1"
             id="id-e556d3a3-2838-43f1-bbed-e40c86dd4f8a">
            <g
               transform="translate(302.76,146.72)"
               id="g3340">
              <path
                 style="stroke:none"
                 d="m 2.859375,-6.921875 -1.5625,1.265625 0.28125,0.375 1.28125,-0.8125 1.28125,0.8125 0.28125,-0.375 z m 0,0"
                 id="id-595316be-8a5f-4fb1-b9ed-4b191878f1d0" />
            </g>
          </g>
          <g
             style="fill:#000000;fill-opacity:1"
             id="id-218d6203-5682-4a32-b356-8fb98a7f4bb6">
            <g
               transform="translate(303.079,146.72)"
               id="g3344">
              <path
                 style="stroke:none"
                 d="M 4.46875,-4 C 4.5625,-4.109375 4.578125,-4.125 4.578125,-4.21875 4.578125,-4.421875 4.4375,-4.421875 4.25,-4.421875 H 0.59375 L 0.484375,-2.6875 h 0.46875 C 1,-3.703125 1.3125,-4.0625 2.34375,-4.0625 H 3.1875 l -2.78125,3.625 C 0.3125,-0.328125 0.3125,-0.3125 0.3125,-0.21875 0.3125,0 0.453125,0 0.640625,0 h 3.78125 l 0.1875,-2.015625 H 4.140625 C 4.046875,-1 3.890625,-0.40625 2.578125,-0.40625 H 1.71875 Z m 0,0"
                 id="id-1edafe5d-c900-487d-8c75-073d7509ecae" />
            </g>
          </g>
        </g>
      </g>
    </g>
    <g
       transform="matrix(0.88189097,0,0,0.88189097,127.30423,51.480213)"
       ns2:version="1.5.0"
       ns2:texconverter="pdflatex"
       ns2:pdfconverter="inkscape"
       ns2:text="$$\n\\mathbf{\\hat{y}}\n$$\n"
       ns2:preamble="default_packages.tex"
       ns2:scale="1.0"
       ns2:alignment="middle center"
       ns2:stroke-to-path="0"
       ns2:inkscapeversion="1.1"
       ns2:jacobian_sqrt="0.352778"
       id="g3636">
      <defs
         id="id-6b9ae8d2-5abd-4b63-adfd-bdc9f8cfc008">
        <g
           id="g5456">
          <symbol
             overflow="visible"
             id="symbol5446">
            <path
               style="stroke:none;stroke-width:0"
               d=""
               id="path5444" />
          </symbol>
          <symbol
             overflow="visible"
             id="symbol5450">
            <path
               style="stroke:none;stroke-width:0"
               d="m 2.859375,-6.921875 -1.5625,1.265625 0.28125,0.375 1.28125,-0.8125 1.28125,0.8125 0.28125,-0.375 z m 0,0"
               id="path5448" />
          </symbol>
          <symbol
             overflow="visible"
             id="symbol5454">
            <path
               style="stroke:none;stroke-width:0"
               d="m 5.046875,-3.75 c 0.0625,-0.140625 0.09375,-0.203125 0.734375,-0.203125 v -0.46875 C 5.546875,-4.40625 5.25,-4.390625 5,-4.390625 c -0.25,0 -0.703125,-0.03125 -0.90625,-0.03125 v 0.46875 c 0.015625,0 0.46875,0 0.46875,0.109375 0,0.015625 -0.046875,0.109375 -0.0625,0.125 L 3.359375,-1.265625 2.09375,-3.953125 H 2.625 v -0.46875 c -0.328125,0.015625 -1.21875,0.03125 -1.234375,0.03125 -0.28125,0 -0.71875,-0.03125 -1.125,-0.03125 v 0.46875 h 0.625 L 2.765625,0 2.53125,0.484375 C 2.3125,0.953125 2,1.640625 1.28125,1.640625 1.140625,1.640625 1.125,1.625 1.046875,1.59375 1.140625,1.5625 1.359375,1.421875 1.359375,1.0625 1.359375,0.734375 1.125,0.5 0.78125,0.5 0.515625,0.5 0.21875,0.6875 0.21875,1.078125 0.21875,1.578125 0.6875,2 1.28125,2 2.046875,2 2.625,1.375 2.90625,0.8125 Z m 0,0"
               id="path5452" />
          </symbol>
        </g>
      </defs>
      <g
         id="id-812ef915-8bac-4884-93f6-fa8752a724c5"
         transform="translate(-302.74,-139.798)">
        <g
           style="fill:#000000;fill-opacity:1"
           id="id-4cea35e6-4261-46e1-8c56-d70bafd3c94e">
          <g
             transform="translate(302.76,146.72)"
             id="g3628">
            <path
               style="stroke:none;stroke-width:0"
               d="m 2.859375,-6.921875 -1.5625,1.265625 0.28125,0.375 1.28125,-0.8125 1.28125,0.8125 0.28125,-0.375 z m 0,0"
               id="id-8c5e2974-ee6c-488a-898b-1975237bbbc4" />
          </g>
        </g>
        <g
           style="fill:#000000;fill-opacity:1"
           id="id-94f912cb-18f1-4c38-b1ac-79b8062197c7">
          <g
             transform="translate(302.521,146.72)"
             id="g3632">
            <path
               style="stroke:none;stroke-width:0"
               d="m 5.046875,-3.75 c 0.0625,-0.140625 0.09375,-0.203125 0.734375,-0.203125 v -0.46875 C 5.546875,-4.40625 5.25,-4.390625 5,-4.390625 c -0.25,0 -0.703125,-0.03125 -0.90625,-0.03125 v 0.46875 c 0.015625,0 0.46875,0 0.46875,0.109375 0,0.015625 -0.046875,0.109375 -0.0625,0.125 L 3.359375,-1.265625 2.09375,-3.953125 H 2.625 v -0.46875 c -0.328125,0.015625 -1.21875,0.03125 -1.234375,0.03125 -0.28125,0 -0.71875,-0.03125 -1.125,-0.03125 v 0.46875 h 0.625 L 2.765625,0 2.53125,0.484375 C 2.3125,0.953125 2,1.640625 1.28125,1.640625 1.140625,1.640625 1.125,1.625 1.046875,1.59375 1.140625,1.5625 1.359375,1.421875 1.359375,1.0625 1.359375,0.734375 1.125,0.5 0.78125,0.5 0.515625,0.5 0.21875,0.6875 0.21875,1.078125 0.21875,1.578125 0.6875,2 1.28125,2 2.046875,2 2.625,1.375 2.90625,0.8125 Z m 0,0"
               id="id-2b2976aa-ded5-438e-a68b-33b0623fdc8d" />
          </g>
        </g>
      </g>
    </g>
    <g
       id="g2118">
      <path
         sodipodi:type="star"
         style="font-variation-settings:normal;opacity:1;vector-effect:none;fill:#ff0000;fill-opacity:1;fill-rule:evenodd;stroke-width:2.26772;stroke-linecap:butt;stroke-linejoin:miter;stroke-miterlimit:4;stroke-dasharray:none;stroke-dashoffset:0.226772;stroke-opacity:1;-inkscape-stroke:none;stop-color:#000000;stop-opacity:1"
         id="path2335"
         inkscape:flatsided="false"
         sodipodi:sides="3"
         sodipodi:cx="651.7666"
         sodipodi:cy="220.58768"
         sodipodi:r1="7.0842271"
         sodipodi:r2="3.2436836"
         sodipodi:arg1="-0.85196633"
         sodipodi:arg2="0.19523122"
         inkscape:rounded="0"
         inkscape:randomized="0"
         transform="matrix(0.13921244,0.22499829,-0.22499829,0.13921244,112.1046,-96.307401)"
         inkscape:transform-center-x="-0.93500896"
         inkscape:transform-center-y="-0.078727127"
         d="m 656.4316,215.25625 -1.48294,5.96068 -0.89741,6.07646 -4.42063,-4.26459 -4.81367,-3.81542 5.90357,-1.69608 z" />
      <g
         id="g613"
         style="fill:#ff0000;fill-opacity:1;stroke:#ff0300;stroke-opacity:1">
        <path
           style="fill:#ff0000;fill-opacity:1;stroke:#ff0300;stroke-width:0.264583px;stroke-linecap:butt;stroke-linejoin:miter;stroke-opacity:1"
           d="m 101.99484,69.423194 53.06091,11.93174"
           id="path2817" />
      </g>
    </g>
    <path
       style="fill:none;stroke:#000000;stroke-width:0.264583px;stroke-linecap:butt;stroke-linejoin:miter;stroke-opacity:1"
       d="M 49.570015,81.250456 101.99484,69.423192"
       id="path3151" />
    <path
       style="fill:none;stroke:#000000;stroke-width:0.264583px;stroke-linecap:butt;stroke-linejoin:miter;stroke-opacity:1"
       d="M 49.570015,57.536391 101.99484,69.423192"
       id="path411" />
    <g
       id="g2113">
      <path
         style="fill:#0000ff;stroke:#0407ff;stroke-width:0.264583px;stroke-linecap:butt;stroke-linejoin:miter;stroke-opacity:1"
         d="M 154.98283,57.536394 101.99484,69.423192"
         id="path526" />
      <path
         sodipodi:type="star"
         style="font-variation-settings:normal;opacity:1;vector-effect:none;fill:#0000ff;fill-opacity:1;fill-rule:evenodd;stroke-width:2.26772;stroke-linecap:butt;stroke-linejoin:miter;stroke-miterlimit:4;stroke-dasharray:none;stroke-dashoffset:0.226772;stroke-opacity:1;-inkscape-stroke:none;stop-color:#000000;stop-opacity:1"
         id="path2091"
         inkscape:flatsided="false"
         sodipodi:sides="3"
         sodipodi:cx="651.7666"
         sodipodi:cy="220.58768"
         sodipodi:r1="7.0842271"
         sodipodi:r2="3.2436836"
         sodipodi:arg1="-0.85196633"
         sodipodi:arg2="0.19523122"
         inkscape:rounded="0"
         inkscape:randomized="0"
         transform="matrix(0.13921244,-0.22499829,-0.22499829,-0.13921244,112.03167,235.19873)"
         inkscape:transform-center-x="-0.93500896"
         inkscape:transform-center-y="0.078723553"
         d="m 656.4316,215.25625 -1.48294,5.96068 -0.89741,6.07646 -4.42063,-4.26459 -4.81367,-3.81542 5.90357,-1.69608 z" />
    </g>
    <g
       id="g2504"
       transform="translate(53.06091,11.931742)">
      <path
         style="fill:#0000ff;stroke:#0407ff;stroke-width:0.264583px;stroke-linecap:butt;stroke-linejoin:miter;stroke-opacity:1"
         d="M 154.98283,57.536394 101.99484,69.423192"
         id="path2500" />
      <path
         sodipodi:type="star"
         style="font-variation-settings:normal;opacity:1;vector-effect:none;fill:#0000ff;fill-opacity:1;fill-rule:evenodd;stroke-width:2.26772;stroke-linecap:butt;stroke-linejoin:miter;stroke-miterlimit:4;stroke-dasharray:none;stroke-dashoffset:0.226772;stroke-opacity:1;-inkscape-stroke:none;stop-color:#000000;stop-opacity:1"
         id="path2502"
         inkscape:flatsided="false"
         sodipodi:sides="3"
         sodipodi:cx="651.7666"
         sodipodi:cy="220.58768"
         sodipodi:r1="7.0842271"
         sodipodi:r2="3.2436836"
         sodipodi:arg1="-0.85196633"
         sodipodi:arg2="0.19523122"
         inkscape:rounded="0"
         inkscape:randomized="0"
         transform="matrix(0.13921244,-0.22499829,-0.22499829,-0.13921244,112.03167,235.19873)"
         inkscape:transform-center-x="-0.93500896"
         inkscape:transform-center-y="0.078723553"
         d="m 656.4316,215.25625 -1.48294,5.96068 -0.89741,6.07646 -4.42063,-4.26459 -4.81367,-3.81542 5.90357,-1.69608 z" />
    </g>
    <g
       id="g2338"
       transform="translate(52.98799,-11.8868)">
      <path
         sodipodi:type="star"
         style="font-variation-settings:normal;opacity:1;vector-effect:none;fill:#ff0000;fill-opacity:1;fill-rule:evenodd;stroke-width:2.26772;stroke-linecap:butt;stroke-linejoin:miter;stroke-miterlimit:4;stroke-dasharray:none;stroke-dashoffset:0.226772;stroke-opacity:1;-inkscape-stroke:none;stop-color:#000000;stop-opacity:1"
         id="path2332"
         inkscape:flatsided="false"
         sodipodi:sides="3"
         sodipodi:cx="651.7666"
         sodipodi:cy="220.58768"
         sodipodi:r1="7.0842271"
         sodipodi:r2="3.2436836"
         sodipodi:arg1="-0.85196633"
         sodipodi:arg2="0.19523122"
         inkscape:rounded="0"
         inkscape:randomized="0"
         transform="matrix(0.13921244,0.22499829,-0.22499829,0.13921244,112.1046,-96.307401)"
         inkscape:transform-center-x="-0.93500896"
         inkscape:transform-center-y="-0.078727127"
         d="m 656.4316,215.25625 -1.48294,5.96068 -0.89741,6.07646 -4.42063,-4.26459 -4.81367,-3.81542 5.90357,-1.69608 z" />
      <g
         id="g2336"
         style="fill:#ff0000;fill-opacity:1;stroke:#ff0300;stroke-opacity:1">
        <path
           style="fill:#ff0000;fill-opacity:1;stroke:#ff0300;stroke-width:0.264583px;stroke-linecap:butt;stroke-linejoin:miter;stroke-opacity:1"
           d="m 101.99484,69.423194 53.06091,11.93174"
           id="path2334" />
      </g>
    </g>
    <g
       id="g2512"
       transform="translate(18.956951,-4.2879731)">
      <path
         sodipodi:type="star"
         style="font-variation-settings:normal;opacity:1;vector-effect:none;fill:#ff0000;fill-opacity:1;fill-rule:evenodd;stroke-width:2.26772;stroke-linecap:butt;stroke-linejoin:miter;stroke-miterlimit:4;stroke-dasharray:none;stroke-dashoffset:0.226772;stroke-opacity:1;-inkscape-stroke:none;stop-color:#000000;stop-opacity:1"
         id="path2506"
         inkscape:flatsided="false"
         sodipodi:sides="3"
         sodipodi:cx="651.7666"
         sodipodi:cy="220.58768"
         sodipodi:r1="7.0842271"
         sodipodi:r2="3.2436836"
         sodipodi:arg1="-0.85196633"
         sodipodi:arg2="0.19523122"
         inkscape:rounded="0"
         inkscape:randomized="0"
         transform="matrix(0.13921244,0.22499829,-0.22499829,0.13921244,112.1046,-96.307401)"
         inkscape:transform-center-x="-0.93500896"
         inkscape:transform-center-y="-0.078727127"
         d="m 656.4316,215.25625 -1.48294,5.96068 -0.89741,6.07646 -4.42063,-4.26459 -4.81367,-3.81542 5.90357,-1.69608 z" />
      <g
         id="g2510"
         style="fill:#ff0000;fill-opacity:1;stroke:#ff0300;stroke-opacity:1">
        <path
           style="fill:#ff0000;fill-opacity:1;stroke:#ff0300;stroke-width:0.264583px;stroke-linecap:butt;stroke-linejoin:miter;stroke-opacity:1"
           d="m 101.99484,69.423194 53.06091,11.93174"
           id="path2508" />
      </g>
    </g>
    <g
       id="g2520"
       transform="translate(35.992986,-8.0561919)">
      <path
         sodipodi:type="star"
         style="font-variation-settings:normal;opacity:1;vector-effect:none;fill:#ff0000;fill-opacity:1;fill-rule:evenodd;stroke-width:2.26772;stroke-linecap:butt;stroke-linejoin:miter;stroke-miterlimit:4;stroke-dasharray:none;stroke-dashoffset:0.226772;stroke-opacity:1;-inkscape-stroke:none;stop-color:#000000;stop-opacity:1"
         id="path2514"
         inkscape:flatsided="false"
         sodipodi:sides="3"
         sodipodi:cx="651.7666"
         sodipodi:cy="220.58768"
         sodipodi:r1="7.0842271"
         sodipodi:r2="3.2436836"
         sodipodi:arg1="-0.85196633"
         sodipodi:arg2="0.19523122"
         inkscape:rounded="0"
         inkscape:randomized="0"
         transform="matrix(0.13921244,0.22499829,-0.22499829,0.13921244,112.1046,-96.307401)"
         inkscape:transform-center-x="-0.93500896"
         inkscape:transform-center-y="-0.078727127"
         d="m 656.4316,215.25625 -1.48294,5.96068 -0.89741,6.07646 -4.42063,-4.26459 -4.81367,-3.81542 5.90357,-1.69608 z" />
      <g
         id="g2518"
         style="fill:#ff0000;fill-opacity:1;stroke:#ff0300;stroke-opacity:1">
        <path
           style="fill:#ff0000;fill-opacity:1;stroke:#ff0300;stroke-width:0.264583px;stroke-linecap:butt;stroke-linejoin:miter;stroke-opacity:1"
           d="m 101.99484,69.423194 53.06091,11.93174"
           id="path2516" />
      </g>
    </g>
    <path
       style="fill:#ff0000;stroke:none;stroke-width:0.264583px;stroke-linecap:butt;stroke-linejoin:miter;stroke-opacity:1;fill-opacity:0.2"
       d="m 101.99484,69.423192 52.98798,-11.886798 53.06092,11.93174 -52.98799,11.8868 z"
       id="path2555" />
  </g>
</svg>
