<?xml version="1.0" encoding="UTF-8" standalone="no"?>
<svg
   preserveAspectRatio="xMinYMin meet"
   width="1160"
   height="550.59552"
   viewBox="0 0 1215.3159 246.90497"
   version="1.0"
   id="svg2"
   sodipodi:version="0.32"
   inkscape:version="1.1 (c4e8f9e, 2021-05-24)"
   sodipodi:docname="Conformal_map.svg"
   inkscape:output_extension="org.inkscape.output.svg.inkscape"
   xmlns:inkscape="http://www.inkscape.org/namespaces/inkscape"
   xmlns:sodipodi="http://sodipodi.sourceforge.net/DTD/sodipodi-0.dtd"
   xmlns="http://www.w3.org/2000/svg"
   xmlns:svg="http://www.w3.org/2000/svg"
   xmlns:rdf="http://www.w3.org/1999/02/22-rdf-syntax-ns#"
   xmlns:cc="http://creativecommons.org/ns#"
   xmlns:dc="http://purl.org/dc/elements/1.1/"
   xmlns:ns1="http://www.iki.fi/pav/software/textext/">
  <metadata
     id="metadata378">
    <rdf:RDF>
      <cc:Work
         rdf:about="">
        <dc:format>image/svg+xml</dc:format>
        <dc:type
           rdf:resource="http://purl.org/dc/dcmitype/StillImage" />
      </cc:Work>
    </rdf:RDF>
  </metadata>
  <defs
     id="defs376">
    <marker
       inkscape:stockid="Arrow1Send"
       orient="auto"
       refY="0"
       refX="0"
       id="Arrow1Send"
       style="overflow:visible">
      <path
         id="path3537"
         d="M 0,0 5,-5 -12.5,0 5,5 Z"
         style="fill-rule:evenodd;stroke:#000000;stroke-width:1pt;marker-start:none"
         transform="matrix(-0.2,0,0,-0.2,-1.2,0)" />
    </marker>
    <marker
       inkscape:stockid="Arrow1Lend"
       orient="auto"
       refY="0"
       refX="0"
       id="Arrow1Lend"
       style="overflow:visible">
      <path
         id="path3525"
         d="M 0,0 5,-5 -12.5,0 5,5 Z"
         style="fill-rule:evenodd;stroke:#000000;stroke-width:1pt;marker-start:none"
         transform="matrix(-0.8,0,0,-0.8,-10,0)" />
    </marker>
    <clipPath
       id="ID000000">
      <rect
         x="191.38901"
         y="31.5"
         width="196.823"
         height="342.29999"
         id="rect11" />
    </clipPath>
  </defs>
  <sodipodi:namedview
     inkscape:window-height="787"
     inkscape:window-width="1440"
     inkscape:pageshadow="2"
     inkscape:pageopacity="0.0"
     guidetolerance="10.0"
     gridtolerance="10.0"
     objecttolerance="10.0"
     borderopacity="1.0"
     bordercolor="#666666"
     pagecolor="#ffffff"
     id="base"
     inkscape:zoom="0.47847041"
     inkscape:cx="540.26329"
     inkscape:cy="561.16322"
     inkscape:window-x="0"
     inkscape:window-y="25"
     inkscape:current-layer="svg2"
     inkscape:pagecheckerboard="0"
     showgrid="false"
     inkscape:window-maximized="0"
     width="980px" />
  <desc
     id="desc4">Matlab Figure Converted by PLOT2SVG written by Juerg Schwizer</desc>
  <g
     id="g19"
     transform="matrix(4.5666404,0,0,4.5666404,-993.41416,-529.0962)" />
  <g
     id="g25"
     transform="matrix(4.5666404,0,0,4.5666404,-993.41416,-529.0962)" />
  <g
     id="g31"
     transform="matrix(4.5666404,0,0,4.5666404,-993.41416,-529.0962)" />
  <g
     id="g37"
     transform="matrix(4.5666404,0,0,4.5666404,-993.41416,-529.0962)" />
  <g
     id="g43"
     transform="matrix(4.5666404,0,0,4.5666404,-993.41416,-529.0962)" />
  <g
     id="g49"
     transform="matrix(4.5666404,0,0,4.5666404,-993.41416,-529.0962)" />
  <g
     id="g55"
     transform="matrix(4.5666404,0,0,4.5666404,-993.41416,-529.0962)" />
  <g
     id="g61"
     transform="matrix(4.5666404,0,0,4.5666404,-993.41416,-529.0962)" />
  <g
     id="g67"
     transform="matrix(4.5666404,0,0,4.5666404,-993.41416,-529.0962)" />
  <g
     id="g73"
     transform="matrix(4.5666404,0,0,4.5666404,-993.41416,-529.0962)" />
  <g
     id="g79"
     transform="matrix(4.5666404,0,0,4.5666404,-993.41416,-529.0962)" />
  <g
     id="g85"
     transform="matrix(4.5666404,0,0,4.5666404,-993.41416,-529.0962)" />
  <g
     id="g91"
     transform="matrix(4.5666404,0,0,4.5666404,-993.41416,-529.0962)" />
  <g
     id="g97"
     transform="matrix(4.5666404,0,0,4.5666404,-993.41416,-529.0962)" />
  <g
     id="g103"
     transform="matrix(4.5666404,0,0,4.5666404,-993.41416,-529.0962)" />
  <g
     id="g109"
     transform="matrix(4.5666404,0,0,4.5666404,-993.41416,-529.0962)" />
  <g
     id="g115"
     transform="matrix(4.5666404,0,0,4.5666404,-993.41416,-529.0962)" />
  <g
     id="g121"
     transform="matrix(4.5666404,0,0,4.5666404,-993.41416,-529.0962)" />
  <g
     id="g127"
     transform="matrix(4.5666404,0,0,4.5666404,-993.41416,-529.0962)" />
  <g
     id="g133"
     transform="matrix(4.5666404,0,0,4.5666404,-993.41416,-529.0962)" />
  <g
     id="g139"
     transform="matrix(4.5666404,0,0,4.5666404,-993.41416,-529.0962)" />
  <g
     id="g145"
     transform="matrix(4.5666404,0,0,4.5666404,-993.41416,-529.0962)" />
  <g
     id="g151"
     transform="matrix(4.5666404,0,0,4.5666404,-993.41416,-529.0962)" />
  <g
     id="g157"
     transform="matrix(4.5666404,0,0,4.5666404,-993.41416,-529.0962)" />
  <g
     id="g163"
     transform="matrix(4.5666404,0,0,4.5666404,-993.41416,-529.0962)" />
  <g
     id="g169"
     transform="matrix(4.5666404,0,0,4.5666404,-993.41416,-529.0962)" />
  <g
     id="g175"
     transform="matrix(4.5666404,0,0,4.5666404,-993.41416,-529.0962)" />
  <g
     id="g181"
     transform="matrix(4.5666404,0,0,4.5666404,-993.41416,-529.0962)" />
  <g
     id="g187"
     transform="matrix(4.5666404,0,0,4.5666404,-993.41416,-529.0962)" />
  <g
     id="g17422"
     transform="translate(-233.22854,36.825558)">
    <polyline
       style="fill:none;stroke:#0080cc;stroke-width:1.35066;stroke-miterlimit:4;stroke-dasharray:none"
       id="polyline17"
       points="276.964,202.650 276.964,196.538 276.964,190.425 276.964,184.312 276.964,178.200 276.964,172.088 276.964,165.975 276.964,159.863 276.964,153.750 276.964,147.638 276.964,141.525 276.964,135.413 276.964,129.300 276.964,123.188 276.964,117.075 "
       transform="matrix(4.5553224,0,0,4.1890797,-982.16319,-476.64988)" />
    <polyline
       style="fill:none;stroke:#0080cc;stroke-width:1.35066;stroke-miterlimit:4;stroke-dasharray:none"
       id="polyline23"
       points="276.964,202.650 283.076,202.650 289.189,202.650 295.301,202.650 301.414,202.650 307.526,202.650 313.639,202.650 319.751,202.650 325.864,202.650 331.976,202.650 338.089,202.650 344.201,202.650 350.314,202.650 356.426,202.650 362.539,202.650 "
       transform="matrix(4.5553224,0,0,4.1890797,-982.16319,-476.64988)" />
    <polyline
       style="fill:none;stroke:#0080cc;stroke-width:1.35066;stroke-miterlimit:4;stroke-dasharray:none"
       id="polyline29"
       points="283.076,202.650 283.076,196.538 283.076,190.425 283.076,184.312 283.076,178.200 283.076,172.088 283.076,165.975 283.076,159.863 283.076,153.750 283.076,147.638 283.076,141.525 283.076,135.413 283.076,129.300 283.076,123.188 283.076,117.075 "
       transform="matrix(4.5553224,0,0,4.1890797,-982.16319,-476.64988)" />
    <polyline
       style="fill:none;stroke:#0080cc;stroke-width:1.35066;stroke-miterlimit:4;stroke-dasharray:none"
       id="polyline35"
       points="276.964,196.538 283.076,196.538 289.189,196.538 295.301,196.538 301.414,196.538 307.526,196.538 313.639,196.538 319.751,196.538 325.864,196.538 331.976,196.538 338.089,196.538 344.201,196.538 350.314,196.538 356.426,196.538 362.539,196.538 "
       transform="matrix(4.5553224,0,0,4.1890797,-982.16319,-476.64988)" />
    <polyline
       style="fill:none;stroke:#0080cc;stroke-width:1.35066;stroke-miterlimit:4;stroke-dasharray:none"
       id="polyline41"
       points="289.189,202.650 289.189,196.538 289.189,190.425 289.189,184.312 289.189,178.200 289.189,172.088 289.189,165.975 289.189,159.863 289.189,153.750 289.189,147.638 289.189,141.525 289.189,135.413 289.189,129.300 289.189,123.188 289.189,117.075 "
       transform="matrix(4.5553224,0,0,4.1890797,-982.16319,-476.64988)" />
    <polyline
       style="fill:none;stroke:#0080cc;stroke-width:1.35066;stroke-miterlimit:4;stroke-dasharray:none"
       id="polyline47"
       points="276.964,190.425 283.076,190.425 289.189,190.425 295.301,190.425 301.414,190.425 307.526,190.425 313.639,190.425 319.751,190.425 325.864,190.425 331.976,190.425 338.089,190.425 344.201,190.425 350.314,190.425 356.426,190.425 362.539,190.425 "
       transform="matrix(4.5553224,0,0,4.1890797,-982.16319,-476.64988)" />
    <polyline
       style="fill:none;stroke:#0080cc;stroke-width:1.35066;stroke-miterlimit:4;stroke-dasharray:none"
       id="polyline53"
       points="295.301,202.650 295.301,196.538 295.301,190.425 295.301,184.312 295.301,178.200 295.301,172.088 295.301,165.975 295.301,159.863 295.301,153.750 295.301,147.638 295.301,141.525 295.301,135.413 295.301,129.300 295.301,123.188 295.301,117.075 "
       transform="matrix(4.5553224,0,0,4.1890797,-982.16319,-476.64988)" />
    <polyline
       style="fill:none;stroke:#0080cc;stroke-width:1.35066;stroke-miterlimit:4;stroke-dasharray:none"
       id="polyline59"
       points="276.964,184.312 283.076,184.312 289.189,184.312 295.301,184.312 301.414,184.312 307.526,184.312 313.639,184.312 319.751,184.312 325.864,184.312 331.976,184.312 338.089,184.312 344.201,184.312 350.314,184.312 356.426,184.312 362.539,184.312 "
       transform="matrix(4.5553224,0,0,4.1890797,-982.16319,-476.64988)" />
    <polyline
       style="fill:none;stroke:#0080cc;stroke-width:1.35066;stroke-miterlimit:4;stroke-dasharray:none"
       id="polyline65"
       points="301.414,202.650 301.414,196.538 301.414,190.425 301.414,184.312 301.414,178.200 301.414,172.088 301.414,165.975 301.414,159.863 301.414,153.750 301.414,147.638 301.414,141.525 301.414,135.413 301.414,129.300 301.414,123.188 301.414,117.075 "
       transform="matrix(4.5553224,0,0,4.1890797,-982.16319,-476.64988)" />
    <polyline
       style="fill:none;stroke:#0080cc;stroke-width:1.35066;stroke-miterlimit:4;stroke-dasharray:none"
       id="polyline71"
       points="276.964,178.200 283.076,178.200 289.189,178.200 295.301,178.200 301.414,178.200 307.526,178.200 313.639,178.200 319.751,178.200 325.864,178.200 331.976,178.200 338.089,178.200 344.201,178.200 350.314,178.200 356.426,178.200 362.539,178.200 "
       transform="matrix(4.5553224,0,0,4.1890797,-982.16319,-476.64988)" />
    <polyline
       style="fill:none;stroke:#0080cc;stroke-width:1.35066;stroke-miterlimit:4;stroke-dasharray:none"
       id="polyline77"
       points="307.526,202.650 307.526,196.538 307.526,190.425 307.526,184.312 307.526,178.200 307.526,172.088 307.526,165.975 307.526,159.863 307.526,153.750 307.526,147.638 307.526,141.525 307.526,135.413 307.526,129.300 307.526,123.188 307.526,117.075 "
       transform="matrix(4.5553224,0,0,4.1890797,-982.16319,-476.64988)" />
    <polyline
       style="fill:none;stroke:#0080cc;stroke-width:1.35066;stroke-miterlimit:4;stroke-dasharray:none"
       id="polyline83"
       points="276.964,172.088 283.076,172.088 289.189,172.088 295.301,172.088 301.414,172.088 307.526,172.088 313.639,172.088 319.751,172.088 325.864,172.088 331.976,172.088 338.089,172.088 344.201,172.088 350.314,172.088 356.426,172.088 362.539,172.088 "
       transform="matrix(4.5553224,0,0,4.1890797,-982.16319,-476.64988)" />
    <polyline
       style="fill:none;stroke:#0080cc;stroke-width:1.35066;stroke-miterlimit:4;stroke-dasharray:none"
       id="polyline89"
       points="313.639,202.650 313.639,196.538 313.639,190.425 313.639,184.312 313.639,178.200 313.639,172.088 313.639,165.975 313.639,159.863 313.639,153.750 313.639,147.638 313.639,141.525 313.639,135.413 313.639,129.300 313.639,123.188 313.639,117.075 "
       transform="matrix(4.5553224,0,0,4.1890797,-982.16319,-476.64988)" />
    <polyline
       style="fill:none;stroke:#0080cc;stroke-width:1.35066;stroke-miterlimit:4;stroke-dasharray:none"
       id="polyline95"
       points="276.964,165.975 283.076,165.975 289.189,165.975 295.301,165.975 301.414,165.975 307.526,165.975 313.639,165.975 319.751,165.975 325.864,165.975 331.976,165.975 338.089,165.975 344.201,165.975 350.314,165.975 356.426,165.975 362.539,165.975 "
       transform="matrix(4.5553224,0,0,4.1890797,-982.16319,-476.64988)" />
    <polyline
       style="fill:none;stroke:#0080cc;stroke-width:1.35066;stroke-miterlimit:4;stroke-dasharray:none"
       id="polyline101"
       points="319.751,202.650 319.751,196.538 319.751,190.425 319.751,184.312 319.751,178.200 319.751,172.088 319.751,165.975 319.751,159.863 319.751,153.750 319.751,147.638 319.751,141.525 319.751,135.413 319.751,129.300 319.751,123.188 319.751,117.075 "
       transform="matrix(4.5553224,0,0,4.1890797,-982.16319,-476.64988)" />
    <polyline
       style="fill:none;stroke:#0080cc;stroke-width:1.35066;stroke-miterlimit:4;stroke-dasharray:none"
       id="polyline107"
       points="276.964,159.863 283.076,159.863 289.189,159.863 295.301,159.863 301.414,159.863 307.526,159.863 313.639,159.863 319.751,159.863 325.864,159.863 331.976,159.863 338.089,159.863 344.201,159.863 350.314,159.863 356.426,159.863 362.539,159.863 "
       transform="matrix(4.5553224,0,0,4.1890797,-982.16319,-476.64988)" />
    <polyline
       style="fill:none;stroke:#0080cc;stroke-width:1.35066;stroke-miterlimit:4;stroke-dasharray:none"
       id="polyline113"
       points="325.864,202.650 325.864,196.538 325.864,190.425 325.864,184.312 325.864,178.200 325.864,172.088 325.864,165.975 325.864,159.863 325.864,153.750 325.864,147.638 325.864,141.525 325.864,135.413 325.864,129.300 325.864,123.188 325.864,117.075 "
       transform="matrix(4.5553224,0,0,4.1890797,-982.16319,-476.64988)" />
    <polyline
       style="fill:none;stroke:#0080cc;stroke-width:1.35066;stroke-miterlimit:4;stroke-dasharray:none"
       id="polyline119"
       points="276.964,153.750 283.076,153.750 289.189,153.750 295.301,153.750 301.414,153.750 307.526,153.750 313.639,153.750 319.751,153.750 325.864,153.750 331.976,153.750 338.089,153.750 344.201,153.750 350.314,153.750 356.426,153.750 362.539,153.750 "
       transform="matrix(4.5553224,0,0,4.1890797,-982.16319,-476.64988)" />
    <polyline
       style="fill:none;stroke:#0080cc;stroke-width:1.35066;stroke-miterlimit:4;stroke-dasharray:none"
       id="polyline125"
       points="331.976,202.650 331.976,196.538 331.976,190.425 331.976,184.312 331.976,178.200 331.976,172.088 331.976,165.975 331.976,159.863 331.976,153.750 331.976,147.638 331.976,141.525 331.976,135.413 331.976,129.300 331.976,123.188 331.976,117.075 "
       transform="matrix(4.5553224,0,0,4.1890797,-982.16319,-476.64988)" />
    <polyline
       style="fill:none;stroke:#0080cc;stroke-width:1.35066;stroke-miterlimit:4;stroke-dasharray:none"
       id="polyline131"
       points="276.964,147.638 283.076,147.638 289.189,147.638 295.301,147.638 301.414,147.638 307.526,147.638 313.639,147.638 319.751,147.638 325.864,147.638 331.976,147.638 338.089,147.638 344.201,147.638 350.314,147.638 356.426,147.638 362.539,147.638 "
       transform="matrix(4.5553224,0,0,4.1890797,-982.16319,-476.64988)" />
    <polyline
       style="fill:none;stroke:#0080cc;stroke-width:1.35066;stroke-miterlimit:4;stroke-dasharray:none"
       id="polyline137"
       points="338.089,202.650 338.089,196.538 338.089,190.425 338.089,184.312 338.089,178.200 338.089,172.088 338.089,165.975 338.089,159.863 338.089,153.750 338.089,147.638 338.089,141.525 338.089,135.413 338.089,129.300 338.089,123.188 338.089,117.075 "
       transform="matrix(4.5553224,0,0,4.1890797,-982.16319,-476.64988)" />
    <polyline
       style="fill:none;stroke:#0080cc;stroke-width:1.35066;stroke-miterlimit:4;stroke-dasharray:none"
       id="polyline143"
       points="276.964,141.525 283.076,141.525 289.189,141.525 295.301,141.525 301.414,141.525 307.526,141.525 313.639,141.525 319.751,141.525 325.864,141.525 331.976,141.525 338.089,141.525 344.201,141.525 350.314,141.525 356.426,141.525 362.539,141.525 "
       transform="matrix(4.5553224,0,0,4.1890797,-982.16319,-476.64988)" />
    <polyline
       style="fill:none;stroke:#0080cc;stroke-width:1.35066;stroke-miterlimit:4;stroke-dasharray:none"
       id="polyline149"
       points="344.201,202.650 344.201,196.538 344.201,190.425 344.201,184.312 344.201,178.200 344.201,172.088 344.201,165.975 344.201,159.863 344.201,153.750 344.201,147.638 344.201,141.525 344.201,135.413 344.201,129.300 344.201,123.188 344.201,117.075 "
       transform="matrix(4.5553224,0,0,4.1890797,-982.16319,-476.64988)" />
    <polyline
       style="fill:none;stroke:#0080cc;stroke-width:1.35066;stroke-miterlimit:4;stroke-dasharray:none"
       id="polyline155"
       points="276.964,135.413 283.076,135.413 289.189,135.413 295.301,135.413 301.414,135.413 307.526,135.413 313.639,135.413 319.751,135.413 325.864,135.413 331.976,135.413 338.089,135.413 344.201,135.413 350.314,135.413 356.426,135.413 362.539,135.413 "
       transform="matrix(4.5553224,0,0,4.1890797,-982.16319,-476.64988)" />
    <polyline
       style="fill:none;stroke:#0080cc;stroke-width:1.35066;stroke-miterlimit:4;stroke-dasharray:none"
       id="polyline161"
       points="350.314,202.650 350.314,196.538 350.314,190.425 350.314,184.312 350.314,178.200 350.314,172.088 350.314,165.975 350.314,159.863 350.314,153.750 350.314,147.638 350.314,141.525 350.314,135.413 350.314,129.300 350.314,123.188 350.314,117.075 "
       transform="matrix(4.5553224,0,0,4.1890797,-982.16319,-476.64988)" />
    <polyline
       style="fill:none;stroke:#0080cc;stroke-width:1.35066;stroke-miterlimit:4;stroke-dasharray:none"
       id="polyline167"
       points="276.964,129.300 283.076,129.300 289.189,129.300 295.301,129.300 301.414,129.300 307.526,129.300 313.639,129.300 319.751,129.300 325.864,129.300 331.976,129.300 338.089,129.300 344.201,129.300 350.314,129.300 356.426,129.300 362.539,129.300 "
       transform="matrix(4.5553224,0,0,4.1890797,-982.16319,-476.64988)" />
    <polyline
       style="fill:none;stroke:#0080cc;stroke-width:1.35066;stroke-miterlimit:4;stroke-dasharray:none"
       id="polyline173"
       points="356.426,202.650 356.426,196.538 356.426,190.425 356.426,184.312 356.426,178.200 356.426,172.088 356.426,165.975 356.426,159.863 356.426,153.750 356.426,147.638 356.426,141.525 356.426,135.413 356.426,129.300 356.426,123.188 356.426,117.075 "
       transform="matrix(4.5553224,0,0,4.1890797,-982.16319,-476.64988)" />
    <polyline
       style="fill:none;stroke:#0080cc;stroke-width:1.35066;stroke-miterlimit:4;stroke-dasharray:none"
       id="polyline179"
       points="276.964,123.188 283.076,123.188 289.189,123.188 295.301,123.188 301.414,123.188 307.526,123.188 313.639,123.188 319.751,123.188 325.864,123.188 331.976,123.188 338.089,123.188 344.201,123.188 350.314,123.188 356.426,123.188 362.539,123.188 "
       transform="matrix(4.5553224,0,0,4.1890797,-982.16319,-476.64988)" />
    <polyline
       style="fill:none;stroke:#0080cc;stroke-width:1.35066;stroke-miterlimit:4;stroke-dasharray:none"
       id="polyline185"
       points="362.539,202.650 362.539,196.538 362.539,190.425 362.539,184.312 362.539,178.200 362.539,172.088 362.539,165.975 362.539,159.863 362.539,153.750 362.539,147.638 362.539,141.525 362.539,135.413 362.539,129.300 362.539,123.188 362.539,117.075 "
       transform="matrix(4.5553224,0,0,4.1890797,-982.16319,-476.64988)" />
    <polyline
       style="fill:none;stroke:#0080cc;stroke-width:1.35066;stroke-miterlimit:4;stroke-dasharray:none"
       id="polyline191"
       points="276.964,117.075 283.076,117.075 289.189,117.075 295.301,117.075 301.414,117.075 307.526,117.075 313.639,117.075 319.751,117.075 325.864,117.075 331.976,117.075 338.089,117.075 344.201,117.075 350.314,117.075 356.426,117.075 362.539,117.075 "
       transform="matrix(4.5553224,0,0,4.1890797,-982.16319,-476.64988)" />
  </g>
  <g
     id="g193"
     transform="matrix(4.5666404,0,0,4.5666404,-993.41416,-529.0962)" />
  <g
     id="g199"
     transform="matrix(4.5666404,0,0,4.5666404,-993.41416,-529.0962)" />
  <g
     id="g205"
     transform="matrix(4.5666404,0,0,4.5666404,-993.41416,-529.0962)" />
  <g
     id="g211"
     transform="matrix(4.5666404,0,0,4.5666404,-993.41416,-529.0962)" />
  <g
     id="g217"
     transform="matrix(4.5666404,0,0,4.5666404,-993.41416,-529.0962)" />
  <g
     id="g223"
     transform="matrix(4.5666404,0,0,4.5666404,-993.41416,-529.0962)" />
  <g
     id="g229"
     transform="matrix(4.5666404,0,0,4.5666404,-993.41416,-529.0962)" />
  <g
     id="g235"
     transform="matrix(4.5666404,0,0,4.5666404,-993.41416,-529.0962)" />
  <g
     id="g241"
     transform="matrix(4.5666404,0,0,4.5666404,-993.41416,-529.0962)" />
  <g
     id="g247"
     transform="matrix(4.5666404,0,0,4.5666404,-993.41416,-529.0962)" />
  <g
     id="g253"
     transform="matrix(4.5666404,0,0,4.5666404,-993.41416,-529.0962)" />
  <g
     id="g259"
     transform="matrix(4.5666404,0,0,4.5666404,-993.41416,-529.0962)" />
  <g
     id="g265"
     transform="matrix(4.5666404,0,0,4.5666404,-993.41416,-529.0962)" />
  <g
     id="g271"
     transform="matrix(4.5666404,0,0,4.5666404,-993.41416,-529.0962)" />
  <g
     id="g277"
     transform="matrix(4.5666404,0,0,4.5666404,-993.41416,-529.0962)" />
  <g
     id="g283"
     transform="matrix(4.5666404,0,0,4.5666404,-993.41416,-529.0962)" />
  <g
     id="g289"
     transform="matrix(4.5666404,0,0,4.5666404,-993.41416,-529.0962)" />
  <g
     id="g295"
     transform="matrix(4.5666404,0,0,4.5666404,-993.41416,-529.0962)" />
  <g
     id="g301"
     transform="matrix(4.5666404,0,0,4.5666404,-993.41416,-529.0962)" />
  <g
     id="g307"
     transform="matrix(4.5666404,0,0,4.5666404,-993.41416,-529.0962)" />
  <g
     id="g313"
     transform="matrix(4.5666404,0,0,4.5666404,-993.41416,-529.0962)" />
  <g
     id="g319"
     transform="matrix(4.5666404,0,0,4.5666404,-993.41416,-529.0962)" />
  <g
     id="g325"
     transform="matrix(4.5666404,0,0,4.5666404,-993.41416,-529.0962)" />
  <g
     id="g331"
     transform="matrix(4.5666404,0,0,4.5666404,-993.41416,-529.0962)" />
  <g
     id="g337"
     transform="matrix(4.5666404,0,0,4.5666404,-993.41416,-529.0962)" />
  <g
     id="g343"
     transform="matrix(4.5666404,0,0,4.5666404,-993.41416,-529.0962)" />
  <g
     id="g349"
     transform="matrix(4.5666404,0,0,4.5666404,-993.41416,-529.0962)" />
  <g
     id="g355"
     transform="matrix(4.5666404,0,0,4.5666404,-993.41416,-529.0962)" />
  <g
     id="g361"
     transform="matrix(4.5666404,0,0,4.5666404,-993.41416,-529.0962)" />
  <g
     id="g367"
     transform="matrix(4.5666404,0,0,4.5666404,-993.41416,-529.0962)" />
  <g
     id="g17454"
     transform="translate(419.94568,-424.45606)">
    <polyline
       style="fill:none;stroke:#0080cc;stroke-width:1.35066;stroke-miterlimit:4;stroke-dasharray:none"
       id="polyline197"
       points="384.788,278.784 383.458,281.312 381.983,284.206 380.352,287.468 378.554,291.097 376.582,295.093 374.425,299.451 372.078,304.167 369.532,309.234 366.783,314.643 363.826,320.385 360.655,326.448 357.268,332.818 353.663,339.479 349.838,346.416 "
       transform="matrix(4.5553224,0,0,4.1890797,-982.16319,-476.64988)" />
    <polyline
       style="fill:none;stroke:#0080cc;stroke-width:1.35066;stroke-miterlimit:4;stroke-dasharray:none"
       id="polyline203"
       points="384.788,278.784 382.510,277.344 380.369,275.552 378.373,273.418 376.527,270.950 374.838,268.155 373.315,265.037 371.967,261.598 370.803,257.841 369.835,253.764 369.073,249.364 368.530,244.640 368.220,239.583 368.155,234.188 368.352,228.445 "
       transform="matrix(4.5553224,0,0,4.1890797,-982.16319,-476.64988)" />
    <polyline
       style="fill:none;stroke:#0080cc;stroke-width:1.35066;stroke-miterlimit:4;stroke-dasharray:none"
       id="polyline209"
       points="382.510,277.344 380.821,279.731 378.984,282.473 376.989,285.573 374.829,289.032 372.496,292.849 369.982,297.022 367.283,301.547 364.393,306.417 361.308,311.625 358.025,317.162 354.542,323.017 350.857,329.176 346.968,335.627 342.878,342.352 "
       transform="matrix(4.5553224,0,0,4.1890797,-982.16319,-476.64988)" />
    <polyline
       style="fill:none;stroke:#0080cc;stroke-width:1.35066;stroke-miterlimit:4;stroke-dasharray:none"
       id="polyline215"
       points="383.458,281.312 380.821,279.731 378.332,277.793 375.995,275.508 373.815,272.884 371.798,269.925 369.949,266.635 368.277,263.017 366.789,259.070 365.494,254.794 364.403,250.184 363.526,245.236 362.873,239.945 362.459,234.301 362.296,228.294 "
       transform="matrix(4.5553224,0,0,4.1890797,-982.16319,-476.64988)" />
    <polyline
       style="fill:none;stroke:#0080cc;stroke-width:1.35066;stroke-miterlimit:4;stroke-dasharray:none"
       id="polyline221"
       points="380.369,275.552 378.332,277.793 376.142,280.381 373.793,283.318 371.277,286.608 368.589,290.250 365.725,294.242 362.679,298.581 359.449,303.261 356.031,308.278 352.426,313.620 348.631,319.280 344.648,325.244 340.476,331.500 336.118,338.032 "
       transform="matrix(4.5553224,0,0,4.1890797,-982.16319,-476.64988)" />
    <polyline
       style="fill:none;stroke:#0080cc;stroke-width:1.35066;stroke-miterlimit:4;stroke-dasharray:none"
       id="polyline227"
       points="381.983,284.206 378.984,282.473 376.142,280.381 373.460,277.938 370.941,275.152 368.588,272.026 366.407,268.563 364.402,264.764 362.581,260.629 360.951,256.156 359.520,251.341 358.296,246.177 357.290,240.658 356.512,234.775 355.974,228.517 "
       transform="matrix(4.5553224,0,0,4.1890797,-982.16319,-476.64988)" />
    <polyline
       style="fill:none;stroke:#0080cc;stroke-width:1.35066;stroke-miterlimit:4;stroke-dasharray:none"
       id="polyline233"
       points="378.373,273.418 375.995,275.508 373.460,277.938 370.762,280.712 367.897,283.832 364.860,287.300 361.648,291.114 358.259,295.272 354.691,299.771 350.943,304.603 347.016,309.762 342.910,315.238 338.627,321.020 334.170,327.096 329.543,333.451 "
       transform="matrix(4.5553224,0,0,4.1890797,-982.16319,-476.64988)" />
    <polyline
       style="fill:none;stroke:#0080cc;stroke-width:1.35066;stroke-miterlimit:4;stroke-dasharray:none"
       id="polyline239"
       points="380.352,287.468 376.989,285.573 373.793,283.318 370.762,280.712 367.900,277.759 365.207,274.462 362.687,270.825 360.345,266.847 358.183,262.527 356.209,257.861 354.428,252.845 352.849,247.473 351.478,241.736 350.325,235.625 349.400,229.127 "
       transform="matrix(4.5553224,0,0,4.1890797,-982.16319,-476.64988)" />
    <polyline
       style="fill:none;stroke:#0080cc;stroke-width:1.35066;stroke-miterlimit:4;stroke-dasharray:none"
       id="polyline245"
       points="376.527,270.950 373.815,272.884 370.941,275.152 367.900,277.759 364.689,280.709 361.306,284.003 357.750,287.642 354.019,291.624 350.113,295.946 346.035,300.602 341.784,305.586 337.365,310.890 332.781,316.503 328.035,322.413 323.134,328.607 "
       transform="matrix(4.5553224,0,0,4.1890797,-982.16319,-476.64988)" />
    <polyline
       style="fill:none;stroke:#0080cc;stroke-width:1.35066;stroke-miterlimit:4;stroke-dasharray:none"
       id="polyline251"
       points="378.554,291.097 374.829,289.032 371.277,286.608 367.897,283.832 364.689,280.709 361.653,277.240 358.791,273.428 356.105,269.272 353.598,264.769 351.274,259.916 349.137,254.706 347.193,249.133 345.448,243.188 343.911,236.860 342.588,230.136 "
       transform="matrix(4.5553224,0,0,4.1890797,-982.16319,-476.64988)" />
    <polyline
       style="fill:none;stroke:#0080cc;stroke-width:1.35066;stroke-miterlimit:4;stroke-dasharray:none"
       id="polyline257"
       points="374.838,268.155 371.798,269.925 368.588,272.026 365.207,274.462 361.653,277.240 357.926,280.361 354.026,283.827 349.953,287.636 345.709,291.786 341.298,296.273 336.722,301.090 331.986,306.232 327.095,311.687 322.056,317.446 316.875,323.495 "
       transform="matrix(4.5553224,0,0,4.1890797,-982.16319,-476.64988)" />
    <polyline
       style="fill:none;stroke:#0080cc;stroke-width:1.35066;stroke-miterlimit:4;stroke-dasharray:none"
       id="polyline263"
       points="376.582,295.093 372.496,292.849 368.589,290.250 364.860,287.300 361.306,284.003 357.926,280.361 354.720,276.375 351.687,272.043 348.830,267.361 346.151,262.326 343.652,256.930 341.337,251.166 339.212,245.023 337.282,238.491 335.552,231.554 "
       transform="matrix(4.5553224,0,0,4.1890797,-982.16319,-476.64988)" />
    <polyline
       style="fill:none;stroke:#0080cc;stroke-width:1.35066;stroke-miterlimit:4;stroke-dasharray:none"
       id="polyline269"
       points="373.315,265.037 369.949,266.635 366.407,268.563 362.687,270.825 358.791,273.428 354.720,276.375 350.474,279.668 346.058,283.306 341.473,287.289 336.725,291.612 331.820,296.271 326.762,301.259 321.559,306.568 316.218,312.187 310.749,318.105 "
       transform="matrix(4.5553224,0,0,4.1890797,-982.16319,-476.64988)" />
    <polyline
       style="fill:none;stroke:#0080cc;stroke-width:1.35066;stroke-miterlimit:4;stroke-dasharray:none"
       id="polyline275"
       points="374.425,299.451 369.982,297.022 365.725,294.242 361.648,291.114 357.750,287.642 354.026,283.827 350.474,279.668 347.094,275.162 343.885,270.307 340.848,265.096 337.983,259.523 335.293,253.577 332.781,247.248 330.451,240.524 328.308,233.391 "
       transform="matrix(4.5553224,0,0,4.1890797,-982.16319,-476.64988)" />
    <polyline
       style="fill:none;stroke:#0080cc;stroke-width:1.35066;stroke-miterlimit:4;stroke-dasharray:none"
       id="polyline281"
       points="371.967,261.598 368.277,263.017 364.402,264.764 360.345,266.847 356.105,269.272 351.687,272.043 347.094,275.162 342.330,278.632 337.401,282.450 332.311,286.615 327.070,291.122 321.683,295.966 316.160,301.138 310.510,306.630 304.744,312.431 "
       transform="matrix(4.5553224,0,0,4.1890797,-982.16319,-476.64988)" />
    <polyline
       style="fill:none;stroke:#0080cc;stroke-width:1.35066;stroke-miterlimit:4;stroke-dasharray:none"
       id="polyline287"
       points="372.078,304.167 367.283,301.547 362.679,298.581 358.259,295.272 354.019,291.624 349.953,287.636 346.058,283.306 342.330,278.632 338.769,273.609 335.372,268.230 332.139,262.487 329.071,256.370 326.168,249.868 323.435,242.967 320.872,235.653 "
       transform="matrix(4.5553224,0,0,4.1890797,-982.16319,-476.64988)" />
    <polyline
       style="fill:none;stroke:#0080cc;stroke-width:1.35066;stroke-miterlimit:4;stroke-dasharray:none"
       id="polyline293"
       points="370.803,257.841 366.789,259.070 362.581,260.629 358.183,262.527 353.598,264.769 348.830,267.361 343.885,270.307 338.769,273.609 333.488,277.265 328.050,281.276 322.464,285.637 316.740,290.343 310.888,295.389 304.918,300.764 298.844,306.460 "
       transform="matrix(4.5553224,0,0,4.1890797,-982.16319,-476.64988)" />
    <polyline
       style="fill:none;stroke:#0080cc;stroke-width:1.35066;stroke-miterlimit:4;stroke-dasharray:none"
       id="polyline299"
       points="369.532,309.234 364.393,306.417 359.449,303.261 354.691,299.771 350.113,295.946 345.709,291.786 341.473,287.289 337.401,282.450 333.488,277.265 329.732,271.726 326.130,265.824 322.682,259.548 319.388,252.886 316.247,245.823 313.261,238.344 "
       transform="matrix(4.5553224,0,0,4.1890797,-982.16319,-476.64988)" />
    <polyline
       style="fill:none;stroke:#0080cc;stroke-width:1.35066;stroke-miterlimit:4;stroke-dasharray:none"
       id="polyline305"
       points="369.835,253.764 365.494,254.794 360.951,256.156 356.209,257.861 351.274,259.916 346.151,262.326 340.848,265.096 335.372,268.230 329.732,271.726 323.937,275.586 317.998,279.806 311.926,284.382 305.733,289.308 299.432,294.578 293.036,300.180 "
       transform="matrix(4.5553224,0,0,4.1890797,-982.16319,-476.64988)" />
    <polyline
       style="fill:none;stroke:#0080cc;stroke-width:1.35066;stroke-miterlimit:4;stroke-dasharray:none"
       id="polyline311"
       points="366.783,314.643 361.308,311.625 356.031,308.278 350.943,304.603 346.035,300.602 341.298,296.273 336.725,291.612 332.311,286.615 328.050,281.276 323.937,275.586 319.968,269.535 316.141,263.112 312.453,256.304 308.904,249.095 305.492,241.469 "
       transform="matrix(4.5553224,0,0,4.1890797,-982.16319,-476.64988)" />
    <polyline
       style="fill:none;stroke:#0080cc;stroke-width:1.35066;stroke-miterlimit:4;stroke-dasharray:none"
       id="polyline317"
       points="369.073,249.364 364.403,250.184 359.520,251.341 354.428,252.845 349.137,254.706 343.652,256.930 337.983,259.523 332.139,262.487 326.130,265.824 319.968,269.535 313.665,273.618 307.233,278.070 300.687,282.885 294.040,288.057 287.308,293.578 "
       transform="matrix(4.5553224,0,0,4.1890797,-982.16319,-476.64988)" />
    <polyline
       style="fill:none;stroke:#0080cc;stroke-width:1.35066;stroke-miterlimit:4;stroke-dasharray:none"
       id="polyline323"
       points="363.826,320.385 358.025,317.162 352.426,313.620 347.016,309.762 341.784,305.586 336.722,301.090 331.820,296.271 327.070,291.122 322.464,285.637 317.998,279.806 313.665,273.618 309.461,267.062 305.381,260.123 301.423,252.784 297.586,245.030 "
       transform="matrix(4.5553224,0,0,4.1890797,-982.16319,-476.64988)" />
    <polyline
       style="fill:none;stroke:#0080cc;stroke-width:1.35066;stroke-miterlimit:4;stroke-dasharray:none"
       id="polyline329"
       points="368.530,244.640 363.526,245.236 358.296,246.177 352.849,247.473 347.193,249.133 341.337,251.166 335.293,253.577 329.071,256.370 322.682,259.548 316.141,263.112 309.461,267.062 302.655,271.394 295.741,276.105 288.733,281.188 281.649,286.637 "
       transform="matrix(4.5553224,0,0,4.1890797,-982.16319,-476.64988)" />
    <polyline
       style="fill:none;stroke:#0080cc;stroke-width:1.35066;stroke-miterlimit:4;stroke-dasharray:none"
       id="polyline335"
       points="360.655,326.448 354.542,323.017 348.631,319.280 342.910,315.238 337.365,310.890 331.986,306.232 326.762,301.259 321.683,295.966 316.740,290.343 311.926,284.382 307.233,278.070 302.655,271.394 298.187,264.340 293.823,256.889 289.561,249.025 "
       transform="matrix(4.5553224,0,0,4.1890797,-982.16319,-476.64988)" />
    <polyline
       style="fill:none;stroke:#0080cc;stroke-width:1.35066;stroke-miterlimit:4;stroke-dasharray:none"
       id="polyline341"
       points="368.220,239.583 362.873,239.945 357.290,240.658 351.478,241.736 345.448,243.188 339.212,245.023 332.781,247.248 326.168,249.868 319.388,252.886 312.453,256.304 305.381,260.123 298.187,264.340 290.888,268.952 283.502,273.954 276.048,279.340 "
       transform="matrix(4.5553224,0,0,4.1890797,-982.16319,-476.64988)" />
    <polyline
       style="fill:none;stroke:#0080cc;stroke-width:1.35066;stroke-miterlimit:4;stroke-dasharray:none"
       id="polyline347"
       points="357.268,332.818 350.857,329.176 344.648,325.244 338.627,321.020 332.781,316.503 327.095,311.687 321.559,306.568 316.160,301.138 310.888,295.389 305.733,289.308 300.687,282.885 295.741,276.105 290.888,268.952 286.122,261.408 281.438,253.455 "
       transform="matrix(4.5553224,0,0,4.1890797,-982.16319,-476.64988)" />
    <polyline
       style="fill:none;stroke:#0080cc;stroke-width:1.35066;stroke-miterlimit:4;stroke-dasharray:none"
       id="polyline353"
       points="368.155,234.188 362.459,234.301 356.512,234.775 350.325,235.625 343.911,236.860 337.282,238.491 330.451,240.524 323.435,242.967 316.247,245.823 308.904,249.095 301.423,252.784 293.823,256.889 286.122,261.408 278.339,266.336 270.496,271.668 "
       transform="matrix(4.5553224,0,0,4.1890797,-982.16319,-476.64988)" />
    <polyline
       style="fill:none;stroke:#0080cc;stroke-width:1.35066;stroke-miterlimit:4;stroke-dasharray:none"
       id="polyline359"
       points="353.663,339.479 346.968,335.627 340.476,331.500 334.170,327.096 328.035,322.413 322.056,317.446 316.218,312.187 310.510,306.630 304.918,300.764 299.432,294.578 294.040,288.057 288.733,281.188 283.502,273.954 278.339,266.336 273.238,258.314 "
       transform="matrix(4.5553224,0,0,4.1890797,-982.16319,-476.64988)" />
    <polyline
       style="fill:none;stroke:#0080cc;stroke-width:1.35066;stroke-miterlimit:4;stroke-dasharray:none"
       id="polyline365"
       points="368.352,228.445 362.296,228.294 355.974,228.517 349.400,229.127 342.588,230.136 335.552,231.554 328.308,233.391 320.872,235.653 313.261,238.344 305.492,241.469 297.586,245.030 289.561,249.025 281.438,253.455 273.238,258.314 264.983,263.599 "
       transform="matrix(4.5553224,0,0,4.1890797,-982.16319,-476.64988)" />
    <polyline
       style="fill:none;stroke:#0080cc;stroke-width:1.35066;stroke-miterlimit:4;stroke-dasharray:none"
       id="polyline371"
       points="349.838,346.416 342.878,342.352 336.118,338.032 329.543,333.451 323.134,328.607 316.875,323.495 310.749,318.105 304.744,312.431 298.844,306.460 293.036,300.180 287.308,293.578 281.649,286.637 276.048,279.340 270.496,271.668 264.983,263.599 "
       transform="matrix(4.5553224,0,0,4.1890797,-982.16319,-476.64988)" />
  </g>
  <g
     id="g373"
     transform="matrix(4.5666404,0,0,4.5666404,-993.41416,-529.0962)" />
  <g
     id="g3451"
     style="stroke:#c44b7a;stroke-opacity:1"
     transform="matrix(-0.20996686,-0.97517345,0.89677062,-0.19308576,159.28364,575.83546)">
    <path
       sodipodi:nodetypes="cs"
       id="path2548"
       d="m 179.719,429.28738 c -23.58009,33.4606 -40.3943,65.28603 -31.20525,124.99326"
       style="fill:none;fill-rule:evenodd;stroke:#dd0f23;stroke-width:8.76192;stroke-linecap:butt;stroke-linejoin:miter;stroke-miterlimit:4;stroke-dasharray:none;stroke-opacity:1;marker-end:none" />
    <g
       transform="rotate(3.5611188,117.04241,517.41702)"
       id="g2474"
       style="fill:#dd0f23;fill-opacity:1;stroke:#dd0f23;stroke-opacity:1">
      <path
         id="path2480"
         d="M 147.80099,533.86428 130.222,520.9745 l 23.44049,50.97574 7.02828,-55.66495 z"
         style="fill:#dd0f23;fill-opacity:1;fill-rule:evenodd;stroke:#dd0f23;stroke-width:2.7381;stroke-miterlimit:4;stroke-dasharray:none;stroke-opacity:1;marker-start:none" />
    </g>
  </g>
  <g
     transform="matrix(5.5148588,0,0,5.5148588,324.70764,462.71682)"
     ns1:version="1.5.0"
     ns1:texconverter="pdflatex"
     ns1:pdfconverter="inkscape"
     ns1:text="Conformal Mapping\n"
     ns1:preamble="default_packages.tex"
     ns1:scale="0.2575975200215374"
     ns1:alignment="middle center"
     ns1:stroke-to-path="0"
     ns1:inkscapeversion="0.45.1"
     ns1:jacobian_sqrt="0.343463"
     id="g17064">
    <defs
       id="id-4bd745c2-aabf-4c92-b6a5-87aefd607880">
      <g
         id="id-e474cd98-6903-4984-ab62-74ea200ec9d5">
        <symbol
           overflow="visible"
           id="id-42608673-8727-4753-aed4-beee426679ec">
          <path
             style="stroke:none;stroke-width:0"
             d=""
             id="id-6784cd68-8c29-4f59-9105-594f0f5c7787" />
        </symbol>
        <symbol
           overflow="visible"
           id="id-54607d6c-395c-483f-a66b-8b26f6c26361">
          <path
             style="stroke:none;stroke-width:0"
             d="m 0.5625,-3.40625 c 0,2.0625 1.609375,3.625 3.46875,3.625 1.625,0 2.59375,-1.390625 2.59375,-2.546875 C 6.625,-2.421875 6.625,-2.5 6.5,-2.5 6.390625,-2.5 6.390625,-2.4375 6.375,-2.328125 6.296875,-0.90625 5.234375,-0.09375 4.140625,-0.09375 c -0.609375,0 -2.5625,-0.328125 -2.5625,-3.3125 0,-2.96875 1.953125,-3.3125 2.5625,-3.3125 1.078125,0 1.96875,0.90625 2.171875,2.359375 C 6.328125,-4.21875 6.328125,-4.1875 6.46875,-4.1875 6.625,-4.1875 6.625,-4.21875 6.625,-4.421875 V -6.78125 c 0,-0.171875 0,-0.25 -0.109375,-0.25 -0.03125,0 -0.078125,0 -0.15625,0.125 l -0.5,0.734375 C 5.5,-6.53125 4.984375,-7.03125 4.03125,-7.03125 c -1.875,0 -3.46875,1.59375 -3.46875,3.625 z m 0,0"
             id="id-0d909d77-a8b6-448e-b46b-ea5549648ff5" />
        </symbol>
        <symbol
           overflow="visible"
           id="id-9b08e140-ae0f-4a06-a874-b0c228f975c8">
          <path
             style="stroke:none;stroke-width:0"
             d="M 4.6875,-2.140625 C 4.6875,-3.40625 3.703125,-4.46875 2.5,-4.46875 c -1.25,0 -2.21875,1.09375 -2.21875,2.328125 0,1.296875 1.03125,2.25 2.203125,2.25 1.203125,0 2.203125,-0.984375 2.203125,-2.25 z m -2.1875,2 c -0.4375,0 -0.875,-0.203125 -1.140625,-0.671875 -0.25,-0.4375 -0.25,-1.046875 -0.25,-1.40625 0,-0.390625 0,-0.921875 0.234375,-1.359375 C 1.609375,-4.03125 2.078125,-4.25 2.484375,-4.25 c 0.4375,0 0.859375,0.21875 1.125,0.65625 0.265625,0.421875 0.265625,1 0.265625,1.375 0,0.359375 0,0.90625 -0.21875,1.34375 C 3.421875,-0.421875 2.984375,-0.140625 2.5,-0.140625 Z m 0,0"
             id="id-4bc1f978-c691-4aa7-bd31-e6121c9e2b35" />
        </symbol>
        <symbol
           overflow="visible"
           id="id-2e63b255-ba56-4638-ac12-bdb92a25f461">
          <path
             style="stroke:none;stroke-width:0"
             d="M 1.09375,-3.421875 V -0.75 c 0,0.4375 -0.109375,0.4375 -0.78125,0.4375 V 0 c 0.359375,-0.015625 0.859375,-0.03125 1.140625,-0.03125 0.25,0 0.765625,0.015625 1.109375,0.03125 v -0.3125 c -0.671875,0 -0.78125,0 -0.78125,-0.4375 V -2.59375 C 1.78125,-3.625 2.5,-4.1875 3.125,-4.1875 c 0.640625,0 0.75,0.53125 0.75,1.109375 V -0.75 c 0,0.4375 -0.109375,0.4375 -0.78125,0.4375 V 0 c 0.34375,-0.015625 0.859375,-0.03125 1.125,-0.03125 0.25,0 0.78125,0.015625 1.109375,0.03125 v -0.3125 c -0.515625,0 -0.765625,0 -0.765625,-0.296875 v -1.90625 c 0,-0.859375 0,-1.15625 -0.3125,-1.515625 -0.140625,-0.171875 -0.46875,-0.375 -1.046875,-0.375 C 2.46875,-4.40625 2,-3.984375 1.71875,-3.359375 V -4.40625 L 0.3125,-4.296875 v 0.3125 c 0.703125,0 0.78125,0.0625 0.78125,0.5625 z m 0,0"
             id="id-372d334a-9298-4a04-9e2b-4b2356804dcc" />
        </symbol>
        <symbol
           overflow="visible"
           id="id-c36c6a26-e7de-420d-adf5-2431b395ff72">
          <path
             style="stroke:none;stroke-width:0"
             d="m 1.75,-4.296875 v -1.15625 c 0,-0.875 0.46875,-1.359375 0.90625,-1.359375 0.03125,0 0.1875,0 0.328125,0.078125 C 2.875,-6.703125 2.6875,-6.5625 2.6875,-6.3125 c 0,0.21875 0.15625,0.421875 0.4375,0.421875 0.28125,0 0.4375,-0.203125 0.4375,-0.4375 0,-0.375 -0.375,-0.703125 -0.90625,-0.703125 -0.6875,0 -1.546875,0.53125 -1.546875,1.59375 v 1.140625 h -0.78125 v 0.3125 h 0.78125 V -0.75 C 1.109375,-0.3125 1,-0.3125 0.34375,-0.3125 V 0 c 0.390625,-0.015625 0.859375,-0.03125 1.125,-0.03125 0.40625,0 0.875,0 1.265625,0.03125 V -0.3125 H 2.53125 c -0.734375,0 -0.75,-0.109375 -0.75,-0.46875 v -3.203125 h 1.125 v -0.3125 z m 0,0"
             id="id-acba6425-44a3-45d5-9bbd-9f0d3d054f27" />
        </symbol>
        <symbol
           overflow="visible"
           id="id-53fed0de-ee4f-4be8-bf70-8cc718091a60">
          <path
             style="stroke:none;stroke-width:0"
             d="M 1.671875,-3.3125 V -4.40625 L 0.28125,-4.296875 v 0.3125 c 0.703125,0 0.78125,0.0625 0.78125,0.5625 V -0.75 c 0,0.4375 -0.109375,0.4375 -0.78125,0.4375 V 0 c 0.390625,-0.015625 0.859375,-0.03125 1.140625,-0.03125 0.390625,0 0.859375,0 1.265625,0.03125 V -0.3125 H 2.46875 c -0.734375,0 -0.75,-0.109375 -0.75,-0.46875 V -2.3125 c 0,-0.984375 0.421875,-1.875 1.171875,-1.875 0.0625,0 0.09375,0 0.109375,0.015625 -0.03125,0 -0.234375,0.125 -0.234375,0.390625 0,0.265625 0.21875,0.421875 0.4375,0.421875 0.171875,0 0.421875,-0.125 0.421875,-0.4375 0,-0.3125 -0.3125,-0.609375 -0.734375,-0.609375 -0.734375,0 -1.09375,0.671875 -1.21875,1.09375 z m 0,0"
             id="id-674acd85-3a60-4a68-b283-61149c5718ad" />
        </symbol>
        <symbol
           overflow="visible"
           id="id-57d000bc-ad1d-4e41-8837-119ca5ab46b4">
          <path
             style="stroke:none;stroke-width:0"
             d="M 1.09375,-3.421875 V -0.75 c 0,0.4375 -0.109375,0.4375 -0.78125,0.4375 V 0 c 0.359375,-0.015625 0.859375,-0.03125 1.140625,-0.03125 0.25,0 0.765625,0.015625 1.109375,0.03125 v -0.3125 c -0.671875,0 -0.78125,0 -0.78125,-0.4375 V -2.59375 C 1.78125,-3.625 2.5,-4.1875 3.125,-4.1875 c 0.640625,0 0.75,0.53125 0.75,1.109375 V -0.75 c 0,0.4375 -0.109375,0.4375 -0.78125,0.4375 V 0 c 0.34375,-0.015625 0.859375,-0.03125 1.125,-0.03125 0.25,0 0.78125,0.015625 1.109375,0.03125 v -0.3125 c -0.65625,0 -0.765625,0 -0.765625,-0.4375 v -1.84375 c 0,-1.03125 0.703125,-1.59375 1.34375,-1.59375 0.625,0 0.734375,0.53125 0.734375,1.109375 V -0.75 c 0,0.4375 -0.109375,0.4375 -0.78125,0.4375 V 0 c 0.34375,-0.015625 0.859375,-0.03125 1.125,-0.03125 0.265625,0 0.78125,0.015625 1.125,0.03125 v -0.3125 c -0.515625,0 -0.765625,0 -0.78125,-0.296875 v -1.90625 c 0,-0.859375 0,-1.15625 -0.3125,-1.515625 -0.140625,-0.171875 -0.46875,-0.375 -1.046875,-0.375 -0.828125,0 -1.28125,0.59375 -1.4375,0.984375 C 4.390625,-4.296875 3.65625,-4.40625 3.203125,-4.40625 2.46875,-4.40625 2,-3.984375 1.71875,-3.359375 V -4.40625 L 0.3125,-4.296875 v 0.3125 c 0.703125,0 0.78125,0.0625 0.78125,0.5625 z m 0,0"
             id="id-48368e81-cee6-4404-8bc4-526c42354f90" />
        </symbol>
        <symbol
           overflow="visible"
           id="id-3c54de34-096e-4af0-beae-432b85419794">
          <path
             style="stroke:none;stroke-width:0"
             d="m 3.3125,-0.75 c 0.046875,0.390625 0.3125,0.8125 0.78125,0.8125 0.21875,0 0.828125,-0.140625 0.828125,-0.953125 v -0.5625 h -0.25 v 0.5625 c 0,0.578125 -0.25,0.640625 -0.359375,0.640625 -0.328125,0 -0.375,-0.453125 -0.375,-0.5 v -1.984375 c 0,-0.421875 0,-0.8125 -0.359375,-1.1875 C 3.1875,-4.3125 2.6875,-4.46875 2.21875,-4.46875 c -0.828125,0 -1.515625,0.46875 -1.515625,1.125 0,0.296875 0.203125,0.46875 0.46875,0.46875 0.28125,0 0.453125,-0.203125 0.453125,-0.453125 0,-0.125 -0.046875,-0.453125 -0.515625,-0.453125 C 1.390625,-4.140625 1.875,-4.25 2.1875,-4.25 c 0.5,0 1.0625,0.390625 1.0625,1.28125 v 0.359375 c -0.515625,0.03125 -1.203125,0.0625 -1.828125,0.359375 -0.75,0.34375 -1,0.859375 -1,1.296875 0,0.8125 0.96875,1.0625 1.59375,1.0625 0.65625,0 1.109375,-0.40625 1.296875,-0.859375 z M 3.25,-2.390625 v 1 c 0,0.9375 -0.71875,1.28125 -1.171875,1.28125 -0.484375,0 -0.890625,-0.34375 -0.890625,-0.84375 0,-0.546875 0.421875,-1.375 2.0625,-1.4375 z m 0,0"
             id="id-e9c950c2-3407-40af-be29-56e81b3a071d" />
        </symbol>
        <symbol
           overflow="visible"
           id="id-c2b25b9c-b16a-46dd-9609-3b7afb15b773">
          <path
             style="stroke:none;stroke-width:0"
             d="M 1.765625,-6.921875 0.328125,-6.8125 V -6.5 c 0.703125,0 0.78125,0.0625 0.78125,0.5625 V -0.75 c 0,0.4375 -0.109375,0.4375 -0.78125,0.4375 V 0 C 0.65625,-0.015625 1.1875,-0.03125 1.4375,-0.03125 c 0.25,0 0.734375,0.015625 1.109375,0.03125 v -0.3125 c -0.671875,0 -0.78125,0 -0.78125,-0.4375 z m 0,0"
             id="id-be1ace5b-6dee-4673-96b9-6b24cee02d15" />
        </symbol>
        <symbol
           overflow="visible"
           id="id-11ccc699-9346-40c9-a9fa-ec2001cf2033">
          <path
             style="stroke:none;stroke-width:0"
             d="M 2.40625,-6.59375 C 2.3125,-6.8125 2.28125,-6.8125 2.046875,-6.8125 H 0.375 V -6.5 h 0.234375 c 0.765625,0 0.78125,0.109375 0.78125,0.46875 v 4.984375 c 0,0.265625 0,0.734375 -1.015625,0.734375 V 0 c 0.34375,-0.015625 0.828125,-0.03125 1.15625,-0.03125 0.328125,0 0.828125,0.015625 1.171875,0.03125 v -0.3125 c -1.03125,0 -1.03125,-0.46875 -1.03125,-0.734375 v -5.375 H 1.6875 L 4.09375,-0.21875 C 4.140625,-0.09375 4.1875,0 4.28125,0 4.390625,0 4.421875,-0.078125 4.46875,-0.1875 L 6.921875,-6.5 v 5.71875 c 0,0.359375 -0.015625,0.46875 -0.78125,0.46875 H 5.90625 V 0 c 0.359375,-0.03125 1.046875,-0.03125 1.4375,-0.03125 0.375,0 1.046875,0 1.421875,0.03125 v -0.3125 h -0.25 c -0.765625,0 -0.78125,-0.109375 -0.78125,-0.46875 v -5.25 C 7.734375,-6.390625 7.75,-6.5 8.515625,-6.5 h 0.25 v -0.3125 h -1.6875 C 6.8125,-6.8125 6.8125,-6.796875 6.75,-6.625 L 4.5625,-1 Z m 0,0"
             id="id-8839ecce-9f02-4b32-9c44-e69b8ac06ca1" />
        </symbol>
        <symbol
           overflow="visible"
           id="id-28decc5d-57d5-4a04-bf9f-012ed23d4c62">
          <path
             style="stroke:none;stroke-width:0"
             d="m 1.71875,-3.75 v -0.65625 l -1.4375,0.109375 v 0.3125 c 0.703125,0 0.78125,0.0625 0.78125,0.5 v 4.65625 C 1.0625,1.625 0.953125,1.625 0.28125,1.625 V 1.9375 C 0.625,1.921875 1.140625,1.90625 1.390625,1.90625 c 0.28125,0 0.78125,0.015625 1.125,0.03125 V 1.625 C 1.859375,1.625 1.75,1.625 1.75,1.171875 V -0.59375 c 0.046875,0.171875 0.46875,0.703125 1.21875,0.703125 1.1875,0 2.21875,-0.984375 2.21875,-2.265625 0,-1.265625 -0.953125,-2.25 -2.078125,-2.25 -0.78125,0 -1.203125,0.4375 -1.390625,0.65625 z M 1.75,-1.140625 v -2.21875 C 2.03125,-3.875 2.515625,-4.15625 3.03125,-4.15625 c 0.734375,0 1.328125,0.875 1.328125,2 0,1.203125 -0.6875,2.046875 -1.421875,2.046875 -0.40625,0 -0.78125,-0.203125 -1.046875,-0.609375 C 1.75,-0.921875 1.75,-0.9375 1.75,-1.140625 Z m 0,0"
             id="id-8f61a9a0-4644-46e2-9d88-cb7c653a12ca" />
        </symbol>
        <symbol
           overflow="visible"
           id="id-da77a64e-a909-4e65-afc0-851cc05c155e">
          <path
             style="stroke:none;stroke-width:0"
             d="M 1.765625,-4.40625 0.375,-4.296875 v 0.3125 c 0.640625,0 0.734375,0.0625 0.734375,0.546875 V -0.75 c 0,0.4375 -0.109375,0.4375 -0.78125,0.4375 V 0 C 0.640625,-0.015625 1.1875,-0.03125 1.421875,-0.03125 1.78125,-0.03125 2.125,-0.015625 2.46875,0 v -0.3125 c -0.671875,0 -0.703125,-0.046875 -0.703125,-0.4375 z m 0.03125,-1.734375 c 0,-0.3125 -0.234375,-0.53125 -0.515625,-0.53125 -0.3125,0 -0.53125,0.265625 -0.53125,0.53125 0,0.265625 0.21875,0.53125 0.53125,0.53125 0.28125,0 0.515625,-0.21875 0.515625,-0.53125 z m 0,0"
             id="id-830704a5-1b2f-4756-9fad-21cad0f7c0b6" />
        </symbol>
        <symbol
           overflow="visible"
           id="id-a87c026c-14d8-4eb7-911b-123cefbdd4cc">
          <path
             style="stroke:none;stroke-width:0"
             d="m 2.21875,-1.71875 c -0.875,0 -0.875,-1 -0.875,-1.21875 0,-0.265625 0.015625,-0.59375 0.15625,-0.84375 0.078125,-0.109375 0.3125,-0.390625 0.71875,-0.390625 0.859375,0 0.859375,0.984375 0.859375,1.21875 0,0.265625 0,0.59375 -0.15625,0.84375 C 2.84375,-2 2.609375,-1.71875 2.21875,-1.71875 Z M 1.0625,-1.328125 c 0,-0.03125 0,-0.265625 0.15625,-0.46875 0.390625,0.28125 0.8125,0.3125 1,0.3125 0.921875,0 1.609375,-0.6875 1.609375,-1.453125 0,-0.375 -0.15625,-0.734375 -0.40625,-0.96875 C 3.78125,-4.25 4.140625,-4.296875 4.3125,-4.296875 c 0.03125,0 0.078125,0 0.109375,0.015625 C 4.3125,-4.25 4.25,-4.140625 4.25,-4.015625 c 0,0.171875 0.140625,0.28125 0.296875,0.28125 0.09375,0 0.28125,-0.0625 0.28125,-0.296875 0,-0.171875 -0.109375,-0.484375 -0.5,-0.484375 -0.203125,0 -0.640625,0.0625 -1.0625,0.46875 C 2.84375,-4.375 2.4375,-4.40625 2.21875,-4.40625 c -0.9375,0 -1.625,0.6875 -1.625,1.453125 0,0.4375 0.21875,0.8125 0.46875,1.03125 -0.125,0.140625 -0.3125,0.46875 -0.3125,0.828125 0,0.3125 0.140625,0.6875 0.453125,0.890625 -0.609375,0.15625 -0.921875,0.59375 -0.921875,0.984375 0,0.71875 0.984375,1.265625 2.203125,1.265625 1.171875,0 2.203125,-0.5 2.203125,-1.28125 0,-0.34375 -0.125,-0.859375 -0.640625,-1.140625 -0.53125,-0.265625 -1.109375,-0.265625 -1.71875,-0.265625 -0.25,0 -0.671875,0 -0.75,-0.015625 C 1.265625,-0.703125 1.0625,-1 1.0625,-1.328125 Z M 2.5,1.828125 c -1.015625,0 -1.703125,-0.515625 -1.703125,-1.046875 0,-0.453125 0.375,-0.828125 0.8125,-0.84375 h 0.59375 c 0.859375,0 1.96875,0 1.96875,0.84375 0,0.546875 -0.703125,1.046875 -1.671875,1.046875 z m 0,0"
             id="id-c82f0809-2619-4c87-b615-efce5014c312" />
        </symbol>
      </g>
    </defs>
    <g
       id="id-bfea8061-d35b-47f4-8097-54862ba629bc"
       transform="translate(-149.275,-127.734)">
      <g
         style="fill:#000000;fill-opacity:1"
         id="id-0f15e282-b026-4b2c-8f4f-8f4029306cd7">
        <g
           transform="translate(148.712,134.765)"
           id="g17014">
          <path
             style="stroke:none;stroke-width:0"
             d="m 0.5625,-3.40625 c 0,2.0625 1.609375,3.625 3.46875,3.625 1.625,0 2.59375,-1.390625 2.59375,-2.546875 C 6.625,-2.421875 6.625,-2.5 6.5,-2.5 6.390625,-2.5 6.390625,-2.4375 6.375,-2.328125 6.296875,-0.90625 5.234375,-0.09375 4.140625,-0.09375 c -0.609375,0 -2.5625,-0.328125 -2.5625,-3.3125 0,-2.96875 1.953125,-3.3125 2.5625,-3.3125 1.078125,0 1.96875,0.90625 2.171875,2.359375 C 6.328125,-4.21875 6.328125,-4.1875 6.46875,-4.1875 6.625,-4.1875 6.625,-4.21875 6.625,-4.421875 V -6.78125 c 0,-0.171875 0,-0.25 -0.109375,-0.25 -0.03125,0 -0.078125,0 -0.15625,0.125 l -0.5,0.734375 C 5.5,-6.53125 4.984375,-7.03125 4.03125,-7.03125 c -1.875,0 -3.46875,1.59375 -3.46875,3.625 z m 0,0"
             id="id-664544af-408e-4764-80f0-d23c7dd5e18e" />
        </g>
        <g
           transform="translate(155.907,134.765)"
           id="g17017">
          <path
             style="stroke:none;stroke-width:0"
             d="M 4.6875,-2.140625 C 4.6875,-3.40625 3.703125,-4.46875 2.5,-4.46875 c -1.25,0 -2.21875,1.09375 -2.21875,2.328125 0,1.296875 1.03125,2.25 2.203125,2.25 1.203125,0 2.203125,-0.984375 2.203125,-2.25 z m -2.1875,2 c -0.4375,0 -0.875,-0.203125 -1.140625,-0.671875 -0.25,-0.4375 -0.25,-1.046875 -0.25,-1.40625 0,-0.390625 0,-0.921875 0.234375,-1.359375 C 1.609375,-4.03125 2.078125,-4.25 2.484375,-4.25 c 0.4375,0 0.859375,0.21875 1.125,0.65625 0.265625,0.421875 0.265625,1 0.265625,1.375 0,0.359375 0,0.90625 -0.21875,1.34375 C 3.421875,-0.421875 2.984375,-0.140625 2.5,-0.140625 Z m 0,0"
             id="id-038ec9d5-8fa2-42bd-88b2-3017dd7f7a66" />
        </g>
        <g
           transform="translate(160.888,134.765)"
           id="g17020">
          <path
             style="stroke:none;stroke-width:0"
             d="M 1.09375,-3.421875 V -0.75 c 0,0.4375 -0.109375,0.4375 -0.78125,0.4375 V 0 c 0.359375,-0.015625 0.859375,-0.03125 1.140625,-0.03125 0.25,0 0.765625,0.015625 1.109375,0.03125 v -0.3125 c -0.671875,0 -0.78125,0 -0.78125,-0.4375 V -2.59375 C 1.78125,-3.625 2.5,-4.1875 3.125,-4.1875 c 0.640625,0 0.75,0.53125 0.75,1.109375 V -0.75 c 0,0.4375 -0.109375,0.4375 -0.78125,0.4375 V 0 c 0.34375,-0.015625 0.859375,-0.03125 1.125,-0.03125 0.25,0 0.78125,0.015625 1.109375,0.03125 v -0.3125 c -0.515625,0 -0.765625,0 -0.765625,-0.296875 v -1.90625 c 0,-0.859375 0,-1.15625 -0.3125,-1.515625 -0.140625,-0.171875 -0.46875,-0.375 -1.046875,-0.375 C 2.46875,-4.40625 2,-3.984375 1.71875,-3.359375 V -4.40625 L 0.3125,-4.296875 v 0.3125 c 0.703125,0 0.78125,0.0625 0.78125,0.5625 z m 0,0"
             id="id-a18aa13d-06fd-4a18-8b46-482c6349ed6b" />
        </g>
        <g
           transform="translate(166.424,134.765)"
           id="g17023">
          <path
             style="stroke:none;stroke-width:0"
             d="m 1.75,-4.296875 v -1.15625 c 0,-0.875 0.46875,-1.359375 0.90625,-1.359375 0.03125,0 0.1875,0 0.328125,0.078125 C 2.875,-6.703125 2.6875,-6.5625 2.6875,-6.3125 c 0,0.21875 0.15625,0.421875 0.4375,0.421875 0.28125,0 0.4375,-0.203125 0.4375,-0.4375 0,-0.375 -0.375,-0.703125 -0.90625,-0.703125 -0.6875,0 -1.546875,0.53125 -1.546875,1.59375 v 1.140625 h -0.78125 v 0.3125 h 0.78125 V -0.75 C 1.109375,-0.3125 1,-0.3125 0.34375,-0.3125 V 0 c 0.390625,-0.015625 0.859375,-0.03125 1.125,-0.03125 0.40625,0 0.875,0 1.265625,0.03125 V -0.3125 H 2.53125 c -0.734375,0 -0.75,-0.109375 -0.75,-0.46875 v -3.203125 h 1.125 v -0.3125 z m 0,0"
             id="id-c8915847-26b8-4f72-a486-dbf8db0b8813" />
        </g>
        <g
           transform="translate(169.468,134.765)"
           id="g17026">
          <path
             style="stroke:none;stroke-width:0"
             d="M 4.6875,-2.140625 C 4.6875,-3.40625 3.703125,-4.46875 2.5,-4.46875 c -1.25,0 -2.21875,1.09375 -2.21875,2.328125 0,1.296875 1.03125,2.25 2.203125,2.25 1.203125,0 2.203125,-0.984375 2.203125,-2.25 z m -2.1875,2 c -0.4375,0 -0.875,-0.203125 -1.140625,-0.671875 -0.25,-0.4375 -0.25,-1.046875 -0.25,-1.40625 0,-0.390625 0,-0.921875 0.234375,-1.359375 C 1.609375,-4.03125 2.078125,-4.25 2.484375,-4.25 c 0.4375,0 0.859375,0.21875 1.125,0.65625 0.265625,0.421875 0.265625,1 0.265625,1.375 0,0.359375 0,0.90625 -0.21875,1.34375 C 3.421875,-0.421875 2.984375,-0.140625 2.5,-0.140625 Z m 0,0"
             id="id-1a02a901-01bc-473d-82d1-806cbade6311" />
        </g>
        <g
           transform="translate(174.449,134.765)"
           id="g17029">
          <path
             style="stroke:none;stroke-width:0"
             d="M 1.671875,-3.3125 V -4.40625 L 0.28125,-4.296875 v 0.3125 c 0.703125,0 0.78125,0.0625 0.78125,0.5625 V -0.75 c 0,0.4375 -0.109375,0.4375 -0.78125,0.4375 V 0 c 0.390625,-0.015625 0.859375,-0.03125 1.140625,-0.03125 0.390625,0 0.859375,0 1.265625,0.03125 V -0.3125 H 2.46875 c -0.734375,0 -0.75,-0.109375 -0.75,-0.46875 V -2.3125 c 0,-0.984375 0.421875,-1.875 1.171875,-1.875 0.0625,0 0.09375,0 0.109375,0.015625 -0.03125,0 -0.234375,0.125 -0.234375,0.390625 0,0.265625 0.21875,0.421875 0.4375,0.421875 0.171875,0 0.421875,-0.125 0.421875,-0.4375 0,-0.3125 -0.3125,-0.609375 -0.734375,-0.609375 -0.734375,0 -1.09375,0.671875 -1.21875,1.09375 z m 0,0"
             id="id-b3c0c79d-095a-4cbd-b978-71f78800fc26" />
        </g>
        <g
           transform="translate(178.352,134.765)"
           id="g17032">
          <path
             style="stroke:none;stroke-width:0"
             d="M 1.09375,-3.421875 V -0.75 c 0,0.4375 -0.109375,0.4375 -0.78125,0.4375 V 0 c 0.359375,-0.015625 0.859375,-0.03125 1.140625,-0.03125 0.25,0 0.765625,0.015625 1.109375,0.03125 v -0.3125 c -0.671875,0 -0.78125,0 -0.78125,-0.4375 V -2.59375 C 1.78125,-3.625 2.5,-4.1875 3.125,-4.1875 c 0.640625,0 0.75,0.53125 0.75,1.109375 V -0.75 c 0,0.4375 -0.109375,0.4375 -0.78125,0.4375 V 0 c 0.34375,-0.015625 0.859375,-0.03125 1.125,-0.03125 0.25,0 0.78125,0.015625 1.109375,0.03125 v -0.3125 c -0.65625,0 -0.765625,0 -0.765625,-0.4375 v -1.84375 c 0,-1.03125 0.703125,-1.59375 1.34375,-1.59375 0.625,0 0.734375,0.53125 0.734375,1.109375 V -0.75 c 0,0.4375 -0.109375,0.4375 -0.78125,0.4375 V 0 c 0.34375,-0.015625 0.859375,-0.03125 1.125,-0.03125 0.265625,0 0.78125,0.015625 1.125,0.03125 v -0.3125 c -0.515625,0 -0.765625,0 -0.78125,-0.296875 v -1.90625 c 0,-0.859375 0,-1.15625 -0.3125,-1.515625 -0.140625,-0.171875 -0.46875,-0.375 -1.046875,-0.375 -0.828125,0 -1.28125,0.59375 -1.4375,0.984375 C 4.390625,-4.296875 3.65625,-4.40625 3.203125,-4.40625 2.46875,-4.40625 2,-3.984375 1.71875,-3.359375 V -4.40625 L 0.3125,-4.296875 v 0.3125 c 0.703125,0 0.78125,0.0625 0.78125,0.5625 z m 0,0"
             id="id-8e5338eb-5a89-43c3-8776-a0a6c562841e" />
        </g>
        <g
           transform="translate(186.654,134.765)"
           id="g17035">
          <path
             style="stroke:none;stroke-width:0"
             d="m 3.3125,-0.75 c 0.046875,0.390625 0.3125,0.8125 0.78125,0.8125 0.21875,0 0.828125,-0.140625 0.828125,-0.953125 v -0.5625 h -0.25 v 0.5625 c 0,0.578125 -0.25,0.640625 -0.359375,0.640625 -0.328125,0 -0.375,-0.453125 -0.375,-0.5 v -1.984375 c 0,-0.421875 0,-0.8125 -0.359375,-1.1875 C 3.1875,-4.3125 2.6875,-4.46875 2.21875,-4.46875 c -0.828125,0 -1.515625,0.46875 -1.515625,1.125 0,0.296875 0.203125,0.46875 0.46875,0.46875 0.28125,0 0.453125,-0.203125 0.453125,-0.453125 0,-0.125 -0.046875,-0.453125 -0.515625,-0.453125 C 1.390625,-4.140625 1.875,-4.25 2.1875,-4.25 c 0.5,0 1.0625,0.390625 1.0625,1.28125 v 0.359375 c -0.515625,0.03125 -1.203125,0.0625 -1.828125,0.359375 -0.75,0.34375 -1,0.859375 -1,1.296875 0,0.8125 0.96875,1.0625 1.59375,1.0625 0.65625,0 1.109375,-0.40625 1.296875,-0.859375 z M 3.25,-2.390625 v 1 c 0,0.9375 -0.71875,1.28125 -1.171875,1.28125 -0.484375,0 -0.890625,-0.34375 -0.890625,-0.84375 0,-0.546875 0.421875,-1.375 2.0625,-1.4375 z m 0,0"
             id="id-56752022-5542-4640-a7db-30215dfe875f" />
        </g>
        <g
           transform="translate(191.635,134.765)"
           id="g17038">
          <path
             style="stroke:none;stroke-width:0"
             d="M 1.765625,-6.921875 0.328125,-6.8125 V -6.5 c 0.703125,0 0.78125,0.0625 0.78125,0.5625 V -0.75 c 0,0.4375 -0.109375,0.4375 -0.78125,0.4375 V 0 C 0.65625,-0.015625 1.1875,-0.03125 1.4375,-0.03125 c 0.25,0 0.734375,0.015625 1.109375,0.03125 v -0.3125 c -0.671875,0 -0.78125,0 -0.78125,-0.4375 z m 0,0"
             id="id-c43c482d-8d88-4d5f-9ae6-29e5f74a2c63" />
        </g>
      </g>
      <g
         style="fill:#000000;fill-opacity:1"
         id="id-fd4ac367-4707-4242-8271-bdfcfbcc054f">
        <g
           transform="translate(197.72,134.765)"
           id="g17042">
          <path
             style="stroke:none;stroke-width:0"
             d="M 2.40625,-6.59375 C 2.3125,-6.8125 2.28125,-6.8125 2.046875,-6.8125 H 0.375 V -6.5 h 0.234375 c 0.765625,0 0.78125,0.109375 0.78125,0.46875 v 4.984375 c 0,0.265625 0,0.734375 -1.015625,0.734375 V 0 c 0.34375,-0.015625 0.828125,-0.03125 1.15625,-0.03125 0.328125,0 0.828125,0.015625 1.171875,0.03125 v -0.3125 c -1.03125,0 -1.03125,-0.46875 -1.03125,-0.734375 v -5.375 H 1.6875 L 4.09375,-0.21875 C 4.140625,-0.09375 4.1875,0 4.28125,0 4.390625,0 4.421875,-0.078125 4.46875,-0.1875 L 6.921875,-6.5 v 5.71875 c 0,0.359375 -0.015625,0.46875 -0.78125,0.46875 H 5.90625 V 0 c 0.359375,-0.03125 1.046875,-0.03125 1.4375,-0.03125 0.375,0 1.046875,0 1.421875,0.03125 v -0.3125 h -0.25 c -0.765625,0 -0.78125,-0.109375 -0.78125,-0.46875 v -5.25 C 7.734375,-6.390625 7.75,-6.5 8.515625,-6.5 h 0.25 v -0.3125 h -1.6875 C 6.8125,-6.8125 6.8125,-6.796875 6.75,-6.625 L 4.5625,-1 Z m 0,0"
             id="id-cdd36506-806a-45d4-b827-a5f38e8d1568" />
        </g>
        <g
           transform="translate(206.853,134.765)"
           id="g17045">
          <path
             style="stroke:none;stroke-width:0"
             d="m 3.3125,-0.75 c 0.046875,0.390625 0.3125,0.8125 0.78125,0.8125 0.21875,0 0.828125,-0.140625 0.828125,-0.953125 v -0.5625 h -0.25 v 0.5625 c 0,0.578125 -0.25,0.640625 -0.359375,0.640625 -0.328125,0 -0.375,-0.453125 -0.375,-0.5 v -1.984375 c 0,-0.421875 0,-0.8125 -0.359375,-1.1875 C 3.1875,-4.3125 2.6875,-4.46875 2.21875,-4.46875 c -0.828125,0 -1.515625,0.46875 -1.515625,1.125 0,0.296875 0.203125,0.46875 0.46875,0.46875 0.28125,0 0.453125,-0.203125 0.453125,-0.453125 0,-0.125 -0.046875,-0.453125 -0.515625,-0.453125 C 1.390625,-4.140625 1.875,-4.25 2.1875,-4.25 c 0.5,0 1.0625,0.390625 1.0625,1.28125 v 0.359375 c -0.515625,0.03125 -1.203125,0.0625 -1.828125,0.359375 -0.75,0.34375 -1,0.859375 -1,1.296875 0,0.8125 0.96875,1.0625 1.59375,1.0625 0.65625,0 1.109375,-0.40625 1.296875,-0.859375 z M 3.25,-2.390625 v 1 c 0,0.9375 -0.71875,1.28125 -1.171875,1.28125 -0.484375,0 -0.890625,-0.34375 -0.890625,-0.84375 0,-0.546875 0.421875,-1.375 2.0625,-1.4375 z m 0,0"
             id="id-38c34bb5-8196-4fac-b2f5-466ef06ffbca" />
        </g>
        <g
           transform="translate(211.834,134.765)"
           id="g17048">
          <path
             style="stroke:none;stroke-width:0"
             d="m 1.71875,-3.75 v -0.65625 l -1.4375,0.109375 v 0.3125 c 0.703125,0 0.78125,0.0625 0.78125,0.5 v 4.65625 C 1.0625,1.625 0.953125,1.625 0.28125,1.625 V 1.9375 C 0.625,1.921875 1.140625,1.90625 1.390625,1.90625 c 0.28125,0 0.78125,0.015625 1.125,0.03125 V 1.625 C 1.859375,1.625 1.75,1.625 1.75,1.171875 V -0.59375 c 0.046875,0.171875 0.46875,0.703125 1.21875,0.703125 1.1875,0 2.21875,-0.984375 2.21875,-2.265625 0,-1.265625 -0.953125,-2.25 -2.078125,-2.25 -0.78125,0 -1.203125,0.4375 -1.390625,0.65625 z M 1.75,-1.140625 v -2.21875 C 2.03125,-3.875 2.515625,-4.15625 3.03125,-4.15625 c 0.734375,0 1.328125,0.875 1.328125,2 0,1.203125 -0.6875,2.046875 -1.421875,2.046875 -0.40625,0 -0.78125,-0.203125 -1.046875,-0.609375 C 1.75,-0.921875 1.75,-0.9375 1.75,-1.140625 Z m 0,0"
             id="id-0c6b8b5a-c50c-4a11-b4be-37220cacadad" />
        </g>
        <g
           transform="translate(217.369,134.765)"
           id="g17051">
          <path
             style="stroke:none;stroke-width:0"
             d="m 1.71875,-3.75 v -0.65625 l -1.4375,0.109375 v 0.3125 c 0.703125,0 0.78125,0.0625 0.78125,0.5 v 4.65625 C 1.0625,1.625 0.953125,1.625 0.28125,1.625 V 1.9375 C 0.625,1.921875 1.140625,1.90625 1.390625,1.90625 c 0.28125,0 0.78125,0.015625 1.125,0.03125 V 1.625 C 1.859375,1.625 1.75,1.625 1.75,1.171875 V -0.59375 c 0.046875,0.171875 0.46875,0.703125 1.21875,0.703125 1.1875,0 2.21875,-0.984375 2.21875,-2.265625 0,-1.265625 -0.953125,-2.25 -2.078125,-2.25 -0.78125,0 -1.203125,0.4375 -1.390625,0.65625 z M 1.75,-1.140625 v -2.21875 C 2.03125,-3.875 2.515625,-4.15625 3.03125,-4.15625 c 0.734375,0 1.328125,0.875 1.328125,2 0,1.203125 -0.6875,2.046875 -1.421875,2.046875 -0.40625,0 -0.78125,-0.203125 -1.046875,-0.609375 C 1.75,-0.921875 1.75,-0.9375 1.75,-1.140625 Z m 0,0"
             id="id-088edd06-f645-45bc-9020-1deaf0cd7830" />
        </g>
        <g
           transform="translate(222.904,134.765)"
           id="g17054">
          <path
             style="stroke:none;stroke-width:0"
             d="M 1.765625,-4.40625 0.375,-4.296875 v 0.3125 c 0.640625,0 0.734375,0.0625 0.734375,0.546875 V -0.75 c 0,0.4375 -0.109375,0.4375 -0.78125,0.4375 V 0 C 0.640625,-0.015625 1.1875,-0.03125 1.421875,-0.03125 1.78125,-0.03125 2.125,-0.015625 2.46875,0 v -0.3125 c -0.671875,0 -0.703125,-0.046875 -0.703125,-0.4375 z m 0.03125,-1.734375 c 0,-0.3125 -0.234375,-0.53125 -0.515625,-0.53125 -0.3125,0 -0.53125,0.265625 -0.53125,0.53125 0,0.265625 0.21875,0.53125 0.53125,0.53125 0.28125,0 0.515625,-0.21875 0.515625,-0.53125 z m 0,0"
             id="id-5389da0d-f8a8-45d6-8588-476b835a7a29" />
        </g>
        <g
           transform="translate(225.672,134.765)"
           id="g17057">
          <path
             style="stroke:none;stroke-width:0"
             d="M 1.09375,-3.421875 V -0.75 c 0,0.4375 -0.109375,0.4375 -0.78125,0.4375 V 0 c 0.359375,-0.015625 0.859375,-0.03125 1.140625,-0.03125 0.25,0 0.765625,0.015625 1.109375,0.03125 v -0.3125 c -0.671875,0 -0.78125,0 -0.78125,-0.4375 V -2.59375 C 1.78125,-3.625 2.5,-4.1875 3.125,-4.1875 c 0.640625,0 0.75,0.53125 0.75,1.109375 V -0.75 c 0,0.4375 -0.109375,0.4375 -0.78125,0.4375 V 0 c 0.34375,-0.015625 0.859375,-0.03125 1.125,-0.03125 0.25,0 0.78125,0.015625 1.109375,0.03125 v -0.3125 c -0.515625,0 -0.765625,0 -0.765625,-0.296875 v -1.90625 c 0,-0.859375 0,-1.15625 -0.3125,-1.515625 -0.140625,-0.171875 -0.46875,-0.375 -1.046875,-0.375 C 2.46875,-4.40625 2,-3.984375 1.71875,-3.359375 V -4.40625 L 0.3125,-4.296875 v 0.3125 c 0.703125,0 0.78125,0.0625 0.78125,0.5625 z m 0,0"
             id="id-321136b9-4ad1-424f-b8e9-cf0d9fbbb7fe" />
        </g>
        <g
           transform="translate(231.207,134.765)"
           id="g17060">
          <path
             style="stroke:none;stroke-width:0"
             d="m 2.21875,-1.71875 c -0.875,0 -0.875,-1 -0.875,-1.21875 0,-0.265625 0.015625,-0.59375 0.15625,-0.84375 0.078125,-0.109375 0.3125,-0.390625 0.71875,-0.390625 0.859375,0 0.859375,0.984375 0.859375,1.21875 0,0.265625 0,0.59375 -0.15625,0.84375 C 2.84375,-2 2.609375,-1.71875 2.21875,-1.71875 Z M 1.0625,-1.328125 c 0,-0.03125 0,-0.265625 0.15625,-0.46875 0.390625,0.28125 0.8125,0.3125 1,0.3125 0.921875,0 1.609375,-0.6875 1.609375,-1.453125 0,-0.375 -0.15625,-0.734375 -0.40625,-0.96875 C 3.78125,-4.25 4.140625,-4.296875 4.3125,-4.296875 c 0.03125,0 0.078125,0 0.109375,0.015625 C 4.3125,-4.25 4.25,-4.140625 4.25,-4.015625 c 0,0.171875 0.140625,0.28125 0.296875,0.28125 0.09375,0 0.28125,-0.0625 0.28125,-0.296875 0,-0.171875 -0.109375,-0.484375 -0.5,-0.484375 -0.203125,0 -0.640625,0.0625 -1.0625,0.46875 C 2.84375,-4.375 2.4375,-4.40625 2.21875,-4.40625 c -0.9375,0 -1.625,0.6875 -1.625,1.453125 0,0.4375 0.21875,0.8125 0.46875,1.03125 -0.125,0.140625 -0.3125,0.46875 -0.3125,0.828125 0,0.3125 0.140625,0.6875 0.453125,0.890625 -0.609375,0.15625 -0.921875,0.59375 -0.921875,0.984375 0,0.71875 0.984375,1.265625 2.203125,1.265625 1.171875,0 2.203125,-0.5 2.203125,-1.28125 0,-0.34375 -0.125,-0.859375 -0.640625,-1.140625 -0.53125,-0.265625 -1.109375,-0.265625 -1.71875,-0.265625 -0.25,0 -0.671875,0 -0.75,-0.015625 C 1.265625,-0.703125 1.0625,-1 1.0625,-1.328125 Z M 2.5,1.828125 c -1.015625,0 -1.703125,-0.515625 -1.703125,-1.046875 0,-0.453125 0.375,-0.828125 0.8125,-0.84375 h 0.59375 c 0.859375,0 1.96875,0 1.96875,0.84375 0,0.546875 -0.703125,1.046875 -1.671875,1.046875 z m 0,0"
             id="id-0f4c1c6a-0a7a-4602-8831-7d357e285f7c" />
        </g>
      </g>
    </g>
  </g>
</svg>
