<?xml version="1.0" encoding="UTF-8" standalone="no"?>
<svg
   viewBox="0 0 146 73"
   version="1.1"
   id="svg70"
   sodipodi:docname="Riemann_sphere_circle_inversion_2.svg"
   inkscape:version="1.1 (c4e8f9e, 2021-05-24)"
   width="146"
   height="73"
   xmlns:inkscape="http://www.inkscape.org/namespaces/inkscape"
   xmlns:sodipodi="http://sodipodi.sourceforge.net/DTD/sodipodi-0.dtd"
   xmlns:xlink="http://www.w3.org/1999/xlink"
   xmlns="http://www.w3.org/2000/svg"
   xmlns:svg="http://www.w3.org/2000/svg"
   xmlns:ns1="http://www.iki.fi/pav/software/textext/">
  <sodipodi:namedview
     id="namedview72"
     pagecolor="#ffffff"
     bordercolor="#666666"
     borderopacity="1.0"
     inkscape:pageshadow="2"
     inkscape:pageopacity="0.0"
     inkscape:pagecheckerboard="0"
     showgrid="false"
     inkscape:zoom="8.4462"
     inkscape:cx="85.42303"
     inkscape:cy="53.574388"
     inkscape:window-width="1312"
     inkscape:window-height="847"
     inkscape:window-x="0"
     inkscape:window-y="25"
     inkscape:window-maximized="0"
     inkscape:current-layer="svg70"
     height="64px"
     width="126px" />
  <defs
     id="defs15">
    <linearGradient
       id="linearGradient1065">
      <stop
         style="stop-color:#ddd;stop-opacity:0.6"
         offset="0"
         id="stop9" />
      <stop
         style="stop-color:#4f4f4f;stop-opacity:0.6"
         offset="1"
         id="stop11" />
    </linearGradient>
    <radialGradient
       xlink:href="#linearGradient1065"
       id="radialGradient1067"
       cx="45.546131"
       cy="31.830212"
       fx="45.546131"
       fy="31.830212"
       r="30.69091"
       gradientUnits="userSpaceOnUse"
       gradientTransform="matrix(0.6217305,0,0,0.6217305,14.184047,0.31840719)" />
    <radialGradient
       xlink:href="#linearGradient1065"
       id="radialGradient1067-9"
       cx="45.546131"
       cy="31.830212"
       fx="45.546131"
       fy="31.830212"
       r="30.69091"
       gradientUnits="userSpaceOnUse"
       gradientTransform="matrix(0.6217305,0,0,0.6217305,38.810838,0.7818547)" />
  </defs>
  <text
     style="font-size:3.70124px;font-family:'Liberation Serif';fill:#000000;stroke-width:0.621731"
     x="37.637829"
     y="-74.497574"
     id="text46"><tspan
       x="37.637829"
       y="-71.073929"
       style="stroke-width:0.16165px"
       id="tspan44" /></text>
  <path
     style="font-family:'Liberation Serif';fill:none;stroke:#000000;stroke-width:0.4;stroke-linecap:butt;stroke-linejoin:round;stroke-miterlimit:4;stroke-dasharray:0.8, 0.8;stroke-dashoffset:0;stroke-opacity:1"
     d="M 78.381074,35.974495 A 2.9061441,11.451787 0 0 1 75.501302,24.535585 2.9061441,11.451787 0 0 1 78.374785,13.072128"
     id="path7230" />
  <g
     transform="matrix(0.343463,0,0,0.343463,101.81013,39.395265)"
     ns1:version="1.5.0"
     ns1:texconverter="pdflatex"
     ns1:pdfconverter="inkscape"
     ns1:text="center\n"
     ns1:preamble="default_packages.tex"
     ns1:scale="0.2575975200215374"
     ns1:alignment="middle center"
     ns1:stroke-to-path="0"
     ns1:inkscapeversion="1.1"
     ns1:jacobian_sqrt="0.343463"
     id="g13321">
    <defs
       id="id-712e6f51-c460-4ed0-bd10-ce3a85806593">
      <g
         id="id-44f47d90-bc4d-40c2-9abe-9d083b09775c">
        <symbol
           overflow="visible"
           id="id-3ce1af12-4a32-4eca-800a-fef6bd952041">
          <path
             style="stroke:none;stroke-width:0"
             d=""
             id="id-4805d19d-9d32-4804-a20b-9e44e2f2ebbb" />
        </symbol>
        <symbol
           overflow="visible"
           id="id-820d3c68-d8a4-4bc4-b648-4a52df2e6635">
          <path
             style="stroke:none;stroke-width:0"
             d="m 1.171875,-2.171875 c 0,-1.625 0.8125,-2.046875 1.34375,-2.046875 0.09375,0 0.71875,0.015625 1.0625,0.375 -0.40625,0.03125 -0.46875,0.328125 -0.46875,0.453125 0,0.265625 0.1875,0.453125 0.453125,0.453125 0.265625,0 0.46875,-0.15625 0.46875,-0.46875 0,-0.671875 -0.765625,-1.0625 -1.53125,-1.0625 -1.25,0 -2.15625,1.078125 -2.15625,2.3125 0,1.28125 0.984375,2.265625 2.140625,2.265625 1.328125,0 1.65625,-1.203125 1.65625,-1.296875 0,-0.09375 -0.109375,-0.09375 -0.140625,-0.09375 -0.078125,0 -0.109375,0.03125 -0.125,0.09375 -0.28125,0.921875 -0.9375,1.046875 -1.296875,1.046875 -0.53125,0 -1.40625,-0.421875 -1.40625,-2.03125 z m 0,0"
             id="id-6dd93dda-8c32-4f30-aa99-4e3d2e930dee" />
        </symbol>
        <symbol
           overflow="visible"
           id="id-cd4f6d67-9e86-4fc9-8645-4c32d9895abf">
          <path
             style="stroke:none;stroke-width:0"
             d="M 1.109375,-2.515625 C 1.171875,-4 2.015625,-4.25 2.359375,-4.25 c 1.015625,0 1.125,1.34375 1.125,1.734375 z m 0,0.21875 h 2.78125 c 0.21875,0 0.25,0 0.25,-0.21875 0,-0.984375 -0.546875,-1.953125 -1.78125,-1.953125 -1.15625,0 -2.078125,1.03125 -2.078125,2.28125 0,1.328125 1.046875,2.296875 2.1875,2.296875 C 3.6875,0.109375 4.140625,-1 4.140625,-1.1875 4.140625,-1.28125 4.0625,-1.3125 4,-1.3125 c -0.078125,0 -0.109375,0.0625 -0.125,0.140625 -0.34375,1.03125 -1.25,1.03125 -1.34375,1.03125 -0.5,0 -0.890625,-0.296875 -1.125,-0.671875 -0.296875,-0.46875 -0.296875,-1.125 -0.296875,-1.484375 z m 0,0"
             id="id-887d8103-381c-4d41-afed-cc4fc1b7b289" />
        </symbol>
        <symbol
           overflow="visible"
           id="id-7ffc3e1d-830a-4226-9da0-3be2afc4e65a">
          <path
             style="stroke:none;stroke-width:0"
             d="M 1.09375,-3.421875 V -0.75 c 0,0.4375 -0.109375,0.4375 -0.78125,0.4375 V 0 c 0.359375,-0.015625 0.859375,-0.03125 1.140625,-0.03125 0.25,0 0.765625,0.015625 1.109375,0.03125 v -0.3125 c -0.671875,0 -0.78125,0 -0.78125,-0.4375 V -2.59375 C 1.78125,-3.625 2.5,-4.1875 3.125,-4.1875 c 0.640625,0 0.75,0.53125 0.75,1.109375 V -0.75 c 0,0.4375 -0.109375,0.4375 -0.78125,0.4375 V 0 c 0.34375,-0.015625 0.859375,-0.03125 1.125,-0.03125 0.25,0 0.78125,0.015625 1.109375,0.03125 v -0.3125 c -0.515625,0 -0.765625,0 -0.765625,-0.296875 v -1.90625 c 0,-0.859375 0,-1.15625 -0.3125,-1.515625 -0.140625,-0.171875 -0.46875,-0.375 -1.046875,-0.375 C 2.46875,-4.40625 2,-3.984375 1.71875,-3.359375 V -4.40625 L 0.3125,-4.296875 v 0.3125 c 0.703125,0 0.78125,0.0625 0.78125,0.5625 z m 0,0"
             id="id-5d14813f-8483-4e29-b79d-cda7802eb717" />
        </symbol>
        <symbol
           overflow="visible"
           id="id-3a23bc3c-19d8-4871-95c4-2deb0d9c8df6">
          <path
             style="stroke:none;stroke-width:0"
             d="m 1.71875,-3.984375 h 1.4375 v -0.3125 H 1.71875 V -6.125 h -0.25 c 0,0.8125 -0.296875,1.875 -1.28125,1.921875 v 0.21875 h 0.84375 v 2.75 c 0,1.21875 0.9375,1.34375 1.296875,1.34375 0.703125,0 0.984375,-0.703125 0.984375,-1.34375 v -0.5625 h -0.25 V -1.25 c 0,0.734375 -0.296875,1.109375 -0.671875,1.109375 -0.671875,0 -0.671875,-0.90625 -0.671875,-1.078125 z m 0,0"
             id="id-53751b3f-457a-49b1-9806-18e3fec89924" />
        </symbol>
        <symbol
           overflow="visible"
           id="id-6bdd34be-b1bc-4456-9b36-04e57ad3c083">
          <path
             style="stroke:none;stroke-width:0"
             d="M 1.671875,-3.3125 V -4.40625 L 0.28125,-4.296875 v 0.3125 c 0.703125,0 0.78125,0.0625 0.78125,0.5625 V -0.75 c 0,0.4375 -0.109375,0.4375 -0.78125,0.4375 V 0 c 0.390625,-0.015625 0.859375,-0.03125 1.140625,-0.03125 0.390625,0 0.859375,0 1.265625,0.03125 V -0.3125 H 2.46875 c -0.734375,0 -0.75,-0.109375 -0.75,-0.46875 V -2.3125 c 0,-0.984375 0.421875,-1.875 1.171875,-1.875 0.0625,0 0.09375,0 0.109375,0.015625 -0.03125,0 -0.234375,0.125 -0.234375,0.390625 0,0.265625 0.21875,0.421875 0.4375,0.421875 0.171875,0 0.421875,-0.125 0.421875,-0.4375 0,-0.3125 -0.3125,-0.609375 -0.734375,-0.609375 -0.734375,0 -1.09375,0.671875 -1.21875,1.09375 z m 0,0"
             id="id-03dff603-362c-498d-ac16-a2829a1b4375" />
        </symbol>
      </g>
    </defs>
    <g
       id="id-3ed4aced-6033-460d-92a2-f885d57cf30c"
       transform="translate(-149.056,-128.64)">
      <g
         style="fill:#000000;fill-opacity:1"
         id="id-a9ca9c96-f0c6-46a3-bc48-89f4c258de13">
        <g
           transform="translate(148.712,134.765)"
           id="g13301">
          <path
             style="stroke:none;stroke-width:0"
             d="m 1.171875,-2.171875 c 0,-1.625 0.8125,-2.046875 1.34375,-2.046875 0.09375,0 0.71875,0.015625 1.0625,0.375 -0.40625,0.03125 -0.46875,0.328125 -0.46875,0.453125 0,0.265625 0.1875,0.453125 0.453125,0.453125 0.265625,0 0.46875,-0.15625 0.46875,-0.46875 0,-0.671875 -0.765625,-1.0625 -1.53125,-1.0625 -1.25,0 -2.15625,1.078125 -2.15625,2.3125 0,1.28125 0.984375,2.265625 2.140625,2.265625 1.328125,0 1.65625,-1.203125 1.65625,-1.296875 0,-0.09375 -0.109375,-0.09375 -0.140625,-0.09375 -0.078125,0 -0.109375,0.03125 -0.125,0.09375 -0.28125,0.921875 -0.9375,1.046875 -1.296875,1.046875 -0.53125,0 -1.40625,-0.421875 -1.40625,-2.03125 z m 0,0"
             id="id-e6ceadf0-aeed-419b-b298-097828ce7217" />
        </g>
        <g
           transform="translate(153.139,134.765)"
           id="g13304">
          <path
             style="stroke:none;stroke-width:0"
             d="M 1.109375,-2.515625 C 1.171875,-4 2.015625,-4.25 2.359375,-4.25 c 1.015625,0 1.125,1.34375 1.125,1.734375 z m 0,0.21875 h 2.78125 c 0.21875,0 0.25,0 0.25,-0.21875 0,-0.984375 -0.546875,-1.953125 -1.78125,-1.953125 -1.15625,0 -2.078125,1.03125 -2.078125,2.28125 0,1.328125 1.046875,2.296875 2.1875,2.296875 C 3.6875,0.109375 4.140625,-1 4.140625,-1.1875 4.140625,-1.28125 4.0625,-1.3125 4,-1.3125 c -0.078125,0 -0.109375,0.0625 -0.125,0.140625 -0.34375,1.03125 -1.25,1.03125 -1.34375,1.03125 -0.5,0 -0.890625,-0.296875 -1.125,-0.671875 -0.296875,-0.46875 -0.296875,-1.125 -0.296875,-1.484375 z m 0,0"
             id="id-adbec8a5-ac0e-465b-be5c-7ddfe07fe9e7" />
        </g>
        <g
           transform="translate(157.567,134.765)"
           id="g13307">
          <path
             style="stroke:none;stroke-width:0"
             d="M 1.09375,-3.421875 V -0.75 c 0,0.4375 -0.109375,0.4375 -0.78125,0.4375 V 0 c 0.359375,-0.015625 0.859375,-0.03125 1.140625,-0.03125 0.25,0 0.765625,0.015625 1.109375,0.03125 v -0.3125 c -0.671875,0 -0.78125,0 -0.78125,-0.4375 V -2.59375 C 1.78125,-3.625 2.5,-4.1875 3.125,-4.1875 c 0.640625,0 0.75,0.53125 0.75,1.109375 V -0.75 c 0,0.4375 -0.109375,0.4375 -0.78125,0.4375 V 0 c 0.34375,-0.015625 0.859375,-0.03125 1.125,-0.03125 0.25,0 0.78125,0.015625 1.109375,0.03125 v -0.3125 c -0.515625,0 -0.765625,0 -0.765625,-0.296875 v -1.90625 c 0,-0.859375 0,-1.15625 -0.3125,-1.515625 -0.140625,-0.171875 -0.46875,-0.375 -1.046875,-0.375 C 2.46875,-4.40625 2,-3.984375 1.71875,-3.359375 V -4.40625 L 0.3125,-4.296875 v 0.3125 c 0.703125,0 0.78125,0.0625 0.78125,0.5625 z m 0,0"
             id="id-5503d9f1-1302-4ab4-a23d-24799f8cf701" />
        </g>
      </g>
      <g
         style="fill:#000000;fill-opacity:1"
         id="id-f573d93f-ae81-458c-a192-1b924f4ba087">
        <g
           transform="translate(162.823,134.765)"
           id="g13311">
          <path
             style="stroke:none;stroke-width:0"
             d="m 1.71875,-3.984375 h 1.4375 v -0.3125 H 1.71875 V -6.125 h -0.25 c 0,0.8125 -0.296875,1.875 -1.28125,1.921875 v 0.21875 h 0.84375 v 2.75 c 0,1.21875 0.9375,1.34375 1.296875,1.34375 0.703125,0 0.984375,-0.703125 0.984375,-1.34375 v -0.5625 h -0.25 V -1.25 c 0,0.734375 -0.296875,1.109375 -0.671875,1.109375 -0.671875,0 -0.671875,-0.90625 -0.671875,-1.078125 z m 0,0"
             id="id-7deb7fbe-1db4-4716-9e4f-e98ee8108ffc" />
        </g>
        <g
           transform="translate(166.697,134.765)"
           id="g13314">
          <path
             style="stroke:none;stroke-width:0"
             d="M 1.109375,-2.515625 C 1.171875,-4 2.015625,-4.25 2.359375,-4.25 c 1.015625,0 1.125,1.34375 1.125,1.734375 z m 0,0.21875 h 2.78125 c 0.21875,0 0.25,0 0.25,-0.21875 0,-0.984375 -0.546875,-1.953125 -1.78125,-1.953125 -1.15625,0 -2.078125,1.03125 -2.078125,2.28125 0,1.328125 1.046875,2.296875 2.1875,2.296875 C 3.6875,0.109375 4.140625,-1 4.140625,-1.1875 4.140625,-1.28125 4.0625,-1.3125 4,-1.3125 c -0.078125,0 -0.109375,0.0625 -0.125,0.140625 -0.34375,1.03125 -1.25,1.03125 -1.34375,1.03125 -0.5,0 -0.890625,-0.296875 -1.125,-0.671875 -0.296875,-0.46875 -0.296875,-1.125 -0.296875,-1.484375 z m 0,0"
             id="id-5e0bba80-ac2d-40bf-9e03-aabb73dcee88" />
        </g>
        <g
           transform="translate(171.125,134.765)"
           id="g13317">
          <path
             style="stroke:none;stroke-width:0"
             d="M 1.671875,-3.3125 V -4.40625 L 0.28125,-4.296875 v 0.3125 c 0.703125,0 0.78125,0.0625 0.78125,0.5625 V -0.75 c 0,0.4375 -0.109375,0.4375 -0.78125,0.4375 V 0 c 0.390625,-0.015625 0.859375,-0.03125 1.140625,-0.03125 0.390625,0 0.859375,0 1.265625,0.03125 V -0.3125 H 2.46875 c -0.734375,0 -0.75,-0.109375 -0.75,-0.46875 V -2.3125 c 0,-0.984375 0.421875,-1.875 1.171875,-1.875 0.0625,0 0.09375,0 0.109375,0.015625 -0.03125,0 -0.234375,0.125 -0.234375,0.390625 0,0.265625 0.21875,0.421875 0.4375,0.421875 0.171875,0 0.421875,-0.125 0.421875,-0.4375 0,-0.3125 -0.3125,-0.609375 -0.734375,-0.609375 -0.734375,0 -1.09375,0.671875 -1.21875,1.09375 z m 0,0"
             id="id-61b15d89-0793-49cc-be4f-d048e80ded51" />
        </g>
      </g>
    </g>
  </g>
  <path
     style="fill:none;stroke:#000000;stroke-width:0.4;stroke-linecap:butt;stroke-linejoin:miter;stroke-miterlimit:4;stroke-dasharray:0.4, 1.6;stroke-dashoffset:0;stroke-opacity:1"
     d="m 78.381074,35.974495 5.181399,7.70455"
     id="path13794" />
  <path
     style="fill:none;stroke:#000000;stroke-width:0.4;stroke-linecap:butt;stroke-linejoin:miter;stroke-miterlimit:4;stroke-dasharray:0.4, 1.6;stroke-dashoffset:0;stroke-opacity:1"
     d="M 78.374785,13.072128 127.42935,43.466325"
     id="path13829" />
  <ellipse
     style="fill:none;stroke:#ff0000;stroke-width:0.5;stroke-miterlimit:4;stroke-dasharray:none;stroke-dashoffset:0;stroke-opacity:1"
     id="path12145-9"
     cx="63.837612"
     cy="43.402798"
     rx="37.952259"
     ry="16.502735" />
  <path
     style="fill:none;stroke:#0001ff;stroke-width:0.5;stroke-linecap:butt;stroke-linejoin:miter;stroke-miterlimit:4;stroke-dasharray:none;stroke-opacity:1"
     d="m 100.94912,43.491575 h 28.84557"
     id="path13405-1" />
  <text
     y="32.151001"
     x="49.126156"
     style="font-size:3.70124px;font-family:'Liberation Serif';fill:#000000;stroke-width:0.621731"
     id="text12097-7"><tspan
       style="font-size:4.41429px;stroke-width:0.16165px"
       y="32.151001"
       x="49.126156"
       id="tspan12095-5">i</tspan></text>
  <circle
     style="font-family:'Liberation Serif';display:inline;fill:#000000;stroke-width:0.52025"
     cx="49.789822"
     cy="28.005777"
     r="0.81114829"
     id="circle12099-5" />
  <path
     style="fill:#008000;stroke:#0abe02;stroke-width:0.5;stroke-linecap:butt;stroke-linejoin:miter;stroke-miterlimit:4;stroke-dasharray:none;stroke-opacity:1"
     d="m 38.856387,15.428525 24.513863,28.0471"
     id="path11767-4" />
  <path
     d="m 44.541938,24.596055 a 19.03922,4.8217605 0 0 1 9.029082,-4.245624 19.03922,4.8217605 0 0 1 19.03289,-0.14195 19.03922,4.8217605 0 0 1 9.999969,4.1037"
     style="font-family:'Liberation Serif';fill:none;stroke:#ff3c00;stroke-width:0.493499;stroke-linecap:butt;stroke-linejoin:round;stroke-miterlimit:4;stroke-dasharray:0.986997, 0.986997"
     id="path952-1" />
  <path
     style="font-family:'Liberation Serif';fill:none;stroke:#00ae00;stroke-width:0.493499;stroke-linecap:butt;stroke-linejoin:round;stroke-miterlimit:4;stroke-dasharray:0.986997, 0.986997"
     d="m 63.528967,43.491575 a 4.8315907,19.039093 0 0 1 -4.787746,-19.0177 4.8315907,19.039093 0 0 1 4.77729,-19.0584943"
     id="path18-8" />
  <circle
     style="font-family:'Liberation Serif';display:inline;fill:#000000;stroke-width:0.52025"
     cx="58.836643"
     cy="19.815645"
     r="0.81114829"
     id="circle20-8" />
  <text
     y="18.651484"
     x="56.951374"
     style="font-size:3.70124px;font-family:'Liberation Serif';fill:#000000;stroke-width:0.621731"
     id="text24-3"><tspan
       style="font-size:4.41429px;stroke-width:0.16165px"
       y="18.651484"
       x="56.951374"
       id="tspan22-5">i</tspan></text>
  <circle
     r="19.081474"
     cy="24.507906"
     cx="63.485775"
     style="font-family:'Liberation Serif';fill:url(#radialGradient1067-9);stroke:none;stroke-width:0.497777;stroke-linecap:round;stroke-linejoin:round;stroke-miterlimit:4;stroke-dasharray:none"
     id="circle26-2" />
  <path
     d="m 63.57049,5.4141807 a 4.8315907,19.039093 0 0 1 4.219204,9.7456363 4.8315907,19.039093 0 0 1 -0.101366,19.267598 4.8315907,19.039093 0 0 1 -4.318078,9.04821"
     style="font-family:'Liberation Serif';fill:none;stroke:#00ae00;stroke-width:0.493499;stroke-linecap:butt;stroke-linejoin:round;stroke-miterlimit:4;stroke-dasharray:none"
     id="path28-2" />
  <path
     style="font-family:'Liberation Serif';fill:none;stroke:#ff3c00;stroke-width:0.493499;stroke-linecap:round;stroke-linejoin:round;stroke-miterlimit:4;stroke-dasharray:none"
     d="m 82.612029,24.453275 a 19.03922,4.8217605 0 0 1 -9.519612,4.17577 19.03922,4.8217605 0 0 1 -19.039219,0 19.03922,4.8217605 0 0 1 -9.519609,-4.17577"
     id="path30-6" />
  <circle
     style="font-family:'Liberation Serif';fill:none;stroke:#0000ff;stroke-width:0.497777;stroke-linecap:round;stroke-linejoin:round;stroke-miterlimit:4;stroke-dasharray:none"
     cx="63.572811"
     cy="24.453272"
     r="19.081474"
     id="circle32-6" />
  <circle
     style="font-family:'Liberation Serif';display:inline;fill:#000000;stroke-width:0.621731"
     cx="68.273407"
     cy="29.132883"
     r="0.96937221"
     id="circle34-7" />
  <circle
     style="font-family:'Liberation Serif';display:inline;fill:#000000;stroke-width:0.621731"
     cx="63.572811"
     cy="43.523472"
     r="0.96937221"
     id="circle36-8" />
  <circle
     style="font-family:'Liberation Serif';display:inline;fill:#000000;stroke-width:0.621731"
     cx="82.784012"
     cy="24.488527"
     r="0.96937221"
     id="circle38-4" />
  <circle
     style="font-family:'Liberation Serif';display:inline;fill:#000000;stroke-width:0.621731"
     cx="44.479122"
     cy="24.429773"
     r="0.96937221"
     id="circle40-1" />
  <circle
     style="font-family:'Liberation Serif';display:inline;fill:#000000;stroke-width:0.621731"
     cx="63.690311"
     cy="5.2773218"
     r="0.96937221"
     id="circle42-7" />
  <text
     style="font-size:3.70124px;font-family:'Liberation Serif';fill:#000000;stroke-width:0.621731"
     x="61.692814"
     y="1.6348381"
     id="text46-1"><tspan
       x="61.692814"
       y="5.0584803"
       style="stroke-width:0.16165px"
       id="tspan44-8" /></text>
  <text
     style="font-size:3.70124px;font-family:'Liberation Serif';fill:#000000;stroke-width:0.621731"
     x="62.515316"
     y="48.223454"
     id="text50-7"><tspan
       x="62.515316"
       y="48.223454"
       style="font-size:4.41429px;stroke-width:0.16165px"
       id="tspan48-8">0</tspan></text>
  <text
     y="25.722277"
     x="38.897881"
     style="font-size:3.70124px;font-family:'Liberation Serif';fill:#000000;stroke-width:0.621731"
     id="text54-7"><tspan
       style="font-size:4.41429px;stroke-width:0.16165px"
       y="25.722277"
       x="38.897881"
       id="tspan52-7">−1</tspan></text>
  <text
     y="25.898523"
     x="84.487747"
     style="font-size:3.70124px;font-family:'Liberation Serif';fill:#000000;stroke-width:0.621731"
     id="text58-4"><tspan
       style="font-size:4.41429px;stroke-width:0.16165px"
       y="25.898523"
       x="84.487747"
       id="tspan56-4">1</tspan></text>
  <text
     y="27.933954"
     x="69.23008"
     style="font-size:3.70124px;font-family:'Liberation Serif';fill:#000000;stroke-width:0.621731"
     id="text62-9"><tspan
       style="font-size:4.41429px;stroke-width:0.16165px"
       y="27.933954"
       x="69.23008"
       id="tspan60-1">−i</tspan></text>
  <text
     y="3.9640226"
     x="62.238857"
     style="font-size:5.28471px;font-family:'Liberation Serif';fill:#000000;stroke-width:0.621731"
     id="text66-5"><tspan
       style="font-size:5.28471px;stroke-width:0.16165px"
       y="3.9640226"
       x="62.238857"
       id="tspan64-5">∞</tspan></text>
  <path
     style="fill:#008000;stroke:#0abe02;stroke-width:0.5;stroke-linecap:butt;stroke-linejoin:miter;stroke-miterlimit:4;stroke-dasharray:none;stroke-opacity:1"
     d="m 63.48975,43.457305 19.406649,22.20377"
     id="path11391-5" />
  <path
     style="fill:none;stroke:#090ade;stroke-width:0.5;stroke-linecap:butt;stroke-linejoin:miter;stroke-miterlimit:4;stroke-dasharray:none;stroke-opacity:1"
     d="M 63.528967,43.491575 H 100.94912"
     id="path11882-8" />
  <path
     style="fill:none;stroke:#090ade;stroke-width:0.5;stroke-linecap:butt;stroke-linejoin:miter;stroke-miterlimit:4;stroke-dasharray:none;stroke-opacity:1"
     d="M 25.9501,43.475625 H 63.37025"
     id="path12075-2" />
  <circle
     style="font-family:'Liberation Serif';display:inline;fill:#000000;stroke-width:0.621731"
     cx="101.72687"
     cy="43.463512"
     r="0.96937221"
     id="circle12077-9" />
  <text
     y="47.549236"
     x="97.797173"
     style="font-size:3.70124px;font-family:'Liberation Serif';fill:#000000;stroke-width:0.621731"
     id="text12081-8"><tspan
       style="font-size:4.41429px;stroke-width:0.16165px"
       y="47.549236"
       x="97.797173"
       id="tspan12079-2">1</tspan></text>
  <text
     y="47.853458"
     x="19.951519"
     style="font-size:3.70124px;font-family:'Liberation Serif';fill:#000000;stroke-width:0.621731"
     id="text12087-0"><tspan
       style="font-size:4.41429px;stroke-width:0.16165px"
       y="47.853458"
       x="19.951519"
       id="tspan12085-7">−1</tspan></text>
  <text
     y="63.978725"
     x="73.648773"
     style="font-size:3.70124px;font-family:'Liberation Serif';fill:#000000;stroke-width:0.621731"
     id="text12091-4"><tspan
       style="font-size:4.41429px;stroke-width:0.16165px"
       y="63.978725"
       x="73.648773"
       id="tspan12089-8">−i</tspan></text>
  <circle
     style="font-family:'Liberation Serif';display:inline;fill:#000000;stroke-width:0.621731"
     cx="77.013458"
     cy="58.89555"
     r="0.96937221"
     id="circle12093-5" />
  <path
     style="fill:none;stroke:#090ade;stroke-width:0.5;stroke-linecap:butt;stroke-linejoin:miter;stroke-miterlimit:4;stroke-dasharray:none;stroke-opacity:1"
     d="M 16.044198,43.475625 H 44.473764"
     id="path2000" />
  <circle
     style="font-family:'Liberation Serif';display:inline;fill:#000000;stroke-width:0.621731"
     cx="25.913765"
     cy="43.431255"
     r="0.96937221"
     id="circle12083-8" />
  <path
     style="fill:#008000;stroke:#0abe02;stroke-width:0.5;stroke-linecap:butt;stroke-linejoin:miter;stroke-miterlimit:4;stroke-dasharray:0.5, 1.5;stroke-dashoffset:0;stroke-opacity:1"
     d="m 33.086396,8.7883117 5.912823,6.7650523"
     id="path2853" />
  <path
     style="fill:#008000;stroke:#0abe02;stroke-width:0.5;stroke-linecap:butt;stroke-linejoin:miter;stroke-miterlimit:4;stroke-dasharray:0.5, 1.5;stroke-dashoffset:0;stroke-opacity:1"
     d="m 82.896399,65.661075 5.91282,6.76505"
     id="path2912" />
  <path
     style="fill:none;stroke:#0001ff;stroke-width:0.5;stroke-linecap:butt;stroke-linejoin:miter;stroke-miterlimit:4;stroke-dasharray:0.5, 2;stroke-dashoffset:0;stroke-opacity:1"
     d="m 129.79469,43.491575 h 14.1223"
     id="path2914" />
  <path
     style="fill:none;stroke:#0001ff;stroke-width:0.5;stroke-linecap:butt;stroke-linejoin:miter;stroke-miterlimit:4;stroke-dasharray:0.5, 2;stroke-dashoffset:0;stroke-opacity:1"
     d="M 1.9218985,43.475625 H 16.044198"
     id="path3030" />
  <path
     d="m 78.374785,13.072128 a 2.9061441,11.451787 0 0 1 2.537801,5.861884 2.9061441,11.451787 0 0 1 -0.06097,11.589223 2.9061441,11.451787 0 0 1 -2.597272,5.44239"
     style="font-family:'Liberation Serif';fill:none;stroke:#000000;stroke-width:0.4;stroke-linecap:butt;stroke-linejoin:round;stroke-miterlimit:4;stroke-dasharray:none;stroke-opacity:1"
     id="path7148" />
  <ellipse
     style="fill:none;stroke:#000000;stroke-width:0.557121;stroke-miterlimit:4;stroke-dasharray:none;stroke-dashoffset:0;stroke-opacity:1"
     id="path12145"
     cx="105.61869"
     cy="43.531967"
     rx="22.049585"
     ry="10.144716" />
  <circle
     style="font-family:'Liberation Serif';display:inline;fill:#7c7c7c;fill-opacity:1;stroke-width:0.621731"
     cx="105.28919"
     cy="43.514965"
     r="0.96937221"
     id="circle12784" />
</svg>
